<svg width="7" height="7" viewBox="0 0 7 7" fill="none" xmlns="http://www.w3.org/2000/svg">
<path fill-rule="evenodd" clip-rule="evenodd" d="M1.8805 0.399C1.2135 0.749028 0.676741 1.30428 0.349501 1.98275C1.74925 1.6865 2.63675 1.34 3.199 1.01625C2.66625 0.635 2.207 0.46925 1.8805 0.399ZM4.146 0.0619998C3.9365 0.0230002 3.721 0 3.5 0C3.07083 0.000682831 2.64546 0.0805182 2.24525 0.2355C2.5775 0.3445 2.98175 0.536 3.43 0.872C3.9365 0.5315 4.09625 0.23125 4.146 0.0619998ZM4.98875 2.5415C5.62675 2.20075 6.05325 2.07675 6.40575 2.355C6.5385 2.46 6.74775 2.67675 6.94325 2.89025C6.82769 2.23513 6.52691 1.62681 6.0765 1.13725C5.51642 1.32473 4.97527 1.56463 4.46025 1.85375C4.64956 2.07259 4.82603 2.30223 4.98875 2.5415ZM4.07225 1.79375C3.86748 1.57259 3.64681 1.36671 3.412 1.17775C2.79775 1.55025 1.811 1.94175 0.2295 2.2625C0.078476 2.65764 0.000705719 3.07699 0 3.5C0 4.25525 0.241751 4.95275 0.6485 5.52475C1.082 4.64075 2.097 2.9995 4.07225 1.79375ZM3.63275 1.03425C3.86699 1.22782 4.08736 1.43759 4.29225 1.662C4.79962 1.37418 5.33215 1.13319 5.88325 0.942C5.46141 0.54848 4.94863 0.265633 4.39075 0.11875C4.332 0.334 4.15375 0.6685 3.63275 1.03425ZM4.77 2.666C4.60767 2.42796 4.43118 2.19988 4.2415 1.983C2.19725 3.215 1.2025 4.925 0.818001 5.747C1.37896 6.41618 2.17015 6.85106 3.03575 6.966C3.26 6.443 3.5995 5.56525 3.6095 5.01325C3.6245 4.188 4.02775 3.14025 4.77 2.666ZM6.2505 2.55125C6.03075 2.378 5.735 2.4295 5.125 2.75225C5.791 3.81675 6.03225 4.839 6.189 5.73925C6.7139 5.11123 7.00101 4.31849 7 3.5C7 3.45756 6.99719 3.41593 6.99437 3.37425V3.37423C6.99307 3.35503 6.99177 3.33581 6.99075 3.3165C6.75725 3.053 6.42475 2.6885 6.2505 2.55125ZM3.298 6.98975C3.529 6.4445 3.849 5.5895 3.8595 5.018C3.873 4.259 4.237 3.29975 4.9065 2.8755C5.60125 3.984 5.823 5.05025 5.976 5.974C5.3425 6.608 4.46725 7 3.50025 7C3.45006 7 3.40107 6.99664 3.35192 6.99328C3.33399 6.99205 3.31604 6.99082 3.298 6.98975Z" fill="url(#paint0_linear)"/>
<defs>
<linearGradient id="paint0_linear" x1="0.5" y1="6" x2="2.99964" y2="0.386594" gradientUnits="userSpaceOnUse">
<stop offset="0.00104003" stop-color="#EE4D7A"/>
<stop offset="0.225742" stop-color="#EF4C45"/>
<stop offset="0.538536" stop-color="#F4792B"/>
<stop offset="1" stop-color="#FAA634"/>
</linearGradient>
</defs>
</svg>
