<svg width="100%" height="100%" viewBox="0 0 150 150" version="1.1" xmlns="http://www.w3.org/2000/svg" xmlns:xlink="http://www.w3.org/1999/xlink">
    <g id="Page-1" stroke="none" stroke-width="1" fill="none" fill-rule="evenodd">
        <g id="BKN">
            <g id="Page-1">
                <g id="Group-3" transform="translate(26.000000, 25.107881)" fill="#FEFEFE">
                    <path d="M97.3114497,15.5708046 L97.3197298,11.1756859 L94.7253162,9.86515146 C93.9387121,9.47061162 75.1982141,0.153401505 49.3065187,0.153401505 L48.1362726,0.153401505 C22.1452167,0.153401505 3.49855924,9.47337064 2.7257552,9.86239244 L0.123061588,11.1729269 L0.131341631,15.4797569 C-0.0784194657,26.5185954 1.29606772,54.5585144 18.5213178,76.4292649 C32.5808313,94.2939186 46.0552217,98.5317732 47.5428695,98.9539032 L48.8373163,99.3236119 L50.126243,98.9621803 C50.7058461,98.7993981 64.472798,94.7795061 78.9159536,76.4292649 C96.1577637,54.5529964 97.5267309,26.6068841 97.3114497,15.5708046" id="Fill-1"></path>
                </g>
                <path d="M120.551987,40.6993783 C120.560267,39.7254442 120.560267,39.1763993 120.560267,39.1763993 L120.560267,37.9817437 L119.478342,37.4354578 C118.719338,37.051954 100.544643,28.0216819 75.3070707,28.0216819 L74.1368246,28.0216819 C48.9158128,28.0216819 30.7217976,37.051954 29.9655537,37.4354578 L28.880868,37.9817437 L28.880868,39.1763993 C28.880868,39.1763993 28.880868,39.7254442 28.8919081,40.6414388 C28.687667,51.3795442 30.0041939,78.6469376 46.6884811,99.8306922 C60.2208319,117.024904 72.9003382,121.011688 74.2996655,121.408987 L74.8433883,121.566251 L75.3815911,121.411746 C75.930834,121.26 88.8477015,117.488419 102.749894,99.8306922 C119.450742,78.6386606 120.764508,51.4071344 120.551987,40.6993783" id="Fill-4" fill="#2D2925"></path>
                <path d="M74.8425603,118.648311 C73.8158349,118.353096 61.7435318,114.642215 48.774224,98.1570708 C31.6786946,76.4573794 31.6041742,48.0422338 31.7338949,41.3488515 C31.7256149,40.4080258 31.7256149,39.8782939 31.7256149,39.8782939 C31.7256149,39.8782939 31.742175,39.8700169 31.7780552,39.8507038 L31.7780552,39.7955234 L32.1589371,39.6161871 C33.0669819,39.2023341 35.0900725,38.3166887 38.0212078,37.2655021 C45.3048859,34.6002889 58.3514741,30.859058 74.1415166,30.859058 L75.2924427,30.859058 C91.0548851,30.859058 104.065593,34.5809758 111.360311,37.24343 C114.324567,38.3056526 116.372497,39.1995751 117.286062,39.6161871 L117.666944,39.7900053 L117.666944,39.8507038 C117.697304,39.8700169 117.719384,39.8782939 117.719384,39.8782939 C117.719384,39.8782939 117.719384,40.4080258 117.708344,41.3488515 C117.840825,48.0422338 117.771825,76.4573794 100.670775,98.1570708 C87.6683474,114.675323 75.8306455,118.375168 74.8425603,118.648311 M101.55398,98.888211 C117.893265,78.1458996 119.179432,51.4303102 118.964151,40.9101674 C118.972431,39.9307153 118.972431,39.3899474 118.972431,39.3871884 L118.972431,38.9898895 L118.616389,38.8105533 C117.873945,38.4325675 100.077372,29.5926679 75.3034827,29.5926679 L74.1359966,29.5926679 C49.3814272,29.5926679 31.5738141,38.4325675 30.8230902,38.8105533 L30.4615283,38.9898895 L30.4615283,39.3871884 C30.4615283,39.3899474 30.4615283,39.9307153 30.4753283,40.8494689 C30.2738473,51.408238 31.565534,78.1541767 47.8910194,98.888211 C61.0866484,115.654775 73.3162723,119.506367 74.6659194,119.887111 L74.8480803,119.936774 L75.0247213,119.887111 C75.549124,119.743642 87.988509,116.107254 101.55398,98.888211" id="Fill-6" fill="#FEFEFE"></path>
                <path d="M106.320801,53.2904414 C100.248769,47.0109121 99.5477255,45.9928338 99.5477255,43.4103912 C99.5477255,40.8527798 100.665531,40.5106613 101.764017,40.5106613 C102.33258,40.5106613 103.036384,40.6265401 103.845068,40.8582978 C108.239011,42.1219289 108.239011,44.5195172 108.239011,46.296326 L108.239011,48.8456603 C108.239011,49.0470688 108.371492,49.2291641 108.561933,49.2953806 C109.621778,49.6568122 110.154461,49.8444255 111.266747,50.2555195 C111.410268,50.3079409 111.575868,50.2886277 111.702829,50.2030981 C111.83255,50.1092914 111.90707,49.9658224 111.90707,49.8085583 L111.90707,47.6785949 C111.90707,44.9885506 111.90707,40.4830711 104.049309,38.2289519 C98.5541203,36.6535515 95.7499456,38.3393127 95.7499456,43.106899 C95.7499456,47.0660925 98.1759983,49.4360906 102.200099,53.3621759 L103.011544,54.1567736 C107.783609,58.8333123 108.749614,60.3756044 108.749614,63.3415508 C108.749614,64.4037734 108.589533,65.1487088 108.261091,65.6149831 C107.921609,66.0895346 107.383406,66.3074971 106.563682,66.3074971 C105.926119,66.3074971 105.120195,66.1667871 104.16799,65.8936441 C102.075899,65.2921778 100.557891,64.4727489 99.6581261,63.4546706 C98.5596403,62.2186297 98.5596403,61.1702021 98.5596403,59.0788651 L98.5596403,56.8164688 C98.5596403,56.5929882 98.4050795,56.4026158 98.1925584,56.3529534 C97.0167923,56.0880875 96.4537493,55.9722087 95.3276634,55.7487281 C95.1896627,55.7238969 95.0433819,55.7597641 94.9329814,55.8480528 C94.8225808,55.9391004 94.7618605,56.0742924 94.7618605,56.2150024 L94.7618605,60.2210993 C94.7618605,63.9871614 97.8392766,66.8565421 103.673947,68.5202311 C105.318916,68.9920235 106.740323,69.2265402 107.902289,69.2265402 C112.470113,69.2265402 112.470113,65.5487667 112.470113,63.9788844 C112.470113,59.8375955 110.361462,57.4648384 106.320801,53.2904414 M94.091177,36.2590117 C88.2896266,35.196789 82.3611156,34.6229129 76.4712448,34.5566964 C76.3415242,34.5511784 76.2200835,34.6035998 76.1317631,34.6918884 C76.0406826,34.7856951 75.9910023,34.9043329 75.9910023,35.0312478 L75.9910023,36.852201 C75.9910023,37.1115488 76.1980034,37.3239933 76.4602048,37.3295114 C79.2202192,37.3598606 80.6416266,37.420559 83.2553603,37.6274855 L83.2553603,63.9678483 C83.2553603,64.2161601 83.4402813,64.4230866 83.6886826,64.4451587 C84.8423686,64.5362064 85.4026515,64.5913868 86.5646176,64.7155427 C86.5784177,64.7210607 86.6004978,64.7238197 86.6142979,64.7238197 C86.7329785,64.7238197 86.8433791,64.6796754 86.9316995,64.5996638 C87.03106,64.5086162 87.0917804,64.3817013 87.0917804,64.2437503 L87.0917804,37.9971942 C89.7137941,38.2924093 91.1517616,38.5076129 93.917296,39.0152725 C94.0580568,39.0428627 94.2043375,39.0014774 94.3092181,38.9104298 C94.4140986,38.8221411 94.477579,38.6869492 94.477579,38.5462392 L94.477579,36.7280451 C94.477579,36.4962874 94.3174981,36.300397 94.091177,36.2590117 M73.5621896,34.6035998 C68.6272838,34.6836113 63.6482178,35.1222955 58.7657523,35.9058571 C58.533911,35.9417244 58.3655502,36.1431328 58.3655502,36.3748905 L58.3655502,64.9335052 C58.3655502,65.0742152 58.4290305,65.2066482 58.533911,65.2976959 C58.6222315,65.3694304 58.7326321,65.4080566 58.8430327,65.4080566 C58.8651128,65.4080566 58.8927129,65.4080566 58.914793,65.4052976 C63.7310182,64.6327721 68.6438439,64.1968469 73.5207894,64.1140763 C73.7774707,64.1113173 73.9872318,63.8988728 73.9872318,63.6395249 L73.9872318,61.8599571 C73.9872318,61.7330422 73.9375516,61.6061273 73.8437111,61.5205976 C73.7553906,61.432309 73.6201499,61.3826467 73.5014693,61.3854057 C68.9364054,61.4626582 66.4965527,61.6337175 62.1329699,62.2020756 L62.1329699,50.9011302 C65.7541088,50.4320968 67.6695588,50.2748326 71.4590586,50.1368816 C71.71298,50.1258456 71.919981,49.913401 71.919981,49.6595712 L71.919981,47.9186297 C71.919981,47.7889557 71.8675408,47.6647998 71.7709403,47.5765112 C71.6798598,47.4882226 71.5556591,47.4358012 71.4231784,47.4440782 C67.7164791,47.5820292 65.7182286,47.7420524 62.1936902,48.1972907 L62.1936902,38.1544583 C66.6345534,37.5723051 68.9557255,37.409523 73.5787497,37.3350294 C73.8381911,37.3322704 74.0451921,37.1198259 74.0451921,36.860478 L74.0451921,35.0809102 C74.0451921,34.9512363 73.9927519,34.8270804 73.9044314,34.7415507 C73.8133509,34.6505031 73.6863903,34.6008407 73.5621896,34.6035998 M54.6505707,36.6507925 C53.5106848,36.8797911 52.9614419,36.998429 51.8463961,37.2550179 C51.6283549,37.3046802 51.4765541,37.5005706 51.4793142,37.7268103 L51.7083954,58.4994709 C51.7083954,59.8789808 51.7442755,61.1453709 51.7994758,62.2793281 C48.9925412,55.1031174 46.0614058,47.6730769 43.0861103,40.1519887 C42.9895098,39.917472 42.7300684,39.7933161 42.4871871,39.8760867 C40.8311785,40.4251317 40.0280143,40.7093107 38.3968458,41.3245722 C38.2146848,41.3907886 38.0904842,41.572884 38.0904842,41.7660153 L38.0904842,70.3273891 C38.0904842,70.4846532 38.1650045,70.6308813 38.2947252,70.7191699 C38.3720056,70.7743503 38.4686061,70.8046995 38.5679667,70.8046995 C38.6204069,70.8046995 38.6811272,70.7936634 38.7335675,70.7715913 C39.7409728,70.3908465 40.2488154,70.2087512 41.3224611,69.8335245 C41.5129021,69.7673081 41.6426227,69.5879718 41.6398627,69.3865633 C41.6012225,62.6269646 41.5625823,55.8701249 41.5294621,49.1188033 C41.5294621,47.3392355 41.507382,46.3459883 41.4494217,45.0878753 C44.380557,52.542747 47.234412,59.8403545 49.9419861,66.8234338 C50.0330666,67.0469145 50.2676678,67.1738294 50.5022691,67.1103719 C52.2410781,66.6827238 53.0939226,66.4923515 54.8382517,66.1419559 C55.0562929,66.0950526 55.2191337,65.9019212 55.2191337,65.6756816 L55.2191337,37.1170669 C55.2191337,36.9735978 55.1528934,36.8384059 55.0452528,36.7473582 C54.9320922,36.6590696 54.7858114,36.6232023 54.6505707,36.6507925" id="Fill-8" fill="#FEFEFE"></path>
                <path d="M90.7338954,101.296559 C90.457894,101.486932 90.1846525,101.68834 89.8782909,101.898026 C89.0778867,102.455348 88.2995627,102.92714 87.4660383,103.423764 C87.0823963,103.66104 86.6821942,103.895556 86.2709521,104.152145 C83.4281372,105.9124 80.0222794,107.860268 76.3707803,108.977671 C75.3136948,109.305994 74.3394097,109.54327 73.3927247,109.695016 C72.5122801,109.821931 71.6897958,109.888147 70.8700715,109.888147 L70.7127507,109.888147 C69.6335851,109.87987 68.5875396,109.777787 67.5828944,109.592932 C71.4027543,110.947611 75.6448965,111.240067 79.8704786,110.19164 C82.2882512,109.592932 84.5100629,108.599685 86.4724331,107.300187 C88.357523,105.82687 89.8810509,103.732774 90.8580961,101.205512 C90.8166958,101.235861 90.7780556,101.26621 90.7338954,101.296559 L90.7338954,101.296559 Z M71.3944743,108.820407 C73.820527,108.533469 75.8298175,107.920966 78.1178694,106.773214 C78.4518312,106.610432 78.7802729,106.439373 79.1059546,106.268313 C79.3847161,106.124844 79.6607175,105.978616 79.939479,105.837906 C81.8825291,104.822587 83.96634,103.718979 86.4862332,102.367059 C87.3721978,101.892508 88.2581625,101.384848 89.1165269,100.896502 L90.1239322,100.336421 C90.5130942,100.126735 90.8774162,99.9308446 91.2472581,99.707364 C91.2803783,99.6852919 91.3245385,99.6577017 91.3686987,99.6301115 C91.6916204,98.45201 91.9013815,97.1718248 91.997982,95.819905 C89.5222491,97.0587049 85.8017496,98.1457588 80.3452011,99.2410897 C73.3568445,100.628877 66.5202888,100.008097 60.4151369,97.4339316 C56.3137554,95.7067852 54.3762253,93.314715 53.5620211,91.9959035 C53.6669016,92.9339702 53.8297425,93.872037 54.0671037,94.8128628 C55.4139907,100.132253 58.6790878,104.477709 62.9571102,107.29191 L62.9377901,107.256042 L63.5394732,107.609197 C64.0252358,107.898894 64.6296789,108.149965 65.3390026,108.354132 C66.6720896,108.751431 67.9830965,108.947322 69.3575836,108.947322 C70.003427,108.947322 70.6768705,108.903177 71.3944743,108.820407 L71.3944743,108.820407 Z M93.1737482,99.8673872 C93.1571881,99.7818576 93.137868,99.7790985 93.0937077,99.7790985 C93.0274674,99.7790985 92.8811866,99.8094478 92.5831051,99.9998201 C92.5306648,100.041205 92.4727045,100.077073 92.4119842,100.118458 C92.3623039,100.151566 92.3098636,100.184674 92.2657034,100.217783 C91.7357806,101.622124 91.031977,102.949212 90.2260527,104.132832 C91.3962989,102.891273 92.4064641,101.511763 93.2372285,100.035687 L93.2096283,100.035687 L93.1737482,99.8673872 Z M93.9879524,94.5949002 C93.913432,94.6473216 93.8444317,94.6997429 93.7699113,94.7549233 C93.6539907,94.840453 93.53531,94.9287416 93.4083494,95.0142712 C93.3089889,96.3634319 93.0578276,97.6987976 92.6769456,98.9900189 C93.3448691,98.7555022 93.5739503,99.0258861 93.6429506,99.1803912 C93.6484706,99.2024634 93.6539907,99.2272946 93.6595107,99.2493667 C94.7607565,97.0890542 95.4866403,94.7411282 95.7874818,92.2966366 C95.448,93.1133065 94.8959972,93.9630846 93.9879524,94.5949002 L93.9879524,94.5949002 Z M93.4745897,93.4388709 C93.52703,93.4002446 93.5794703,93.3616183 93.6263905,93.3285101 C95.4148799,92.0869511 95.8758023,90.0701076 95.9392826,89.7390252 C95.9392826,88.047746 95.7322815,86.3316357 95.2934392,84.6182843 C95.2768792,84.5493088 95.2603191,84.4830924 95.238239,84.4141169 C95.0753981,85.9867582 94.299834,87.4435207 92.9308669,88.7457781 C93.2951888,90.3156604 93.4745897,91.8910607 93.4745897,93.4388709 L93.4745897,93.4388709 Z M61.6267832,96.0102774 C66.6665696,97.6712074 69.4652242,98.2036982 73.1443234,98.2036982 C74.4829304,98.2036982 76.0064584,98.1236866 77.9467485,97.9636635 C83.3204966,97.5001481 88.9868063,95.7260983 92.0311022,94.2500227 C92.0255822,92.7711881 91.8903414,91.2730403 91.6281401,89.7831695 C90.7256154,90.3294555 89.70441,90.5860443 88.4458434,90.5860443 C87.1817568,90.5860443 85.6527088,90.3460096 83.1714559,89.7500613 C80.2403205,89.0547883 76.0450986,86.5578753 72.3466793,84.3589365 C70.3180687,83.1477267 68.4026186,82.0054925 66.8156103,81.2246899 C60.7766988,78.2394304 57.3487608,78.6588014 56.4351961,78.8546918 C54.2796248,82.4386586 53.1949391,86.654441 53.4737006,90.9971383 C53.8794227,91.5765325 55.9466735,94.1396619 61.6267832,96.0102774 L61.6267832,96.0102774 Z M64.7069593,78.736054 C66.7604101,79.5941091 69.4541841,81.0370765 72.299759,82.5683326 C76.7903025,84.9797159 81.4354068,87.4766289 84.5790632,88.2574315 C87.3804779,88.9499455 89.6795699,88.8892471 91.2941783,88.0780953 C91.2886583,88.047746 91.2831383,88.0146378 91.2748582,87.9870476 C91.2555381,87.8684097 91.233458,87.7580489 91.1975778,87.6421701 C89.8341307,81.9199629 82.6691332,69.3912536 70.2601084,69.3912536 C69.7384656,69.3912536 69.2030228,69.4188438 68.6731001,69.4657472 C63.876195,70.8562932 59.9266143,73.8001674 57.2521603,77.6103738 C57.7048027,77.4669048 58.2982058,77.3372309 59.10413,77.3372309 C60.6193779,77.3372309 62.5044678,77.8062643 64.7069593,78.736054 L64.7069593,78.736054 Z M92.5196247,87.1786548 C92.8453064,86.8420543 93.0992278,86.4723457 93.2951888,86.0860829 C94.7938766,83.2056662 93.4497496,79.9776129 92.8867067,78.8546918 C88.7135648,71.9736962 80.8364837,67.920696 72.6226807,68.7097757 C81.1262852,69.167773 89.3649282,76.7743908 92.5196247,87.1786548 L92.5196247,87.1786548 Z" id="Fill-10" fill="#FEFEFE"></path>
                <path d="M83.0980395,94.0317842 C83.0980395,92.4839741 83.0980395,90.1829515 81.2653899,88.3978657 C81.4641109,88.0502291 81.6324718,87.6750024 81.7621925,87.2694265 C82.0685541,86.3479139 82.0933942,85.3381126 82.0768341,84.6814659 L82.0685541,80.4215392 L82.0685541,80.3553227 C82.0188738,78.7716453 81.7787526,77.0969202 80.4843058,75.6429168 C79.3223397,74.3351414 77.5752506,73.6481454 75.4279594,73.6481454 L69.6429691,73.6619405 C69.0136858,73.6619405 68.3871626,73.9074933 67.9262402,74.3682496 C67.4818778,74.8179698 67.2169164,75.4304722 67.2169164,76.0788419 L67.2721167,104.055303 C67.2721167,104.885768 67.697159,105.658294 68.4092427,106.085942 C68.8011647,106.323218 69.2482871,106.455651 69.7202495,106.455651 L75.6018403,106.444615 C77.7270514,106.439097 79.5045007,105.834871 80.8927879,104.640216 L80.912108,104.62918 C82.8523982,102.888238 83.0593993,100.838286 83.1090795,98.8766231 L83.1090795,98.854551 L83.0980395,94.0317842 Z" id="Fill-12" fill="#FEFEFE"></path>
                <path d="M75.3045867,87.1198876 C74.8077841,87.2605977 74.5676629,87.301983 73.4884972,87.3406092 L72.4148516,87.3433683 C72.2299307,87.3488863 72.1802504,87.2605977 72.1802504,87.1198876 C72.1802504,87.034358 72.1692103,78.1282419 72.1692103,78.1282419 C72.1692103,77.9847728 72.2188906,77.8992432 72.3706914,77.8826891 L74.0322201,77.8826891 L74.1674608,77.8826891 C74.9623449,77.9075203 75.8455496,77.9323515 76.4141125,78.282747 C76.6790739,78.4427701 76.8363947,78.6359015 76.9329952,78.8924904 C77.0102756,79.1601153 77.0875561,79.6236306 77.1317163,80.4154694 L77.1427563,83.8973524 C77.1317163,83.9552919 77.1317163,84.0463395 77.1317163,84.1622183 C77.1041161,85.0616588 77.0875561,86.5873968 75.3045867,87.1198876 L75.3045867,87.1198876 Z M77.3359574,101.646127 C76.9026351,101.952378 76.3782323,102.131715 75.0313453,102.181377 C75.0313453,102.181377 72.7212132,102.186895 72.5418123,102.186895 C72.3348112,102.186895 72.2520108,102.05998 72.2520108,101.861331 C72.2520108,100.159016 72.2299307,90.778348 72.2299307,90.6983364 C72.2299307,90.6100478 72.2520108,90.4914099 72.4314117,90.4914099 C72.6052926,90.4914099 73.5933778,90.4803739 73.5933778,90.4803739 C74.8188242,90.5410723 76.0994709,90.634879 76.9329952,91.1618518 C77.4132378,91.4543079 77.7389195,91.8626428 77.9459205,92.4116878 C78.1308415,92.9745278 78.1667217,93.5953073 78.1667217,94.1747015 L78.1750017,98.3132313 C78.1750017,100.200401 78.0563211,101.088805 77.3359574,101.646127 L77.3359574,101.646127 Z M81.5974196,94.2243638 C81.5974196,92.6572405 81.5974196,90.7452398 79.9690111,89.396079 C79.6295293,89.1119 79.2210472,88.8663472 78.7380447,88.6704568 C79.4915286,88.1627972 80.0076513,87.4647651 80.2919328,86.5873968 C80.5541342,85.8010761 80.5403341,84.8299012 80.5320541,84.4491564 L80.521014,80.0071344 C80.4768538,78.7766115 80.3443731,77.3750295 79.3480079,76.2383133 C78.4675633,75.2616202 77.1317163,74.7594786 75.4370674,74.7649967 L69.4064359,74.7815508 C69.227035,74.7815508 69.0586741,74.8505263 68.9206734,74.9857182 C68.7854326,75.1126332 68.7247123,75.2836924 68.7247123,75.4602697 L68.7771526,104.653459 C68.7771526,104.885217 68.8958332,105.116974 69.1000743,105.235612 C69.2132349,105.304588 69.3457156,105.343214 69.4837163,105.343214 L75.6219884,105.32666 C76.2705918,105.32666 78.2716022,105.321142 79.938651,103.900247 C81.4152587,102.564881 81.5642995,100.989481 81.6084597,99.2181898 L81.5974196,94.2243638 Z" id="Fill-14" fill="#2D2925"></path>
                <rect id="Rectangle" x="0" y="0" width="150" height="150"></rect>
            </g>
        </g>
    </g>
</svg>