<svg width="100%" height="100%" viewBox="0 0 150 150" version="1.1" xmlns="http://www.w3.org/2000/svg" xmlns:xlink="http://www.w3.org/1999/xlink">
    <g id="Page-1" stroke="none" stroke-width="1" fill="none" fill-rule="evenodd">
        <g id="BOS">
            <g id="Page-1">
                <g id="Group-3" transform="translate(25.000000, 20.181993)">
                    <mask id="mask-2" fill="white">
                        <use xlink:href="#path-1"></use>
                    </mask>
                    <g id="Clip-2"></g>
                    <path d="M99.8709037,52.071489 C99.8709037,38.7421806 94.6762669,26.209147 85.2440456,16.7782673 C77.2916596,8.8293435 67.2647382,3.92174707 56.1977829,2.54762007 C56.0373522,2.42596698 55.8713894,2.30984357 55.6998944,2.19924985 C50.8150549,-0.944376715 46.5332137,1.16519854 44.2373944,2.30154904 L43.7367399,2.54485523 C40.3151394,2.97064106 36.9433277,3.75309165 33.6793919,4.87838277 C33.5189611,4.70419766 33.3529983,4.53001255 33.1842694,4.36135712 C30.3822635,1.55780626 26.6591639,0.0177886703 22.6954181,0.0177886703 C14.5162162,0.0177886703 7.86110642,6.67000107 7.86110642,14.845642 C7.86110642,17.5192452 8.5498522,20.0629009 9.8720228,22.3134831 C3.49351774,30.8844966 0,41.3715463 0,52.071489 C0,65.4035622 5.19463682,77.9393607 14.6268581,87.3674755 C18.7344383,91.4732674 23.4339527,94.7855494 28.6119932,97.2296707 C28.6147593,98.1420689 28.7032728,98.9881109 28.8747677,99.7456779 C28.6673142,100.074694 28.4875211,100.450713 28.3575169,100.884793 C27.1293919,103.135375 28.2800676,105.620969 31.9201858,108.388577 C34.1357897,110.083426 35.8590372,110.373735 37.2835515,110.373735 C37.6680321,110.373735 38.0331503,110.351616 38.3789062,110.332262 L38.8961571,110.304614 C41.3966639,110.202314 43.4380068,108.499171 44.9814611,106.702023 L47.3934544,106.339829 C48.3781672,106.193292 49.5979941,105.952751 51.1912373,105.280894 C53.6142948,104.260667 54.6017736,102.878245 54.9779561,101.7336 C60.7921875,101.161278 66.3574747,99.5991412 71.5853041,97.0776043 C71.7319046,97.8821736 71.8840372,99.0046999 72.0085093,100.453478 C72.1772382,102.43034 72.520228,103.785114 73.3998311,106.613548 C74.1466639,109.018961 75.3996833,110.124899 77.1505912,109.912006 C77.9527449,109.812471 79.8364231,109.22356 80.0162162,105.742622 C80.063239,104.799811 80.1877111,102.292098 80.0798353,100.384357 C79.9277027,97.788169 80.0438767,96.0103749 80.1738809,95.5790594 C80.4338894,94.7523713 80.6634713,93.3008287 79.8419552,92.0511196 C81.7532939,90.6189309 83.5622889,89.0485001 85.2440456,87.3674755 C94.6762669,77.9365958 99.8709037,65.4035622 99.8709037,52.071489" id="Fill-1" fill="#FEFEFE" mask="url(#mask-2)"></path>
                </g>
                <path d="M122.104856,72.2540354 C122.104856,59.6601752 117.197889,47.8211172 108.28845,38.9155577 C100.593307,31.2237643 90.7102196,26.5207663 80.0415752,25.3816509 C79.7926309,25.1355799 79.5160262,24.9088628 79.2034628,24.7070292 C75.4250422,22.279497 72.2717483,24.0821747 70.089337,25.1438744 C69.9316723,25.2185252 69.7463471,25.309765 69.5416596,25.4148291 C65.4285473,25.8848524 61.4730997,26.8884904 57.75,28.3510924 C57.3101985,27.6930597 56.8012458,27.0709701 56.228674,26.4958827 C53.949451,24.217652 50.9178632,22.9651781 47.6954181,22.9651781 C41.0403083,22.9651781 35.6271537,28.375976 35.6271537,35.0281884 C35.6271537,37.8151502 36.5676098,40.4555753 38.2991554,42.592799 C31.7159628,50.6993189 27.7660473,61.0232428 27.7660473,72.2540354 C27.7660473,84.8478955 32.6730152,96.6897183 41.5824535,105.592513 C45.9334459,109.941611 50.9870144,113.334074 56.4831503,115.670366 C56.1761191,118.16149 56.582728,119.853573 57.0363598,120.544784 C56.344848,121.128166 56.051647,121.493125 55.9437711,122.148393 C54.8484164,123.644173 57.5121199,125.538091 58.6047086,126.375838 C60.850739,128.095571 62.0318412,127.796968 63.7799831,127.725082 C65.940266,127.633842 67.9733108,125.101246 69.1405828,123.461694 C71.4723606,123.132677 71.9121622,123.497637 71.9840794,123.787945 C72.7143159,123.680116 73.7349873,123.497637 75.118011,122.914255 C78.2713049,121.58713 77.3778716,119.964167 77.051478,119.671094 C76.9684966,119.596443 76.8965794,119.491379 76.8301943,119.364196 C84.3095861,119.068358 91.4764147,117.041728 97.871516,113.475081 C98.0983319,113.726681 98.3334459,114.014225 98.5630279,114.351536 C99.2545397,115.371763 99.6196579,118.68681 99.7634924,120.398248 C99.9100929,122.11245 100.203294,123.279214 101.041406,125.974936 C101.876753,128.673423 102.205912,126.704855 102.244637,125.974936 C102.280595,125.247782 102.427196,122.623946 102.316554,120.727264 C102.205912,118.833346 102.169954,116.098917 102.535072,114.934918 C102.90019,113.768154 102.244637,113.475081 102.062078,113.259423 C101.876753,113.038235 102.062078,112.966349 101.586318,111.473334 C101.561423,111.390389 101.539295,111.301914 101.522698,111.213439 C103.920861,109.568357 106.186254,107.693794 108.28845,105.592513 C117.197889,96.6897183 122.104856,84.8478955 122.104856,72.2540354" id="Fill-4" fill="#FEFEFE"></path>
                <path d="M122.104856,72.2540354 C122.104856,59.6601752 117.197889,47.8211172 108.28845,38.9155577 C100.593307,31.2237643 90.7102196,26.5207663 80.0415752,25.3816509 C79.7926309,25.1355799 79.5160262,24.9088628 79.2034628,24.7070292 C75.4250422,22.279497 72.2717483,24.0821747 70.089337,25.1438744 C69.9316723,25.2185252 69.7463471,25.309765 69.5416596,25.4148291 C65.4285473,25.8848524 61.4730997,26.8884904 57.75,28.3510924 C57.3101985,27.6930597 56.8012458,27.0709701 56.228674,26.4958827 C53.949451,24.217652 50.9178632,22.9651781 47.6954181,22.9651781 C41.0403083,22.9651781 35.6271537,28.375976 35.6271537,35.0281884 C35.6271537,37.8151502 36.5676098,40.4555753 38.2991554,42.592799 C31.7159628,50.6993189 27.7660473,61.0232428 27.7660473,72.2540354 C27.7660473,84.8478955 32.6730152,96.6897183 41.5824535,105.592513 C45.9334459,109.941611 50.9870144,113.334074 56.4831503,115.670366 C56.1761191,118.16149 56.582728,119.853573 57.0363598,120.544784 C56.344848,121.128166 56.051647,121.493125 55.9437711,122.148393 C54.8484164,123.644173 57.5121199,125.538091 58.6047086,126.375838 C60.850739,128.095571 62.0318412,127.796968 63.7799831,127.725082 C65.940266,127.633842 67.9733108,125.101246 69.1405828,123.461694 C71.4723606,123.132677 71.9121622,123.497637 71.9840794,123.787945 C72.7143159,123.680116 73.7349873,123.497637 75.118011,122.914255 C78.2713049,121.58713 77.3778716,119.964167 77.051478,119.671094 C76.9684966,119.596443 76.8965794,119.491379 76.8301943,119.364196 C84.3095861,119.068358 91.4764147,117.041728 97.871516,113.475081 C98.0983319,113.726681 98.3334459,114.014225 98.5630279,114.351536 C99.2545397,115.371763 99.6196579,118.68681 99.7634924,120.398248 C99.9100929,122.11245 100.203294,123.279214 101.041406,125.974936 C101.876753,128.673423 102.205912,126.704855 102.244637,125.974936 C102.280595,125.247782 102.427196,122.623946 102.316554,120.727264 C102.205912,118.833346 102.169954,116.098917 102.535072,114.934918 C102.90019,113.768154 102.244637,113.475081 102.062078,113.259423 C101.876753,113.038235 102.062078,112.966349 101.586318,111.473334 C101.561423,111.390389 101.539295,111.301914 101.522698,111.213439 C103.920861,109.568357 106.186254,107.693794 108.28845,105.592513 C117.197889,96.6897183 122.104856,84.8478955 122.104856,72.2540354" id="Fill-6" fill="#2D2925"></path>
                <path d="M63.7805363,116.24573 C65.5314443,116.173844 67.973864,115.626405 69.085815,115.150852 C69.2324155,115.18956 69.4675296,115.336096 69.8354139,115.479868 C69.9792483,114.313104 69.2324155,111.891102 68.8119764,110.779635 C68.5353716,110.041422 68.264299,109.540985 67.9379054,108.775124 C66.9531926,108.592644 65.7305997,108.064559 64.8565287,107.702365 C64.8565287,108.393575 64.9837669,110.196253 65.1303674,111.39896 C64.7652492,111.434903 64.2535304,111.473611 63.6339358,111.473611 C63.7086191,112.784146 63.8552196,115.150852 63.7805363,116.24573" id="Fill-8" fill="#007940"></path>
                <path d="M96.7753315,112.383244 C96.4461719,112.054228 97.1764084,111.034001 97.505568,109.140083 C97.8319616,107.246166 97.8679202,104.072126 96.4821305,102.288802 C95.8072149,101.420641 95.4808214,100.870438 95.3674134,100.480595 C91.0496136,103.621456 86.101155,105.703383 80.8428991,106.599192 C80.77928,106.709786 80.7184269,106.806556 80.6603399,106.881206 C79.8941448,107.86549 78.4004793,109.28662 77.3051246,109.867237 C76.2125359,110.450619 74.9373881,110.890229 74.2431102,111.108651 C74.0992758,112.27265 73.9084185,114.874368 74.2071516,115.772942 C74.3177935,116.099193 75.6648585,116.900998 76.1406187,117.777453 C76.1904075,117.868693 76.2318982,117.957168 76.276155,118.045643 C83.7168222,117.829985 90.7176879,115.836533 96.8666111,112.468954 C96.8334185,112.441306 96.8002259,112.408128 96.7753315,112.383244" id="Fill-10" fill="#007940"></path>
                <path d="M107.342462,39.8608576 C100.156271,32.6777953 91.0006546,28.1766308 81.0926731,26.852271 C81.8892948,28.4227018 82.0110008,30.2281443 82.0829181,31.3755542 C83.5046664,30.7562294 84.5972551,30.427213 85.180891,29.4816367 C85.764527,28.5332956 86.5666807,28.7157752 87.0783995,29.406986 C87.5873522,30.0981967 87.5873522,30.974652 86.2402872,31.8123994 C84.8904561,32.6501469 83.9057432,33.0510491 83.6125422,33.1975858 C83.3221073,33.3413576 83.5765836,33.598488 83.9057432,34.145927 C84.2321368,34.690601 85.0674831,36.0426093 85.2168497,38.8821031 C85.2196157,38.9097516 85.2196157,38.9374 85.2223818,38.9650484 C90.5802154,40.6128949 95.4927154,43.5546879 99.5698691,47.6300666 C106.153062,54.2103931 109.77935,62.9583565 109.77935,72.2620534 C109.77935,77.606495 108.578885,82.7656922 106.316258,87.4355121 C106.617758,87.5931082 107.024367,88.6492782 107.165435,90.045524 C107.237352,90.7726777 107.201394,91.5744822 106.982876,92.0859781 C106.764358,92.5947093 105.043877,95.1770727 104.175338,95.9484639 C103.846178,96.2415373 103.079983,96.2055943 102.75359,95.7300413 C102.427196,95.2572531 102.388471,95.5116187 102.133995,95.7659843 C101.876753,96.0203498 101.002682,97.2949425 100.78693,97.6239588 C100.565646,97.9529751 99.8354096,98.2792266 100.31117,99.5925271 C100.78693,100.905828 101.331841,101.887347 101.149282,102.617265 C100.966723,103.347184 100.894806,103.565607 101.876753,104.403354 C102.864231,105.241101 102.828273,106.261329 102.388471,106.916596 C102.114633,107.328558 101.683129,108.423436 101.517166,109.554257 C113.159459,101.237609 120.76609,87.6179918 120.76609,72.2537589 C120.76609,60.0165635 116.00019,48.5120515 107.342462,39.8608576" id="Fill-12" fill="#007940"></path>
                <path d="M54.7029223,106.078019 C54.5756841,104.844899 54.3875929,102.613671 55.2505997,101.021121 C53.4913936,99.812885 51.8289992,98.4359932 50.2855448,96.8932108 C43.7023522,90.3128843 40.0788302,81.5676857 40.0788302,72.2612239 C40.0788302,62.2994944 44.2859882,53.2999302 51.0157812,46.9463209 C51.0794003,46.8108436 51.1596157,46.6808959 51.2591934,46.556478 C50.1195819,46.9076131 48.9218834,47.0900927 47.6937584,47.0900927 C44.4851436,47.0900927 41.4646199,45.8431485 39.188163,43.5815069 C32.6547593,51.6880267 29.1031546,61.6967586 29.1031546,72.2529294 C29.1031546,84.4901248 33.8718201,95.9946368 42.5267821,104.648596 C46.675853,108.79586 51.4832432,112.047316 56.7110726,114.311722 C56.9129941,113.335732 57.2144932,112.268503 57.6570608,111.107269 C58.0581377,110.051099 57.4385431,107.609742 56.4151056,106.332385 C55.8701943,106.188613 55.1786824,106.113962 54.7029223,106.078019" id="Fill-14" fill="#007940"></path>
                <path d="M66.8561043,27.1500446 C63.9628188,27.6615405 61.1414506,28.4495208 58.4224261,29.4946315 C59.296497,31.1867154 59.763959,33.0695736 59.763959,35.0270824 C59.763959,37.6232701 58.9479751,40.0922749 57.4404793,42.1437885 C59.9631144,40.6756568 62.684905,39.5116579 65.5560621,38.7098534 C65.7413872,38.5273738 65.9267124,38.3504238 66.1148036,38.1900629 C65.0581736,36.4399173 63.6336592,33.6336015 64.8756144,29.8430017 C65.2241364,28.7757723 65.9930976,27.8771983 66.8561043,27.1500446" id="Fill-16" fill="#007940"></path>
                <path d="M85.1817209,40.9587767 C86.2023923,41.4702727 87.3420038,42.5789748 86.8939041,44.6387829 C86.711345,45.4765303 86.0115351,46.2838645 85.947916,46.6073511 C85.8400401,47.15479 84.6893644,48.0837773 84.3242462,48.810931 C83.961894,49.5353199 83.9065731,50.1491151 84.0116829,50.4615423 C84.0116829,50.4643072 84.0144489,50.467072 84.0144489,50.467072 C84.5980849,51.0172758 85.9091913,51.7444295 86.6394278,51.9987951 C87.2092335,52.2006286 87.1705089,52.352695 86.9298628,52.7287137 C87.3309396,52.7646566 87.5383932,53.0134925 87.9173416,53.4586322 C88.3156524,53.9314204 89.3750486,53.6411119 90.0306018,53.3120955 C90.686155,52.9858441 91.5242673,52.8752503 92.1825866,53.6770548 C92.8381398,54.4788593 93.8228526,55.9718746 94.2958467,57.3570609 C94.7716068,58.7422473 95.2805595,59.8730681 95.4271601,60.0914907 C95.5709945,60.3099133 94.9154413,64.3189358 94.7328822,65.9225447 C94.5503231,67.5233889 94.4064886,68.2173645 94.3677639,68.47173 C94.3318053,68.7260956 95.3884354,67.5620967 95.4271601,68.9445182 C95.4548205,70.0504554 95.9720714,73.5922194 96.5667715,76.2160555 C96.7189041,76.8823826 96.8738028,77.4906481 97.0287014,77.9827902 C97.468503,78.0546761 97.8308552,78.9311313 98.0880976,80.2776099 C98.3425739,81.6268533 98.8902513,82.4646008 98.9262099,83.1226334 C98.9621685,83.7779012 99.1447276,83.8857301 99.3632454,83.9963238 C99.5817631,84.1041527 99.5098459,84.433169 98.8542927,85.1962657 C98.9981271,85.3068594 99.2166448,85.5280469 99.3632454,85.6718187 C99.5458045,85.4893391 100.054757,84.908722 100.054757,84.908722 C100.054757,84.908722 102.060141,85.7077617 102.499943,85.8542984 C102.936978,85.9980702 103.456995,84.9197814 104.759804,85.4893391 C105.113858,85.6441703 105.509402,86.1390772 105.788773,86.6229247 C107.832882,82.2572375 108.97526,77.3911138 108.97526,72.2623299 C108.97526,63.1715259 105.431953,54.625396 99.0036592,48.1971359 C95.0786381,44.2738236 90.3652935,41.4315649 85.2204455,39.8058372 C85.2066153,40.3062738 85.1817209,40.7818268 85.1817209,40.9587767" id="Fill-18" fill="#FEFEFE"></path>
                <path d="M95.7167652,98.280609 C95.2078125,98.0262435 94.8758868,98.3939676 94.6241765,96.3866915 C94.5494932,95.8033096 94.0792652,95.0374481 93.714147,94.6752537 C93.3490287,94.3075295 93.304772,93.6273782 93.4928632,93.0329369 C93.7832981,92.1205387 93.8607475,91.2855561 93.8220228,90.5556375 C93.7832981,89.8257189 93.9298986,88.9160856 94.9505701,88.4764755 C94.5882179,88.0783381 94.4056588,87.5668422 94.2950169,87.1659399 C92.8013514,86.6737979 92.5026182,86.6323252 92.198353,85.9079363 C91.6894003,84.6941702 91.376837,82.9219058 91.2247044,81.9569756 C91.1500211,81.4814226 91.1002323,81.0390477 91.0891681,80.6436751 C90.6078758,79.7395715 89.5457137,77.7267657 88.7241976,76.2171614 C88.4226985,75.6503686 88.1488598,75.1582265 87.9524704,74.8126211 C87.222234,73.5380285 87.9524704,71.8597687 88.3175887,70.8754846 C88.6827069,69.8939653 88.9731419,69.0175101 88.6439823,68.0332259 C88.3175887,67.0517067 88.3175887,66.8305192 88.2429054,66.4323818 C88.1709882,66.0287147 87.8418285,65.5199836 87.4075591,66.90517 C86.9677576,68.2903563 86.1296453,70.3308105 85.6566512,72.4459155 C85.3855785,73.6430925 85.2002534,74.9508633 85.2611064,76.2171614 C85.3081292,77.1793268 85.5017525,78.1166086 85.9111275,78.9654154 C86.8571157,80.9339837 87.9884291,82.7560152 87.8418285,83.8508931 C87.6979941,84.9430061 87.457348,84.9817139 87.4407517,85.1614287 C87.2581926,87.2765336 86.348163,91.321499 85.8751689,92.485498 C85.3994088,93.6522617 83.540625,97.8797068 83.1395481,99.6657954 C82.8325169,101.034393 81.9888725,103.962362 81.2697002,105.698683 C86.7243454,104.667396 91.725359,102.333869 95.9325169,99.0298815 C96.056989,98.7229839 96.0348606,98.4382051 95.7167652,98.280609" id="Fill-20" fill="#FEFEFE"></path>
                <path d="M55.199981,50.4612659 C55.6038239,50.986586 56.1293729,51.4676687 56.8181187,51.8188038 C58.6049852,52.7284372 58.9701035,53.3864698 58.9701035,54.951371 C58.9701035,56.519037 59.2605384,59.726255 59.7722572,60.2736939 C60.0986508,59.9446776 60.463769,59.4718894 60.5356862,59.3253527 C61.047405,60.2736939 62.0763746,62.0266044 63.7083425,63.1159526 C63.8189844,63.1878385 63.7691955,63.5915056 64.0347361,63.6606266 C64.5824134,63.8071633 68.1201879,64.3546022 68.2280638,65.0845208 C68.9583003,64.3546022 70.1255722,62.5325707 70.3440899,61.9132458 C70.5626077,61.293921 71.8377555,59.3253527 72.7865097,58.2332397 C72.7865097,57.7936297 72.7865097,57.5392641 72.8224683,57.4314352 C72.567992,57.6498578 72.1669151,58.1945319 71.5832791,58.4516623 C70.9996432,58.7060279 68.9583003,59.5797183 67.5005933,60.3096368 C66.9888746,60.5640024 66.078845,60.8570758 65.7137268,58.1945319 C65.3486085,55.5347529 65.7137268,54.1495665 65.9682031,53.5302417 C66.2226795,52.9109168 66.6984396,52.3662427 67.6112352,52.6206083 C68.5212648,52.8749739 69.9789717,53.4224128 70.3800486,53.4224128 C70.4519658,53.1293394 70.7092082,52.5846653 69.7244954,52.4740716 C69.0219193,52.396656 67.1963281,51.8768655 66.1618264,50.4612659 C65.7441533,49.894473 65.4537183,49.1783787 65.4205258,48.2825695 C63.3432242,48.6115859 58.5662606,49.2309107 57.5096305,49.4852763 C56.4530004,49.7424067 55.5568011,49.9580644 55.2138112,47.5554158 C55.0672107,46.5351887 54.8127344,45.1140594 55.5429709,45.6227905 C56.1266068,45.1859453 56.9342927,44.6716845 58.3477428,44.8956368 C58.6077513,44.9343446 58.9313788,45.1527672 59.0337226,45.3546007 C59.1111719,45.7085006 58.9590393,46.2863528 58.7875443,46.8254972 C58.4722149,47.8014868 57.8581524,48.5009921 59.8441744,48.0475579 C61.924242,47.56924 64.5658171,47.1711026 65.257329,47.0273308 C65.3486085,46.3167661 65.9322445,45.2218883 66.6237563,44.4200838 C67.3208003,43.6155144 67.4259101,42.9630115 67.4646347,42.7086459 C67.5005933,42.4542804 67.2599472,42.3962187 66.9169573,42.7086459 C66.5158805,43.0708404 65.3126499,43.8007589 64.1813366,43.5104504 C63.7443011,43.3970918 63.1993898,42.5621092 62.9061888,42.0893211 C63.1468349,41.5888845 63.7498332,40.7234886 64.4938999,39.852563 C60.6131356,41.0967424 56.9785494,43.0376622 53.7478062,45.614496 C53.7284438,46.0181631 53.7809987,46.9582097 54.0465393,47.992261 C54.2263323,48.6862366 54.558258,49.6262833 55.199981,50.4612659" id="Fill-22" fill="#FEFEFE"></path>
                <path d="M57.7300845,100.248071 C59.22375,99.6646895 60.4020861,99.6923379 61.5582939,101.232355 C61.8846875,101.669201 62.1419299,102.946558 64.9494679,101.815737 C63.4530363,100.029649 62.556837,97.9145438 61.740853,95.07505 C60.449109,90.5877097 57.528163,85.4893391 58.6041554,83.1585764 C57.9845608,82.5724297 57.2570904,80.3135529 56.4908953,80.5706833 C55.9764105,80.7421036 55.2517061,80.7531629 55.832576,79.0389602 C56.0953505,78.2703339 56.5296199,77.3358169 57.3456039,76.2160555 C58.346913,74.850223 59.92356,73.2051414 62.4683235,71.2421028 C62.6868412,71.0596232 62.7255659,70.9158513 62.5789654,70.7665498 C62.321723,70.5121842 62.0672466,70.2218757 61.8127703,70.075339 C61.5582939,69.9288023 61.3010515,70.0034531 61.0825338,70.2218757 C60.864016,70.4402983 60.4988978,70.6946639 60.2803801,70.8412006 C60.0618623,70.9849724 58.3137204,69.2735345 57.4009248,68.0348848 C56.4908953,66.7962352 55.542141,66.3953329 55.2517061,66.2487962 C55.6140583,65.847894 56.4383404,64.9797333 56.125777,65.0847973 C55.5780997,65.2645121 54.6210473,65.3861652 53.6473986,64.3548787 C52.4441681,63.0802861 52.9171622,62.4222534 52.6626858,62.2397738 C52.4054434,62.0572941 51.094337,62.3503675 50.1096242,60.8186445 C49.1249113,59.2896862 48.7321326,58.6233591 49.5259882,57.5395406 C49.927065,56.9921017 50.0736655,56.7377361 49.9657897,56.0465253 C49.8551478,55.3525497 49.9657897,54.9157045 50.8758193,54.0420141 C51.7886149,53.1655589 52.3335262,52.3637544 52.734603,52.4384051 C53.0526985,52.4964668 52.1316047,51.3379976 51.5728632,50.4615423 C51.4290287,50.2265307 51.3073226,50.0164026 51.2409375,49.850512 C51.097103,49.4966121 50.8675211,48.8911115 50.8149662,48.2386085 C44.4088007,54.661339 40.8793243,63.1908798 40.8793243,72.2623299 C40.8793243,81.350369 44.4226309,89.8964989 50.8536909,96.324759 C52.3611867,97.8343634 53.9876225,99.1808419 55.7081039,100.36143 C56.4577027,99.5513309 57.3456039,99.8637582 57.7300845,100.248071" id="Fill-24" fill="#FEFEFE"></path>
                <path d="M38.3566892,28.3770819 C41.3467863,29.1429434 43.5845186,31.5566514 44.5692314,32.9058949 C44.8209417,33.2487354 45.0781841,33.1962034 45.188826,32.9418378 C45.421174,32.3999286 45.8443792,30.6470181 45.8443792,29.2977747 C45.8443792,26.2370934 46.2648184,25.0260921 47.0310135,23.6049628 C43.4545144,23.8012667 40.3150507,25.6398873 38.3566892,28.3770819" id="Fill-26" fill="#9A3820"></path>
                <path d="M36.5515667,37.7537707 C42.1666427,38.2625018 43.9120186,35.1299346 44.2771368,34.6543816 C44.639489,34.1815934 44.2052196,33.8885201 44.0226605,33.6341545 C43.0517779,32.2766166 40.8776647,29.873968 37.8875676,29.1081064 C36.8392356,30.8361333 36.2251731,32.8544688 36.2251731,35.0248706 C36.2251731,35.9649172 36.335815,36.8800803 36.5515667,37.7537707" id="Fill-28" fill="#9A3820"></path>
                <path d="M58.8273754,37.5347951 C56.4568729,36.550511 53.6465688,37.4601443 51.6411845,39.21029 C49.6358003,40.9576708 48.6151288,42.3013845 47.923617,46.4569437 C47.8378695,46.4597085 47.752122,46.4597085 47.6663746,46.4597085 C44.6984058,46.4597085 42.0015097,45.3288877 39.9656989,43.473678 C43.3928315,42.5972227 46.2833509,41.0323216 49.5251584,37.9716403 C52.7724979,34.910959 54.3768053,31.3387818 54.8138408,29.6632869 C55.2508763,27.9850272 54.6312817,28.9693113 54.302122,29.7351728 C53.7959354,30.9185257 52.1141786,34.1091546 48.7976879,37.2057788 C45.4811972,40.302403 42.9309016,41.8313612 39.4678104,42.998125 C38.3116026,41.8120073 37.4209354,40.3715241 36.8649599,38.7734448 C38.0322318,38.8453307 41.7083087,38.4223097 43.5477302,36.9154703 C45.9652555,34.9330778 46.2446263,32.5774315 46.5737859,29.2236769 C46.9001795,25.8726871 47.3953019,24.8745787 48.1946896,23.5999861 C54.2689295,23.8764704 59.1067462,28.8836012 59.1067462,35.0243176 C59.1067462,35.8869486 59.0099345,36.7274609 58.8273754,37.5347951" id="Fill-30" fill="#9A3820"></path>
                <path d="M58.5109396,38.681099 C57.9632622,37.9152375 56.0131989,37.5475134 52.917992,39.4829035 C52.624791,39.6653832 52.4256356,39.7925659 52.7713915,40.1381713 C53.4269447,40.796204 54.4144236,42.0348537 55.1059354,43.7131134 C56.6549219,42.3859887 57.8443222,40.655197 58.5109396,38.681099" id="Fill-32" fill="#9A3820"></path>
                <path d="M54.1920334,44.4195308 C53.5364802,42.8159218 52.9888028,41.6519229 52.3719742,40.8501184 C52.0372825,40.4160381 51.9708974,40.2307936 51.3485367,40.7782325 C49.6252893,42.2961313 48.9614379,44.6020105 48.5963197,46.4212772 C50.6653231,46.2553866 52.5794278,45.5392922 54.1920334,44.4195308" id="Fill-34" fill="#9A3820"></path>
                <path d="M51.0583784,57.2116302 C50.5853843,57.0650935 50.220266,57.6125324 50.0017483,58.0493776 C49.7804645,58.4862228 49.5259882,58.9617759 50.220266,59.94606 C50.9117779,60.9303441 51.3432812,61.513726 52.5520439,61.4390752 C53.1356799,61.4031323 53.6473986,60.9635222 53.8271917,60.7091567 C54.0097508,60.4547911 54.0484755,60.8916363 53.7552745,61.3284815 C53.4648395,61.7653267 53.2463218,62.7855538 53.7912331,63.4795294 C54.3389105,64.1707402 55.4702238,64.7541221 56.9638894,63.8804317 C58.4575549,63.0067413 59.0799155,61.9478064 59.3343919,61.4750182 C59.5888682,61.00223 59.5888682,60.7838074 59.3343919,60.4907341 C59.0799155,60.2004255 58.2390372,58.8124743 58.056478,56.0808094 C57.9486022,54.4412575 58.2390372,53.3850874 57.2183657,52.8017055 C56.1976943,52.2183236 53.8631503,50.8386669 53.5727154,48.1374153 C53.4648395,47.1171882 53.5367568,45.5495222 52.5160853,46.3872696 C51.4954139,47.2277819 51.4954139,47.8111638 51.384772,48.4277238 C51.2768961,49.0498135 51.7886149,49.8875609 52.2256503,50.468178 C52.6626858,51.0515599 53.1716385,52.3289174 53.5727154,52.6551688 C53.9737922,52.9841852 54.2282686,53.2385507 54.5574282,53.2772585 C54.8865878,53.3132015 56.1976943,53.3132015 56.5268539,53.4210304 C56.8532475,53.5316241 57.0385726,53.9325263 56.2336529,53.9325263 C55.4314992,53.9325263 54.19231,54.1509489 53.6473986,54.2228348 C53.0997213,54.2974856 52.5907686,54.3334286 52.3335262,55.4255416 C52.0790498,56.5176546 51.7139316,57.7950121 51.677973,58.1959143 C51.6420144,58.5968166 51.4234966,58.8152392 51.4234966,59.0336618 C51.4234966,59.2520844 51.8605321,60.3082544 52.8452449,59.2520844 C53.8271917,58.1959143 54.2282686,57.1397443 54.4108277,56.6282483 C54.5933868,56.1167523 54.8119046,56.1914031 54.6293454,56.9932076 C54.4495524,57.7950121 54.3942314,59.7995233 54.7759459,60.4907341 C55.188087,61.2344769 56.0206672,62.0031032 57.0745312,61.4750182 C57.293049,61.3644245 57.6554012,61.1819448 57.9486022,61.2178878 C58.2390372,61.2565956 57.8932812,61.7653267 57.6388049,61.9865142 C57.3843285,62.2049368 56.5462162,63.1311592 55.069147,61.8040345 C54.7040287,61.4750182 54.1978421,60.7450996 54.0844341,59.8354663 C54.0484755,59.5423929 53.6473986,59.434564 53.4648395,59.6889296 C53.2822804,59.94606 52.2975676,60.8556934 51.6060557,60.2004255 C50.9117779,59.5423929 50.624109,59.1801985 51.0224198,57.7950121 C51.094337,57.5378817 51.2354054,57.2669271 51.0583784,57.2116302" id="Fill-36" fill="#E89E6C"></path>
                <path d="M51.7875084,55.1706231 C51.6298437,55.6406464 51.4943074,56.2627361 51.4223902,56.4839235 C51.350473,56.7023461 51.0213133,57.1751343 50.7308784,56.5558094 C50.4404434,55.9364846 50.4542736,55.4471074 50.9134375,54.9881434 C51.057272,54.8443716 51.2757897,54.5512982 51.4223902,54.6978349 C51.5689907,54.8443716 51.8234671,55.0627942 51.7875084,55.1706231" id="Fill-38" fill="#E89E6C"></path>
                <path d="M53.4277745,53.4945752 C53.1262753,53.6438767 52.4873184,53.6438767 52.2605025,54.149843 C52.113902,54.4788593 51.5330321,54.1139 51.8234671,53.7129978 C52.113902,53.3120955 52.3351858,53.3480385 52.5177449,53.2402096 C52.697538,53.1296159 52.7722213,52.8033644 53.1373395,52.9830792 C53.4996917,53.1655589 53.574375,53.4226893 53.4277745,53.4945752" id="Fill-40" fill="#E89E6C"></path>
                <path d="M77.4528315,35.4561861 C76.4321601,35.564015 75.4834058,36.1861047 74.5374177,36.8413725 C73.5886634,37.4966403 70.1615308,40.3748419 69.3593771,40.9582238 C70.1974894,41.395069 70.4160072,42.2715242 70.1255722,43.7285965 C70.0591871,44.0520832 70.1255722,44.1654417 70.3440899,43.9470191 C70.5626077,43.7285965 71.5832791,42.6364835 71.5473205,41.7600283 C71.5113619,40.8863379 71.1102851,40.3748419 71.0356018,40.267013 C70.9636845,40.1564193 71.3288028,39.7195741 71.7298796,40.6319723 C72.1309565,41.5416057 72.0203146,42.8189632 70.817084,44.2373277 C69.6166195,45.658457 68.6650992,45.622514 68.1561465,45.8796444 C67.6471938,46.13401 67.1354751,46.5349122 67.6112352,47.2980089 C68.0842293,48.0666353 68.9942589,47.7735619 69.3593771,47.5191964 C69.7244954,47.262066 70.2334481,46.9717574 71.40072,47.0795863 C72.567992,47.19018 72.9552386,46.4492021 72.1669151,45.658457 C71.9124388,45.4040914 71.2541195,44.8207095 72.0562732,44.8207095 C72.5320334,44.8207095 73.1129033,45.8796444 73.4420629,46.169953 C73.7712226,46.4602615 74.498693,46.5708552 75.4834058,46.6427411 C76.4681187,46.714627 78.0005089,47.0795863 78.0005089,48.0279275 C78.0005089,48.6113094 77.6851795,48.7799648 77.2702724,48.3210009 C77.1070756,48.1385212 76.8719616,48.4260649 76.6866364,48.6113094 C76.0670418,49.2306342 74.4820967,50.9061291 73.3507834,51.1992025 C72.2222361,51.489511 71.8017969,51.1604947 70.3081313,50.361455 C68.8116997,49.5596505 67.4259101,48.7578461 67.0275992,48.5007157 C66.6237563,48.2463501 65.785644,47.6629682 66.1867209,48.829732 C66.5877977,49.9964957 67.5725106,51.1992025 69.5419362,51.8544703 C71.5113619,52.5097381 71.8017969,52.7281607 72.2388323,52.9493481 C72.6758678,53.1677707 72.4213915,53.3861933 71.8377555,53.3115426 C71.3315688,53.250716 70.7811254,52.8028115 71.2181609,53.7870956 C71.6551964,54.7713797 72.3135156,55.8275498 74.3188999,55.5731842 C76.3215182,55.3160538 76.3796052,54.8930328 77.6353906,52.8028115 C77.8539084,52.4378522 78.0724261,52.6922177 77.9258256,53.6405589 C78.9105384,53.1677707 79.4582158,53.0212341 80.0390857,52.8746974 C80.6254878,52.7281607 82.1412817,52.2138999 83.1398247,50.361455 C83.6515435,49.4131139 83.9253822,49.0868624 83.8313366,48.1025783 C83.798144,47.7348541 84.3430553,47.0077004 84.8907327,46.4962044 C85.435644,45.9874733 86.9320756,44.054848 86.1658805,42.6724265 C85.3996854,41.2872401 84.1245376,41.9784509 83.504943,42.998678 C82.8853484,44.0216699 82.1910705,45.1497259 82.1551119,46.8998715 C81.7180764,46.7533348 81.2727428,46.9136957 81.0625232,47.262066 C80.9518813,47.4445456 79.3475739,47.226123 78.7998965,47.3726597 C78.2549852,47.5191964 78.0724261,47.19018 78.6560621,46.4243185 C79.2396981,45.658457 81.2921052,42.8880842 81.1703991,40.8116871 C81.1344405,40.1923623 81.2174219,40.0790037 81.3169996,39.6117452 C81.4442378,39.0090094 81.4995587,39.0007149 80.7527259,38.5887533 C80.2659016,38.3233283 80.2354751,37.5657613 80.1497276,36.9851443 C80.0584481,36.3685843 79.939508,36.3658195 79.2396981,36.5123561 C78.7196812,36.6229499 77.8539084,36.1114539 77.4528315,35.4561861" id="Fill-42" fill="#E89E6C"></path>
                <path d="M73.18731,46.8622697 C72.9881546,47.3184688 72.4349451,47.755314 71.1625633,47.6087773 C70.5263725,47.5368914 69.9012458,47.5285968 69.796136,48.0290334 C69.7242188,48.3746388 69.4337838,48.3552849 69.0327069,48.3386958 C68.6122677,48.3193419 68.1558699,48.2115131 68.1365076,48.3580497 C68.1199113,48.5018216 69.9261402,49.5773455 70.5263725,49.851065 C71.1266047,50.1247845 72.0034417,50.7745226 72.7143159,50.7054015 C73.6603041,50.6169265 74.4873522,50.1469032 75.8842061,48.6649473 C76.46231,48.0566819 76.9242399,47.7359601 76.3765625,47.4815945 C76.0059122,47.3101742 75.6297297,47.2631719 75.1373733,47.2631719 C74.6450169,47.2631719 73.5883868,47.1885211 73.18731,46.8622697" id="Fill-44" fill="#E89E6C"></path>
                <path d="M66.3878125,46.8807941 C65.8954561,46.8614402 65.8401351,46.4964809 66.1692948,45.9518068 C66.4956883,45.4043679 66.8082517,44.8956368 67.2452872,44.5666205 C67.3172044,44.804397 67.4638049,45.0947055 67.6823226,45.2218883 C67.3918877,45.5315507 67.004641,45.9186287 67.0793243,46.6872551 L66.3878125,46.8807941 Z" id="Fill-46" fill="#E89E6C"></path>
                <path d="M77.4860241,44.6172171 C76.8608974,44.6172171 75.9287394,44.4126187 75.2648881,43.9591844 C74.5899726,43.5002205 74.3659227,43.2762682 74.4848628,42.5988817 C74.55678,42.1758607 74.5955046,41.9491435 74.6203991,41.7943123 C74.6397614,41.6809538 74.6508256,41.606303 74.6674219,41.5233577 C74.7227428,41.2026359 74.7061465,40.9925078 74.6093349,40.8791493 C74.559546,40.8183227 74.4876288,40.7851446 74.4018813,40.7851446 C74.263579,40.7851446 74.0782538,40.8736196 73.8403737,41.0560992 C73.4558932,40.7685555 73.0907749,40.4450689 72.8224683,40.2045276 C72.6122487,40.0192831 72.4601161,39.8865706 72.3660705,39.8229792 C72.2913872,39.773212 72.1973416,39.6930316 72.1890435,39.5934972 C72.1807454,39.5188465 72.2222361,39.4359012 72.3079835,39.3501911 C72.3605384,39.297659 72.4269236,39.2865997 72.5209692,39.2865997 L72.5624599,39.2865997 L72.6067166,39.2865997 C72.6703357,39.2865997 72.7948079,39.2865997 72.8750232,39.1953598 C72.9524726,39.10412 72.9718349,38.9548185 72.9358763,38.7032178 C72.9358763,38.6893936 72.9635367,38.66451 73.1294996,38.66451 C73.1737563,38.66451 73.2180131,38.66451 73.2622698,38.6672748 C73.3120587,38.6672748 73.3563155,38.6700397 73.3978062,38.6700397 C73.4918518,38.6700397 73.5499388,38.6617451 73.5941955,38.6396264 C73.6771769,38.5981537 73.6965393,38.5179733 73.7131356,38.4599116 C73.7324979,38.3797311 73.740796,38.3493179 73.8680342,38.3493179 C73.9371854,38.3493179 74.031231,38.3631421 74.147405,38.3907905 C74.1695334,38.3963202 74.1888957,38.399085 74.208258,38.399085 C74.3271981,38.399085 74.3852851,38.3050804 74.4267758,38.2387241 L74.4489041,38.2027812 C74.4959269,38.1336601 74.5401837,38.0949523 74.6425274,38.0949523 C74.6646558,38.0949523 74.6923163,38.0949523 74.7199768,38.100482 C74.8195545,38.1170711 74.908068,38.1391898 74.9855173,38.1585437 C75.0906271,38.1834273 75.1819067,38.205546 75.262122,38.205546 C75.4778737,38.205546 75.5442589,38.0451851 75.5774514,37.9207672 C75.6410705,37.677461 75.6908594,37.6000454 75.7932031,37.6000454 C75.8789506,37.6000454 76.0117209,37.6553423 76.1804497,37.7604063 C76.3298163,37.854411 76.4570545,37.8986485 76.5676964,37.8986485 C76.7336592,37.8986485 76.8525992,37.7935844 76.8913239,37.6083399 C76.8913239,37.6028102 76.8940899,37.5917509 76.9411128,37.5917509 C77.0489886,37.5917509 77.2426119,37.6636368 77.4417673,37.7797602 L77.538579,37.8378219 C77.8815688,38.0313609 78.592443,38.435028 79.4028948,39.3806043 C79.58822,39.5962621 79.6407749,39.7621527 79.6269447,39.7980956 L79.6158805,39.7980956 C79.6020503,39.7980956 79.5826879,39.8008605 79.5660916,39.8036253 C79.4416195,39.8229792 79.2562943,39.8533925 79.2175697,40.1630549 C79.1954413,40.3344752 79.1401204,40.4340095 79.1152259,40.4505986 C79.1152259,40.4478338 79.0875655,40.425715 79.0516068,40.3510642 C79.001818,40.2542947 78.9354329,40.1519955 78.824791,40.1519955 C78.8026626,40.1519955 78.7833003,40.1575252 78.76947,40.1602901 C78.7611719,40.1464659 78.7473416,40.1215823 78.7279793,40.0690503 C78.711383,40.0220479 78.6560621,39.8755112 78.5205258,39.8755112 C78.4541406,39.8755112 78.4015857,39.9114542 78.3628611,39.9391026 C78.357329,39.9418675 78.3490308,39.9473972 78.3407327,39.9529268 C78.3213704,39.9003948 78.2632834,39.7649175 78.1332791,39.7649175 C78.1000866,39.7649175 78.0724261,39.773212 78.0475317,39.7815066 C78.0392335,39.7842714 78.0281693,39.7870363 78.0226372,39.7870363 C78.0226372,39.7842714 78.0115731,39.7704472 77.9949768,39.7372691 C77.9700823,39.6792074 77.9175274,39.6460293 77.8483763,39.6460293 C77.7958214,39.6460293 77.7405004,39.6626183 77.6824134,39.6792074 C77.6187943,39.6985613 77.5690055,39.7151503 77.5302808,39.7151503 C77.4970883,39.7151503 77.4887901,39.7068558 77.483258,39.6930316 C77.4307031,39.5990269 77.3560198,39.5852027 77.3172952,39.5852027 C77.2509101,39.5852027 77.1928231,39.6183808 77.1347361,39.6487941 C77.0904793,39.6709129 77.0379244,39.6985613 77.0047318,39.6985613 C76.9936677,39.6985613 76.9743053,39.6985613 76.9466448,39.6626183 C76.9272825,39.6349699 76.8664295,39.5575543 76.777916,39.5575543 C76.6921685,39.5575543 76.6396136,39.6294402 76.5981229,39.6847371 L76.5787606,39.7096207 C76.5372698,39.7649175 76.5096094,39.7842714 76.4764168,39.7842714 C76.4625866,39.7842714 76.4487563,39.7815066 76.429394,39.7759769 C76.3823712,39.7593878 76.3408805,39.7510933 76.3021558,39.7510933 C76.1749177,39.7510933 76.1195967,39.8423331 76.0891702,39.8921003 C76.0587437,39.9391026 76.0532116,39.9418675 76.0421474,39.9418675 C76.0338492,39.9418675 76.0144869,39.9391026 75.9785283,39.9252784 C75.9315055,39.9031597 75.8927808,39.8948651 75.8512901,39.8948651 C75.7074557,39.8948651 75.6438366,40.0220479 75.6051119,40.1049932 C75.5608552,40.1934682 75.5442589,40.2155869 75.5165984,40.2155869 C75.5083003,40.2155869 75.5000021,40.2128221 75.4889379,40.2100572 C75.4308509,40.1934682 75.3838281,40.1879385 75.3423374,40.1879385 C75.1348839,40.1879385 75.1072234,40.3621236 75.0795629,40.5473681 C75.0740308,40.5777814 75.0684987,40.6137243 75.0602006,40.6496673 C75.0104117,40.9455055 74.8776415,42.1648013 74.8970038,42.4772286 C74.9163661,42.7703019 75.2980807,42.7703019 75.4419151,42.7703019 C75.7102217,42.7703019 76.080872,42.7205347 76.5372698,42.6569434 C77.4362352,42.5325254 79.0847994,42.0348537 79.939508,41.324289 C80.1552597,41.1418094 80.3267546,41.1224555 80.3876077,41.1224555 C80.4401626,41.1224555 80.4678231,41.1362797 80.4705891,41.1390445 C80.4788872,41.183282 80.3765435,41.4155288 80.1607918,41.5952436 C80.1414295,41.6145975 80.1165351,41.6339514 80.0888746,41.658835 C79.823334,41.8938467 79.2009734,42.4412856 77.9451879,42.6873566 C76.7419573,42.9196034 75.6327724,43.1297315 75.259356,43.1297315 C75.2095671,43.1297315 75.1874388,43.1269667 75.1763746,43.1242018 C75.1542462,43.1186721 75.1348839,43.1159073 75.1155215,43.1159073 C75.0546685,43.1159073 75.0048796,43.1490854 74.9882834,43.1988526 C74.9633889,43.2679737 74.9993476,43.3453893 75.0906271,43.4228049 C75.2095671,43.5223392 75.378296,43.5831658 75.5414928,43.5831658 C75.5885156,43.5831658 75.6383045,43.5776361 75.6853273,43.5665767 C75.729584,43.5665767 75.8595883,43.6909947 75.9563999,43.7794696 C76.2164084,44.0227758 76.606421,44.3905 77.1236719,44.3905 C77.776459,44.3905 78.7169151,43.6909947 78.9879878,43.4753369 C79.1124599,43.3785674 79.3973628,43.2320307 79.5605595,43.1850284 C79.5328991,43.2209713 79.4914084,43.2679737 79.4277893,43.3343299 L79.3807665,43.3813322 C78.7805342,43.9813032 78.1609396,44.600628 77.5607073,44.6172171 L77.4860241,44.6172171" id="Fill-48" fill="#2D2925"></path>
                <path d="M85.1817209,43.8013119 C84.7585156,44.099915 84.5234016,44.2022141 84.490209,44.7109453 C84.4542504,45.2224412 84.3519067,46.0933668 84.1610494,46.1707824 C83.9121052,46.2703168 83.9480638,45.6979942 83.8706144,45.877709 C83.7599726,46.1348394 83.4501753,46.0242457 83.3588957,45.7864692 C83.320171,45.68417 82.4101415,45.6952294 83.140378,44.6390593 C83.8014633,43.6824236 84.3076499,43.1819871 84.780644,42.9635645 C85.2536381,42.7451419 86.0557918,43.1819871 85.1817209,43.8013119" id="Fill-50" fill="#2D2925"></path>
                <path d="M103.026045,87.111749 C102.857316,86.6831983 103.153283,85.9643391 104.066079,86.4730702 C104.978875,86.9845662 105.670386,87.4214114 105.014833,89.4259226 C104.356514,91.4304339 103.88352,92.5944328 103.629043,93.4349451 C103.374567,94.2726925 102.389854,95.3288626 102.716248,93.9077332 C103.045408,92.4866039 103.219668,90.7696364 103.081366,89.8987108 C102.82689,88.2951018 103.341375,88.3891065 103.172646,87.6564231 C103.120091,87.4324708 103.086898,87.2638154 103.026045,87.111749" id="Fill-52" fill="#E89E6C"></path>
                <path d="M106.472817,88.8422643 C106.735591,89.6302445 107.020494,91.4301574 106.580693,92.1573111 C106.143657,92.8872297 104.793826,94.8917409 104.284873,95.4032368 C103.773155,95.911968 103.374844,95.6935454 103.701237,95.1461064 C104.030397,94.5986675 104.467432,93.8715138 104.467432,93.6171482 C104.467432,93.3600178 104.431474,93.0697093 104.868509,92.2319619 C105.305545,91.3942144 106.07174,88.5851339 106.143657,88.3694761 C106.215574,88.1510535 106.400899,88.6238417 106.472817,88.8422643" id="Fill-54" fill="#E89E6C"></path>
                <path d="M97.0660431,95.5837811 C96.8475253,94.9285133 96.7368834,93.9801721 96.3745313,93.4327332 C96.6649662,92.6309287 97.6247846,90.477116 99.2539865,89.8273778 C99.4337796,89.7527271 99.5471875,89.5702474 99.4725042,89.4264756 C99.3978209,89.2799389 99.691022,89.17211 99.8376225,89.6808412 C99.984223,90.1895723 100.238699,91.6466446 100.238699,91.6466446 C100.310617,91.9756609 100.164016,92.2300265 100.092099,92.6696365 C100.020182,93.1064817 99.8376225,94.0907658 99.9454983,94.599497 C100.05614,95.1109929 100.238699,95.4731874 101.259371,95.2575296 C101.77109,95.1469359 101.732365,95.0003992 101.878965,94.563554 C102.0228,94.1267088 102.426643,92.8880591 102.570477,92.1940835 C102.717078,91.5028727 102.58984,89.8080239 102.446005,89.3711787 C102.296639,88.9343335 102.49856,87.4579073 102.390684,87.1675988 C102.280042,86.8745255 102.205359,86.4376803 101.295329,86.1473717 C100.3853,85.8542984 100.128057,85.7824125 99.5084628,86.3989725 C98.8888682,87.0210621 98.6703505,87.2754277 98.3799155,87.5657362 C98.0867145,87.8588096 97.3592441,87.6016792 97.9788387,87.0210621 C98.5984333,86.4376803 99.1820693,85.8542984 99.3618623,85.6718187 L99.1820693,85.1962657 L98.8529096,85.1962657 C97.8681968,86.1833147 96.5543243,86.7666966 95.6802534,86.9464114 C95.3510938,87.0155325 94.7314992,87.0570051 95.1685346,87.640387 C95.2791765,87.7869237 95.3151351,88.1878259 95.5723775,88.0412892 C95.8268539,87.8947525 96.2279307,87.2394847 96.593049,87.5297933 C96.9581672,87.8201018 96.5211318,88.5140774 96.0813302,88.8430937 C95.6442948,89.17211 95.1685346,89.4983615 94.842141,89.6808412 C94.5129814,89.8633208 94.3331883,90.0458005 94.369147,90.6291823 C94.4051056,91.2097994 94.4410642,92.2687343 94.1119046,93.0705388 C93.785511,93.8723432 93.9680701,94.0907658 94.2585051,94.6354399 C94.5517061,95.1828789 95.0247002,95.6584319 95.1685346,96.5321223 C95.3151351,97.4058127 95.3898184,97.6242353 95.9734544,97.5523494 C96.5543243,97.4804634 96.7756081,97.223333 96.9941258,96.8583738 L97.0660431,95.5837811 Z" id="Fill-56" fill="#E89E6C"></path>
                <path d="M97.2842842,97.2595525 C97.0298079,97.6963977 96.5927724,98.3876084 96.5927724,99.0096981 C96.5927724,99.629023 95.9731778,100.284291 96.045095,100.577364 C96.1170122,100.867673 96.921932,101.633534 97.3949261,102.435339 C97.8679202,103.237143 98.4875148,104.437085 98.4875148,106.441596 C98.4875148,108.448872 97.8319616,111.180537 97.7600443,111.545497 C97.6853611,111.910456 97.505568,112.200764 98.0504793,112.709496 C98.5981567,113.220991 99.4722276,114.169333 99.8013872,116.317616 C100.130547,118.468664 100.346299,119.59672 100.492899,119.707313 C100.6395,119.817907 100.603541,119.997622 100.603541,120.398524 C100.603541,120.802191 100.965893,123.097011 101.223136,123.533856 C101.477612,123.970701 101.441653,121.056557 101.402929,120.218809 C101.36697,119.381062 101.441653,115.372039 101.585488,114.788657 C101.732088,114.205276 101.878689,113.550008 101.36697,112.820089 C100.858017,112.090171 99.9839464,110.815578 100.6395,108.703238 C101.295053,106.588133 102.354449,106.626841 102.022523,105.786328 C101.69613,104.948581 101.112494,104.365199 100.675458,103.892411 C100.238423,103.419623 100.586945,102.288802 100.567582,101.813249 C100.528858,100.939559 99.8373459,100.795787 99.7654286,99.8115026 C99.6907454,98.8272185 99.6188281,98.025414 100.346299,97.0411299 C101.076535,96.0596106 100.091822,96.0927887 99.7654286,95.4734639 C99.433503,94.854139 99.259242,94.0274509 99.5469109,92.7417989 C99.6907454,92.0837663 99.6188281,91.9040515 99.433503,91.8294007 C99.2537099,91.7575148 98.4875148,91.6109781 98.4875148,91.6109781 L97.3589675,93.8726197 C97.5415266,94.3094649 97.6134438,94.9647327 97.6134438,95.4015779 L97.2842842,97.2595525 Z" id="Fill-58" fill="#9A3820"></path>
                <path d="M86.7492399,52.9117463 C85.8502745,54.1089233 84.4534206,57.1391913 83.7951014,59.0331088 C83.1395481,60.9297911 81.6458826,65.4475447 82.7025127,68.4363401 C83.7591427,71.4223706 85.8392103,69.5284531 86.3122044,68.3976323 C86.7851985,67.2695763 87.515435,65.336951 87.7339527,64.8282199 C87.9524704,64.3167239 88.0631123,64.0264154 88.4614231,65.2291221 C88.8625,66.4318288 89.446136,69.3100305 89.446136,69.564396 C89.446136,69.8215264 89.0450591,70.5486802 88.6080236,71.679501 C88.1709882,72.8075569 87.9165118,73.6093614 88.3535473,74.303337 C88.7905828,74.9945478 90.5055321,77.9474002 91.0504434,79.2219928 C91.379603,79.9878544 91.670038,80.1316262 92.544109,79.9132036 C93.4209459,79.694781 95.5342061,78.9648624 96.1538007,78.6745539 C96.7761613,78.3842454 96.4829603,77.8727494 96.3004012,77.2561894 C96.0237965,76.3106131 94.9146115,71.0574113 94.9146115,70.3662005 C94.9146115,69.6749897 95.1027027,68.7681212 94.184375,69.7828186 C93.8607475,70.1477779 93.4209459,69.7828186 93.5288218,69.2740875 C93.6394637,68.7625915 94.7320524,61.6569449 94.8067356,60.7832545 C94.184375,59.4340111 92.3643159,55.1706231 91.8525971,54.4047615 C91.3436444,53.6416648 91.1610853,53.602957 90.3948902,54.0038593 C89.6286951,54.4047615 87.9192779,55.0213215 87.2969172,53.5670141 C87.1862753,53.3126485 87.0064823,52.7292666 87.4407517,52.6573807 L87.1143581,52.546787 C87.1143581,52.546787 86.8571157,52.7652096 86.7492399,52.9117463" id="Fill-60" fill="#FEFEFE"></path>
                <path d="M96.299848,79.1125051 C95.6221664,79.4995831 93.3125169,80.4949266 92.3637627,80.6442281 C91.390114,80.7935296 91.6335262,81.0451304 91.8160853,81.7722841 C91.9986444,82.5022026 92.5463218,84.6864287 92.8367568,85.4522902 C93.1299578,86.2181517 93.5310346,86.2043275 94.2972297,86.1822088 C95.4617356,86.1462658 97.4311613,85.6347698 98.8529096,84.3242342 C98.4490667,83.8486812 97.7492568,81.5787451 97.5418032,80.6055203 C97.3205194,79.5852932 97.3205194,78.5291232 96.299848,79.1125051" id="Fill-62" fill="#FEFEFE"></path>
                <path d="M75.4101056,58.0855971 C75.3381883,58.2321338 75.083712,58.668979 74.500076,58.668979 C73.91644,58.668979 73.4434459,58.4864993 73.0755617,58.9979953 C72.7132095,59.5067264 70.7078252,61.9480828 70.2707897,63.4410981 C70.7078252,64.3534963 71.2914611,65.9930482 71.7284966,67.159812 C73.1502449,65.9571053 77.6893285,61.5305915 78.5468032,60.6734902 C78.8759628,60.3444739 78.9119215,60.0541653 78.4361613,59.725149 C77.9631672,59.3961327 76.2122593,58.3040197 75.9218243,58.12154 C75.6286233,57.9390604 75.4847889,57.9390604 75.4101056,58.0855971" id="Fill-64" fill="#FEFEFE"></path>
                <path d="M63.9268602,64.500033 C63.6474894,65.6225593 63.0887479,67.5966572 62.1759523,69.1283803 C62.5410705,69.7117622 62.8342715,70.2204933 63.271307,70.4029729 C64.2919785,69.6758192 66.2226795,67.8869657 66.7703568,67.2316979 C67.3180342,66.5764301 68.009546,65.592146 68.009546,65.3737234 C68.009546,65.1553008 67.7550697,65.0834149 67.4259101,65.1553008 C67.0995165,65.2271867 65.7496854,64.6880423 64.4358129,64.4281471 C64.0734607,64.3534963 63.9628188,64.3534963 63.9268602,64.500033" id="Fill-66" fill="#FEFEFE"></path>
                <path d="M63.1258129,63.406814 C62.7247361,63.3266336 61.3389464,61.839148 60.8659523,61.0373435 C60.3901921,60.2355391 60.3182749,60.3101898 60.1357158,60.8935717 C59.9531567,61.4741887 59.2616448,62.7515462 58.7858847,63.3708711 C58.3128906,63.9901959 57.0737014,65.5938049 56.7445418,65.9587642 C56.4153822,66.3209586 56.7445418,66.4674953 57.0377428,66.7605687 C57.3281778,67.0508772 58.8246094,68.8729088 59.151003,69.273811 C59.4801626,69.6747133 59.8452808,70.4046318 60.7193518,69.6000625 C61.5934227,68.798258 62.6500528,67.3411857 63.1258129,65.8481705 C63.598807,64.3523904 63.6347656,63.5699398 64.0358425,63.6611796 L64.0552048,63.3515172 L63.9445629,63.1690375 L63.7260452,62.9865579 C63.7813661,63.1137407 63.7813661,63.2243344 63.6900866,63.3708711 C63.598807,63.5146429 63.308372,63.442757 63.1258129,63.406814" id="Fill-68" fill="#FEFEFE"></path>
                <path d="M85.4367504,29.8817095 C84.4548036,31.0401788 82.4826119,32.0659355 79.1661212,32.9064478 C75.8496305,33.7441953 72.6769742,36.074958 71.3271432,37.2057788 C69.9773121,38.3365996 66.5778399,41.1180317 64.9486381,41.7981831 C64.5116026,41.9806627 63.5794447,42.5972227 64.766079,42.7437594 C65.6401499,42.8543532 66.2597445,42.3428572 68.157253,40.9576708 C70.0519954,39.5724844 71.5235325,38.5743761 72.9674092,37.1698358 C74.3172403,35.8565354 76.7596601,34.6178857 79.3846389,33.8907319 C82.0096178,33.1608134 85.4588788,32.0134035 86.4574219,30.9378796 C86.930416,30.4263836 86.9663746,30.172018 86.5321052,29.7351728 C86.0923036,29.2983276 85.8378273,29.4089213 85.4367504,29.8817095" id="Fill-70" fill="#FEFEFE"></path>
                <path d="M68.7029941,41.341431 C68.4180912,41.4990271 68.3019172,41.6704474 67.9727576,42.7266174 C67.646364,43.7827875 67.6823226,44.4021123 67.9561613,44.6564779 C68.1553167,44.8417223 68.4457517,44.8583114 68.5951182,44.8583114 C68.7029941,44.8583114 68.813636,44.8942544 68.7942736,44.5845919 C68.7749113,44.2749295 68.755549,42.9533345 69.7430279,42.3616581 C69.925587,42.2538292 69.7181334,41.4879677 69.0681123,41.5957966 C68.8495946,41.6345044 69.0681123,41.1423623 68.7029941,41.341431" id="Fill-72" fill="#FEFEFE"></path>
                <path d="M57.4377133,45.5138557 C57.949432,45.5138557 58.2758256,45.5138557 58.239867,46.0972376 C58.2039084,46.6806195 57.949432,47.482424 57.9134734,48.0298629 C57.8747487,48.574537 57.8747487,48.7929596 58.2039084,48.7929596 C58.5303019,48.7929596 57.7309143,49.1219759 57.2911128,49.1938618 C56.8540773,49.2685126 56.1819278,49.5173484 55.8334058,47.6649036 C55.72553,47.0815217 55.7614886,46.1691235 55.6895714,45.9507009 C56.1625655,45.7322783 56.8153526,45.5138557 57.4377133,45.5138557" id="Fill-74" fill="#FEFEFE"></path>
                <path d="M67.1288366,47.0701859 C67.2643729,47.8056341 67.4635283,47.7918099 67.3169278,47.8996388 C67.1703273,48.0102325 67.0181947,47.6231545 66.4234945,47.719924 C65.8592209,47.8111638 61.2648163,48.5217285 60.9384227,48.5576714 C59.9177513,48.6655003 59.8624303,48.5023746 60.8084185,48.300541 C61.7571727,48.1014723 65.225796,47.4710881 66.2602977,47.2637249 L67.1288366,47.0701859 Z" id="Fill-76" fill="#FEFEFE"></path>
                <path d="M61.5942525,102.798639 C62.0672466,103.091712 63.19856,103.417964 65.132027,102.616159 C67.062728,101.814355 69.2147128,102.361794 69.5411064,103.74698 C69.870266,105.132167 69.8813302,106.91549 69.2866301,107.681352 C68.7749113,108.33662 68.3019172,108.264734 67.7182813,108.082254 C66.6616512,107.753238 64.2192314,106.625182 63.5249535,106.296166 C62.8334417,105.969914 61.6661698,105.604955 60.8280574,105.604955 C60.4988978,104.910979 60.5376225,103.711037 60.7561402,103.271427 C60.9746579,102.834582 60.9746579,102.397737 61.1572171,102.508331 C61.3397762,102.616159 61.5942525,102.798639 61.5942525,102.798639" id="Fill-78" fill="#FEFEFE"></path>
                <path d="M69.2501182,109.248465 C69.7231123,109.248465 70.583353,109.447534 70.8544257,110.3074 C71.0729434,110.998611 72.4946917,111.18109 73.1142863,111.145147 C73.7338809,111.109204 73.6260051,111.435456 73.5872804,111.800415 C73.5513218,112.165374 73.4434459,113.257487 73.4434459,113.694333 C73.4434459,114.131178 73.5513218,115.662901 73.6260051,115.953209 C73.6979223,116.246283 73.4434459,116.392819 73.1142863,116.536591 C72.7851267,116.683128 71.5818961,117.048087 70.8184671,116.500648 C70.4146242,116.213105 69.9416301,115.809438 70.4173902,115.77073 C70.8903843,115.737552 69.8337542,111.617935 69.5405532,110.888017 C69.2501182,110.160863 68.4092399,109.248465 69.2501182,109.248465" id="Fill-80" fill="#FEFEFE"></path>
                <path d="M56.70803,100.648974 C56.9044193,100.71533 57.001231,100.906104 57.1450655,101.16047 C57.291666,101.414835 57.3414548,101.633258 57.1091068,101.887623 C56.70803,102.327233 56.2350359,104.32898 56.3069531,105.750109 C56.0524768,105.678223 55.5047994,105.570394 55.2143644,105.64228 C55.1037226,104.840476 55.1784058,102.327233 55.5435241,101.522664 C55.9058763,100.723624 56.2709945,100.502437 56.70803,100.648974" id="Fill-82" fill="#FEFEFE"></path>
                <path d="M56.7813302,122.877206 C57.6885938,123.900198 59.4063091,125.465099 60.6814569,126.012538 C61.9593708,126.559977 62.7974831,126.739692 63.9260304,126.631863 C64.8415921,126.543388 64.6562669,126.922171 63.9260304,127.032765 C63.19856,127.140594 61.5223353,127.140594 60.4297466,126.559977 C59.3343919,125.97383 57.6000802,124.898306 56.4908953,123.314051 C56.2336529,122.949092 56.4908953,122.550954 56.7813302,122.877206" id="Fill-84" fill="#FEFEFE"></path>
                <path d="M75.7749472,120.327191 C75.0336465,120.664502 73.6616871,121.347418 72.3505807,121.676435 C72.4944151,122.331702 72.5303737,122.622011 72.5303737,122.80449 C73.3325274,122.80449 74.8787479,122.245992 76.1400655,121.458012 C76.4332665,121.275532 76.5411423,121.05711 76.4332665,120.799979 C76.3226246,120.545614 76.1760241,120.144711 75.7749472,120.327191" id="Fill-86" fill="#FEFEFE"></path>
                <path d="M67.1357517,117.338672 C66.9531926,117.158957 67.9904603,116.93777 68.208978,116.93777 C68.4662204,117.103661 68.9309164,117.512857 69.1051774,117.687042 C69.2130532,117.794871 69.1604983,117.866757 69.0498564,117.941408 C68.9392145,118.013294 68.3030236,118.179185 68.0098226,118.195774 C67.680663,117.905465 67.2270312,117.429912 67.1357517,117.338672" id="Fill-88" fill="#FEFEFE"></path>
                <path d="M69.0681123,102.179591 C68.7749113,101.961168 68.813636,101.853339 68.9574704,101.632152 C69.1040709,101.413729 69.2506715,101.267192 69.397272,101.195307 C69.5411064,101.123421 69.7596242,101.087478 70.0168666,101.449672 C70.2713429,101.814631 71.6543666,104.112216 71.9475676,104.731541 C72.2380025,105.350866 72.6031208,104.947199 72.4592863,104.585004 C72.3126858,104.220045 72.0194848,103.60072 71.911609,103.41824 C72.3126858,102.179591 72.7137627,100.285673 72.7137627,99.0470235 C72.7137627,97.805609 72.4233277,96.5669593 72.2020439,96.1301141 C73.1867568,96.166057 75.3359755,96.1301141 76.1768539,95.8757485 C77.0149662,95.6186181 76.3206883,95.5467322 75.9942948,95.5826752 C75.6651351,95.6186181 73.3084628,95.6103236 71.5824493,95.4029604 C68.5951182,95.0380011 65.657576,93.3569765 64.7309502,92.1929776 C64.5843497,92.0132628 63.7075127,92.0851487 64.4377492,92.6685306 C65.1679856,93.2519125 67.0267694,94.9909987 69.7596242,95.4748463 C70.3792187,95.5826752 71.3639316,95.7651548 71.5105321,98.0240316 C71.6543666,100.285673 71.4358488,101.742746 71.4358488,101.961168 C71.4358488,102.179591 71.2920144,102.251477 71.1094552,101.997111 C70.9268961,101.742746 70.3073015,100.904998 69.9781419,100.722518 C69.6517483,100.540039 69.4332306,100.575982 69.1400296,100.794404 C68.8495946,101.012827 68.4097931,101.449672 68.23,101.668095 L69.0681123,102.179591 Z" id="Fill-90" fill="#FEFEFE"></path>
                <path d="M63.1980068,109.303762 C62.9241681,109.303762 61.283902,109.430945 60.9381461,109.303762 C60.5896242,109.176579 60.3683404,108.778442 60.6089865,108.612551 C60.9021875,108.410718 61.4664611,108.667848 62.0307348,108.667848 C62.5977745,108.667848 63.1980068,108.521311 63.3446073,108.612551 C63.4884417,108.703791 63.6903632,108.667848 63.6903632,109.359059 L63.1980068,109.303762 Z" id="Fill-92" fill="#FEFEFE"></path>
                <path d="M59.2240266,119.306135 C58.7510325,119.015826 58.2005891,117.666583 58.0927133,114.970861 C58.0567546,114.058462 58.4218729,112.529504 58.7150739,111.799586 C59.0055089,111.072432 58.5297487,111.36274 58.4218729,111.617106 C58.313997,111.874236 57.9488788,112.894464 57.8382369,113.65756 C57.7303611,114.423422 57.5478019,115.554243 57.8382369,117.193794 C58.1314379,118.833346 58.2780384,119.342078 58.3499557,119.635151 L59.2240266,119.306135 Z" id="Fill-94" fill="#FEFEFE"></path>
                <path d="M75.9027386,32.2857406 C76.395095,32.3410374 76.9427724,32.3050945 77.0700106,31.9567242 C77.1972487,31.6111188 77.0866068,31.3926962 76.9234101,31.3208103 C76.7602133,31.2461596 76.688296,31.2655135 76.7602133,30.9364971 C76.8321305,30.6102457 77.0700106,30.6461886 77.0534143,30.1346927 C77.0312859,29.6259615 76.6523374,29.6066076 76.3038155,29.7172013 C75.9580595,29.8250302 75.8308214,29.988156 75.5016617,30.427766 C75.1752682,30.8646112 75.3191026,30.1346927 75.3744236,30.0075099 C75.4269785,29.8886216 75.5569827,29.0508742 75.108883,28.8988078 C74.8544067,29.0259906 74.6054624,29.1504085 74.3648163,29.2748265 C74.2846009,29.4351874 74.2237479,29.6231967 74.1545967,29.8084412 C73.9720376,30.2812293 73.7479878,29.9273294 73.587557,29.6978474 L73.584791,29.6950826 C73.0979666,29.9632724 72.6719954,30.2148731 72.3483678,30.427766 C72.3151753,30.4498848 72.2764506,30.4747683 72.240492,30.4996519 C72.2847487,30.7871956 72.6305046,31.1493901 72.824128,31.2848674 C73.059242,31.4479931 72.9126415,31.7576555 72.6222065,31.7576555 C72.3290055,31.7576555 71.9666533,31.5585868 71.6015351,31.995432 C71.2364168,32.4322772 71.4742969,32.8497685 71.8200528,32.8497685 C72.1658087,32.8497685 72.4590097,32.9797162 72.5862479,33.3778536 C72.7134861,33.7787558 72.824128,33.9446464 73.297122,33.9971784 C73.7701161,34.0524753 74.0439548,33.687516 74.171193,33.4690934 C74.2984312,33.2506708 74.464394,32.9410084 74.6635494,33.0156591 C74.9622825,33.123488 74.9235579,33.4359153 74.8322783,33.7676964 C75.1752682,33.5686277 75.5265562,33.3778536 75.8999726,33.1953739 C75.8391195,32.8857115 75.6565604,32.6036975 75.5210241,32.4682202 C75.3550612,32.3050945 75.4103822,32.2304437 75.9027386,32.2857406" id="Fill-96" fill="#007940"></path>
                <path d="M79.9685515,27.001849 C79.7998226,27.0405568 79.6200296,27.0875591 79.4402365,27.1400911 C79.52875,27.5548176 79.6947128,28.0911971 79.6034333,28.1686128 C79.4955574,28.2598526 79.0751182,28.3317385 78.7459586,28.4229783 C78.419565,28.5142181 77.6340076,29.2441367 78.0350845,29.7694569 C78.4361613,30.3003068 78.5661655,30.6099692 78.6380828,30.8836886 C78.71,31.1574081 79.3655532,31.4836596 79.821951,30.9362207 C80.2783488,30.3915466 80.6241047,29.7888108 80.7347466,30.173124 C80.8260262,30.4938458 80.8011318,31.2707667 80.7375127,31.688258 C80.8343243,31.6689041 80.9283699,31.6495502 81.0251816,31.6301963 C81.2077407,29.5897421 80.698788,28.1326698 79.9685515,27.001849" id="Fill-98" fill="#007940"></path>
                <path d="M69.9604392,36.7860756 C69.7059628,36.5870069 69.6312796,36.2745796 69.9410769,36.1861047 C70.2536402,36.0948648 70.6713133,36.0202141 71.4375084,35.6939626 C72.2009375,35.3649463 71.7998606,34.8009183 71.4568708,34.6543816 C71.1083488,34.5078449 71.0723902,34.1815934 71.1083488,33.8332232 C71.1470735,33.4876178 71.0557939,32.9788867 70.3808784,33.2332523 C69.7059628,33.4876178 69.9410769,34.1456505 69.7419215,34.3640731 C69.542766,34.5824957 69.4321242,34.5078449 69.4680828,34.1815934 C69.5040414,33.8525771 69.2136064,33.6341545 69.0504096,33.5595038 C68.9204054,33.5042069 68.6410346,33.4378507 68.4031546,33.4184968 C67.7033446,34.048881 67.0671537,34.7069136 66.5830954,35.3594166 C66.6909713,35.5833689 66.9454476,35.8349696 67.080984,35.8736774 C67.2635431,35.9289743 67.5373818,36.0589219 67.5180194,36.4211163 C67.5014231,36.7307787 66.8071453,36.7501326 66.3535135,36.761192 C66.674375,37.6321176 67.0007686,38.2514424 67.4571664,38.7435845 C67.5595101,38.7159361 67.6978125,38.6689337 67.8831377,38.5887533 C68.4474113,38.3537416 68.6299704,37.4966403 68.72125,37.2422747 C68.8125296,36.9851443 69.0504096,37.0404412 69.2136064,37.3694575 C69.3297804,37.5989395 69.3685051,37.8118324 69.3878674,38.0164308 C69.7087289,37.695709 70.0185262,37.3971059 70.3255574,37.1123271 C70.2342779,37.0210873 70.1208699,36.9104935 69.9604392,36.7860756" id="Fill-100" fill="#007940"></path>
                <path d="M79.6399451,58.5592147 C79.7478209,58.5426256 79.457386,57.2486791 79.695266,57.1933822 C79.9331461,57.1380854 80.041022,57.9039469 80.5527407,57.8127071 C81.0616934,57.7214673 81.1889316,57.2127361 81.1170144,56.6459433 C81.0450971,56.0819153 81.3714907,56.3915777 81.6287331,55.9906755 C81.8804434,55.5897733 81.3355321,55.0450992 80.7159375,55.4266475 C80.0963429,55.8081959 80.2042187,55.2994647 80.5333784,55.0976312 C80.862538,54.8985625 80.6246579,54.1686439 79.9331461,54.4064204 C79.4297255,54.5778407 79.1780152,54.2515892 78.9373691,54.1161119 C78.7520439,54.1879978 78.5694848,54.2654134 78.3869257,54.3455939 C78.345435,54.4893657 78.3786275,54.660786 78.4201182,54.8432656 C78.4726731,55.0755124 78.583315,55.6810131 78.2016005,55.4266475 C77.8669088,55.2054601 77.4160431,55.0810421 77.2888049,55.4985334 C77.1615667,55.9187896 77.4160431,55.9547325 77.3800845,56.2090981 C77.3413598,56.4634637 76.6858066,56.5187605 76.9956039,57.0468456 C77.3054012,57.5749306 77.761799,57.2846221 78.0743623,57.0827885 C78.3813936,56.8837198 78.6745946,57.1214963 78.5639527,57.3924509 C78.4782052,57.6053438 78.3067103,58.324203 78.2956461,58.7969912 C78.4394806,58.8909959 78.5916132,58.9960599 78.7520439,59.1094185 C78.934603,58.924174 79.2775929,58.6200413 79.6399451,58.5592147" id="Fill-102" fill="#007940"></path>
                <path d="M69.7059628,57.30287 C69.9770355,57.2309841 70.5081166,57.7950121 70.9811106,57.4659958 C71.4568708,57.1397443 70.7819552,56.810728 70.8732348,56.5370085 C70.9645144,56.263289 71.1830321,55.735204 70.8538725,55.4808384 C70.5274789,55.2264729 70.1789569,55.4614845 69.833201,55.8457977 C69.4874451,56.2273461 69.6146833,55.4974275 69.7972424,55.1877651 C70.0351225,54.7868628 69.7972424,54.5159082 69.3961655,54.4412575 C68.9950887,54.3693715 68.8678505,54.9333995 68.5940118,54.679034 C68.1597424,54.2753669 67.4820608,54.4412575 67.6452576,55.0080503 C67.8112204,55.5720783 67.9910135,55.7545579 67.6452576,55.8264438 C67.2995017,55.8983297 66.9703421,54.9886964 66.5692652,55.7186149 C66.1681883,56.4457687 66.8071453,56.6641913 66.7518243,57.2116302 C66.6965034,57.7590691 66.9177872,58.342451 67.2441807,58.394983 C67.5733404,58.4502799 67.9190963,58.0853206 68.1016554,57.866898 C68.2842145,57.6484754 68.72125,57.4853497 68.6659291,57.902841 C68.6272044,58.1931495 68.6078421,58.7931204 68.5995439,59.1387258 C69.2689274,58.8124743 69.9880997,58.4723986 70.3808784,58.342451 C70.3974747,58.3341565 70.4140709,58.3286268 70.4279012,58.3230971 C70.2453421,58.2512112 69.9853336,58.1295581 69.7419215,57.9581378 C69.3768032,57.7037723 69.4321242,57.3747559 69.7059628,57.30287" id="Fill-104" fill="#007940"></path>
                <path d="M61.6304878,73.9018818 C62.4686001,73.6475163 62.5045587,74.3027841 62.3966829,74.850223 C62.286041,75.3948971 62.286041,76.5616608 62.3219996,77.1450427 L63.7077893,77.2169286 C63.635872,76.8519694 63.7077893,75.7957993 63.7465139,75.1764745 C63.7797065,74.5571496 64.4020671,73.6088085 64.6205849,74.5571496 C64.8391026,75.5054908 65.7850908,75.5414338 66.4434101,75.1405315 C67.0989633,74.7396293 67.5747234,73.8659389 68.2662352,72.6272892 C68.957747,71.3858746 68.0477175,71.0596232 67.5000401,71.1315091 C66.9523628,71.203395 66.4074514,71.2780458 67.6466406,70.2578187 C68.8000823,69.3094775 66.8583171,68.8311596 65.9676499,68.6542097 C64.4988788,70.1969921 62.6926499,71.9416081 61.0828104,73.3184999 C60.8781229,73.492685 60.6872656,73.6613405 60.5019405,73.8244662 C60.6955638,73.9350599 61.0745122,74.0705372 61.6304878,73.9018818" id="Fill-106" fill="#007940"></path>
                <path d="M60.171951,83.0850316 C60.8634628,82.866609 61.3032644,84.3596242 62.3239358,83.4859338 C63.3446073,82.6122434 62.6143708,81.8823248 62.5784122,81.1524063 C62.5424535,80.4224877 63.3805659,80.1321792 63.1260895,79.2225458 C62.7360769,77.8345946 61.4470988,79.147895 60.6449451,79.9137566 C59.8455574,80.6796181 59.8068328,80.0602933 60.6089865,78.8216436 C61.4111402,77.5829939 60.1000338,77.1793268 59.2978801,77.5083431 C58.5842399,77.7986516 57.9314527,77.5166376 57.5110135,77.1433838 C57.2039823,77.6355259 56.9771664,78.091725 56.7448184,78.567278 C56.0533066,79.9884073 56.5263007,80.0215854 57.0380194,80.0215854 C57.5469721,80.0215854 58.6395608,82.1726334 58.7861613,82.5735356 C58.8387162,82.7145426 59.2121326,83.2619815 59.7072551,83.9614868 C59.6795946,83.6158814 59.7459797,83.217744 60.171951,83.0850316" id="Fill-108" fill="#007940"></path>
                <path d="M80.113769,68.7263721 C79.4554497,68.5826003 78.6062732,68.4720065 78.5094616,69.8212499 C78.473503,70.3299811 78.9824557,70.7308833 79.4554497,70.913363 C79.9312099,71.0958426 79.8565266,71.4220941 79.3475739,71.2396144 C78.8386212,71.0571348 78.4375443,70.9493059 78.0724261,72.005476 C77.7073079,73.0644109 78.3628611,73.2109475 78.6920207,73.2828335 C79.0211803,73.3547194 79.2756567,73.4266053 79.2037394,73.8662153 C79.1290562,74.3030605 78.9105384,75.5776532 79.7486508,75.6882469 C80.5867631,75.7960758 81.3169996,74.7758487 81.5714759,74.2671176 C81.8287183,73.7556216 82.1163872,73.2441257 82.1910705,73.8275075 C82.2657538,74.4108894 82.1551119,74.7039628 81.8646769,75.3592306 C81.5714759,76.0144984 81.5714759,76.3075718 82.0112774,76.2716288 C82.4483129,76.232921 83.1757834,76.2716288 83.3943011,75.7601328 C83.6128188,75.2486369 83.9419785,74.2671176 83.9779371,73.573142 C84.0000655,73.1390616 84.38178,73.0920593 84.6611508,73.1169429 C84.7468982,72.3787298 84.8547741,71.6543409 84.9626499,71.0211918 C83.5326035,71.2368496 82.3127766,69.4894688 81.8895714,67.9770996 C81.402747,68.5051846 80.6891068,68.8535549 80.113769,68.7263721" id="Fill-110" fill="#007940"></path>
                <path d="M73.2973986,68.4720065 C73.0401562,68.9088517 72.3126858,70.1475014 72.6390794,70.5484037 C72.968239,70.9493059 73.3333573,70.1475014 73.6237922,70.4405748 C73.9169932,70.7336482 74.5725465,71.0571348 74.5725465,70.841477 C74.5725465,70.6230544 74.6444637,70.1834444 74.7551056,69.6028273 C74.8657475,69.0194455 75.1202238,68.6904291 75.3747002,69.1632173 C75.6291765,69.6387703 75.9942948,70.0396725 76.9043243,69.8212499 C77.8171199,69.6028273 77.706478,68.6544862 77.526685,67.9632754 C77.3413598,67.2692998 77.9996791,66.9430483 78.3260726,66.7605687 C78.6552323,66.578089 79.4933446,65.9200564 78.87375,65.3366745 C78.2541554,64.7560575 77.706478,65.5938049 77.1615667,65.7016338 C76.6138894,65.8122275 76.8324071,65.3366745 77.9637204,64.4629841 C78.9401351,63.7081819 78.1213851,62.9533798 77.526685,62.6907197 C75.9583361,64.2722099 73.1784586,66.8324546 72.5671622,67.4158365 C72.3486444,67.6259646 72.1605532,67.8720356 71.9835262,68.165109 C73.4495312,67.4821927 73.5380448,68.0572801 73.2973986,68.4720065" id="Fill-112" fill="#007940"></path>
                <path d="M82.3379476,83.1215275 C82.8109417,83.5583727 83.9422551,84.1776975 84.7444088,83.447779 C85.5465625,82.7206252 84.5618497,81.9188208 84.4539738,81.3354389 C84.3433319,80.752057 85.0376098,80.3870977 84.6724916,79.4415214 C84.0363007,77.7909101 83.1041427,79.7677729 82.5564654,80.3152118 C82.008788,80.8598859 82.1000676,79.9336634 82.592424,79.4415214 C82.8496664,79.184391 83.9782137,78.4931802 83.3226605,77.7273187 C82.6643412,76.9614571 81.718353,77.3983024 81.245359,77.7273187 C80.7695988,78.056335 80.4072466,78.4572372 79.6770101,78.2388146 C78.9467736,78.020392 78.3271791,77.9457413 77.8901436,79.0046762 C77.4531081,80.0580814 78.2912204,79.7677729 78.9827323,80.5336344 C79.6770101,81.2994959 79.2399747,81.3354389 78.6922973,81.1529592 C78.1446199,80.9704796 77.8901436,80.2792688 77.0879899,80.3870977 C76.2858361,80.4949266 76.2858361,81.7722841 76.5430785,82.1013004 C76.7975549,82.4275519 77.3065076,82.6100315 76.9413894,83.2293564 C76.5790372,83.8486812 77.1239485,84.5785998 77.7795017,84.8689083 C78.4378209,85.1619817 79.4197677,83.9952179 79.787652,83.5224297 C80.1500042,83.0468767 80.5151225,83.1574704 80.4404392,83.5224297 C80.3795861,83.834857 80.2080912,84.6587802 80.1859628,85.3472262 C80.7391723,85.1702762 81.2896157,85.0071505 81.8179307,84.8606138 C81.8179307,84.4790654 81.7349493,83.8625054 81.5717525,83.2680642 C81.3532348,82.4662597 81.8649535,82.6846823 82.3379476,83.1215275" id="Fill-114" fill="#007940"></path>
                <path d="M72.8592568,87.0210621 C71.9851858,87.2754277 71.8385853,86.8745255 71.2549493,86.6561029 C70.6713133,86.4376803 70.6353547,86.9464114 71.0364316,87.5657362 C71.4375084,88.1878259 71.8745439,88.768443 71.4015498,88.768443 C70.9257897,88.768443 70.5634375,88.8430937 70.4887542,89.208053 C70.416837,89.5702474 69.6506419,89.1334022 69.4680828,88.3675407 C69.2855236,87.6016792 69.1057306,86.1473717 68.7018877,86.8745255 C68.3035769,87.6016792 67.9356926,88.8071508 66.9177872,88.2597118 C65.8943497,87.7122729 66.5886275,86.9851192 66.0769088,86.4736232 C65.5679561,85.9648921 65.094962,85.3068594 65.6039147,84.3972261 C66.1156334,83.4848279 66.5526689,84.2506894 67.025663,84.2506894 C67.4986571,84.2506894 67.5733404,83.8138442 67.1363049,83.4848279 C66.6965034,83.1585764 66.1515921,81.5909104 68.1569764,81.6987392 C68.9287035,81.7429767 69.7612838,81.4803166 70.416837,81.0075285 C71.0723902,80.5319755 72.7873395,80.7891059 72.0930617,81.9918126 C71.4015498,83.1945193 71.6200676,83.4488849 72.0211444,83.0120397 C72.4222213,82.5724297 72.931174,81.77339 73.6973691,81.9918126 C74.4635642,82.2102352 74.1344046,82.7936171 73.6614105,83.4488849 C73.1884164,84.1041527 73.4788514,84.5437628 73.8439696,84.7981283 C74.2090878,85.0524939 74.8784713,86.4321506 72.8592568,87.0210621" id="Fill-116" fill="#007940"></path>
                <path d="M76.578484,78.4207413 C75.9201647,78.4566843 75.118011,78.2742046 75.118011,78.2742046 C75.0460937,78.9654154 74.3739443,79.9579941 73.6962627,80.9726915 C73.6243454,81.0805203 73.2232686,81.0805203 73.0407095,80.9339837 C72.8581503,80.787447 72.3491976,80.5330814 72.7502745,80.0962362 C73.1513514,79.659391 73.8069046,78.7469928 73.6962627,78.3460906 C73.5883868,77.9479532 73.2979519,77.5829939 72.8581503,78.127668 C72.4211149,78.6751069 71.729603,79.8059277 70.9634079,79.8418707 C70.1972128,79.8778136 69.4337838,79.1866028 69.796136,78.4926272 C70.1612542,77.8014165 70.2691301,77.4364572 69.7601774,76.8171323 C69.2512247,76.1978075 69.4393159,75.4042975 70.5263725,74.92045 C70.852766,74.7766782 71.436402,74.92045 71.8374789,75.2494663 C72.2385557,75.5784827 72.4570735,75.2494663 71.9121622,74.92045 C71.3644848,74.5941985 70.9274493,74.1932963 70.852766,73.4633777 C70.7836149,72.7721669 71.2178843,72.0450132 72.1666385,72.4431506 C73.1126267,72.8440529 73.6962627,72.5150365 74.0973395,72.1887851 C74.5011824,71.8597687 76.2105997,71.450572 75.9588894,72.9546466 C75.7735642,74.0467596 75.2673775,74.0827026 75.118011,74.6660844 C74.9741765,75.2494663 75.411212,74.884507 75.6656883,74.4476618 C75.9201647,74.0108166 76.5038007,72.2219632 77.7070312,73.5739714 C78.0002323,73.9029878 77.8895904,74.4476618 77.5244721,75.0669867 C77.1621199,75.6863115 77.4525549,76.0512708 77.6710726,76.3802871 C77.8895904,76.7065386 78.3985431,78.3184421 76.578484,78.4207413" id="Fill-118" fill="#007940"></path>
                <polygon id="Fill-120" fill="#FEFEFE" points="106.65178 49.4388269 107.766497 48.6508466 110.17849 52.2313184 111.597473 51.2249155 109.113562 47.7135648 110.195087 46.953233 112.836662 50.6581227 114.261176 49.648955 110.333389 44.1496821 103.874668 48.7227325 107.437337 53.787925 108.859086 52.7815222"></polygon>
                <polygon id="Fill-122" fill="#FEFEFE" points="111.319761 61.8789618 113.433022 60.9029722 111.978081 57.7427566 116.923773 55.6829485 116.027574 53.7033208 109.037772 56.7418834"></polygon>
                <polygon id="Fill-124" fill="#FEFEFE" points="112.57859 65.2202746 112.797107 67.169489 117.488323 66.6165204 117.673649 68.64868 119.773079 68.4938488 119.186677 61.6785106 117.087247 61.8361067 117.269806 64.6700708"></polygon>
                <polygon id="Fill-126" fill="#FEFEFE" points="112.815363 71.8664044 112.84579 74.1888725 119.73878 74.1667538 119.711119 71.8470505"></polygon>
                <path d="M116.054128,77.4710177 C114.89792,77.2498303 113.528727,77.4406045 112.571674,78.1677582 C111.711434,78.8202611 111.310357,79.4755289 111.083541,80.6644115 C110.939707,81.4164488 111.05588,82.4062626 111.307591,83.2744233 L113.12765,82.663393 C112.953389,82.2431368 112.878706,81.6072229 113.069563,80.9602497 C113.437447,79.7160703 114.449821,79.1548071 115.686244,79.3372868 C116.99735,79.528061 117.744183,80.7307677 117.509069,82.1629564 C117.417789,82.7325141 117.132886,83.227421 116.482865,83.614499 L117.611413,84.9748018 C118.52974,84.4107738 119.226784,83.3048366 119.376151,82.5251508 C119.627861,81.2146152 119.315298,80.3105115 118.706767,79.246047 C118.114833,78.206466 117.113524,77.6756161 116.054128,77.4710177" id="Fill-128" fill="#FEFEFE"></path>
                <path d="M114.789215,87.1001367 C113.82663,86.8540656 112.515524,87.9102357 111.882099,88.5185011 C111.516981,88.8696362 110.244599,90.1525234 109.655431,89.9534547 C109.129882,89.7765047 109.290312,88.9747002 109.46734,88.4493801 C109.727348,87.6835185 110.122893,87.0393101 110.739721,86.6245836 L109.597344,86.1186174 C109.041368,86.583111 108.42454,87.3296186 108.170063,88.0816559 C107.876862,88.9525815 107.755156,89.9700438 107.879628,90.617017 C108.040059,91.4492348 108.330494,91.9800847 109.273716,91.8943745 C109.998421,91.8280183 111.821246,90.6446655 112.87511,89.6520868 C113.406191,89.1488854 113.862589,89.0963533 114.100469,89.226301 C114.484949,89.4391939 114.460055,90.0944617 114.321753,90.5064233 C114.136427,91.0566271 113.873653,91.8971394 113.436617,92.2068018 L114.993902,93.2519125 C115.630093,92.6132337 115.959253,91.6510683 116.144578,90.7524943 C116.598209,88.5848574 115.422639,87.2632624 114.789215,87.1001367" id="Fill-130" fill="#FEFEFE"></path>
                <path d="M106.13038,41.3524904 C105.994844,40.285261 105.405676,39.0576707 104.805443,38.5378802 C103.876052,37.7333108 102.780697,37.5176531 101.610659,37.6697194 C100.426791,37.8245507 99.3259037,38.5848825 98.7035431,39.4668674 C98.0258615,40.4290328 97.6358488,41.7533926 97.9041554,42.9256861 C98.1448015,43.9763265 98.5790709,44.6122404 99.5693159,45.3089808 C100.197209,45.7513557 101.148729,46.0499588 102.042162,46.1799064 L102.233019,44.2693998 C101.779388,44.2555756 101.168091,44.0620366 100.659139,43.6224266 C99.6744257,42.7736197 99.6274029,41.429906 100.25253,40.5700398 C101.032555,39.4972807 102.390684,39.2677987 103.599447,40.0696032 C104.080739,40.390325 104.26883,40.9045858 104.354578,41.659388 L106.13038,41.3524904 Z" id="Fill-132" fill="#FEFEFE"></path>
                <path d="M35.6039189,81.0600605 C35.6537078,80.54027 35.6232813,79.5863992 36.1875549,79.4675109 C36.7324662,79.3513875 37.0920524,79.8822374 37.2082264,80.4241466 C37.3741892,81.2148917 37.598239,81.8286869 37.2801436,82.5005437 L38.7461486,82.3484774 C38.9895608,81.6655611 38.9148775,80.7559278 38.7489147,79.9790069 C38.5580574,79.0831977 38.2731546,78.4500487 37.6120693,77.8639019 C36.9758784,77.2998739 36.4945861,77.1505724 35.5679603,77.3468763 C35.0009206,77.4657645 33.9940794,78.4776971 33.9581208,80.5126216 C33.9525887,80.8969348 33.8585431,81.6351479 33.5127872,81.6517369 C33.0702196,81.6738557 32.7465921,81.1485355 32.6553125,80.7255145 C32.5363725,80.1587217 32.6995693,78.9145423 32.9153209,78.4251651 L31.3773986,78.4168705 C31.1561149,79.2905609 31.0703674,80.5153864 31.2612247,81.4111956 C31.6788978,83.3908232 32.8793623,84.0377965 33.853011,83.9299676 C34.8930448,83.816609 35.4407221,82.7300257 35.6039189,81.0600605" id="Fill-134" fill="#FEFEFE"></path>
                <polygon id="Fill-136" fill="#FEFEFE" points="32.5294573 72.7121698 37.9730384 72.6430488 37.948144 70.9343758 32.5045629 71.0034968 32.4824345 68.6837935 30.7398247 68.7031474 30.8089759 75.1977638 32.5515857 75.1784099"></polygon>
                <polygon id="Fill-138" fill="#FEFEFE" points="42.3616491 55.6306929 38.1572572 53.2086904 38.1710874 53.1865717 43.7363746 53.0953318 45.0640773 51.0465831 38.207046 47.0928576 37.1697783 48.7047611 41.8499303 51.6410244 35.4658932 51.823504 34.5752259 53.5432364 41.3243813 57.461019"></polygon>
                <path d="M35.5544067,59.6070902 C36.7659354,59.6070902 37.7478822,60.5886095 37.7478822,61.7996108 C37.7478822,63.010612 36.7659354,63.9948962 35.5544067,63.9948962 C34.342878,63.9948962 33.3581651,63.010612 33.3581651,61.7996108 C33.3581651,60.5886095 34.342878,59.6070902 35.5544067,59.6070902 M35.5544067,66.0132316 C37.8806524,66.0132316 39.7670967,64.1276086 39.7670967,61.7996108 C39.7670967,59.4743778 37.8806524,57.5887548 35.5544067,57.5887548 C33.2253948,57.5887548 31.3389506,59.4743778 31.3389506,61.7996108 C31.3389506,64.1276086 33.2253948,66.0132316 35.5544067,66.0132316" id="Fill-140" fill="#FEFEFE"></path>
                <path d="M38.2703885,91.7085771 C37.0588598,91.7085771 36.074147,90.7242929 36.074147,89.5132917 C36.074147,88.3022904 37.0588598,87.3207711 38.2703885,87.3207711 C39.4819172,87.3207711 40.463864,88.3022904 40.463864,89.5132917 C40.463864,90.7242929 39.4819172,91.7085771 38.2703885,91.7085771 M42.4830785,89.5132917 C42.4830785,87.1880587 40.5966343,85.3024357 38.2703885,85.3024357 C35.9413767,85.3024357 34.0549324,87.1880587 34.0549324,89.5132917 C34.0549324,91.8412895 35.9413767,93.7269125 38.2703885,93.7269125 C40.5966343,93.7269125 42.4830785,91.8412895 42.4830785,89.5132917" id="Fill-142" fill="#FEFEFE"></path>
                <path d="M46.184603,99.3356731 L46.0407686,99.161488 C45.5760726,98.6029897 44.0049578,96.941319 44.6522128,96.3330536 C45.244147,95.7745553 46.7378125,97.6684728 47.1582517,98.174439 L47.3408108,98.3956265 L46.184603,99.3356731 Z M43.5955828,101.671966 C43.0396073,101.005638 41.3799789,99.7006324 42.088087,99.0343052 C42.7630025,98.3983913 44.428163,100.427786 44.6356166,100.676622 L43.5955828,101.671966 Z M43.3411064,94.3257775 C42.6938514,94.8981 42.381288,96.2584028 42.9898184,97.1818604 C42.3259671,96.8583738 40.9872002,96.74778 40.3703716,97.2813947 C38.8545777,98.59746 40.6939992,100.499672 42.204261,102.009276 L44.309223,104.085674 L49.9049367,99.4600911 L47.6395439,96.8251956 C46.8456883,95.8270873 44.6494468,93.1673083 43.3411064,94.3257775 L43.3411064,94.3257775 Z" id="Fill-144" fill="#FEFEFE"></path>
                <path d="M68.2471495,116.099746 C68.4850296,115.989152 68.8114231,115.845381 68.9580236,115.953209 C69.1046242,116.063803 69.9786951,116.683128 70.5263725,117.158681 C71.0712838,117.631469 71.2538429,117.778006 70.8168074,118.032371 C70.379772,118.286737 69.9786951,118.541102 70.0533784,118.32268 C70.1252956,118.104257 70.2331715,117.778006 69.9427365,117.484932 C69.6495355,117.194624 68.9358953,116.641655 68.628864,116.392819 C68.4297086,116.226929 68.2471495,116.099746 68.2471495,116.099746" id="Fill-146" fill="#8C6F4B"></path>
                <path d="M66.1869975,116.701652 C66.0044383,116.864778 65.9684797,117.138498 66.1869975,117.35692 C66.4055152,117.575343 67.6281081,118.59557 67.8272635,118.797403 C68.029185,118.996472 68.3196199,119.071123 68.6487796,118.996472 C68.9751731,118.924586 68.264299,119.397374 67.9904603,119.452671 C67.7193877,119.505203 67.4095904,119.505203 67.1163894,119.234249 C66.8259544,118.960529 65.1856883,117.412217 64.8565287,117.102555 C64.5273691,116.792892 64.9478083,116.792892 65.2382432,116.756949 C65.5314443,116.721006 65.7859206,116.737595 66.1869975,116.701652" id="Fill-148" fill="#8C6F4B"></path>
                <path d="M64.1456546,107.372795 C64.2562965,107.704577 64.2922551,108.008709 63.7805363,107.936823 C63.2715836,107.864937 61.1195988,107.663104 60.5000042,107.663104 C60.3534037,107.663104 60.4087247,107.30091 60.1902069,107.444681 C59.9716892,107.591218 60.0629688,107.91747 60.0629688,108.285194 C60.0629688,108.647388 60.0325422,108.865811 60.0463725,109.122941 C60.0629688,109.504489 60.3008488,110.032574 61.2827956,110.085106 C62.2675084,110.140403 63.1969003,110.032574 63.4901014,109.833506 C63.7805363,109.631672 63.470739,109.302656 63.1969003,109.302656 C62.9258277,109.302656 61.2827956,109.429839 60.9370397,109.302656 C60.5912838,109.175473 60.367234,108.777336 60.6106461,108.611445 C60.9010811,108.409612 61.4681208,108.666742 62.0323944,108.666742 C62.5966681,108.666742 63.1969003,108.520205 63.3435008,108.611445 C63.4901014,108.702685 63.6920228,108.666742 63.6920228,109.357953 C63.6920228,109.504489 64.0350127,109.559786 64.2009755,109.559786 C64.3641723,109.559786 64.4360895,109.833506 64.4194932,110.1957 C64.4001309,110.560659 64.4360895,110.63531 63.7805363,110.63531 C63.1249831,110.63531 60.3008488,110.596602 59.8804096,110.596602 C59.7172128,110.596602 59.6978505,110.46942 59.6812542,110.140403 C59.6618919,109.814152 59.554016,107.535921 59.5152914,107.353442 C59.4793328,107.170962 59.9523269,107.154373 60.3368074,107.226259 C60.718522,107.30091 61.1942821,107.372795 61.8138767,107.408738 C62.4334713,107.444681 63.3794595,107.535921 63.3794595,107.535921 C63.3794595,107.535921 63.8552196,107.591218 63.9077745,107.444681 C63.9630954,107.30091 64.1096959,107.264967 64.1456546,107.372795" id="Fill-150" fill="#8C6F4B"></path>
                <path d="M74.1532137,29.8078882 C74.2223649,29.6309382 74.2804519,29.4373992 74.3551351,29.2798032 C74.0868285,29.4208102 73.8323522,29.5562875 73.5917061,29.6917648 C73.7521368,29.9184819 73.9706546,30.2779115 74.1532137,29.8078882" id="Fill-152" fill="#8C6F4B"></path>
                <path d="M80.7341934,30.1717415 C80.6235515,29.7901932 80.2777956,30.3901642 79.8213978,30.9376031 C79.365,31.485042 78.7094468,31.1560257 78.6375296,30.8823062 C78.5656123,30.6085868 78.4383742,30.2989243 78.0372973,29.7708393 C77.6334544,29.2427543 78.4190118,28.5156006 78.7481715,28.4215959 C79.074565,28.3331209 79.4950042,28.2584702 79.6028801,28.1672303 C79.6969257,28.0898147 79.5309628,27.5534352 79.4424493,27.1387087 C78.1313429,27.5119625 76.5325676,28.1976436 75.1218834,28.8916192 C75.5533868,29.0575098 75.4261486,29.8897276 75.3735938,30.0086158 C75.3210389,30.1357986 75.1744383,30.8657172 75.5008319,30.4261071 C75.8299916,29.9892619 75.9572297,29.8261362 76.3029856,29.7183073 C76.6515076,29.6077136 77.0332221,29.6270675 77.0525845,30.1357986 C77.0691807,30.6472946 76.8340667,30.6085868 76.7593834,30.9376031 C76.6874662,31.2638546 76.7593834,31.2472655 76.9253463,31.3191514 C77.0885431,31.3938022 77.1964189,31.6122248 77.0691807,31.9578302 C76.9419426,32.3034355 76.3970313,32.3393785 75.9019088,32.2868465 C75.4095524,32.2315496 75.3569975,32.3034355 75.5201943,32.4693261 C75.6529645,32.6020386 75.8327576,32.8923471 75.8963767,33.1964799 C77.083011,32.6241573 78.5185895,32.1430747 80.7397255,31.6868755 C80.8005785,31.2666194 80.825473,30.4896985 80.7341934,30.1717415" id="Fill-154" fill="#8C6F4B"></path>
                <path d="M69.213883,37.3694575 C69.0506862,37.0404412 68.8128062,36.9851443 68.7215266,37.2422747 C68.630247,37.4966403 68.4476879,38.3537416 67.8834143,38.5887533 C67.7008552,38.6661689 67.5570207,38.7131712 67.4546769,38.7408196 C67.6510663,38.9537126 67.869584,39.1417219 68.1185283,39.3186718 C68.566628,38.8486485 68.9843011,38.417333 69.3826119,38.0191956 C69.3687817,37.8173621 69.327291,37.5934098 69.213883,37.3694575" id="Fill-156" fill="#8C6F4B"></path>
                <path d="M74.6627196,33.0148297 C74.4635642,32.9429437 74.3003674,33.2526062 74.1703632,33.4710288 C74.043125,33.6894514 73.7692863,34.0544107 73.2962922,33.9991138 C72.8232981,33.9438169 72.7126563,33.7806912 72.5854181,33.379789 C72.4581799,32.9788867 72.1677449,32.8517039 71.819223,32.8517039 C71.4734671,32.8517039 71.235587,32.4314478 71.6007052,31.9946026 C71.9658235,31.5577574 72.3309417,31.7568261 72.6213767,31.7568261 C72.9118117,31.7568261 73.0611782,31.4471637 72.8232981,31.2840379 C72.6352069,31.1540903 72.3032813,30.7808365 72.2451943,30.4960576 C71.2051605,31.1789739 69.714261,32.2351439 68.4142188,33.4074374 C68.6520988,33.4267913 68.9259375,33.5042069 69.0504096,33.5622686 C69.2136064,33.6341545 69.5040414,33.8525771 69.4680828,34.1815934 C69.4321242,34.5078449 69.54,34.5824957 69.7419215,34.3640731 C69.9410769,34.1456505 69.7059628,33.4876178 70.3808784,33.2332523 C71.0557939,32.9788867 71.1470735,33.4876178 71.1083488,33.8332232 C71.0723902,34.1815934 71.1083488,34.5078449 71.4568708,34.6543816 C71.7998606,34.8009183 72.2009375,35.3649463 71.4375084,35.6939626 C70.6713133,36.0202141 70.2536402,36.0948648 69.9410769,36.1861047 C69.6312796,36.2773445 69.7059628,36.5870069 69.9604392,36.7860756 C70.1153378,36.9077287 70.2287458,37.0266169 70.3200253,37.1178568 C71.2826098,36.2248125 72.1926394,35.4921291 73.224375,34.8009183 C73.7886486,34.4221348 74.3031334,34.0792942 74.8369806,33.766867 C74.9254941,33.4378507 74.9559206,33.1198937 74.6627196,33.0148297" id="Fill-158" fill="#8C6F4B"></path>
                <path d="M67.5171896,36.4219458 C67.5365519,36.0569865 67.2627133,35.9298037 67.0801541,35.8745068 C66.9473839,35.835799 66.6984396,35.5759038 66.5877977,35.3547164 C66.4052386,35.5980225 66.2448079,35.8385639 66.1148036,36.0763404 C66.195019,36.3224114 66.2724683,36.5491286 66.3526837,36.7620215 C66.8090815,36.7509621 67.5033594,36.7288434 67.5171896,36.4219458" id="Fill-160" fill="#8C6F4B"></path>
                <path d="M82.921307,53.4215833 C81.7291406,53.3469326 80.3073923,53.5874739 78.9492631,54.1100293 C79.1871432,54.2538011 79.4388535,54.5745229 79.9312099,54.4058675 C80.6254878,54.168091 80.8633678,54.8980095 80.5342082,55.0970782 C80.2050486,55.2989118 80.0944067,55.8076429 80.7140013,55.4260945 C81.3335959,55.0445462 81.8812732,55.5892203 81.6267969,55.9901225 C81.3723205,56.3910248 81.0431609,56.0813624 81.1150781,56.6453903 C81.1897614,57.2121832 81.0625232,57.7209143 80.5508045,57.8121541 C80.0390857,57.9033939 79.9312099,57.1402972 79.6960959,57.1928293 C79.4554497,57.2481261 79.7486508,58.5420727 79.6407749,58.5586617 C79.2839548,58.6194883 78.943731,58.9291507 78.7611719,59.1143952 C78.7750021,59.1254546 78.7888323,59.1337491 78.7998965,59.1420436 C80.8080469,60.5825269 81.3169996,59.8000763 81.6074345,59.1061007 C81.9006356,58.4148899 82.5478906,56.3633763 82.7387479,55.2795579 C82.8493898,54.660233 82.9932242,54.0049652 82.921307,53.4215833" id="Fill-162" fill="#8C6F4B"></path>
                <path d="M78.5647825,57.3935569 C78.6754244,57.1198374 78.3822234,56.8848257 78.0724261,57.0838944 C77.7626288,57.285728 77.306231,57.5760365 76.9964337,57.0479515 C76.6866364,56.5171016 77.3421896,56.4645696 77.3781482,56.210204 C77.4168729,55.9558385 77.1623965,55.9171307 77.2896347,55.4996394 C77.4168729,55.0793832 77.8677386,55.2038012 78.1996643,55.4249886 C78.5841448,55.682119 78.4707369,55.0766184 78.418182,54.8416067 C78.3794573,54.6646568 78.3490308,54.484942 78.3822234,54.3466998 C77.9894447,54.5264146 77.6021981,54.7254833 77.2343138,54.9522004 C75.3616997,56.0968455 75.3008467,57.0645405 75.7378822,57.4294998 C76.1306609,57.7557513 76.9328146,57.9105825 78.2937099,58.7980971 C78.3103062,58.325309 78.4818011,57.6036849 78.5647825,57.3935569" id="Fill-164" fill="#8C6F4B"></path>
                <path d="M72.6042272,56.299785 C71.829734,55.9127069 71.071837,55.0611353 70.5628843,54.0768511 C70.5628843,54.0768511 70.5988429,53.9330793 70.3803252,53.9330793 C70.1618074,53.9330793 69.3596537,53.8584285 68.0098226,53.3856404 C66.6599916,52.9128522 66.4801985,53.2031607 66.2976394,53.7865426 C66.1150802,54.3699245 65.9684797,55.4260945 65.9325211,57.1762402 C65.8965625,58.923621 66.6599916,60.0184989 67.1357517,59.8360192 C67.3653336,59.7447794 67.9627998,59.4489412 68.5989907,59.1392788 C68.6100549,58.7909086 68.6294172,58.1909376 68.6653758,57.9033939 C68.7206968,57.4859026 68.2836613,57.6490284 68.1011022,57.867451 C67.9185431,58.0858736 67.5727872,58.4508329 67.2463936,58.395536 C66.917234,58.3402391 66.6987162,57.7596221 66.7540372,57.2121832 C66.8065921,56.6647442 66.1704012,56.4463216 66.571478,55.7191679 C66.9725549,54.9892493 67.2989485,55.8988827 67.6474704,55.8269968 C67.9904603,55.7551109 67.8106672,55.5726312 67.6474704,55.0058384 C67.4815076,54.4418104 68.1591892,54.273155 68.5934586,54.6795869 C68.8672973,54.9339525 68.9945355,54.3699245 69.3956123,54.4418104 C69.7966892,54.5136963 70.0345693,54.7874158 69.7966892,55.188318 C69.6141301,55.4979805 69.4868919,56.227899 69.8354139,55.8463507 C70.1784037,55.4620375 70.5269257,55.224261 70.8533193,55.4813914 C71.1824789,55.735757 70.9639611,56.263842 70.8726816,56.5375615 C70.781402,56.8112809 71.4563176,57.1402972 70.9805574,57.4665487 C70.5075633,57.7928002 69.9792483,57.2315371 69.7054096,57.303423 C69.434337,57.3753089 69.379016,57.7043252 69.7413682,57.9586908 C69.9792483,58.1245814 70.2309586,58.254529 70.4135177,58.3291798 C71.1714147,58.0720494 72.0620819,57.5743776 72.3497508,57.3946628 L72.8227449,57.4306058 C72.8587035,56.8112809 72.8227449,56.4103787 72.6042272,56.299785" id="Fill-166" fill="#8C6F4B"></path>
                <path d="M69.9059481,64.3175533 C69.6155131,63.6622855 69.5131693,64.165487 68.7027175,65.4483742 C68.2933425,66.0953474 67.2588408,67.2980542 65.9643307,68.6555921 C66.86053,68.8353069 68.793997,69.3108599 67.6460874,70.2592011 C66.4068982,71.2766633 66.9518095,71.2047774 67.4994869,71.1328915 C68.0471643,71.0582407 68.9599599,71.3872571 68.265682,72.6259067 C67.5741702,73.8645564 67.0984101,74.7382468 66.4428568,75.1419139 C65.7873036,75.5400513 64.8385494,75.5041084 64.6200317,74.558532 C64.4015139,73.6101909 63.7819193,74.558532 63.7459607,75.1778569 C63.7072361,75.7971817 63.6353188,76.8533518 63.7072361,77.2183111 L62.3242124,77.1436603 C62.2854878,76.5630433 62.2854878,75.3962795 62.3961296,74.8488406 C62.5067715,74.3041665 62.4680469,73.6461338 61.6299345,73.9004994 C61.0822572,74.0691548 60.7088408,73.9281478 60.5124514,73.8147893 C58.8832496,75.2663319 58.0589675,76.2644402 57.505758,77.14919 C57.9261972,77.519679 58.5900486,77.7989281 59.2981567,77.5086196 C60.0975443,77.1796033 61.4114168,77.5832704 60.6092631,78.82192 C59.8071094,80.0605697 59.843068,80.6798946 60.6452217,79.9140331 C61.4473754,79.1481715 62.7363535,77.8321062 63.1263661,79.2228223 C63.3808425,80.1324557 62.5427302,80.4227642 62.5786888,81.1526827 C62.6146474,81.8826013 63.3448839,82.609755 62.3242124,83.4862103 C61.303541,84.3599007 60.8637394,82.8641206 60.1722276,83.085308 C59.7545545,83.2180205 59.668807,83.6023337 59.6937014,83.9424094 C60.6009649,85.2252966 61.9231356,87.0390336 62.3961296,87.8214842 C63.1263661,89.0241909 63.1263661,90.4840281 63.4168011,90.2628406 C63.7072361,90.044418 64.4015139,89.3891502 64.6200317,89.2066706 C64.8385494,89.0241909 65.0570671,88.8057683 64.9491913,88.4048661 C64.8385494,88.0039638 64.4181102,85.8556808 64.5481144,84.3599007 C64.6919489,82.6484628 65.4941026,80.7711344 66.0777386,79.6956105 C66.6392462,78.6615591 68.3375992,75.3575717 68.7386761,74.4838813 C69.139753,73.6101909 69.8699894,72.5899638 70.0525486,71.7881593 C70.2351077,70.9863548 70.9266195,69.1283803 71.2198205,68.251925 C71.1451372,67.5247713 70.6749092,66.0483451 69.9059481,64.3175533" id="Fill-168" fill="#8C6F4B"></path>
                <path d="M75.3744236,56.1908501 C75.1559058,56.774232 74.8654709,57.5041506 74.7188704,57.8691099 C74.5722698,58.2313043 73.9001204,58.0902973 73.9526753,57.8304021 C74.0633171,57.285728 73.2832918,57.6451576 73.3690393,57.2110772 C73.4437226,56.8461179 73.297122,56.2627361 73.6981989,56.2627361 C74.0992758,56.2627361 74.8654709,56.1908501 75.3744236,56.1908501" id="Fill-170" fill="#8C6F4B"></path>
                <path d="M74.1532137,29.8078882 C74.2223649,29.6309382 74.2804519,29.4373992 74.3551351,29.2798032 C74.0868285,29.4208102 73.8323522,29.5562875 73.5917061,29.6917648 C73.7521368,29.9184819 73.9706546,30.2779115 74.1532137,29.8078882" id="Fill-172" fill="#8C6F4B"></path>
                <path d="M76.578484,78.4207413 C75.9201647,78.4566843 75.118011,78.2742046 75.118011,78.2742046 C75.0460937,78.9654154 74.3739443,79.9579941 73.6962627,80.9726915 C73.6243454,81.0805203 73.2232686,81.0805203 73.0407095,80.9339837 C72.8581503,80.787447 72.3491976,80.5330814 72.7502745,80.0962362 C73.1513514,79.659391 73.8069046,78.7469928 73.6962627,78.3460906 C73.5883868,77.9479532 73.2979519,77.5829939 72.8581503,78.127668 C72.4211149,78.6751069 71.729603,79.8059277 70.9634079,79.8418707 C70.1972128,79.8778136 69.4337838,79.1866028 69.796136,78.4926272 C70.1612542,77.8014165 70.2691301,77.4364572 69.7601774,76.8171323 C69.2512247,76.1978075 69.4393159,75.4042975 70.5263725,74.92045 C70.852766,74.7766782 71.436402,74.92045 71.8374789,75.2494663 C72.2385557,75.5784827 72.4570735,75.2494663 71.9121622,74.92045 C71.3644848,74.5941985 70.9274493,74.1932963 70.852766,73.4633777 C70.7836149,72.7721669 71.2178843,72.0450132 72.1666385,72.4431506 C73.1126267,72.8440529 73.6962627,72.5150365 74.0973395,72.1887851 C74.5011824,71.8597687 76.2105997,71.450572 75.9588894,72.9546466 C75.7735642,74.0467596 75.2673775,74.0827026 75.118011,74.6660844 C74.9741765,75.2494663 75.411212,74.884507 75.6656883,74.4476618 C75.9201647,74.0108166 76.5038007,72.2219632 77.7070312,73.5739714 C78.0002323,73.9029878 77.8895904,74.4476618 77.5244721,75.0669867 C77.1621199,75.6863115 77.4525549,76.0512708 77.6710726,76.3802871 C77.8895904,76.7065386 78.3985431,78.3184421 76.578484,78.4207413 M72.8581503,87.0221681 C71.9840794,87.2765336 71.8374789,86.8728666 71.2538429,86.6572088 C70.672973,86.4387862 70.6342483,86.9475173 71.0353252,87.5668422 C71.436402,88.186167 71.8734375,88.7695489 71.4004434,88.7695489 C70.9274493,88.7695489 70.5623311,88.8414348 70.4876478,89.2063941 C70.4157306,89.5713534 69.6495355,89.1345082 69.4697424,88.3686466 C69.2871833,87.6027851 69.1046242,86.1457128 68.7035473,86.8728666 C68.3024704,87.6027851 67.9373522,88.8054919 66.9166807,88.2608178 C65.8960093,87.7133788 66.5875211,86.9834603 66.0785684,86.4719643 C65.5668497,85.9632332 65.0938556,85.3079654 65.6028083,84.3955672 C66.114527,83.4859338 66.5515625,84.2517953 67.0273226,84.2517953 C67.5003167,84.2517953 67.572234,83.8121853 67.1351985,83.4859338 C66.698163,83.1569175 66.1504856,81.5920163 68.1558699,81.6998452 C68.9275971,81.7413178 69.7601774,81.4814226 70.4157306,81.0086344 C71.0712838,80.5330814 72.7862331,80.787447 72.0947213,81.9929186 C71.4004434,83.1928604 71.6189611,83.4499908 72.020038,83.0131456 C72.4211149,82.5735356 72.9328336,81.7744959 73.6962627,81.9929186 C74.4624578,82.2113412 74.1360642,82.7919582 73.6603041,83.4499908 C73.18731,84.1052586 73.4777449,84.5421039 73.8428632,84.7964694 C74.2079814,85.0535998 74.8801309,86.4304917 72.8581503,87.0221681 M85.8004856,80.4971385 C84.8544975,78.9322373 84.6719383,78.3101476 84.5253378,76.7065386 C84.4340583,75.6973709 84.5142736,74.3813056 84.6608742,73.1177723 C84.3815034,73.0956536 83.9997889,73.1481856 83.9776605,73.5739714 C83.9417019,74.2651822 83.6125422,75.2494663 83.3940245,75.7581974 C83.1755068,76.2696934 82.4480363,76.2337505 82.0110008,76.2696934 C81.5711993,76.3084012 81.5711993,76.0153279 81.8644003,75.36006 C82.1548353,74.7020274 82.2654772,74.4117189 82.1907939,73.828337 C82.1188767,73.2449551 81.8284417,73.7564511 81.5711993,74.2651822 C81.316723,74.7766782 80.5892525,75.7969053 79.7483742,75.6863115 C78.9102618,75.5784827 79.1287796,74.30389 79.2034628,73.86428 C79.2753801,73.4274347 79.0209037,73.3555488 78.6917441,73.2808981 C78.3625845,73.2090121 77.7070312,73.0624755 78.0721495,72.0063054 C78.4372677,70.9501354 78.8383446,71.0579642 79.3472973,71.2404439 C79.859016,71.4229235 79.9309333,71.096672 79.4579392,70.9141924 C78.9821791,70.7317128 78.4732264,70.3308105 78.509185,69.8193146 C78.6059966,68.4700711 79.4579392,68.5806649 80.1134924,68.7272015 C80.6860642,68.8516195 81.4052365,68.5115438 81.8948269,67.9889884 C81.8837627,67.9558103 81.8726985,67.9226322 81.8644003,67.8866893 C80.8907517,64.1790347 82.7384713,59.6170437 83.247424,58.342451 C83.7591427,57.0650935 85.7285684,53.4763272 86.403484,52.4008033 C86.0383657,52.2183236 85.0730152,51.7289464 84.5419341,51.4524621 C84.0163851,51.1815075 83.7231841,51.0515599 83.5765836,51.2533934 C83.4299831,51.4524621 83.247424,51.5630558 82.9929476,51.9280151 C82.4812289,52.6579337 82.9210304,52.54734 83.0676309,52.54734 C83.2114654,52.54734 83.83106,53.3491444 83.9417019,53.5316241 C84.0523437,53.7141037 83.9417019,53.8578756 83.6872255,54.4412575 C83.3525338,55.2043541 83.1395481,56.9572646 82.8491132,58.0134347 C81.963978,61.2123581 80.5892525,60.8916363 79.9696579,60.4907341 C79.3472973,60.0898318 79.1675042,60.7091567 78.5451436,61.5856119 C78.3985431,61.7929751 78.0278927,62.1911126 77.5383024,62.6832546 C78.1302365,62.9486795 78.9351562,63.7117762 77.9642736,64.4638135 C76.8329603,65.337504 76.6144426,65.813057 77.1621199,65.7024632 C77.7070312,65.5918695 78.2547086,64.7541221 78.8743032,65.337504 C79.4938978,65.9208858 78.6557855,66.5761536 78.3266258,66.7586333 C78.0002323,66.9411129 77.341913,67.2701293 77.5244721,67.96134 C77.7070312,68.6525508 77.8149071,69.600892 76.9048775,69.8193146 C75.994848,70.0377372 75.6297297,69.6368349 75.3752534,69.1640467 C75.118011,68.6912586 74.8635346,69.0175101 74.7556588,69.600892 C74.6450169,70.1842738 74.5730997,70.621119 74.5730997,70.8395416 C74.5730997,71.0579642 73.9175465,70.7317128 73.6243454,70.4414042 C73.3339105,70.1483309 72.9687922,70.9501354 72.6396326,70.5492331 C72.313239,70.1483309 73.0407095,68.9096812 73.2979519,68.472836 C73.538598,68.0581095 73.4362542,67.4885519 71.9868454,68.1576439 C71.5193834,68.9428593 71.1459671,70.0819746 70.5623311,71.8597687 C69.7601774,74.30389 67.9428843,77.6299962 67.1905194,78.8382326 C65.2266258,81.9956834 64.8753378,84.9789491 65.1657728,86.8369236 C65.4562078,88.6866036 65.7134502,88.5511263 66.114527,88.5511263 C66.5156039,88.5511263 67.5003167,89.789776 68.1558699,90.5556375 C68.8114231,91.321499 69.0686655,90.9924827 69.3950591,90.7353523 C70.4489231,89.9169588 72.5677154,88.5511263 75.5578125,87.129997 C76.8301943,86.5244963 78.5285473,85.8775231 80.1854096,85.349438 C80.2130701,84.6609921 80.3790329,83.834304 80.439886,83.5218768 C80.5145693,83.1569175 80.149451,83.0490886 79.7870988,83.5218768 C79.4192145,83.9946649 78.4372677,85.1614287 77.7789485,84.8711202 C77.1233953,84.5780468 76.578484,83.8508931 76.9436022,83.2315682 C77.3059544,82.6122434 76.7970017,82.4269989 76.5425253,82.1007474 C76.2852829,81.7744959 76.2852829,80.4971385 77.0874367,80.3865447 C77.8895904,80.2787159 78.1440667,80.9726915 78.6917441,81.1524063 C79.2394215,81.3348859 79.6764569,81.2989429 78.9821791,80.5330814 C78.2906672,79.7699847 77.4525549,80.0602933 77.8895904,79.0041232 C78.3266258,77.9479532 78.9462204,78.0198391 79.6764569,78.2382617 C80.4066934,78.4566843 80.7690456,78.055782 81.2448057,77.7295306 C81.7177998,77.4005142 82.6665541,76.963669 83.3221073,77.7295306 C83.9776605,78.4926272 82.8491132,79.1866028 82.5918708,79.4409684 C82.0995144,79.9331105 82.0110008,80.8620977 82.5559122,80.3146588 C83.1035895,79.7699847 84.0357475,77.7903571 84.6719383,79.4409684 C85.0370566,80.3865447 84.3427787,80.751504 84.4534206,81.3348859 C84.5612965,81.9182678 85.5460093,82.7200723 84.7438556,83.4499908 C83.9417019,84.1771446 82.8103885,83.5578197 82.3373944,83.1209745 C81.8644003,82.6841293 81.3526816,82.4657067 81.5711993,83.2675112 C81.7316301,83.8591876 81.8146115,84.4785125 81.8173775,84.8600608 C83.4106208,84.4204508 84.8019426,84.152261 85.5100507,84.2158524 C86.5500845,84.3070922 87.3328758,84.6167546 87.2969172,83.6684134 C87.2581926,82.7200723 86.7492399,82.0648045 85.8004856,80.4971385" id="Fill-174" fill="#8C6F4B"></path>
                <rect id="Rectangle" x="0" y="0" width="150" height="150"></rect>
            </g>
        </g>
    </g>
</svg>