<svg width="100%" height="100%" viewBox="0 0 150 150" version="1.1" xmlns="http://www.w3.org/2000/svg" xmlns:xlink="http://www.w3.org/1999/xlink">
    <defs>
        <polygon id="path-1" points="0.000778135525 113.781355 111.911451 113.781355 111.911451 0.00489094698 0.000778135525 0.00489094698"></polygon>
        <polygon id="path-3" points="0 113.790033 111.911451 113.790033 111.911451 0.0125309443 0 0.0125309443"></polygon>
    </defs>
    <g id="Page-1" stroke="none" stroke-width="1" fill="none" fill-rule="evenodd">
        <g id="CHA">
            <g id="Page-1" transform="translate(19.000000, 18.000000)">
                <g id="Group-3" transform="translate(0.000000, 0.008678)">
                    <mask id="mask-2" fill="white">
                        <use xlink:href="#path-1"></use>
                    </mask>
                    <g id="Clip-2"></g>
                    <path d="M109.230256,11.1291218 C109.230256,11.1291218 108.327618,11.562466 107.308261,12.0528975 C108.71928,7.10706494 109.572635,3.14209532 109.58301,3.09279268 L110.244426,0.00748582239 L107.603952,1.73826772 C107.375699,1.88617562 85.232556,16.4330472 68.3210772,29.7810863 L68.3081083,29.7525426 C68.1758253,29.3736908 67.950166,28.9066133 67.5585044,28.4265613 C67.6804123,28.3409304 67.8023202,28.2552995 67.9216343,28.1670738 C69.6050009,26.9682413 69.9084737,26.7398923 69.9888811,26.6438819 C71.9290323,24.9572129 72.390726,22.9124511 72.1987859,21.6746955 L71.5918402,17.7538387 L61.2374502,25.4658085 C58.5113821,24.767787 55.1576179,24.3136838 50.7118703,25.4632136 L40.360074,17.7538387 L39.7505345,21.6721006 C39.5560007,22.9124511 40.0202882,24.9572129 41.8515005,26.537492 C42.038253,26.7424872 42.3495072,26.9734311 44.0717805,28.2008071 C44.1755319,28.2760585 44.2818771,28.3539048 44.3882223,28.4265613 C44.0588116,28.8339567 43.8046206,29.2802753 43.6360246,29.7577324 L43.6282432,29.7784914 C27.0539566,16.6977245 4.57880881,1.89136537 4.34536815,1.73826772 L1.71008251,0.00489094698 L2.36371635,3.09019781 C2.41299826,3.31595197 3.34676089,7.69869654 4.59955909,12.0321385 C3.59057669,11.5468968 2.7190649,11.1291218 2.7190649,11.1291218 L0.000778135525,9.82649437 L0.924165625,12.6964266 C0.978635112,12.8702832 2.29627793,16.9598069 3.37010496,19.6818312 C4.95490765,24.0334372 7.96369834,30.9176417 10.6664224,35.6792381 C12.0670663,38.0509542 14.256221,40.2280547 17.0004456,41.9795956 C18.5670918,42.9760277 20.2478645,43.7986032 22.0064508,44.4239682 C22.3254864,45.1505333 22.9402134,46.4972737 23.6742546,47.7947114 L18.359589,47.7947114 L18.359589,56.9935447 L10.6249218,60.6990268 L18.3647765,64.5991245 L18.3751517,71.8440167 L25.2927765,76.0736636 L25.7415013,76.0191712 C25.7415013,76.0191712 29.9097139,75.502791 32.3037776,75.2433034 L50.1827382,85.5683127 C53.793287,102.131402 54.6933304,106.841101 54.7011118,106.885214 L56.0057857,113.782393 L57.2508025,106.874835 C57.2611776,106.825532 58.1638149,101.856346 61.7665823,85.5709076 L79.6455429,75.2433034 C82.0396066,75.502791 86.2052254,76.0191712 86.2078192,76.0191712 L86.656544,76.0736636 L93.5741688,71.8440167 L93.5819502,64.6017194 L101.324399,60.6990268 L93.5897315,56.9935447 L93.5897315,47.7947114 L88.2646908,47.7947114 C89.0065133,46.4842993 89.6212404,45.1479384 89.9402759,44.4239682 C92.111274,43.6403158 98.1392306,41.0636045 101.285492,35.6740483 C102.800262,33.076578 106.063244,26.4051534 108.571434,19.6999953 C108.659623,19.4716463 110.005797,15.978944 111.030342,12.6860471 L111.912229,9.8446585 L109.230256,11.1291218 Z" id="Fill-1" fill="#FEFEFE" mask="url(#mask-2)"></path>
                </g>
                <path d="M28.3804183,50.2145475 L20.7520963,50.2145475 L20.7520963,58.4973898 L16.1662843,60.744552 L20.7520963,63.139622 L20.7520963,70.5012835 L25.8177586,73.6021596 C27.6852839,73.3582413 30.0663786,73.0702101 32.8235721,72.7899636 L52.4040557,84.0802665 L55.973104,100.505828 C55.996448,100.466905 59.5784652,84.0802665 59.5784652,84.0802665 L79.1252296,72.7899636 C81.885017,73.0702101 84.2661117,73.3582413 86.1310431,73.6021596 L91.1915178,70.5012835 L91.1915178,63.139622 L95.787705,60.7964495 L91.1915178,58.4973898 L91.1915178,50.2145475 L83.5683835,50.2145475 C83.5683835,50.2145475 84.7485557,49.0728024 86.2451697,46.498686 C86.8702719,45.4218127 87.4590611,44.0802621 88.1827271,42.4896034 C93.7412086,40.7977447 97.8419828,37.2479551 99.6005691,33.7863913 C104.360165,25.0676099 107.942182,14.4078618 107.942182,14.4078618 C107.942182,14.4078618 105.887904,15.3939144 103.408246,16.6186956 C105.421023,10.4766255 106.629727,5.26352082 106.629727,5.26352082 C106.629727,5.26352082 84.6733359,19.7948231 67.5699171,33.4464626 L66.0888658,32.5564204 C66.0940534,32.4162971 66.1355539,31.168162 66.1355539,31.064367 C66.1355539,31.064367 66.3015562,29.6138317 63.7492717,28.7471433 C63.5910508,28.6926509 63.443205,28.6433483 63.2953593,28.5940456 C64.5325948,27.6650802 66.4571833,26.2430885 67.860421,25.2803897 C70.0988575,23.7442235 69.8342915,22.0549596 69.8342915,22.0549596 L61.7209317,28.0958296 C55.4517532,26.0614472 50.22787,28.0958296 50.22787,28.0958296 L42.1171041,22.0549596 C42.1171041,22.0549596 41.8499442,23.7442235 44.0883807,25.2803897 C45.4942122,26.2430885 47.416207,27.6650802 48.6560363,28.5940456 C48.5081905,28.6433483 48.357751,28.6926509 48.2021239,28.7471433 C45.6472456,29.6138317 45.8184354,31.064367 45.8184354,31.064367 C45.8184354,31.168162 45.8547484,32.4162971 45.8625297,32.5564204 L44.3788847,33.4464626 C27.2780596,19.7948231 5.32426264,5.26352082 5.32426264,5.26352082 C5.32426264,5.26352082 6.52777892,10.4766255 8.54055615,16.6186956 C5.88711401,15.3056887 4.00661982,14.4078618 4.00661982,14.4078618 C4.00661982,14.4078618 7.58863702,25.0676099 12.3508264,33.7863913 C14.1068189,37.2479551 18.2075932,40.7977447 23.7660746,42.4896034 C23.7660746,42.4896034 24.7050248,44.64335 25.5168795,46.1898958 C26.5180806,48.102319 28.3804183,50.2145475 28.3804183,50.2145475" id="Fill-4" fill="#1C1060"></path>
                <path d="M65.1823379,37.8011826 C65.1097119,38.042506 65.024117,38.2734499 64.9437097,38.5043938 C72.6316887,33.480715 86.0623078,24.7152259 101.111449,14.9351404 C101.111449,14.9351404 101.129605,15.2620948 102.462811,11.3931355 C86.5629084,20.9993643 72.4812491,31.8874615 65.1823379,37.8011826" id="Fill-6" fill="#008CA8"></path>
                <path d="M46.7664638,37.801961 C39.4675526,31.88824 25.3884872,21.0001427 9.48858459,11.3913191 C10.8191963,15.2628732 10.8373528,14.933324 10.8373528,14.933324 C25.8864939,24.7134095 39.3171131,33.4788986 47.005092,38.5025774 C46.9220909,38.2742283 46.8416836,38.0406896 46.7664638,37.801961" id="Fill-8" fill="#008CA8"></path>
                <path d="M32.8074906,50.642702 C32.8023031,50.6401071 29.0309396,47.9440316 26.901442,43.0085785 L28.4084311,43.457492 C33.3288414,44.7601194 42.7364999,46.0575571 42.7364999,46.0575571 C38.2051574,46.1587573 34.3741368,46.5142552 32.187576,46.7581735 C31.7336636,46.1950855 31.2123128,45.476305 31.0125914,44.9417607 C31.0125914,44.9417607 31.1811874,46.6673529 31.5676614,47.746821 C32.0578867,49.3245053 32.8023031,50.6375122 32.8074906,50.642702 M55.9673976,45.5671257 C54.6523486,45.0637199 51.3400851,43.4107842 49.3532457,39.0877218 C50.9821427,40.4915494 53.0675459,40.9404628 54.7353497,39.3264503 C52.6992284,38.4493824 52.4476313,34.8165569 52.053376,33.8642376 C51.2570839,31.9336503 49.9965044,30.9579771 49.0004909,30.5479868 C49.4907163,30.3819148 49.95241,30.2340069 50.3829784,30.1016682 C51.3348975,30.6180484 52.9248877,31.8065014 53.4228945,34.1756226 C53.4228945,34.1756226 53.6303973,31.4717625 52.2920042,29.5749085 C54.8883831,28.9495436 57.508106,29.0351744 59.6453849,29.5723137 C58.304398,31.4691676 58.509307,34.1756226 58.509307,34.1756226 C59.0099076,31.8039065 60.6050854,30.6128587 61.5595983,30.0990734 C61.9875728,30.231412 62.4492666,30.3819148 62.9472733,30.5479868 C61.9486661,30.9579771 60.6880865,31.9336503 59.8943883,33.8642376 C59.5027267,34.8165569 59.2485358,38.4493824 57.2176021,39.3264503 C57.6844834,42.0925875 57.1086631,44.6718937 55.9673976,45.5671257" id="Fill-10" fill="#008CA8"></path>
                <path d="M80.3702465,47.7457831 L80.3702465,47.7457831 C80.7567205,46.6663149 80.9253165,44.9407228 80.9253165,44.9407228 C80.725595,45.4752671 80.2042442,46.1940476 79.7477381,46.7571355 C77.563771,46.5158121 73.7301567,46.1603142 69.2014079,46.0591141 C69.2014079,46.0591141 78.6064726,44.7590815 83.5268829,43.456454 L85.0338721,43.0101355 C82.9069683,47.9455885 79.1356048,50.641664 79.1304172,50.641664 C79.1356048,50.6390692 79.8774273,49.3260622 80.3702465,47.7457831" id="Fill-12" fill="#008CA8"></path>
                <path d="M44.2593112,74.0025489 L34.6778691,68.4702745 C33.9879222,68.5351464 33.3109443,68.6000183 32.6599043,68.667485 L45.963428,76.3509111 C45.3149817,75.6347255 44.744349,74.8458834 44.2593112,74.0025489" id="Fill-14" fill="#008CA8"></path>
                <path d="M67.6871562,74.0025489 L77.2685983,68.4702745 C77.9559513,68.5351464 78.6329292,68.6000183 79.2839693,68.667485 L65.9830394,76.3509111 C66.6314856,75.6347255 67.2021184,74.8458834 67.6871562,74.0025489" id="Fill-16" fill="#008CA8"></path>
                <path d="M51.7133307,75.2942779 C47.4828673,74.375692 45.7320623,72.2894121 45.7320623,72.2894121 C46.5983865,74.0539274 47.908248,75.5641449 49.513801,76.6721567 C49.513801,76.6721567 51.2957313,76.1557765 51.7133307,75.2942779" id="Fill-18" fill="#008CA8"></path>
                <path d="M49.1234363,70.7737454 C48.825151,70.4831194 48.5216782,70.1795189 48.2207991,69.8681339 C46.8720309,70.3378063 46.1042705,70.8619712 45.69964,71.2174691 C46.6359964,72.1101062 48.4205206,73.2959643 51.6238451,73.9628473 C51.2347774,72.8626201 50.2387639,71.8765675 49.1234363,70.7737454" id="Fill-20" fill="#008CA8"></path>
                <path d="M55.8901029,80.758307 C54.4868651,80.7816609 53.4856641,81.3239898 53.1510658,81.4485439 C52.8009048,80.7868506 52.3910868,80.1147779 52.0046128,79.5205514 C53.2107229,79.6684593 54.271581,79.4427052 54.271581,79.4427052 C53.7657929,79.2766332 52.4637128,78.8355043 50.7518146,77.7067335 C50.7492208,77.7067335 50.746627,77.7041387 50.746627,77.7041387 C50.8944728,77.6418616 51.0449123,77.5743949 51.1979456,77.4991435 C51.1979456,77.4991435 51.2005394,77.4965486 51.2005394,77.4939537 C51.651858,77.2681996 52.1057704,76.9749787 52.4637128,76.6065064 C52.8916873,76.1653775 53.184785,75.6178588 53.184785,74.9380015 C53.184785,72.8361524 51.7711721,72.1277514 50.1811819,70.5578518 C49.8621463,70.2438718 49.5197667,69.9195124 49.1721995,69.5769889 C50.6299067,69.1851627 52.6115585,68.8789674 55.2779696,68.8322596 L55.9160407,77.7508464 L56.009417,77.7508464 L56.6682384,68.8322596 C59.3346494,68.8789674 61.3137075,69.1851627 62.7740085,69.5769889 C62.4264413,69.9195124 62.0840616,70.2438718 61.7650261,70.5578518 C60.1750358,72.1277514 58.7614229,72.8361524 58.7614229,74.9380015 C58.7614229,75.6178588 59.0545207,76.1653775 59.4824952,76.6065064 C59.8404375,76.9749787 60.2917561,77.2681996 60.7430747,77.4939537 C60.7456685,77.4965486 60.7482623,77.4991435 60.7482623,77.4991435 C60.9012956,77.5743949 61.0517352,77.6418616 61.1969871,77.7041387 C61.1969871,77.7041387 61.1969871,77.7067335 61.1943933,77.7067335 C59.4824952,78.8355043 58.1804151,79.2766332 57.674627,79.4427052 C57.674627,79.4427052 58.7328913,79.6684593 59.9415952,79.5205514 C59.5551212,80.1147779 59.1453031,80.7868506 58.7925484,81.4485439 C58.4605439,81.3239898 57.4593428,80.7816609 56.0561051,80.758307 L55.8901029,80.758307 Z" id="Fill-22" fill="#008CA8"></path>
                <path d="M62.4334445,76.6716377 C64.0389975,75.5636259 65.3462651,74.0534084 66.2151831,72.291488 C66.2151831,72.291488 64.4643782,74.375173 60.2339147,75.2937589 C60.6489203,76.1552575 62.4334445,76.6716377 62.4334445,76.6716377" id="Fill-24" fill="#008CA8"></path>
                <path d="M60.3221034,73.9631068 C63.525428,73.2962238 65.3099521,72.1103657 66.2463086,71.2177286 C65.8416781,70.8596358 65.0739177,70.335471 63.7251495,69.8683934 C63.4242704,70.1797784 63.1182037,70.4833789 62.8225122,70.7740049 C61.7045909,71.8768269 60.7111712,72.8628796 60.3221034,73.9631068" id="Fill-26" fill="#008CA8"></path>
                <path d="M53.1059339,39.5688117 C53.1059339,39.5688117 51.5548505,38.5438359 51.3058471,36.3641406 C51.3058471,36.3641406 49.2956637,39.7322888 53.1059339,39.5688117" id="Fill-28" fill="#FEFEFE"></path>
                <path d="M58.9528443,39.5688117 C58.9528443,39.5688117 60.5039278,38.5438359 60.7529311,36.3641406 C60.7529311,36.3641406 62.7657084,39.7322888 58.9528443,39.5688117" id="Fill-30" fill="#FEFEFE"></path>
                <path d="M57.8128757,84.0198059 C57.5353407,83.7317747 57.1307103,83.3970358 55.8934748,83.3944409 C54.7262715,83.3918461 54.3190472,83.6902567 53.9792614,83.9679084 L55.9738821,91.8563296 L57.8128757,84.0198059 Z" id="Fill-32" fill="#FEFEFE"></path>
                <polygon id="Fill-34" fill="#FEFEFE" points="70.9978635 49.3670612 70.9978635 52.2551576 70.0277878 52.2551576 70.0277878 49.3670612 69.2237145 49.3670612 69.2237145 48.5418909 71.799343 48.5418909 71.799343 49.3670612"></polygon>
                <polygon id="Fill-36" fill="#FEFEFE" points="66.4828618 49.3670612 66.4828618 52.2551576 65.5101924 52.2551576 65.5101924 49.3670612 64.706119 49.3670612 64.706119 48.5418909 67.2869351 48.5418909 67.2869351 49.3670612"></polygon>
                <mask id="mask-4" fill="white">
                    <use xlink:href="#path-3"></use>
                </mask>
                <g id="Clip-39"></g>
                <path d="M51.2428181,50.1040058 L52.2777384,50.1040058 L52.2777384,49.3696561 L51.2428181,49.3696561 L51.2428181,50.1040058 Z M52.8405897,50.9395557 L53.1881569,50.9395557 L53.1881569,48.9415017 L52.7835265,48.5418909 L50.327212,48.5418909 L50.327212,52.2551576 L51.2428181,52.2551576 L51.2428181,50.9395557 L51.9301712,50.9395557 L52.4593033,52.2551576 L53.3671281,52.2551576 L52.8405897,50.9395557 Z" id="Fill-38" fill="#FEFEFE" mask="url(#mask-4)"></path>
                <polygon id="Fill-40" fill="#FEFEFE" mask="url(#mask-4)" points="76.5872109 49.3680992 76.5872109 48.5429288 73.8637366 48.5429288 73.8637366 52.2561955 76.5872109 52.2561955 76.5872109 51.4206456 74.8130619 51.4206456 74.8130619 50.8108499 76.5872109 50.8108499 76.5872109 49.9778949 74.8130619 49.9778949 74.8130619 49.3680992"></polygon>
                <polygon id="Fill-41" fill="#FEFEFE" mask="url(#mask-4)" points="56.4734451 51.4216836 56.4734451 48.5413719 55.521526 48.5413719 55.521526 52.2546386 57.8429636 52.2546386 57.8429636 51.4216836"></polygon>
                <path d="M60.5596941,51.4222026 L61.6127709,51.4222026 L61.6127709,49.3696561 L60.5596941,49.3696561 L60.5596941,51.4222026 Z M62.1133714,48.5418909 L59.6492756,48.5418909 L59.6492756,51.8373826 L60.0642812,52.2551576 L62.5231894,52.2551576 L62.5231894,48.954476 L62.1133714,48.5418909 Z" id="Fill-42" fill="#FEFEFE" mask="url(#mask-4)"></path>
                <path d="M46.1434366,50.2103957 L47.1991072,50.2103957 L47.1991072,49.3670612 L46.1434366,49.3670612 L46.1434366,50.2103957 Z M48.1380574,52.2551576 L48.1328698,48.9570709 L47.7230518,48.5418909 L45.209674,48.5418909 L45.209674,52.2551576 L46.1434366,52.2551576 L46.1434366,51.0485405 L47.1965134,51.0485405 L47.1965134,52.2551576 L48.1380574,52.2551576 Z" id="Fill-43" fill="#FEFEFE" mask="url(#mask-4)"></path>
                <polygon id="Fill-44" fill="#FEFEFE" mask="url(#mask-4)" points="42.2460152 48.5418909 42.2460152 50.2103957 41.198126 50.2103957 41.198126 48.5418909 40.2643634 48.5418909 40.2643634 52.2551576 41.198126 52.2551576 41.198126 51.0485405 42.2460152 51.0485405 42.2460152 52.2551576 43.177184 52.2551576 43.177184 48.5418909"></polygon>
                <path d="M97.9472905,22.182887 C99.7525649,17.9376708 101.111708,14.9328051 101.111708,14.9328051 C86.0625672,24.7128905 72.6293543,33.4809745 64.9439691,38.5046533 C64.6508714,39.322039 64.3162731,40.0667683 63.9505494,40.7492205 L94.2641157,24.2276488 L70.6010143,41.3252828 L71.6929979,41.1280723 L84.1976357,39.9188604 C84.1976357,39.9188604 92.6481875,39.1014746 97.3507199,32.7777633 C99.5632186,29.3810713 103.331988,19.4556729 103.331988,19.4556729 L97.9472905,22.182887 Z" id="Fill-45" fill="#FEFEFE" mask="url(#mask-4)"></path>
                <path d="M25.5181764,61.7474713 L28.4335908,60.4915516 L28.4335908,67.1110788 C29.2661959,66.9969043 30.1273325,66.8905144 30.9988443,66.7867193 L30.9962505,52.255417 L28.4361846,52.255417 C28.4309971,52.2372529 28.4309971,57.463332 28.4335908,57.4892808 L25.5181764,58.7192517 L25.5207702,52.255417 L22.9425478,52.255417 L22.9425478,59.7779609 C22.9425478,59.7779609 20.8208316,60.795152 20.8312068,60.815911 L22.9425478,61.8720253 L22.9425478,67.9725774 C23.7699653,67.8220746 24.6440708,67.6793565 25.5181764,67.5392332 L25.5181764,61.7474713 Z" id="Fill-46" fill="#FEFEFE" mask="url(#mask-4)"></path>
                <path d="M45.5082187,56.8779281 L48.413258,56.8779281 C48.413258,57.5915188 48.4080704,58.5101047 48.4080704,59.1562287 C47.4379948,59.1692031 46.4782943,59.1873672 45.5108125,59.2029365 L45.5082187,56.8779281 Z M45.5108125,61.7043964 C46.1514774,61.6862322 46.7765796,61.6680681 47.4198383,61.6524989 C47.8919072,62.8824698 48.3795388,64.2785128 48.8516076,65.5110786 C49.6997754,65.4877247 50.5557244,65.4669657 51.4168611,65.4513965 C50.9447922,64.2136409 50.464942,62.8253825 49.9954669,61.6006013 C50.31969,61.5954116 50.6465069,61.587627 50.9759176,61.5850321 L50.9733238,55.6427674 L49.837246,54.5217812 L41.967702,54.5217812 L42.9403714,55.6816905 L42.9403714,65.7653764 C43.7885392,65.7186686 44.6418945,65.6745557 45.5108125,65.6356326 L45.5108125,61.7043964 Z" id="Fill-47" fill="#FEFEFE" mask="url(#mask-4)"></path>
                <path d="M55.5306042,56.8779281 L58.4745503,56.8779281 L58.4745503,65.4176631 C59.359031,65.4254477 60.2772309,65.4384221 61.1513365,65.4565862 L61.1513365,55.6868803 L59.9789457,54.5217812 L51.9356181,54.5217812 L52.9031,55.6816905 L52.9031,65.4280426 C53.7746117,65.4176631 54.6461235,65.4098784 55.5306042,65.4072836 L55.5306042,56.8779281 Z" id="Fill-48" fill="#FEFEFE" mask="url(#mask-4)"></path>
                <path d="M70.7579383,63.3721228 C69.0953221,63.283897 67.4586437,63.2086456 65.7960275,63.1515584 C65.7882461,62.5417627 65.7882461,61.9345618 65.7882461,61.327361 C67.4534561,61.3740687 69.0953221,61.431156 70.7579383,61.5012176 L70.7579383,58.9374807 C69.0927283,58.8933678 67.443081,58.8544447 65.7830585,58.8259011 C65.7804648,58.3328747 65.7804648,57.4973249 65.7804648,56.8771496 L70.7579383,56.8771496 L70.7579383,54.5235976 L62.1232278,54.5235976 L63.0803345,55.6757223 L63.0803345,65.5077053 C65.7078388,65.5829566 68.2782798,65.699726 70.7579383,65.8554186 L70.7579383,63.3721228 Z" id="Fill-49" fill="#FEFEFE" mask="url(#mask-4)"></path>
                <path d="M77.2258008,56.8779281 L79.4382995,56.8779281 L79.4382995,54.5217812 L72.1834826,54.5217812 L72.1834826,56.8779281 L74.4400756,56.8779281 L74.4400756,66.1234692 C75.3660569,66.1987206 76.330945,66.2765668 77.2258008,66.3621977 L77.2258008,56.8779281 Z" id="Fill-50" fill="#FEFEFE" mask="url(#mask-4)"></path>
                <path d="M38.4585702,63.4982337 C37.4703381,63.5605107 36.5028562,63.6227878 35.5146241,63.6954443 L35.5146241,56.8787066 L38.461164,56.8787066 L38.4585702,63.4982337 Z M41.0393864,55.682469 L39.8773706,54.5225597 L31.9818888,54.5225597 L32.9156515,55.6461407 L32.9182453,65.24199 L33.9376028,66.4563917 C36.2019772,66.2280427 38.593447,66.033427 41.0367926,65.8751396 L41.0393864,55.682469 Z" id="Fill-51" fill="#FEFEFE" mask="url(#mask-4)"></path>
                <path d="M88.7344252,61.8206468 C89.5281235,61.4651489 90.3270093,61.1018663 91.1233013,60.7282042 C88.5632354,59.5423462 86.0005758,58.462878 83.4379161,57.4664458 L83.4327285,54.5524008 L86.1510153,54.5524008 L86.1510153,55.6111099 L88.7344252,55.6111099 L88.7344252,52.255936 L79.8896181,52.255936 L80.8726626,53.3950863 L80.8726626,59.4022229 L86.1510153,61.6960928 L86.1510153,65.0538615 C86.1510153,65.0538615 84.9267487,64.898169 83.4353223,64.7061482 L83.4353223,63.6292749 L80.8726626,63.3230796 L80.8726626,66.7509101 C83.6765443,67.0778644 86.3092362,67.4619059 88.7344252,67.8900604 C88.7318315,66.0632681 88.7344252,63.1803615 88.7344252,61.8206468" id="Fill-52" fill="#FEFEFE" mask="url(#mask-4)"></path>
                <polygon id="Fill-53" fill="#FEFEFE" mask="url(#mask-4)" points="37.2454569 51.1017354 37.2454569 51.4209051 36.4154457 51.4209051 36.4154457 49.3683587 37.2454569 49.3683587 37.2454569 49.674554 38.1766258 49.674554 38.1766258 48.5431883 35.4998396 48.5431883 35.4998396 51.8386801 35.9174389 52.2538601 38.1766258 52.2538601 38.1766258 51.1017354"></polygon>
                <path d="M14.0028082,22.182887 C12.1975337,17.9376708 10.8383904,14.9328051 10.8383904,14.9328051 C25.8875314,24.7128905 39.3207444,33.4809745 47.0061296,38.5046533 C47.2992273,39.322039 47.6338256,40.0667683 47.9995492,40.7492205 L17.685983,24.2276488 L41.3490843,41.3252828 L40.2571008,41.1280723 L27.7524629,39.9188604 C27.7524629,39.9188604 19.3019111,39.1014746 14.5993787,32.7777633 C12.38688,29.3810713 8.61811032,19.4556729 8.61811032,19.4556729 L14.0028082,22.182887 Z" id="Fill-54" fill="#FEFEFE" mask="url(#mask-4)"></path>
                <path d="M28.3804183,50.2145475 L20.7520963,50.2145475 L20.7520963,58.4973898 L16.1662843,60.744552 L20.7520963,63.139622 L20.7520963,70.5012835 L25.8177586,73.6021596 C27.6852839,73.3582413 30.0663786,73.0702101 32.8235721,72.7899636 L52.4040557,84.0802665 L55.973104,100.505828 C55.996448,100.466905 59.5784652,84.0802665 59.5784652,84.0802665 L79.1252296,72.7899636 C81.885017,73.0702101 84.2661117,73.3582413 86.1310431,73.6021596 L91.1915178,70.5012835 L91.1915178,63.139622 L95.787705,60.7964495 L91.1915178,58.4973898 L91.1915178,50.2145475 L83.5683835,50.2145475 C83.5683835,50.2145475 84.7485557,49.0728024 86.2451697,46.498686 C86.8702719,45.4218127 87.4590611,44.0802621 88.1827271,42.4896034 C93.7412086,40.7977447 97.8419828,37.2479551 99.6005691,33.7863913 C104.360165,25.0676099 107.942182,14.4078618 107.942182,14.4078618 C107.942182,14.4078618 105.887904,15.3939144 103.408246,16.6186956 C105.421023,10.4766255 106.629727,5.26352082 106.629727,5.26352082 C106.629727,5.26352082 84.6733359,19.7948231 67.5699171,33.4464626 L66.0888658,32.5564204 C66.0940534,32.4162971 66.1355539,31.168162 66.1355539,31.064367 C66.1355539,31.064367 66.3015562,29.6138317 63.7492717,28.7471433 C63.5910508,28.6926509 63.443205,28.6433483 63.2953593,28.5940456 C64.5325948,27.6650802 66.4571833,26.2430885 67.860421,25.2803897 C70.0988575,23.7442235 69.8342915,22.0549596 69.8342915,22.0549596 L61.7209317,28.0958296 C55.4517532,26.0614472 50.22787,28.0958296 50.22787,28.0958296 L42.1171041,22.0549596 C42.1171041,22.0549596 41.8499442,23.7442235 44.0883807,25.2803897 C45.4942122,26.2430885 47.416207,27.6650802 48.6560363,28.5940456 C48.5081905,28.6433483 48.357751,28.6926509 48.2021239,28.7471433 C45.6472456,29.6138317 45.8184354,31.064367 45.8184354,31.064367 C45.8184354,31.168162 45.8547484,32.4162971 45.8625297,32.5564204 L44.3788847,33.4464626 C27.2780596,19.7948231 5.32426264,5.26352082 5.32426264,5.26352082 C5.32426264,5.26352082 6.52777892,10.4766255 8.54055615,16.6186956 C5.88711401,15.3056887 4.00661982,14.4078618 4.00661982,14.4078618 C4.00661982,14.4078618 7.58863702,25.0676099 12.3508264,33.7863913 C14.1068189,37.2479551 18.2075932,40.7977447 23.7660746,42.4896034 C23.7660746,42.4896034 24.7050248,44.64335 25.5168795,46.1898958 C26.5180806,48.102319 28.3804183,50.2145475 28.3804183,50.2145475 M107.35858,19.2473044 C104.954142,25.6800005 101.761192,32.294338 100.166014,35.0293366 C97.4762591,39.6326456 92.1200929,42.3780238 88.9790192,43.3900252 C88.9790192,43.3900252 87.4538735,47.0721534 85.8820398,49.0987511 L92.2938765,49.0987511 L92.2938765,57.8201274 L98.3840839,60.7367673 L92.2860952,63.8116947 L92.2783138,71.1266485 L86.3670776,74.738715 C86.3670776,74.738715 81.6567639,74.1548681 79.3638579,73.9161395 L60.6237606,84.7419597 C56.865366,101.712445 55.9756978,106.653088 55.9756978,106.653088 C55.9756978,106.653088 55.0938108,101.992691 51.3276349,84.7419597 L32.5849439,73.9161395 C30.2920379,74.1548681 25.5817241,74.738715 25.5817241,74.738715 L19.6704879,71.1266485 L19.6601128,63.8116947 L13.5673116,60.7367673 L19.6549252,57.8201274 L19.6549252,49.0987511 L26.066762,49.0987511 C24.5234598,47.1681638 22.9697826,43.3900252 22.9697826,43.3900252 C21.0841008,42.7724449 19.3021705,41.916136 17.6992113,40.8911602 C15.167677,39.2797426 13.092649,37.2453602 11.7827875,35.0293366 C9.23050298,30.5272278 6.22949364,23.7494132 4.59022146,19.2473044 C3.5060193,16.5019262 2.15725105,12.3086076 2.15725105,12.3086076 C2.15725105,12.3086076 5.64589199,13.9771124 6.71712523,14.5012773 C5.04672764,9.49576262 3.63311477,2.83212256 3.63311477,2.83212256 L3.63311477,2.82952769 C3.63311477,2.82952769 27.6334081,18.6141548 44.4670733,32.1152916 L44.7342332,31.9518144 C44.7264519,31.6715679 44.7186705,31.3887264 44.7186705,31.0955055 C44.7134829,30.9268386 44.7238581,30.5946946 44.8639225,30.1847043 C45.0584563,29.6294009 45.4942122,28.9339743 46.4720692,28.337153 C45.2348337,27.4289466 43.0067723,25.8901855 42.8122385,25.6748108 C41.1833414,24.2606037 40.9084002,22.6673502 41.0329019,21.8836978 L41.3104369,20.088044 L50.4431542,26.8918074 C55.4102526,25.4698156 58.9196438,26.1730269 61.5056476,26.8918074 L70.6383648,20.088044 L70.9158998,21.8836978 C71.0404015,22.6673502 70.7654603,24.2606037 69.1391571,25.6748108 C68.9498108,25.8772111 66.7113742,27.4289466 65.4793263,28.337153 C66.4519957,28.9339743 66.8903454,29.6294009 67.0848793,30.1847043 C67.2249437,30.5946946 67.2379126,30.9268386 67.2275375,31.0955055 C67.2275375,31.3887264 67.2249437,31.6715679 67.2145685,31.9518144 L67.4817284,32.1152916 C84.7174303,18.3053646 108.315687,2.82952769 108.315687,2.82952769 L108.315687,2.83212256 C108.315687,2.83212256 107.140702,8.31768918 105.231677,14.5012773 C106.139501,14.0601485 109.791551,12.3086076 109.791551,12.3086076 C108.75663,15.6404276 107.35858,19.2473044 107.35858,19.2473044" id="Fill-55" fill="#A0A0A4" mask="url(#mask-4)"></path>
                <rect id="Rectangle" mask="url(#mask-4)" x="-19" y="-18" width="150" height="150"></rect>
            </g>
        </g>
    </g>
</svg>