<svg width="100%" height="100%" viewBox="0 0 150 150" version="1.1" xmlns="http://www.w3.org/2000/svg" xmlns:xlink="http://www.w3.org/1999/xlink">
    <defs>
        <polygon id="path-1" points="109.972971 0.0633894526 0.00069782964 0.0633894526 0.00069782964 110.7231 109.972971 110.7231 109.972971 0.0633894526"></polygon>
    </defs>
    <g id="Page-1" stroke="none" stroke-width="1" fill="none" fill-rule="evenodd">
        <g id="CHI">
            <g id="Page-1">
                <g id="Group-3" transform="translate(20.000000, 15.164114)">
                    <mask id="mask-2" fill="white">
                        <use xlink:href="#path-1"></use>
                    </mask>
                    <g id="Clip-2"></g>
                    <path d="M101.270048,54.5862493 L96.8860291,53.1163218 C103.584576,50.4054773 110.576102,44.9917769 109.93155,33.6744003 C109.486755,25.8427756 106.072228,18.9990914 104.02937,14.9035325 L96.6090315,0.0631231614 L98.0845763,16.0539106 C98.5426877,21.0655112 98.3775545,27.6695334 96.4918402,31.2538131 C93.974891,36.4864355 85.6276755,35.9112465 82.6392978,35.711528 C77.3603632,35.3600236 60.1678692,34.774183 54.9528571,34.774183 C47.9853027,34.803475 40.3412349,35.3653495 34.1221065,35.8233704 C31.1630266,36.0417291 28.6087893,36.2307959 26.8908717,36.2947058 C26.7124213,36.3000316 26.4540678,36.3239978 26.1078208,36.3559528 C15.206368,37.3625336 13.352615,32.2550681 12.7400242,30.5747705 C11.6107264,27.4778037 11.6400242,20.5355917 11.6533414,17.5451414 L11.7012833,4.51551227 L5.98021792,15.0925993 C4.28094431,18.2374985 1.1194431,24.0852536 0.0434140436,33.9619948 C-0.6837046,47.8703849 8.07368039,51.9206743 10.9501937,53.2494674 C11.3390557,53.4305455 11.7279177,53.5983089 12.1167797,53.7554207 C11.8797337,53.8299823 11.6560048,53.9018809 11.4429298,53.9764424 C9.56786925,54.6155414 7.62089588,55.504954 7.03227603,55.779234 L3.76423729,57.3343747 L5.89765133,60.3008588 C6.1666586,60.6656777 6.87779661,61.6030228 7.66084746,62.3726044 C9.63711864,64.3165303 14.6230751,67.4028455 20.7196852,66.6465784 C22.8530993,66.3829501 24.5390557,65.9994908 25.841477,65.6080427 C26.0678692,66.2684449 26.3182324,66.9608021 26.5739225,67.5945751 C28.4436562,72.2386939 32.6918402,81.0795622 34.2899031,84.1525629 C35.3419613,86.1763761 36.3913559,88.0217742 37.2037046,89.4251289 L37.1317918,89.4863759 C36.9533414,89.6461506 36.798862,89.784622 36.5831235,90.0029808 L35.8586683,90.8657644 L35.8133898,91.8856597 C35.7681114,92.846971 35.5497094,101.45084 41.5024939,107.857807 L41.9978935,108.337131 L42.5705327,108.55549 C45.3671429,109.62598 49.0107264,110.7231 54.8436562,110.7231 C60.8550363,110.7231 65.8915981,109.279802 67.8252542,108.302513 L68.3872397,108.001604 L68.7547942,107.567549 C72.79523,102.787622 74.5717433,95.7841631 74.6516465,92.8602856 L74.715569,92.7777353 L74.6543099,92.7298029 L74.5744068,91.5554586 L73.4557627,90.4210581 C73.2107264,90.1867218 73.0242857,90.0083067 72.8724697,89.7633188 C73.2906295,88.937816 73.8020097,87.875314 74.3586683,86.7116214 L74.4731961,86.4719593 C74.800799,85.7902538 75.0777966,85.209739 75.2402663,84.8928524 C76.7850605,81.8864246 81.2915981,72.2200535 83.0787651,67.6531592 C83.4569734,66.6918479 83.7739225,65.8983001 84.0429298,65.2485495 C85.3293705,65.6373347 87.0233172,66.0101424 89.1913559,66.233827 C95.2826392,66.8676001 101.051646,63.1022424 103.046562,60.3594429 C103.153099,60.2156456 103.302252,60.0345676 103.406126,59.9094107 L106.152131,56.687287 L102.412663,54.9990007 C102.362058,54.9776974 102.130339,54.8791697 101.270048,54.5862493" id="Fill-1" fill="#FEFEFE" mask="url(#mask-2)"></path>
                </g>
                <path d="M127.273172,48.989235 C126.857676,41.6981815 123.5923,35.1580693 121.642663,31.2489143 L121.410944,30.7829047 L120.561308,29.0866296 L120.734431,30.9772973 C120.97414,33.5896141 121.552107,42.5156956 118.891332,47.5725657 C115.593995,54.4322274 105.893753,53.7691623 102.705617,53.5481406 L102.463245,53.5321631 C97.2242615,53.1833216 80.1835835,52.5788406 74.9632446,52.6001439 C68.0596126,52.6294359 60.4421792,53.1913104 54.3189346,53.6413425 C51.3225666,53.8623642 48.7310412,54.0540939 46.9864891,54.1206667 C46.8453269,54.1259925 46.6375787,54.1446329 46.3552542,54.171262 C37.7709927,54.9701357 32.3482324,52.4403691 30.2361259,46.6511981 C28.9416949,43.0988733 28.9763196,36.076774 28.9896368,32.7028643 L28.9923002,31.6936206 L28.9976271,30.2769514 L28.3237772,31.5231942 C26.7097337,34.5056558 23.7107022,40.0578277 22.7012591,49.2661779 C22.1366102,60.1202078 27.775109,64.0133853 32.0685714,65.9972549 C36.551138,68.0716634 41.1322518,68.3699096 42.6370944,68.4684373 L42.7462954,68.4764261 L42.7036804,68.4711002 C43.0126392,68.5270214 43.3668765,68.5429989 43.7397579,68.5589764 C44.2031961,68.5802796 44.7039225,68.6069088 45.2179661,68.7027736 C44.4056174,68.8598854 43.3375787,69.0436264 42.4000484,69.2034011 C41.4012591,69.3738275 40.4584019,69.5362651 39.9683293,69.6401187 C38.9508959,69.8558146 34.630799,70.8650583 32.302954,71.6586061 C30.3266828,72.3349858 28.1985956,73.3389036 28.1772881,73.3468924 L27.7884262,73.5306333 L28.0414528,73.8794748 C28.0707506,73.9194185 28.7845521,74.9100218 29.5276513,75.6396597 C31.0484746,77.1362164 35.280678,79.8044543 40.391816,79.1680183 C44.4775303,78.662065 46.6668765,77.7140683 47.5111864,77.2666991 C47.7748668,78.1454601 48.4087651,80.1799249 49.0453269,81.7643577 C50.8857627,86.3392407 55.0753511,95.0549522 56.6521065,98.0853462 C57.9278935,100.537888 59.1930266,102.71615 60.0320097,104.156786 L60.3329782,104.676054 C60.0586441,105.616062 59.4034383,106.201902 58.9133656,106.630631 C58.7828571,106.745137 58.6709927,106.843664 58.575109,106.942192 L58.4792252,107.038057 L58.4738983,107.173865 C58.4339467,108.018009 58.2368523,115.593994 63.3906053,121.143502 L63.4465375,121.204749 L63.5237772,121.234041 C66.0913317,122.216656 69.4446005,123.2259 74.8433898,123.2259 C80.3513801,123.2259 84.9830993,121.91841 86.6077966,121.098233 L86.6743826,121.066278 L86.7223245,121.010357 C90.3179661,116.757686 91.9533172,110.361371 91.9932688,108.036649 L91.9932688,107.887526 L91.8893947,107.781009 C91.8015012,107.69047 91.7082809,107.599931 91.6097337,107.506729 C91.0504116,106.968821 90.3579177,106.303093 89.9610654,104.729312 C90.4005327,103.978371 91.2581598,102.186231 91.9559806,100.726955 C92.3475061,99.909441 92.6830993,99.2037693 92.86954,98.8416133 C94.3930266,95.877792 98.8356416,86.3498924 100.598838,81.846908 C101.714818,79.0002549 102.340726,77.5755969 102.612397,76.9870933 C103.392785,77.4078334 105.494237,78.3398527 109.465424,78.7499411 C114.616513,79.2825236 119.527893,75.8340523 120.894237,73.9566993 C121.123293,73.6398127 121.514818,73.1844547 121.517482,73.1817918 L121.826441,72.8196358 L121.394964,72.6252432 C121.365666,72.6119286 121.189879,72.5373671 120.422809,72.2737388 L117.57293,71.3204162 L114.731041,70.3670937 C113.955981,70.1034654 110.47753,69.3498613 107.941937,68.7986384 L106.018935,68.3805612 L106.647506,68.266056 C112.528378,67.2248574 128.152107,64.4580916 127.273172,48.989235" id="Fill-4" fill="#2D2925"></path>
                <path d="M24.0343099,45.8557863 C24.891937,41.4220376 26.3088862,37.2758833 28.2425424,33.2948297 L28.2638499,33.2468973 L28.3171186,33.2468973 L28.3570702,33.2468973 L28.3570702,33.3321105 L28.3570702,33.2468973 L28.4423002,33.2468973 L28.4396368,33.3347734 C28.386368,34.5250951 28.3517433,35.7500347 28.3517433,36.9856259 C28.3517433,39.922818 28.5541646,42.9106054 29.2093705,45.5948209 L29.273293,45.8557863 L29.0735351,45.6773712 C28.2185714,44.9131154 27.3689346,44.0370173 26.4846731,43.2780873 C25.7069492,44.1488596 24.9611864,45.0941934 24.1754722,45.9276849 L23.9783777,46.138055 L24.0343099,45.8557863 Z" id="Fill-6" fill="#C21F32"></path>
                <path d="M125.760605,44.0370173 L125.680702,44.0556577 L125.757942,44.0316915 C124.623317,40.287637 123.608547,36.4956501 121.752131,33.0604934 L121.594988,33.1031 C121.669564,34.2934217 121.706852,35.4757547 121.706852,36.650099 C121.706852,39.5233812 121.483123,42.3407422 121.017022,45.075553 L120.990387,45.2353277 L121.136877,45.1634291 C122.047772,44.7240486 122.910726,44.1328821 123.84293,43.7361082 L126.085545,45.3578217 L125.760605,44.0370173 Z" id="Fill-8" fill="#C21F32"></path>
                <path d="M89.0957143,84.0818901 L88.9225908,84.1591146 C87.6468039,84.720989 86.3390557,85.2802006 84.9567312,85.5544805 C84.061816,85.783491 83.1535835,85.903322 82.2560048,85.903322 C79.4514044,85.9006591 76.7719855,84.7422923 75.1153269,82.2045371 L75.0620581,82.1219868 L74.9901453,82.1885596 C74.6572155,82.4814799 74.4547942,82.8462989 74.1085472,83.1578596 C72.3426877,85.1896616 69.78046,85.9698948 67.1623002,85.9698948 C65.1300969,85.9698948 63.0659322,85.4985594 61.3400242,84.7795731 L61.1615738,84.7076745 L61.2281598,84.8887525 C62.5545521,88.3958078 63.3669007,92.2889853 63.3669007,96.2008033 C63.3669007,97.9556624 63.204431,99.7105215 62.8501937,101.438751 C62.6078208,102.650376 62.2029782,103.907271 61.8807022,105.089604 L61.8274334,105.273345 L61.9978935,105.185469 C65.7346973,103.206925 70.2971671,102.203007 74.8463196,102.203007 C79.1530993,102.203007 83.4492252,103.100409 87.0235593,104.913852 C87.6121792,105.156177 88.1635109,105.566265 88.7015254,105.739355 L88.8613317,105.78995 L88.808063,105.632838 C87.7666586,102.546523 87.1514044,99.2684781 87.1514044,95.8359843 L87.1514044,95.6895242 C87.1460775,95.4711654 87.143414,95.2528066 87.143414,95.0371107 C87.143414,91.2850675 87.9291283,87.5916083 89.0344552,84.2603052 L89.0957143,84.0818901 Z" id="Fill-10" fill="#C21F32"></path>
                <path d="M52.5576029,87.7101079 C52.1580872,87.2148063 51.8331477,86.6742351 51.713293,86.0431249 L51.6760048,85.8513952 L51.841138,85.9552488 C52.5123245,86.3893035 53.2500969,86.5677186 54.0065133,86.5677186 C55.5672881,86.5677186 57.2079661,85.8007999 58.4358111,84.9380164 L58.4917433,84.8980727 L58.5396852,84.948668 L58.5823002,84.9886117 L58.5210412,85.0471958 L58.5823002,84.9886117 L58.6089346,85.0152408 L58.6062712,85.0551845 C58.4358111,86.6502689 57.8684988,88.4743637 56.1772155,89.1001481 C55.9241889,89.1640579 55.6791525,89.19335 55.4394431,89.19335 C54.3048184,89.19335 53.3193462,88.5329478 52.5576029,87.7101079" id="Fill-12" fill="#C21F32"></path>
                <path d="M92.2540194,87.1032302 C91.8917918,86.5626591 91.6920339,85.9794813 91.5748426,85.321742 L91.534891,85.1033832 L91.7080145,85.2391917 C92.5469976,85.9022569 93.6043826,86.1898514 94.6857385,86.1898514 C95.9561985,86.1898514 97.2559564,85.7930775 98.2547458,85.1486527 L98.4545036,85.0208329 L98.3799274,85.2471805 C97.8845278,86.6904789 96.6327119,88.1657322 95.1118886,88.4959333 C94.9813801,88.5145737 94.8482082,88.5252253 94.7176998,88.5252253 C93.7215738,88.5252253 92.8239952,87.9873171 92.2540194,87.1032302" id="Fill-14" fill="#C21F32"></path>
                <path d="M94.1983293,89.2215768 C94.3954237,89.2641834 94.5951816,89.2801609 94.7949395,89.2801609 C95.3675787,89.2801609 95.9428814,89.1283749 96.5048668,88.9526227 L96.6726634,88.8993645 L96.6060775,89.0618021 C94.5099516,94.3024132 91.9796852,99.369935 89.3668523,104.400176 L89.2789588,104.56794 L89.2150363,104.389524 C88.6876755,102.943563 88.538523,101.407063 88.538523,99.8359447 C88.538523,98.6829037 88.6184262,97.5112224 88.6930024,96.339541 C89.0685472,92.9603055 89.8835593,89.7062269 90.8930024,86.5773051 L90.9542615,86.3855754 L91.0474818,86.5639905 C91.668063,87.7729526 92.8453027,89.0191955 94.1930024,89.2215768" id="Fill-16" fill="#C21F32"></path>
                <path d="M61.0979177,104.419882 C57.9364165,99.5973477 55.5339952,94.497871 53.2141404,89.3238327 L53.1129298,89.1001481 L53.3286683,89.2146533 C53.9572397,89.5528431 54.8015496,89.8191343 55.6032446,89.8191343 C56.146586,89.8191343 56.6659564,89.6993033 57.1000969,89.40372 C58.1148668,88.6927225 58.711477,87.5742994 59.1136562,86.4452246 L59.1775787,86.2588208 L59.2654722,86.4372359 C61.0100242,89.9629316 61.8463438,94.2342427 61.8463438,98.4576213 C61.8463438,100.457468 61.6572397,102.449327 61.2896852,104.347983 L61.2843584,104.371949 L61.2683777,104.39059 L61.1538499,104.505095 L61.0979177,104.419882 Z" id="Fill-18" fill="#C21F32"></path>
                <path d="M63.8766828,120.566716 L63.8607022,120.558727 L63.847385,120.545412 C60.6272881,117.011728 59.4127603,112.4688 59.2369734,107.662243 L59.2369734,107.616974 L59.2742615,107.590345 C63.5091283,104.506693 69.1715981,102.87699 74.7541646,102.87699 C78.4190557,102.87699 82.0519855,103.579999 85.2241404,105.036612 C87.2510169,105.942002 89.2033172,106.932606 90.9931477,108.370578 L90.9425424,108.437151 L90.9931477,108.370578 L91.0304358,108.39987 L91.025109,108.44514 C90.4817676,112.969427 88.8650605,117.001076 86.0098547,120.49748 L85.9965375,120.51612 L85.9778935,120.524109 C82.5793462,121.847576 78.5735351,122.5639 74.586368,122.5639 C70.8282567,122.5639 67.0861259,121.930127 63.8766828,120.566716" id="Fill-20" fill="#C21F32"></path>
                <path d="M120.527748,73.0454507 C120.527748,73.0454507 118.535496,72.2811949 118.024116,72.0894653 C112.564068,70.0336971 105.543245,68.7794655 99.5771429,68.6356682 C99.0071671,61.9917024 98.2427603,57.8375595 96.9483293,54.0828533 L96.9296852,54.032258 L96.8764165,54.0269322 C93.8001453,53.8485171 80.1580145,53.2999572 74.8844068,53.2999572 C69.6081356,53.2999572 56.2110412,54.1307858 53.1374334,54.3092009 L53.0841646,54.3118638 L53.0655206,54.365122 C51.8270218,57.944076 50.418063,62.4044538 49.7628571,68.9738581 C43.7328329,69.3440029 35.6173366,71.0695699 30.1546247,73.1253381 C29.7577724,73.2744612 29.4701211,73.4155955 29.2730266,73.5194491 C29.1771429,73.5727073 29.1025666,73.6153139 29.0492978,73.644606 C29.0359806,73.6499318 29.0253269,73.6579205 29.0146731,73.6632463 L28.84954,73.4741796 L28.9081356,73.7750887 C28.910799,73.793729 28.9187893,73.8070436 28.9294431,73.8176953 C29.7657627,74.765692 32.8420339,78.4538253 38.555109,78.5816451 C38.6483293,78.584308 38.7442131,78.584308 38.8454237,78.584308 C40.7124939,78.584308 43.8739952,78.2221519 45.9887651,77.2981214 C46.5028087,77.069111 47.5015981,76.6590225 47.7732688,76.5498431 C47.8744794,76.7415728 48.1754479,77.3247505 48.3246005,77.7428278 C48.9371913,79.4444286 49.6669734,81.888982 50.2049879,82.9568097 C50.9986925,84.5412425 52.2931235,85.8141145 54.3919128,85.8620469 L54.4744794,85.8620469 C56.3708475,85.8567211 57.6785956,84.344187 57.9076513,84.0219746 L57.9955448,83.8994806 L57.8437288,83.8914919 C52.5621308,83.6252007 50.4020823,80.8211542 50.0425182,76.584461 L50.0371913,76.5205511 L49.9759322,76.5098994 C49.3526877,76.3980571 48.9558354,76.310181 48.710799,76.1770354 C48.4657627,76.0438898 48.3565617,75.8787893 48.2739952,75.553914 C48.2393705,75.4101167 48.2233898,75.2663195 48.2233898,75.1198593 C48.2233898,74.6005914 48.4338015,74.036054 48.8253269,73.3836406 C49.2328329,72.8377436 49.83477,72.2998353 51.0333172,72.2971724 C51.5287167,72.2971724 52.1253269,72.3903743 52.8524455,72.6220477 C54.4957869,73.1413156 55.8141889,74.2011546 56.7304116,75.0053541 C57.8277482,75.9640024 61.0132203,79.2846539 62.9442131,80.4456836 C64.0788378,81.1247262 65.8020823,81.7584993 67.5572881,81.7584993 C68.9609201,81.7584993 70.3858596,81.3510737 71.5284746,80.2299877 C73.9841646,77.8227151 74.2824697,75.7509695 74.6047458,74.4701087 L74.6287167,74.3689181 L74.5248426,74.3662552 C70.2873123,74.2464241 66.2735109,73.8310098 62.5766586,73.3197307 C62.147845,73.2584837 62.02,73.0774057 62.02,72.9256197 C62.0226634,72.7392158 62.2277482,72.5181941 62.5686683,72.5181941 C62.6325908,72.5181941 62.7018402,72.5261829 62.7764165,72.5448232 C62.7870702,72.5474862 69.7652785,73.4715167 74.6526877,73.5008087 L74.7299274,73.5008087 L74.7352542,73.4235843 C74.7752058,72.8537211 74.7831961,71.855129 74.8178208,70.7313801 L74.8204843,70.6461669 L74.7352542,70.643504 C71.8400969,70.5795941 66.9739952,70.2733592 62.3635835,69.3440029 C61.9640678,69.2614526 61.8069249,69.0217905 61.8069249,68.8220721 C61.8122518,68.6276795 61.9427603,68.4572531 62.2304116,68.4545902 C62.2943341,68.4545902 62.366247,68.4625789 62.4461501,68.4838822 C63.1333172,68.6649603 70.6415496,69.7274622 74.7299274,69.7274622 L74.7618886,69.7274622 L74.8471186,69.7301251 L74.8471186,69.6475748 C74.8657627,68.7741397 74.873753,67.5438742 74.8790799,66.3615412 L74.8790799,66.278991 L74.7938499,66.278991 L74.5381598,66.278991 C71.8960291,66.278991 68.0713317,66.0126998 62.6325908,65.1845341 C62.1877966,65.1152984 62.0306538,64.8996025 62.0306538,64.7345019 C62.0306538,64.5640756 62.19046,64.3803346 62.5313801,64.3776717 C62.560678,64.3776717 62.5899758,64.3803346 62.6246005,64.3829975 C62.621937,64.3829975 69.2618886,65.3709379 74.4396126,65.3709379 C74.5594673,65.3709379 74.6766586,65.3709379 74.7965133,65.368275 L74.8790799,65.368275 L74.8790799,65.2857247 C74.8790799,64.4841882 74.873753,63.549506 74.8657627,62.6068351 L74.8657627,62.5908577 C74.8684262,62.0822414 75.0948184,61.8771972 75.2599516,61.8771972 C75.414431,61.8771972 75.6141889,62.0556123 75.6168523,62.5242848 C75.6168523,62.8811151 75.6381598,63.8956846 75.6381598,65.1632308 L75.6381598,65.2351294 L75.6381598,65.3203426 L75.7233898,65.3176797 C80.7279903,65.1658937 85.1306538,64.580053 87.1974818,64.2099082 C87.3173366,64.1886049 87.4212107,64.1779533 87.5117676,64.1779533 C87.921937,64.185942 88.0284746,64.3510426 88.0338015,64.5108173 C88.0338015,64.6732549 87.8953027,64.8623217 87.6875545,64.8996025 C87.0110412,65.0220964 81.2100726,66.1431825 75.6914286,66.2630135 L75.608862,66.2630135 L75.6115254,66.3455638 C75.6115254,67.3201896 75.6488136,68.5850729 75.6647942,69.6156199 L75.6674576,69.7008331 L75.7500242,69.6981702 C79.4601937,69.5650246 83.7563196,69.4265531 87.4451816,68.611702 C87.6183051,68.5744212 87.7674576,68.5557809 87.8979661,68.5557809 C88.3267797,68.5611067 88.486586,68.7315331 88.486586,68.8753303 C88.4945763,69.0430938 88.2708475,69.2987333 87.7434867,69.3866094 C84.1265375,69.9884276 78.9115254,70.6088861 75.7766586,70.6328523 L75.6914286,70.6328523 L75.694092,70.7180655 C75.7153995,71.6207927 75.7233898,72.7152496 75.7686683,73.431573 L75.7739952,73.5114604 L75.8538983,73.5114604 C81.7720581,73.370326 87.3759322,72.5288458 88.3294431,72.3637452 C88.3986925,72.3530936 88.462615,72.3477677 88.5238741,72.3477677 C88.894092,72.3504307 89.0645521,72.5501491 89.0645521,72.7365529 C89.0645521,72.9202939 88.9020823,73.1439785 88.4546247,73.2078884 C87.4132203,73.3516856 80.4696368,74.2464241 76.0243584,74.3582664 L75.9151574,74.3609293 L75.9444552,74.4647829 C76.3839225,75.9693283 76.4691525,78.160905 78.6531719,80.038258 C79.7212107,80.9569627 81.1568039,81.3697141 82.6376755,81.3697141 C84.0972397,81.3697141 85.6020823,80.9676144 86.8485714,80.2486281 C88.8008717,79.1195533 91.8851332,75.7403178 92.9798063,74.7816694 C93.8907022,73.9827958 95.968184,72.0628361 98.7434867,72.0628361 C98.7834383,72.0628361 98.8207264,72.0628361 98.860678,72.0654991 C100.285617,72.0947911 100.980775,72.4702617 101.345666,72.8776873 C101.71322,73.2877757 101.753172,73.7404708 101.841065,73.9854587 C101.904988,74.158548 101.958257,74.3928843 101.958257,74.6298835 C101.955593,74.976062 101.849056,75.3169148 101.502809,75.5299478 C101.018063,75.8308568 100.559952,75.7509695 100.045908,75.9853057 L100.005956,76.0039461 L99.9979661,76.0465527 C99.6357385,78.3632863 98.9086199,80.9969064 97.092155,82.373632 C96.1120097,83.1192474 94.8468765,83.5373246 93.8267797,83.7689979 C92.8093462,84.0006713 92.0396126,84.040615 92.0396126,84.040615 L91.8638257,84.0512666 L91.9810169,84.1817493 C91.9810169,84.1817493 92.4124939,84.6530848 92.5563196,84.7915562 C92.8785956,85.0951282 93.792155,85.5371716 94.9880387,85.5398345 C95.1158838,85.5398345 95.2463923,85.5345087 95.3795642,85.52652 C96.6873123,85.4146776 98.1948184,84.4214114 98.836707,83.7610092 C99.808862,82.4987888 100.701114,79.8784833 101.361646,78.1928599 C101.593366,77.5910418 102.12339,76.5498431 102.339128,76.0145978 C102.877143,76.2675744 103.191429,76.4353379 104.219516,76.8507522 C106.355593,77.705547 109.06431,78.0810176 110.883438,78.0810176 C110.987312,78.0810176 111.088523,78.0810176 111.18707,78.0783547 C114.159467,78.0011302 117.520726,76.2036645 119.547603,74.3263115 C119.90184,73.9961104 120.559709,73.1785963 120.562373,73.1759334 L120.634286,73.0853944 L120.527748,73.0454507 Z" id="Fill-22" fill="#C21F32"></path>
                <path d="M78.0395157,109.547319 C77.72523,110.074576 77.5867312,110.679057 77.5867312,111.294189 C77.5867312,112.290118 77.9542857,113.310014 78.5295884,114.052966 C78.5642131,114.100899 78.612155,114.122202 78.6680872,114.124865 C78.7320097,114.124865 78.8039225,114.090247 78.8571913,114.031663 L78.8571913,113.978405 C78.8625182,113.389901 78.4816465,112.878622 78.4763196,112.231534 C78.4763196,112.082411 78.4976271,111.922637 78.5535593,111.760199 L78.6094915,111.58711 L78.7027119,111.741559 C79.2833414,112.700207 80.2155448,113.304688 81.1903632,113.629563 C81.5712349,113.728091 81.9521065,113.778686 82.3223245,113.778686 C83.6220823,113.776023 84.8286199,113.190183 85.6809201,112.140995 C86.0857627,111.573795 86.3947215,110.854809 86.3947215,110.1518 C86.3947215,109.821599 86.3281356,109.494061 86.1683293,109.1825 C85.5557385,107.989515 84.3119128,107.299821 83.0627603,107.094777 C82.8496852,107.070811 82.6366102,107.060159 82.4235351,107.060159 C80.6150605,107.060159 78.9237772,107.869684 78.0395157,109.547319" id="Fill-24" fill="#2D2925"></path>
                <path d="M70.9571671,114.525101 C71.0610412,114.530426 71.1862228,114.410595 71.2714528,114.264135 C71.7455448,113.51852 72.0678208,112.54922 72.0678208,111.603886 C72.0678208,110.983427 71.929322,110.373621 71.6097094,109.841038 L71.6816223,109.798432 L71.607046,109.835712 C71.1089831,108.88239 70.0915496,108.112808 69.1220581,107.787933 C68.568063,107.609518 67.9821065,107.516316 67.401477,107.516316 C66.0111622,107.516316 64.6528087,108.048898 63.7951816,109.193951 C63.4649153,109.628005 63.2997821,110.187217 63.2997821,110.743765 C63.2997821,111.034023 63.3450605,111.32428 63.4382809,111.595897 C63.8937288,112.868769 65.1029298,113.87535 66.3840436,114.117675 C66.6716949,114.16827 66.9540194,114.1949 67.2283535,114.1949 C68.7198789,114.1949 70.032954,113.465262 70.9651574,112.184401 L71.0583777,112.056581 L71.1116465,112.205704 C71.1515981,112.317546 71.1675787,112.437378 71.1675787,112.554546 C71.1649153,112.818174 71.0983293,113.084465 71.0716949,113.297498 C71.0264165,113.672969 70.7307748,113.963226 70.7414286,114.221529 C70.7414286,114.306742 70.7653995,114.389292 70.8399758,114.48782 C70.8852542,114.514449 70.9225424,114.525101 70.9571671,114.525101" id="Fill-26" fill="#2D2925"></path>
                <path d="M64.2141404,119.440304 C67.468862,118.07423 71.3601453,117.283345 75.2247942,117.283345 C78.1412591,117.283345 81.0390799,117.733377 83.6412591,118.729306 C84.2938015,119.006249 84.983632,119.232597 85.6415012,119.437641 C85.8066344,119.221945 85.8865375,119.174013 85.9984019,118.984946 C82.8235835,117.427142 79.09477,116.70283 75.3473123,116.70283 C71.3494915,116.70283 67.3303632,117.528333 63.9424697,119.035541 C64.0090557,119.205968 64.0942857,119.315147 64.2141404,119.440304" id="Fill-28" fill="#2D2925"></path>
                <path d="M67.0528329,95.3779634 C68.9998063,97.8038764 71.9082809,98.87703 74.880678,98.8796929 C75.9726877,98.8796929 77.0726877,98.7332327 78.1353995,98.4562899 C83.0920581,97.0822272 86.0830993,91.6818414 87.1058596,86.9578352 C86.9620339,86.8246896 86.8341889,86.7953976 86.6477482,86.7394764 C86.0271671,89.5195567 84.841937,92.2490417 83.0867312,94.5471348 C80.9879419,97.1035305 77.8903632,98.3950429 74.8407264,98.3950429 C73.756707,98.3950429 72.6780145,98.2326053 71.6499274,97.9050671 C67.114092,96.4910607 64.7569492,91.5167408 64.3174818,87.0137564 C64.1310412,87.0164193 64.0058596,87.0270709 63.8593705,87.1282616 C64.1683293,90.2305543 65.0978692,92.9946571 67.0528329,95.3779634" id="Fill-30" fill="#2D2925"></path>
                <path d="M30.1884504,48.7085641 C32.7879661,53.7228276 38.0296126,55.3392153 43.361816,55.0835757 C46.3448668,55.0569466 49.2107264,54.7480488 52.1564891,54.558982 L52.1538257,54.7640263 C50.6543099,58.9874049 49.6848184,63.2880081 49.0642373,67.7164309 C41.3455932,67.9986996 33.4325182,67.3888928 27.7300969,62.2361578 C23.8681114,58.3083623 22.8826392,52.9212911 23.7216223,47.6007926 C24.6431719,46.5089986 25.5886925,45.5929569 26.5501937,44.5011629 C27.8153269,45.8086527 29.83954,46.8764805 30.1884504,48.7085641" id="Fill-32" fill="#FEFEFE"></path>
                <path d="M126.176634,46.4576044 C126.371065,47.2325119 126.408354,47.9648127 126.48293,48.7770009 C126.850484,54.715295 124.285593,60.1902424 119.21707,63.2126476 C113.669128,66.5572653 107.258232,67.7023175 100.455811,67.870081 C100.341283,67.2602741 100.266707,66.4853667 100.189467,65.7956724 C99.6514528,61.8891803 98.9163438,57.9400816 97.8216707,54.1933642 C105.103511,54.1108139 113.962107,56.0307736 118.769613,49.3468641 C119.411501,48.4148449 120.05339,47.562713 120.615375,46.5508063 C121.691404,46.0688193 122.727482,45.3817879 123.766223,44.8172505 C124.639831,45.2699456 125.303027,45.9649657 126.176634,46.4576044" id="Fill-34" fill="#FEFEFE"></path>
                <path d="M98.5032446,76.5192196 C98.5325424,78.7960095 97.8054237,81.1500238 95.7678935,82.236492 C94.8117191,82.7610857 93.6984019,82.9581412 92.6223729,82.9102088 C92.5850847,82.7104904 92.5051816,82.4628395 92.5877482,82.2205145 C94.257724,82.2711099 95.8531235,81.6692917 96.7347215,80.2925661 C97.3366586,79.2779966 97.5790315,78.1409331 97.5870218,76.8813757 C97.8666828,76.718938 98.183632,76.599107 98.5032446,76.5192196" id="Fill-36" fill="#FEFEFE"></path>
                <path d="M57.407724,82.7017027 C57.1067554,82.7522981 56.9629298,82.8295225 56.3982809,82.7043657 C53.718862,82.7043657 50.9169249,80.5580585 51.0793947,76.9205205 C51.3963438,76.7980265 51.7532446,76.8459589 52.0808475,76.9524754 C52.0808475,79.0162323 52.9145036,81.8362563 57.298523,81.8362563 C57.5968281,82.3155805 57.3091768,82.3635129 57.407724,82.7017027" id="Fill-38" fill="#FEFEFE"></path>
                <rect id="Rectangle" x="0" y="0" width="150" height="150"></rect>
            </g>
        </g>
    </g>
</svg>