<svg width="150px" height="150px" viewBox="0 0 150 150" version="1.1" xmlns="http://www.w3.org/2000/svg" xmlns:xlink="http://www.w3.org/1999/xlink">
    <g stroke="none" stroke-width="1" fill="none" fill-rule="evenodd">
        <g id="CLE">
            <g id="Page-1" transform="translate(25.000000, 32.000000)">
                <path d="M72.3176082,17.7453718 C70.8901965,17.5981507 67.8370263,18.395128 63.109879,20.382527 C56.0545526,23.3478091 47.7140769,29.609407 42.4060817,35.3079398 C36.7157563,41.4192388 25.4132473,55.5459645 25.565256,62.1149996 C25.565256,62.3453211 25.7365865,63.2047092 26.6838626,63.5728474 L27.0998776,63.7022856 C30.5387977,64.4961851 35.3634085,63.9649239 45.8706501,60.6940854 C45.8706501,60.6940854 61.9162084,55.8325412 81.8645786,47.0840869 L87.6094493,43.8884834 L84.6665667,58.7304538 L84.3225379,59.0281447 C69.5332319,71.8733118 46.6483057,83.9485177 27.2727469,84.8557826 C22.7937039,85.0638755 17.5624825,84.834922 12.9538302,82.9932051 C6.88254251,80.5720084 3.13806595,76.8819061 1.49948341,72.2717149 C0.843400642,70.9417666 -4.72552293,58.1319941 10.8592214,38.5707419 L0.710542599,41.0799977 L8.87011252,28.4494212 C25.3893089,14.7850484 74.0138139,-13.5759547 96.722622,8.02245427 L98.4894459,9.81954312 L98.4894459,17.0492777 C98.4894459,17.0492777 62.2776781,38.1723387 62.4666203,37.8346365 C62.7930373,37.2378867 70.3573964,22.3141838 70.3573964,22.3141838 C71.2935583,20.4770836 71.9318582,18.9679394 72.3176082,17.7453718" id="Fill-1" stroke="#FFFFFF" fill="#FCB61A" stroke-linecap="round"></path>
                <path d="M73.5522647,15.3109405 C71.2239147,14.562182 67.0121266,15.8726376 62.0914203,17.9498056 C54.6277735,21.0860762 45.9819123,27.5848351 40.4706119,33.503943 C35.1130301,39.2664256 22.7290189,54.2893018 22.921039,62.1799069 C22.9336921,62.5129924 22.9560916,62.8411193 23.0041394,63.1577899 C21.8104689,62.1689636 21.0837678,60.7302666 21.0263157,58.6580573 C20.8390833,50.7688201 33.2167679,35.7507316 38.569562,29.9945756 C44.0856502,24.0739288 52.7380089,17.5768798 60.1951582,14.4341116 C67.9178525,11.1776362 73.8899669,9.79023569 73.5522647,15.3109405" id="Fill-4" fill="#000840"></path>
                <path d="M96.0679755,10.9939945 L96.1254276,15.6554823 L68.7503441,32.2179387 C69.0415375,31.9202478 72.1301023,25.9513822 72.3173346,25.5257919 L96.0679755,10.9939945 Z" id="Fill-6" fill="#000840"></path>
                <path d="M15.3521487,34.7567927 C12.455775,35.4530577 9.52571653,36.1778779 6.91728737,36.8211365 C7.27909898,36.3363842 9.96413097,32.6445721 10.5786635,31.844517 C13.7775159,31.0955875 17.0596396,30.3577722 20.0312483,29.6680047 C18.5910124,31.1003752 16.9907313,32.8189803 15.3521487,34.7567927" id="Fill-8" fill="#000840"></path>
                <path d="M82.5957766,57.031803 C68.0591916,69.656053 45.7231384,81.344141 27.1510544,82.2225088 C22.7999107,82.4210264 18.020099,82.1683054 13.940998,80.5295519 C8.36745771,78.3085826 5.27906391,75.0856209 3.9621107,71.3074596 C5.67746705,73.5766476 8.29701046,75.5175378 12.0399481,77.0218944 C16.1301634,78.6428651 20.9101461,78.9053324 25.2611188,78.6939907 C45.3023358,77.7643263 69.7138471,64.2280239 83.9879648,50.5108156 L82.5957766,57.031803 Z" id="Fill-10" fill="#000840"></path>
                <path d="M94.8745615,9.92389738 L72.7096677,23.5147452 C82.2262021,4.87050406 65.0878565,9.24558611 53.6398363,15.9840708 C47.1284242,19.4053792 39.6649484,26.3312673 37.3237742,28.8258181 C18.2778812,49.105564 4.93821549,76.2087758 46.641962,63.2276729 C46.641962,63.2276729 62.8523532,58.3197908 82.9751317,49.4737021 C26.0118608,97.5941331 -27.7542676,77.4713547 25.1507629,26.8816792 C20.3357275,27.982503 15.4743542,29.0291234 10.7183098,30.3589008 C27.6583088,16.3409238 74.1307529,-9.81159215 94.8745615,9.92389738" id="Fill-12" fill="#690031"></path>
            </g>
        </g>
    </g>
</svg>