<svg width="150px" height="150px" viewBox="0 0 150 150" version="1.1" xmlns="http://www.w3.org/2000/svg" xmlns:xlink="http://www.w3.org/1999/xlink">
    <g id="Page-1" stroke="none" stroke-width="1" fill="none" fill-rule="evenodd">
        <g id="DAL">
            <g id="Page-1">
                <g id="Group-3" transform="translate(23.000000, 22.110229)" fill="#FEFEFE">
                    <path d="M3.64004422,70.3339513 C2.79968066,69.0851603 0.000270213363,64.3359704 0.000270213363,56.6810439 C0.000270213363,53.8077435 0.397483857,50.5289914 1.42969891,46.8799268 C1.44050744,46.8555997 1.44320957,46.8366787 1.44591171,46.8096486 L1.89716802,45.0418795 L2.0079555,45.152703 C2.07821098,44.9418681 2.15116859,44.7229242 2.22412619,44.5039804 C2.5862121,43.414667 2.96451081,42.2685905 3.05368122,42.0009924 C3.11312816,41.7658305 3.44278846,40.4548702 3.70489542,39.5412526 C3.7832573,39.2682485 3.85081064,39.0438986 3.92106611,38.8492818 L3.93727892,38.7195373 C4.02104506,38.0410816 4.1291304,37.386953 4.25613069,36.7544485 C4.30206696,36.4165721 4.35881176,36.0922108 4.40474803,35.8138007 L4.4263651,35.6921652 L4.47500351,35.5813418 C4.50472698,35.5056575 4.53174832,35.4488943 4.55336538,35.4002401 C5.85849593,30.0644968 8.30392687,26.9073802 9.67931289,25.4720815 L9.69822782,25.4558635 L9.71444062,25.4396454 C9.98195185,25.1909684 10.7385493,24.4827796 11.6086363,23.9421774 C12.0085521,23.4177933 13.3082784,21.7338176 14.4999193,20.3958273 C14.9052393,19.9471275 15.2943466,19.5389729 15.6591346,19.2065025 C15.8563904,18.7550997 16.3292638,17.7901249 17.2209679,16.6764845 C18.3990981,15.2033436 20.3257194,13.4626047 23.2656408,12.3841034 C25.5219224,10.8541993 27.9133106,9.49458484 30.3965714,8.32418117 C30.8694448,7.83493622 32.671768,6.05365212 35.4684763,4.26155598 C38.7218452,2.1829407 43.3451958,0.0772953045 48.8116122,0.0745922937 C49.0196764,0.0745922937 49.2304429,0.0772953045 49.4385072,0.082701326 L51.4299796,0.139464552 L48.9656338,3.45605877 C50.2761686,3.35875038 51.6029162,3.30469017 52.9431745,3.30469017 C60.0119561,3.30469017 66.7591837,4.68863168 72.9011335,7.18351063 L72.930857,7.19432267 L72.9578783,7.20513471 C73.1983682,7.32136418 73.6226032,7.53490203 74.0603488,7.80250009 C74.4332433,8.04306805 74.811542,8.28363601 75.1439044,8.65124548 C75.5654373,8.69719666 76.4652478,8.84586225 77.4731436,9.29726505 L77.5028671,9.31078011 L77.5298884,9.32429516 C84.1798393,12.8111791 89.9705117,17.6630834 94.4911812,23.5042897 L94.5317132,23.5529439 L94.5641388,23.6124101 C94.6343943,23.7313426 94.8127351,24.090843 94.9640546,24.847686 C95.0397143,24.8936372 95.1477997,24.9639155 95.2693957,25.0395998 C95.5125877,25.2071865 95.7855032,25.3909912 96.0530145,25.6612923 L96.1124614,25.7234615 L96.1638019,25.7910368 C101.724793,33.870336 104.97546,43.5984718 104.97546,54.0618265 C104.97546,63.97647 102.054453,73.2396879 97.0068676,81.0567951 L96.9879527,81.0838252 L96.9690378,81.1081523 C96.8879738,81.2135697 96.852846,81.2487088 96.7771863,81.3162841 C96.7123351,81.3838594 96.6312711,81.4514346 96.5258878,81.5325249 C96.3745684,81.6487544 96.1746105,81.783905 95.9206099,81.9379766 C95.8989928,82.035285 95.8719715,82.1650295 95.8341416,82.308289 C95.7503755,82.6245413 95.6558008,82.9921508 95.4045024,83.4003054 L95.3909917,83.4219295 L95.3720768,83.4489596 C85.9443325,96.3882722 70.444894,104.81626 52.9431745,104.81626 C30.0506983,104.81626 10.6007405,90.3984003 3.64004422,70.3339513" id="Fill-1"></path>
                </g>
                <path d="M118.309387,48.4937659 C118.00945,48.1856227 117.306896,47.769359 117.306896,47.769359 C117.047491,47.6720506 116.99615,47.4368887 116.99615,47.4368887 C116.855639,46.5611132 116.671894,46.250267 116.671894,46.250267 C112.240395,40.5279932 106.565915,35.7733972 100.048368,32.3513856 C98.8837486,31.8297045 97.8353207,31.7729413 97.8353207,31.7729413 C97.6002351,31.7783473 97.4894476,31.5945426 97.4894476,31.5945426 C97.1057447,31.0512374 95.9465293,30.461981 95.5114858,30.2565522 C89.48843,27.8103275 82.876309,26.4561191 75.9426341,26.4561191 C73.837672,26.4561191 71.7705397,26.5831606 69.7358331,26.8237285 L72.4082433,23.2287242 C61.7131983,22.9097689 54.0364367,31.2701813 54.0364367,31.2701813 L54.041841,31.2809933 C51.4775161,32.4730211 49.0212767,33.8677746 46.7082503,35.4517389 L46.7136545,35.4382239 C41.1391529,37.4384519 39.5286812,41.9362618 39.5286812,41.9362618 C38.1154653,43.1201805 35.3160549,46.8368203 35.3160549,46.8368203 C34.5135212,47.2990352 33.681264,48.0639872 33.4299656,48.3045552 C32.1464521,49.6398425 29.7928937,52.6536995 28.5391037,57.8434802 C28.5066781,57.9272735 28.4661461,58.0110668 28.4283163,58.1002662 C28.3796778,58.3867853 28.322933,58.7138496 28.2796989,59.0355079 C28.1581029,59.6544974 28.0500175,60.2924079 27.9662514,60.9573486 L28.0175919,60.8870703 C27.998677,61.0276269 27.9824642,61.1114202 27.9824642,61.1114202 C27.8527618,61.1979165 27.0502281,64.3982813 27.0502281,64.3982813 C26.9205257,64.8010299 25.4640757,69.1826104 25.4640757,69.1826104 L25.4532671,69.1745013 C25.450565,69.1826104 25.450565,69.1934224 25.450565,69.2015314 C21.6162374,82.6003558 26.7097593,90.7256062 27.5771442,91.9743972 C34.348691,111.684752 53.4446694,125.889073 75.9426341,125.889073 C93.109289,125.889073 108.29528,117.620563 117.533875,104.948849 C117.795982,104.532585 117.928386,103.694652 117.928386,103.694652 C117.936493,103.416242 118.144557,103.291903 118.144557,103.291903 C118.85792,102.908076 119.103815,102.643181 119.133538,102.605339 C124.081145,94.9477091 126.9373,85.8872169 126.9373,76.1698932 C126.9373,65.9227794 123.756889,56.4054784 118.309387,48.4937659" id="Fill-4" fill="#051821"></path>
                <path d="M54.5401144,38.86429 C54.672519,38.7237335 54.794115,38.596692 54.8994982,38.4804625 C55.0724347,38.3047668 55.1372859,38.2588156 55.158903,38.2723307 C55.1832222,38.2507066 55.1967329,38.2398945 55.1967329,38.2398945 C55.239967,35.6882524 55.8182236,33.6393702 55.8182236,33.6393702 C60.4523828,27.1629564 68.1021231,25.4438415 68.1021231,25.4438415 C69.0532741,25.1735405 68.4398898,25.5925071 68.4398898,25.5925071 C63.6219855,30.9904197 64.1245824,35.4476844 64.1245824,35.4476844 L68.7209117,52.2252723 C68.7209117,52.2252723 64.9946694,50.9170151 62.1250035,45.0190456 C60.7982559,56.7825484 71.8851102,66.3160674 71.8851102,66.3160674 C72.3687921,66.7323311 71.6094926,66.2836313 71.6094926,66.2836313 C68.8316992,64.8969868 65.6350751,61.9723291 64.7622859,61.1506139 C64.9946694,62.0588255 70.3935324,89.1997566 70.4070431,89.275441 C70.4340644,89.4024825 70.507022,89.6673775 70.5637668,89.8376672 L72.4336433,85.1938947 L73.9792638,98.8981593 C66.9510142,105.442148 59.4634019,102.849961 59.001337,102.676968 C59.18238,102.9743 59.3228909,103.187837 59.3228909,103.187837 C59.3228909,103.187837 65.4053937,115.132442 90.1677464,113.86473 C90.1677464,113.86473 90.7595136,113.859324 90.6703432,113.935008 C90.6784496,113.956632 90.646024,113.986365 90.5352365,114.026911 C90.0677674,114.194497 89.3408935,114.31343 89.3408935,114.31343 C59.4444869,122.298124 43.9531548,96.814138 43.2830257,95.6788735 C43.0938763,95.4193844 41.6428306,93.3732053 40.8321905,91.3108081 C40.8078713,91.2540448 40.7727435,91.051319 40.9132545,91.2053906 C40.9132545,91.2053906 44.0882615,94.5165788 53.0620473,95.3355911 C53.1296006,95.3301851 53.1674305,95.319373 53.1674305,95.319373 C46.2256492,87.5806532 43.2776214,81.9719058 42.8425779,81.1150514 C42.8425779,81.1123484 42.8398758,81.1123484 42.8317694,81.1123484 C42.8317694,81.1123484 41.9995122,79.8581514 41.0105313,76.3036923 C41.0105313,76.3036923 41.0375526,76.1225905 41.1213188,76.3036923 C41.4590855,77.0064751 43.7558991,80.3960506 46.5499052,81.1555966 L46.5553095,81.1555966 C44.1855383,77.3281333 42.7128755,71.2679832 42.5237261,70.3840987 C45.755478,74.9116417 51.478597,75.238706 51.478597,75.238706 C51.4704906,75.2197849 51.4623842,75.2089729 51.4488735,75.1900518 C51.4623842,75.2116759 51.4677885,75.2224879 51.4677885,75.2224879 C42.0508528,65.8295255 44.0801551,55.5986297 47.9009721,48.2140043 C50.1518494,43.8540479 53.0269196,40.4833935 54.5401144,38.86429" id="Fill-6" fill="#FEFEFE"></path>
                <path d="M82.7147214,101.060027 L76.5376439,107.563471 C76.5430481,107.558065 76.5457503,107.555362 76.5511545,107.549956 L84.1765757,101.695235 L80.2287584,88.0801696 L81.9527197,71.7053303 L78.9398407,87.3449507 L82.7147214,101.060027 Z" id="Fill-8" fill="#C4CDD3"></path>
                <path d="M84.0868648,60.9924877 C83.5491402,63.7901039 82.6682447,66.6552953 81.1442413,67.9311164 C81.2550288,67.8743532 81.3928376,67.8040749 81.5495613,67.7094695 C82.0089241,67.4391684 82.6169041,67.0066867 83.2302885,66.3714792 C84.4489507,65.1037671 85.6757194,63.0305578 85.6757194,59.7707269 C85.6757194,58.3165071 85.4298252,56.6190163 84.8299516,54.6539275 C84.7705046,55.7783799 84.5867595,58.3570522 84.0868648,60.9924877" id="Fill-10" fill="#C4CDD3"></path>
                <path d="M84.0222838,40.099566 C86.1758843,36.845141 89.7129773,36.5613249 91.2126614,36.5505128 C89.9156373,36.1693883 88.7131878,36.0315347 87.6377386,36.0315347 C85.3652442,36.0315347 83.6737086,36.6559302 82.9765581,36.9667765 C82.873877,37.0100246 82.792813,37.0505698 82.7333661,37.0803029 C83.2873035,37.853364 83.8331345,39.4994976 84.0222838,40.099566 L84.0222838,40.099566 Z M83.9871561,40.350946 L84.0925393,40.3212128 L83.9871561,40.350946 Z" id="Fill-12" fill="#C4CDD3"></path>
                <path d="M78.6153144,48.6970323 L78.7098891,48.6429721 L78.6153144,48.6970323 Z M81.3012353,46.9319663 C81.3552779,46.9373723 81.3958099,46.9806205 81.3985121,47.0346807 C81.4039163,47.3374179 81.4066185,47.6347491 81.4066185,47.9428923 C81.4039163,54.9436902 79.5448484,62.6148348 78.8368894,65.2827064 C81.5201081,59.144169 82.2415778,53.4137861 82.2415778,49.0132846 C82.2415778,46.4346123 81.9929815,44.3154519 81.7443852,42.839608 C81.6146828,42.0719529 81.4849803,41.4826966 81.3931078,41.09076 C80.7121701,46.361631 78.707187,48.7510925 78.6963784,48.7646076 C78.6747614,48.7943407 78.6369315,48.8078558 78.6045059,48.8051528 C78.566676,48.7997467 78.5369526,48.7781226 78.5180376,48.7456865 C75.2214346,42.6585063 70.357594,38.9445695 68.1337381,37.4714286 C67.7500351,37.2146426 67.444694,37.0281348 67.242034,36.9064993 C73.5163883,50.5431887 75.351137,61.0660096 75.8240104,64.5312694 C75.8375211,64.1339268 75.8456275,63.7284752 75.8456275,63.3176176 C75.8456275,57.0871778 74.2540707,49.5755108 73.4542392,46.2129654 C73.1894301,45.091216 73.0137914,44.4343843 73.0137914,44.4343843 L73.0137914,44.4316813 C73.0029829,44.3857301 73.0191957,44.339779 73.0597277,44.3154519 C73.0948554,44.2884218 73.146196,44.2911248 73.186728,44.3208579 C76.0050533,46.5102966 77.9857173,52.7353304 78.3342925,53.889516 C78.8612086,53.2380904 79.5529548,51.6054719 80.1122965,50.1053009 C80.7202765,48.4861975 81.1850435,47.0076506 81.1850435,47.0049476 C81.2012563,46.9562934 81.2417883,46.9292633 81.2877246,46.9292633 C81.2931289,46.9292633 81.2985331,46.9319663 81.3012353,46.9319663 L81.3012353,46.9319663 Z" id="Fill-14" fill="#C4CDD3"></path>
                <path d="M28.5150547,75.2124868 C28.5177569,81.6970096 29.6337381,88.4842697 35.2109419,97.1447162 L35.2190483,97.1555283 C40.4882089,108.2622 50.2023793,114.238556 54.7311552,116.528006 C56.2389458,117.292959 57.1657777,117.647053 57.1738841,117.649756 C64.3696659,121.042034 71.1385107,122.290825 77.2020985,122.290825 C89.9048287,122.290825 99.5325309,116.817229 103.547901,114.076376 C104.890862,113.165461 105.604225,112.559987 105.604225,112.559987 L105.674481,112.641077 L105.604225,112.557284 C105.871736,112.33834 106.071694,112.162644 106.217609,112.0329 C106.139248,112.076148 106.058184,112.124802 105.979822,112.173456 C105.690693,112.343746 105.425884,112.516738 105.425884,112.516738 C95.5549902,118.311994 86.4569062,120.082466 79.0341451,120.082466 C67.4014599,120.082466 59.8733156,115.744133 59.8679113,115.74143 C35.2055376,102.802118 34.8434517,80.3779404 34.8434517,80.3617223 C34.8434517,80.3130681 34.8758773,80.26982 34.9272179,80.2563049 C34.9758563,80.2454929 35.0244947,80.2671169 35.0488139,80.3130681 C38.2292252,86.4786357 42.087872,88.5815781 43.806429,89.2492217 C44.0550253,89.3465301 44.2549832,89.4114024 44.4063026,89.4573536 C37.23484,80.4157825 35.1812184,72.8095102 35.1812184,67.0710184 C35.1812184,59.4755581 38.7777583,55.1750679 38.7858647,55.1642559 C38.8155882,55.1264137 38.8696308,55.1128987 38.912865,55.1345228 C38.9615034,55.1561469 38.9831204,55.2075041 38.975014,55.2534553 C38.4616086,57.9294359 38.2643529,60.2945703 38.2616508,62.3407495 C38.2643529,67.3440224 39.4370789,70.4605939 40.0207398,71.6985728 C40.0369526,71.7364149 40.0531654,71.7715541 40.0720803,71.8039902 C39.8532075,69.982161 39.7559307,68.2225009 39.7559307,66.5277132 C39.7559307,49.6176778 49.6619526,39.1975713 51.753404,37.1892343 C50.1861665,37.8433629 48.2865665,39.5246356 46.738244,41.1113029 C45.0223891,42.8655569 43.7280671,44.4954724 43.725365,44.4981754 C43.6983436,44.5333145 43.6497052,44.5468296 43.6064711,44.5333145 C43.5659391,44.5197995 43.5335135,44.4765513 43.5362156,44.4306001 C43.5524284,43.0872038 44.3171322,41.397822 44.7332608,40.5815128 C43.4578537,41.7411044 42.4013195,43.5575276 41.6474242,45.144195 C40.8124649,46.903855 40.3531022,48.3742928 40.3531022,48.3796989 L40.3314851,48.417541 C36.4079871,52.8585877 34.5083871,57.6023716 33.8058324,59.6917989 C33.5707468,60.3918787 33.4707678,60.7865183 33.4707678,60.7865183 C33.3815974,61.1460187 33.3302569,61.3244174 33.2816185,61.4136168 C33.2600014,61.4406469 33.2600014,61.4893011 33.1573203,61.5028162 C33.0762563,61.5001131 33.0546392,61.4406469 33.0438307,61.4217258 C33.0330222,61.3973987 33.03032,61.3784777 33.0276179,61.3568536 C33.0222136,61.3136054 33.0195115,61.2622482 33.0195115,61.205485 C33.0195115,60.9973531 33.0438307,60.713537 33.0438307,60.713537 C33.1194905,57.5212813 34.4462381,53.931683 34.9812605,52.6045047 C31.2198905,56.6509118 30.2984629,62.1353207 30.2984629,66.5196042 C30.2984629,68.5928134 30.5065272,70.4200487 30.7118894,71.7201969 C30.9172515,73.0257511 31.1199116,73.8069212 31.1199116,73.8096242 L31.1226137,73.8366543 C31.1334222,76.4153266 31.6414234,79.5994733 32.1440202,82.1403034 C32.6493192,84.6811335 33.1465118,86.5678351 33.1465118,86.565132 C33.3140441,87.05708 33.3761931,87.2841329 33.3815974,87.4057684 C33.3788953,87.4300955 33.3788953,87.4490166 33.3680867,87.4814527 C33.3572782,87.5111858 33.3059377,87.557137 33.2545971,87.554434 C33.170831,87.5436219 33.1600225,87.5111858 33.1330011,87.4895617 C33.1086819,87.4625316 33.0843627,87.4300955 33.0627456,87.3949564 C33.0141072,87.3246781 32.9600646,87.2327757 32.908724,87.1408733 C32.8114472,86.9678807 32.7195747,86.7894819 32.7195747,86.7894819 C30.0931008,82.7646989 28.8122894,76.1261044 28.520459,74.4529408 C28.5177569,74.7070238 28.5150547,74.9584038 28.5150547,75.2124868" id="Fill-16" fill="#C4CDD3"></path>
                <path d="M86.3669252,43.5391472 L86.3128825,43.490493 L86.3399038,43.4202147 C87.5450554,40.1982258 93.2114297,37.3330344 94.3111981,36.7951353 C91.6739156,35.3138854 89.1474207,34.8705916 87.0478629,34.8705916 C85.4590083,34.8705916 84.1214521,35.1273776 83.1811096,35.3814607 C82.2407671,35.6382467 81.7030425,35.8923297 81.7030425,35.8923297 L81.6273828,35.9301718 L81.5760423,35.8625966 C80.600572,34.6435387 79.3305692,33.4298869 78.3037584,32.5243783 C77.3201818,31.6567118 76.5662865,31.0701585 76.5014353,31.0215043 C76.3582222,30.9296019 76.2663497,30.8728387 76.2555411,30.7376881 C76.2555411,30.6593008 76.3122859,30.6052406 76.3555201,30.5836165 C76.4014563,30.5592894 76.4473926,30.5457744 76.5014353,30.5349623 C76.6068185,30.5160413 76.7311166,30.5106352 76.8419041,30.5106352 C76.9770108,30.5106352 77.0932026,30.5214473 77.1202239,30.5241503 C99.7154653,30.5268533 111.726449,46.6746397 111.729151,46.6800457 C111.885875,46.8611474 111.964237,47.0368431 111.964237,47.2044298 C111.945322,47.6909717 111.394087,47.9234306 110.894192,48.0802053 C110.388893,48.2342769 109.886296,48.2910401 109.886296,48.2910401 C107.702972,48.5937773 105.679074,48.7262248 103.809198,48.7262248 C92.0630229,48.7262248 86.3804359,43.5499592 86.3669252,43.5391472" id="Fill-18" fill="#007DC5"></path>
                <path d="M78.6655741,108.82848 C78.6277442,108.814965 78.6007229,108.785232 78.5926165,108.744687 C78.5845101,108.706845 78.6007229,108.6663 78.6304464,108.63927 L86.2099312,102.538574 L82.3647951,88.2910044 L82.3647951,88.2504593 L83.4267336,78.6980192 C83.4294357,78.6628801 83.4456485,78.6331469 83.4726698,78.6169289 C83.4996912,78.5980078 83.5321168,78.5926018 83.5618403,78.6034138 C85.2885036,79.1332039 86.0964416,81.4794173 86.5125702,83.668856 C86.8071028,85.2393053 86.8908689,86.7421793 86.9151881,87.4773982 C88.9282777,83.1174418 89.5848961,79.6170429 89.5848961,76.90322 C89.5848961,73.0622417 88.268957,70.7917127 87.6177428,69.8997191 C87.4015722,69.605091 87.2610612,69.4645344 87.2610612,69.4645344 C87.2205292,69.4239892 87.2205292,69.356414 87.2610612,69.3131658 C87.3015932,69.2699176 87.3691465,69.2699176 87.4123807,69.3104628 C96.4402092,77.8654919 98.2533408,89.8425326 98.2533408,98.0975275 C98.2533408,103.673839 97.4264879,107.560768 97.4264879,107.563471 L97.4237858,107.576986 C97.1265511,108.458168 96.2159321,108.679815 96.1997193,108.685221 C92.5248175,109.498827 89.2849593,109.766425 86.6233577,109.766425 C81.6298147,109.766425 78.6736805,108.831183 78.6655741,108.82848" id="Fill-20" fill="#007DC5"></path>
                <path d="M99.8932657,107.793768 C99.7527548,107.682944 99.6635844,107.493734 99.6662865,107.228839 C99.6662865,107.109906 99.6824993,106.969349 99.7203292,106.809872 C99.7203292,106.807169 100.014862,105.67731 100.309394,103.72844 C100.598523,101.776866 100.893055,99.0197948 100.893055,95.7761819 C100.893055,87.1752016 98.8313272,75.1765368 89.2522635,65.8457436 C89.2144336,65.8241195 89.0793269,65.7295141 88.9928586,65.6322057 C88.960433,65.5943636 88.9253053,65.5592244 88.919901,65.4808371 C88.9171989,65.4294799 88.9577309,65.3673107 89.000965,65.3510926 C89.0441992,65.3294685 89.0820291,65.3267655 89.1279653,65.3267655 C89.22254,65.3267655 89.3522424,65.3483896 89.5603067,65.3997468 C89.5684131,65.4051528 92.113823,66.1782139 93.9026355,68.1865509 C93.8864227,68.0622124 93.8648056,67.9054378 93.8404864,67.71893 C93.7594224,67.205358 93.6243157,66.4890601 93.3838258,65.6538298 C92.9082503,63.9806661 92.0192483,61.8398816 90.3979681,59.9721012 C90.395266,59.9693981 90.1709889,59.7342362 90.0493929,59.5720556 C90.011563,59.5071833 89.9764353,59.4855592 89.9656268,59.3936569 C89.9656268,59.3747358 89.971031,59.3341906 90.0007545,59.3044575 C90.030478,59.2774274 90.0683078,59.2720214 90.0872228,59.2720214 C90.1655846,59.2774274 90.1980102,59.3044575 90.2763721,59.3504087 C90.3493297,59.3963599 90.4466065,59.4639351 90.5790111,59.5612435 C91.1518634,59.8396536 115.214363,71.484224 116.057429,95.0031208 C116.057429,95.0085268 116.068238,95.1409743 116.068238,95.3518092 C116.065536,95.9248475 115.976365,97.073627 115.217066,97.7250526 C114.984682,98.0169778 109.28318,105.112381 100.893055,107.837016 C100.887651,107.837016 100.639055,107.934324 100.360735,107.934324 C100.204011,107.934324 100.031075,107.904591 99.8932657,107.793768" id="Fill-22" fill="#007DC5"></path>
                <path d="M117.992967,91.2378268 C117.928116,91.0702401 117.892988,90.8350782 117.884882,90.5188259 C117.336349,67.8892197 92.5361665,53.647056 86.3347698,50.4439882 C85.4511721,49.9871794 84.9512774,49.7547204 84.9512774,49.7547204 L84.5162339,49.5546976 L84.9945115,49.5492916 L85.0539585,49.5492916 C88.3046252,49.5519946 90.2960977,51.5170835 90.887865,52.1955392 L90.887865,52.1928362 C90.887865,51.5981738 90.7689711,50.9737783 90.6527793,50.4980484 C90.5311833,50.0196155 90.4122894,49.6979572 90.4122894,49.6979572 L90.3339276,49.4763103 L90.5528004,49.5574007 C93.1495508,50.5467026 96.4947923,50.8737669 99.7751825,50.8737669 C102.944785,50.8737669 106.057643,50.5683267 108.373372,50.2628865 C110.691802,49.9547432 112.210401,49.649303 112.213104,49.649303 L112.218508,49.6466 L112.223912,49.6466 C112.345508,49.635788 112.4617,49.6303819 112.569785,49.6303819 C113.888426,49.6276789 114.309959,50.3737099 114.366704,50.5007514 C117.466051,53.9606052 121.305783,61.9777352 121.948891,71.6031565 C122.027253,72.8141053 122.065083,73.984509 122.065083,75.1170705 C122.056976,83.5639792 120.038483,89.7214377 118.849544,91.1810635 C118.676607,91.3918984 118.519883,91.5189399 118.333436,91.5243459 C118.17401,91.5243459 118.055117,91.4027104 117.992967,91.2378268" id="Fill-24" fill="#007DC5"></path>
                <path d="M65.1970592,27.8095166 C65.2105699,27.7905955 65.232187,27.7716744 65.2402934,27.7500503 L65.232187,27.7527533 C64.9565693,27.8311407 60.0170691,29.2880635 58.5525126,36.8267605 C58.5525126,36.8267605 58.5417041,36.9646141 58.6227681,36.8375726 C59.065918,36.1050566 60.6088363,33.7669523 62.0301586,34.4589231 C62.0301586,34.4589231 62.038265,34.3994568 62.0490736,34.3048515 C62.1274354,33.6669409 62.5895003,31.0477235 65.1970592,27.8095166" id="Fill-26" fill="#051821"></path>
                <path d="M61.407587,95.9389031 C60.3402442,93.7927126 53.4822291,78.8045178 53.4822291,78.8045178 C51.3475435,79.4856765 48.6994526,77.7476406 48.6994526,77.7476406 L48.6994526,77.7557496 C52.0771196,86.7189334 60.0186903,94.5576646 61.285991,95.9821513 C61.2967996,95.9929633 61.2995017,95.9929633 61.304906,96.0010724 C61.5210766,96.2362343 61.5210766,96.152441 61.5210766,96.152441 C61.488651,96.1064898 61.4589276,96.0308055 61.407587,95.9389031" id="Fill-28" fill="#051821"></path>
                <path d="M54.6087486,47.1317188 C48.4154583,61.2873862 62.3503615,67.1231865 62.5341065,67.1961678 L62.5395108,67.1988708 L61.8018283,63.9390398 L61.3802955,62.0712593 C61.026316,61.9577329 60.7074642,61.8306914 60.3886124,61.6874318 C60.2805271,61.6414806 60.177846,61.5901234 60.0724628,61.5414692 C59.9427604,61.482003 59.813058,61.4171307 59.691462,61.3549615 C53.6035549,58.1167546 54.19262,50.3618167 54.5682166,47.8453136 C54.5682166,47.8236895 54.5682166,47.8101745 54.5709187,47.7912534 C54.5871315,47.7182721 54.5979401,47.6479938 54.6087486,47.5804186 C54.6465785,47.3452566 54.6763019,47.183076 54.6952169,47.0992827 C54.7033233,47.0614405 54.7087275,47.0344104 54.7087275,47.0344104 L54.7087275,47.0263014 C54.7249403,46.8397936 54.6357699,47.0506285 54.6087486,47.1317188" id="Fill-30" fill="#051821"></path>
                <path d="M63.7746561,86.9800442 L62.7721645,69.1915303 L68.7519862,89.0262234 C68.7519862,89.0262234 66.7902372,84.3392027 63.7746561,86.9800442" id="Fill-32" fill="#C4CDD3"></path>
                <path d="M64.1362016,35.8366477 L65.4602471,46.4729951 C65.4602471,46.4729951 66.1087591,49.3787316 62.1258141,45.0214783 C64.9954801,50.9167448 68.7217223,52.227705 68.7217223,52.227705 L64.1605208,35.5798616 C64.1524144,35.6068918 64.1199888,35.6366249 64.1362016,35.8366477" id="Fill-34" fill="#C4CDD3"></path>
                <path d="M57.7818641,55.2380481 C57.4089697,54.3622726 57.2603523,53.5621814 57.2603523,52.8458836 C57.2603523,50.2618053 59.1626544,48.8075855 59.1707608,48.7994764 L59.2275056,48.7562283 C59.2275056,48.7805554 59.1302288,47.1155007 59.2869526,44.4503321 C57.7575449,46.7019401 54.5176867,52.0349803 58.3952485,56.2057259 C58.3330994,56.1219326 58.2790567,56.0435453 58.225014,55.967861 C58.0250561,55.6786388 57.8872473,55.4434769 57.7818641,55.2380481" id="Fill-36" fill="#C4CDD3"></path>
                <path d="M61.8350646,57.4026191 C61.175744,56.2484335 59.4950168,52.5642298 59.2329099,48.834075 C59.2302077,48.8097479 59.2275056,48.7800148 59.2275056,48.7583907 L59.1707608,48.7989358 C59.1626544,48.8070449 57.2603523,50.2585616 57.2603523,52.845343 C57.2603523,53.5616408 57.4116718,54.364435 57.7818641,55.2375075 C57.8872473,55.4429363 58.0277583,55.6780982 58.225014,55.9673204 C58.2790567,56.0430047 58.3358015,56.121392 58.3979506,56.2105914 C58.4682061,56.3024937 58.5519722,56.3862871 58.6438448,56.4835955 C59.295059,57.1971903 60.3975295,57.9324092 62.207959,58.0107965 C62.207959,58.0107965 62.0593417,57.7945557 61.8350646,57.4026191" id="Fill-38" fill="#051821"></path>
                <path d="" id="Fill-40" fill="#C4CDD3"></path>
                <path d="M67.2447361,91.1848478 C67.8635247,91.1929568 68.333696,91.755183 68.7201011,92.5417592 C69.1065062,93.3310383 69.4172515,94.3771035 69.6577414,95.4177626 C69.9576783,96.7098018 70.1495298,98.007247 70.2522108,98.7965261 C70.2495087,99.1533235 70.2468066,99.4155156 70.2387002,99.5695872 L70.2387002,99.5831022 C70.3684026,98.7235448 71.6275969,90.4090837 67.404162,89.23868 C67.404162,89.23868 64.4642406,88.487243 64.6533899,94.6149684 C64.6723049,94.4717089 64.6885177,94.3500734 64.6993262,94.2365469 C65.6639879,92.0687323 66.4719259,91.2010658 67.2447361,91.1848478" id="Fill-42" fill="#C4CDD3"></path>
                <path d="M70.2370789,99.5817507 L70.2370789,99.5844537 L70.2370789,99.5817507 Z" id="Fill-44" fill="#051821"></path>
                <path d="M70.2530215,98.7976073 C70.2368087,98.5381183 69.9557868,96.710883 69.6558499,95.4161408 C69.4153601,94.3754817 69.1073168,93.3321195 68.7182096,92.5428404 C68.3345066,91.7562642 67.8616332,91.194038 67.2455467,91.185929 C66.4700344,91.199444 65.6647986,92.0698135 64.7001369,94.2376281 C64.6406899,94.3944028 64.6542006,94.4160268 64.6542006,94.6133466 L66.1079485,97.8191174 C66.1079485,97.8191174 66.9456099,89.2343552 70.2314044,99.5544503 C70.2341065,99.5760744 70.2341065,99.5922925 70.2368087,99.5976985 L70.2368087,99.5787774 L70.2368087,99.5841834 L70.2368087,99.5814804 L70.2368087,99.5679654 C70.2476172,99.4165968 70.2827449,99.227386 70.2530215,98.7976073" id="Fill-46" fill="#051821"></path>
                <rect id="Rectangle" x="0" y="0" width="150" height="150"></rect>
            </g>
        </g>
    </g>
</svg>