<?xml version="1.0" encoding="UTF-8" standalone="no"?>
<svg width="150px" height="150px" viewBox="0 0 150 150" version="1.1" xmlns="http://www.w3.org/2000/svg" xmlns:xlink="http://www.w3.org/1999/xlink">
    <!-- Generator: Sketch 39.1 (31720) - http://www.bohemiancoding.com/sketch -->
    <title>DEN</title>
    <desc>Created with Sketch.</desc>
    <defs>
        <polygon id="path-1" points="112.605466 79.4054311 0 79.4054311 0 0.197030024 112.605466 0.197030024"></polygon>
    </defs>
    <g id="Page-1" stroke="none" stroke-width="1" fill="none" fill-rule="evenodd">
        <g id="DEN">
            <g id="Page-1">
                <g id="Group-3" transform="translate(19.000000, 31.191979)">
                    <mask id="mask-2" fill="white">
                        <use xlink:href="#path-1"></use>
                    </mask>
                    <g id="Clip-2"></g>
                    <path d="M56.239226,76.6070962 C56.2782719,76.6116881 56.315021,76.6139841 56.3517701,76.620872 C56.315021,76.6139841 56.2782719,76.6116881 56.239226,76.6070962 L56.239226,76.6070962 Z M9.58623432,76.2305562 L9.58853113,76.2305562 L9.58853113,76.2305562 L9.58623432,76.2305562 L9.58623432,76.2305562 Z M108.310414,38.8176347 L108.312711,38.8176347 L108.2484,38.8382984 L108.2484,38.8382984 L108.310414,38.8176347 Z M97.4166007,73.9253967 L97.4166007,73.9253967 L97.4188975,73.9276927 L97.4188975,73.9276927 L97.4166007,73.9253967 Z M95.9787919,43.6506632 L95.9787919,43.6506632 C95.9787919,43.6506632 95.9787919,43.6506632 95.9787919,43.6483672 L95.9787919,43.6483672 L95.9787919,43.6506632 Z M94.7086509,51.8886234 L94.7086509,51.8863275 L94.7086509,51.8863275 L94.7086509,51.8886234 Z M41.5326926,68.1372424 C41.5395831,68.1395383 41.5464736,68.1464263 41.5510672,68.1487222 C41.5464736,68.1464263 41.5395831,68.1395383 41.5326926,68.1372424 L41.5326926,68.1372424 Z M41.718735,54.9055353 L41.7210318,54.9055353 L41.7210318,54.8986474 L41.718735,54.8986474 L41.718735,54.9055353 Z M41.7210318,59.9888252 L41.7210318,59.9888252 L41.718735,59.9888252 L41.7210318,59.9888252 Z M19.3798714,51.9092872 L19.384465,51.9092872 L19.384465,51.9092872 L19.3798714,51.9092872 L19.3798714,51.9092872 Z M18.8814616,42.9664625 L18.8814616,42.8952872 L18.8814616,42.8952872 L18.8814616,42.9664625 L18.8814616,42.9664625 Z M92.2188989,42.8815114 L92.2188989,42.8838074 L92.2188989,42.8815114 Z M89.7842705,48.4607319 L89.7819737,48.4607319 L89.7819737,48.458436 L89.7842705,48.4607319 L89.7842705,48.4607319 Z M63.8692594,54.8871675 L63.8715562,54.8871675 L63.8692594,54.8871675 L63.8692594,54.8871675 Z M57.7367521,51.927655 L57.7344553,51.927655 L57.7367521,51.927655 L57.7367521,51.927655 Z M58.1800382,59.5617737 L58.1800382,59.5594777 L58.1800382,59.5594777 L58.1800382,59.5617737 Z M58.1800382,65.7218761 C58.1800382,65.7126922 58.1777414,65.6989163 58.1777414,65.6966204 L58.1777414,65.6943244 C58.1777414,65.6966204 58.1800382,65.7103962 58.1800382,65.7218761 L58.1800382,65.7218761 Z M62.3579524,38.5857411 L62.3579524,38.5834452 L62.3579524,38.5857411 Z M58.1823351,65.7425399 C58.1800382,65.7379479 58.1800382,65.73106 58.1800382,65.7241721 C58.1800382,65.73106 58.1800382,65.7379479 58.1823351,65.7425399 L58.1823351,65.7425399 Z M74.8549457,54.841248 L74.8572425,54.841248 L74.8572425,54.841248 L74.8549457,54.841248 L74.8549457,54.841248 Z M27.9722721,32.9032017 L27.9745689,32.9032017 L27.9745689,32.9032017 L27.9722721,32.9054976 L27.9722721,32.9032017 Z M79.106358,31.0273896 L79.0489375,31.0227977 L79.0489375,31.0227977 L79.106358,31.0273896 L79.106358,31.0273896 Z M45.2167906,31.275355 L45.2167906,31.273059 C45.2167906,31.273059 45.2167906,31.273059 45.2167906,31.275355 L45.2167906,31.275355 Z M44.6931159,28.5408481 L44.6931159,28.5408481 L44.729865,28.5316642 L44.729865,28.5339602 L44.6931159,28.5408481 Z M61.4530056,26.2930881 L61.4507088,26.3137518 L61.4507088,26.3137518 L61.4530056,26.2930881 Z M72.666077,25.6364391 L72.6683738,25.6364391 L72.666077,25.6364391 Z M55.4353393,26.2448726 C55.4353393,26.2448726 55.4353393,26.2425766 55.4330425,26.2425766 L55.4330425,26.1874732 L55.4330425,26.1874732 L55.4353393,26.2448726 Z M64.2734996,26.396407 L64.2734996,26.396407 L64.2734996,26.3987029 L64.2734996,26.3987029 L64.2734996,26.396407 Z M64.07827,32.3383917 L64.07827,32.3383917 L64.0851604,32.2809923 L64.07827,32.3383917 Z M51.8706759,32.2672164 L51.8706759,32.2672164 L51.8729727,32.2052251 L51.8729727,32.2052251 L51.8706759,32.2672164 Z M79.7264992,35.3415277 L79.7264992,35.3392317 L79.7264992,35.3415277 Z M40.0765093,19.1709719 L40.0765093,19.1709719 L40.0742124,19.1709719 L40.0765093,19.168676 L40.0765093,19.1709719 L40.0765093,19.1709719 Z M40.1591948,19.2995466 L40.1591948,19.2995466 L40.1637884,19.2949546 L40.1637884,19.2949546 L40.1591948,19.2995466 Z M50.3938211,40.8610529 C50.3938211,40.8564609 50.3961179,40.854165 50.3984148,40.849573 C50.3961179,40.854165 50.3938211,40.8564609 50.3938211,40.8610529 L50.3938211,40.8610529 Z M50.4121957,40.8105414 L50.4121957,40.8105414 C50.4121957,40.8059495 50.4167893,40.8013575 50.4167893,40.7967656 C50.4167893,40.8013575 50.4121957,40.8059495 50.4121957,40.8105414 L50.4121957,40.8105414 Z M89.3685462,47.8522984 L89.3685462,47.8500025 L89.4236699,47.8591864 L89.4213731,47.8591864 L89.3685462,47.8522984 Z M90.9303833,70.4699535 L90.9303833,70.4699535 C90.9005246,70.4538817 90.8775564,70.428626 90.8499946,70.4102582 L90.8499946,70.4102582 C90.8775564,70.428626 90.9005246,70.4538817 90.9303833,70.4699535 L90.9303833,70.4699535 Z M101.638154,50.7245638 C101.638154,50.7176759 101.635858,50.713084 101.635858,50.706196 L101.638154,50.706196 L101.638154,50.7245638 L101.638154,50.7245638 Z M103.351582,60.5559311 C103.342394,60.5467472 103.333207,60.5421553 103.32402,60.5329714 L103.32402,60.5329714 C103.333207,60.5421553 103.342394,60.5467472 103.351582,60.5559311 L103.351582,60.5559311 Z M103.457235,69.4046209 L103.457235,69.4046209 C103.464126,69.3977329 103.471016,69.4000289 103.480203,69.395437 C103.471016,69.4000289 103.464126,69.3977329 103.457235,69.4046209 L103.457235,69.4046209 Z M3.20796738,37.0267737 L3.20796738,37.0290697 L3.20796738,37.0267737 Z M4.42528156,45.827248 L4.42528156,45.7813285 L4.42528156,45.827248 L4.42528156,45.827248 Z M13.617152,45.6091303 L13.617152,45.5769867 L13.617152,45.6091303 Z M112.605466,34.0764452 L108.884619,35.31168 C105.946987,33.3830605 102.660239,33.6402098 102.699285,33.6425058 L100.567837,33.6425058 L99.5411585,32.3429836 L104.318542,32.308544 L101.693278,29.8265944 C87.0832111,16.0277814 77.7810933,14.7282592 76.5890442,14.6111645 L75.9964648,14.560653 L75.9780903,14.5836128 C72.4478791,11.6034365 59.6637834,0.81235147 59.6637834,0.81235147 L58.9333949,0.197030024 L58.1938191,0.803167568 C58.1938191,0.803167568 44.5782749,11.9799765 40.9722688,14.941785 L40.8367564,14.8155063 L40.0994775,14.9578568 C26.8146752,17.5339414 15.3167982,29.3628074 14.8252789,29.8725139 L12.5077883,32.3246158 L14.8666217,32.3246158 L14.9791658,33.4771955 L16.0793422,32.3246158 L16.1826991,32.3246158 L15.5258088,33.0294803 L16.1092009,33.9685343 L-0.000689045762,33.9685343 L-0.000689045762,45.5999464 L1.2487806,45.542547 C1.26485834,48.5387951 1.3682152,67.5334008 1.37280884,67.7262627 C1.37280884,67.7721823 1.37280884,67.8135098 1.37051202,67.8525414 L0.0911837224,68.2267854 L0.0911837224,79.3347151 L18.3003664,79.3668588 L21.2977154,77.6150294 C23.5279269,79.247468 25.8660888,79.4058903 26.6630851,79.4058903 C26.8353465,79.4058903 26.9364066,79.3967064 26.9478907,79.3967064 C29.5685614,79.3783386 31.6816351,78.0191211 31.7735078,77.9594257 L34.5687368,76.1318292 C37.5546018,79.626304 41.7807491,79.3829306 41.7394064,79.3806346 L41.7485936,79.3806346 C44.5323385,79.3806346 46.2871084,78.2418307 46.6637867,77.9732016 C46.8521259,77.8515149 48.4116662,76.8343977 49.5233267,76.1111654 C52.3070715,79.3530829 56.3724415,79.348491 56.5079539,79.341603 C59.00919,79.4655857 60.977564,78.49898 62.1833941,77.6701328 L63.4994715,79.3347151 L80.3810927,79.3347151 L80.3810927,78.4278048 L81.5731418,79.3347151 L94.033386,79.3347151 L94.033386,77.9869775 L96.0614774,79.0844538 L97.4809116,77.9732016 C99.7042326,79.3232352 102.210062,79.3990024 102.740628,79.3990024 L102.742924,79.3990024 C109.105114,79.3990024 111.31006,75.0435368 111.502993,74.6210773 C112.440095,72.9404232 112.573311,70.8166458 112.591685,70.1599968 L112.591685,62.4294472 C112.591685,57.3346774 109.697693,54.8045124 109.461121,54.6185384 C109.401403,54.558843 109.332499,54.4945557 109.256704,54.4256764 L112.605466,54.4256764 L112.605466,34.0764452 Z" id="Fill-1" fill="#FEFEFE" mask="url(#mask-2)"></path>
                </g>
                <path d="M130.153647,84.1668283 L123.779973,84.1668283 C123.779973,84.1668283 126.710715,86.0977438 127.4434,86.8462318 C127.4434,86.8462318 130.137569,89.0595522 130.137569,93.6216556 L130.137569,101.345317 C130.137569,101.345317 130.105413,103.544862 129.218841,105.131381 C129.218841,105.131381 129.211951,105.145157 129.19817,105.175005 C128.986863,105.615832 127.133329,109.137858 121.738101,109.137858 C121.738101,109.137858 118.577678,109.183778 116.427855,107.360773 L114.914251,108.545497 L111.57927,106.738564 L111.57927,109.075867 L101.062135,109.075867 L97.9292732,106.690348 L97.9292732,109.075867 L83.2020685,109.075867 L81.4105495,106.809739 C81.4105495,106.809739 79.0425289,109.261841 75.560551,109.082755 C75.560551,109.082755 71.1552518,109.15393 68.865323,105.349499 L64.825218,107.976095 C64.825218,107.976095 63.288646,109.121787 60.7162085,109.121787 C60.7162085,109.121787 56.4165629,109.431743 53.9061395,105.365571 C53.9061395,105.365571 51.0580837,107.252862 49.9808755,107.937063 C49.9808755,107.937063 48.1411233,109.121787 45.9155055,109.137858 C45.9155055,109.137858 42.9066724,109.369752 40.4284045,107.048521 L36.9073806,109.105715 L30.42346,109.105715 L30.2672763,108.575344 L29.3026122,109.075867 L20.5448406,109.075867 L20.5448406,100.507286 L21.3877732,100.257025 C21.3877732,100.257025 21.3946637,100.254729 21.4084446,100.243249 C21.5026142,100.178962 21.8769957,99.8437494 21.8195753,98.7026495 L21.6978438,76.3628075 C21.6978438,76.3628075 21.7920134,75.2102277 20.4529678,75.2722191 L20.4529678,66.6117993 L37.7181578,66.6117993 L36.3446599,64.4007749 L38.5266382,62.0634718 L34.8792893,62.0634718 C34.8792893,62.0634718 46.1934207,50.1312869 59.3771629,47.5758661 L59.7814031,48.1682278 L77.9193843,33.2765304 L95.1547156,47.8261274 L95.6232668,47.2636134 C95.6232668,47.2636134 104.973618,48.1682278 119.696229,62.0749517 L115.552767,62.1070953 L118.364074,65.6520816 L118.060894,66.2857708 L121.722023,66.2857708 C121.722023,66.2857708 125.043224,66.0194376 127.659301,68.1087754 L130.153647,67.2822242 L130.153647,84.1668283 Z M130.456827,66.8597647 C130.456827,66.8597647 127.932623,67.6977958 127.69605,67.7758589 C125.043224,65.7622884 121.836864,65.9712222 121.699055,65.982702 C121.699055,65.982702 119.271317,65.9804061 118.545522,65.9804061 C118.584568,65.8977509 118.720081,65.61305 118.720081,65.61305 C118.720081,65.61305 116.754003,63.1333964 116.179799,62.4055721 C117.077855,62.3986842 120.454179,62.3734285 120.454179,62.3734285 L119.905239,61.854538 C105.274501,48.0350612 96.038991,46.9995762 95.6531254,46.9605446 L95.4923481,46.9467688 C95.4923481,46.9467688 95.2488852,47.2360617 95.1179665,47.39678 C94.6631963,47.0110561 77.9216812,32.8816226 77.9216812,32.8816226 C77.9216812,32.8816226 60.3441238,47.3118289 59.845714,47.7228085 C59.7377635,47.5643862 59.514972,47.2406537 59.514972,47.2406537 L59.3174456,47.2773893 C46.1911238,49.8213302 34.7736356,61.7351473 34.6587946,61.854538 L34.1718689,62.3688365 L37.8261083,62.3688365 C37.2427162,62.9910459 35.9633879,64.3617433 35.9633879,64.3617433 C35.9633879,64.3617433 36.8109142,65.7278487 37.1715148,66.3087306 L20.1474909,66.3087306 L20.1474909,75.5890637 L20.4644519,75.5752879 C20.8020843,75.559216 21.047844,75.6303913 21.2017309,75.7842216 C21.3808828,75.9678997 21.3946637,76.2342328 21.3946637,76.316888 L21.3946637,76.3398477 C21.3946637,76.5097499 21.5163951,98.7049455 21.5163951,98.7049455 C21.5209888,98.7807127 21.5209888,98.8518879 21.5209888,98.9184712 C21.5209888,99.7289506 21.2844164,99.9493642 21.2476673,99.9815079 C21.1534977,100.00906 20.2393636,100.277689 20.2393636,100.277689 L20.2393636,109.378936 L29.3761104,109.378936 C29.3761104,109.378936 29.7918347,109.163114 30.0789371,109.016172 C30.1019053,109.094235 30.1937781,109.411079 30.1937781,109.411079 L36.9900661,109.411079 C36.9900661,109.411079 40.0701007,107.611035 40.3985458,107.418173 C42.9066724,109.631493 45.8121487,109.450111 45.9384737,109.440927 C48.2054343,109.424855 50.0658578,108.242428 50.1439497,108.191916 C50.1439497,108.191916 53.0011928,106.320696 53.8349382,105.77655 C56.4326407,109.661341 60.6955371,109.429447 60.7391767,109.424855 C63.3598474,109.427151 64.9423558,108.26998 65.0089636,108.221764 C64.9951827,108.228652 67.9465953,106.309216 68.7941216,105.758182 C71.1851104,109.38812 75.3836959,109.390416 75.5651447,109.38812 C78.5372287,109.539654 80.6847547,107.875072 81.3760972,107.257454 C81.6953551,107.661546 83.0550721,109.378936 83.0550721,109.378936 L98.2324534,109.378936 L98.2324534,107.30567 C98.9306864,107.833744 100.961075,109.378936 100.961075,109.378936 L111.884747,109.378936 L111.884747,107.250566 C112.557715,107.613331 114.94411,108.908261 114.94411,108.908261 C114.94411,108.908261 116.15683,107.957727 116.434746,107.741905 C118.632802,109.452407 121.614073,109.443223 121.742695,109.443223 C127.624849,109.443223 129.480679,105.292099 129.499053,105.253068 C130.39711,103.645885 130.440749,101.444044 130.443046,101.352205 L130.443046,93.6216556 C130.443046,88.9677132 127.751174,86.7061773 127.636333,86.6120423 C127.149407,86.1115196 125.711598,85.1035864 124.77909,84.4698971 L130.456827,84.4698971 L130.456827,66.8597647 Z" id="Fill-4" fill="#FEFEFE"></path>
                <path d="M120.650929,82.1142229 C120.633252,81.9102561 120.627359,81.7307653 120.627359,81.5879886 C120.627359,81.7307653 120.633252,81.9061768 120.650929,82.1142229" id="Fill-6" fill="#498AC9"></path>
                <path d="M67.6094552,103.371975 C67.4375173,103.554024 67.2603692,103.727539 67.083221,103.898209 C67.2603692,103.727539 67.4375173,103.554024 67.6094552,103.371975" id="Fill-8" fill="#498AC9"></path>
                <path d="M50.5866069,105.995357 C50.4216223,106.166171 50.2507453,106.319315 50.0798684,106.478348 C50.244853,106.325205 50.4098376,106.172061 50.5866069,105.995357" id="Fill-10" fill="#498AC9"></path>
                <path d="M42.83988,72.6415182 C42.8163108,72.6061773 42.7986339,72.5767266 42.7750646,72.5413858 C42.7986339,72.5767266 42.8163108,72.6120675 42.83988,72.6415182" id="Fill-12" fill="#498AC9"></path>
                <path d="M120.627589,81.4403574 L120.627589,81.4059178 L120.627589,81.4403574 Z" id="Fill-14" fill="#498AC9"></path>
                <path d="M128.888559,69.0342831 L128.888559,69.3212801 L128.888559,82.6494181 L128.888559,82.8606479 L128.681845,82.8606479 L124.898984,82.8560559 L123.256758,82.8537599 L123.068419,82.8537599 C123.068419,82.8537599 120.888737,82.1374156 120.647571,82.0501685 C120.642978,82.0134329 120.642978,81.9789933 120.638384,81.9445536 C120.654462,82.1787431 120.686617,82.4611481 120.753225,82.750441 C120.870363,83.2532597 121.088561,83.7698542 121.506582,84.0430753 C121.524956,84.0545551 123.502518,85.4390284 126.407994,87.53755 C126.511351,87.6202052 128.95287,89.5488246 128.888559,93.7137243 L128.888559,101.689943 C128.888559,101.78867 128.881668,104.194853 127.074072,105.994897 C125.794743,107.269164 123.957288,107.900557 121.619126,107.884485 C121.506582,107.884485 118.800929,108.031428 116.389269,105.673461 L115.100753,106.738794 L114.877962,106.91788 L114.772308,107.000535 C114.772308,107.000535 111.127256,105.078803 110.34404,104.64716 L110.34404,107.83627 L103.391569,107.831678 L101.333619,107.829382 C101.333619,107.829382 97.6334429,105.083395 96.7996976,104.442818 L96.7996976,107.83627 L86.8039404,107.833974 L83.6779694,107.831678 C83.6779694,107.831678 81.7417509,105.58851 81.3191361,105.069619 C78.9511155,107.921221 76.047936,107.884485 76.0088901,107.884485 C73.7120709,107.804126 71.9113647,107.07171 70.6595982,105.703309 C70.0509411,105.037476 69.6421073,104.298172 69.3618953,103.581827 C68.7256764,103.997399 65.8179033,105.806627 64.9887516,106.30715 C64.9129565,106.369141 64.8371615,106.435725 64.7590697,106.493124 C62.8274447,107.937293 60.9785052,107.884485 60.9578339,107.884485 C58.8355729,107.866118 57.1382235,107.227836 55.9163157,105.96505 C55.1836304,105.21197 54.7173761,104.334907 54.414196,103.503764 C53.7366343,103.949183 50.475151,106.022449 49.7172007,106.493124 C49.4530665,106.702058 49.1843386,106.881144 48.9156108,107.034974 C47.3698515,107.914333 45.8884031,107.912037 45.8080144,107.912037 C43.8327499,107.891373 42.2525383,107.2485 41.1110191,105.992601 C40.9686163,105.838771 40.8399945,105.678053 40.718263,105.515039 C39.8270972,106.040817 36.6437058,107.831678 36.6437058,107.831678 L36.4323984,107.838566 L36.2279815,107.838566 L31.5677353,107.838566 L31.3977707,107.838566 L31.3679121,107.673256 L31.2507743,107.103854 C30.6581949,107.315083 28.9907042,107.831678 28.9907042,107.831678 L28.7954745,107.83627 L28.7885841,107.83627 L22.0083738,107.83627 L21.8016601,107.83627 L21.8016601,107.629632 L21.7947696,101.689943 L21.7947696,101.570553 L21.9004233,101.510857 C21.9440629,101.48101 23.0672074,100.817473 23.0396456,98.9485485 C23.0396456,98.9485485 23.0074901,77.1115251 23.0074901,77.1023412 C23.0074901,77.0793814 23.0786915,74.7374864 21.8774551,74.1520126 L21.7626141,74.0969092 L21.7626141,73.9637426 L21.7947696,68.010278 L21.7947696,67.8059362 L21.8085505,67.8059362 L21.9991865,67.8059362 L27.8905278,67.8059362 L28.0581956,67.8059362 L30.9544846,67.8105282 L30.9544846,68.012574 L30.9544846,67.8059362 L31.1634951,67.8059362 L37.6749776,67.8059362 L37.8816913,67.8059362 L37.8816913,67.8105282 L39.8018322,67.8105282 C39.7926449,67.7921604 39.7811608,67.7760885 39.7696767,67.7577207 C38.7889349,66.1941614 37.96208,64.8785674 37.96208,64.8785674 L37.8013026,64.6168262 L37.9896418,64.3826367 C38.0286877,64.3321252 38.96579,63.1474018 41.4210897,60.9914808 L37.7278044,60.9914808 C37.7278044,60.9914808 38.5270975,60.2429928 38.5316912,60.2384008 C38.9451186,59.8595649 48.798473,50.8868924 58.5898133,48.9031696 L58.8585411,48.8503621 L59.0239121,49.0707758 C59.0239121,49.0707758 59.4028873,49.5988501 59.6256787,49.9111028 L77.8509391,34.8885348 L95.2746096,49.6723214 C95.511182,49.3646606 95.9475776,48.7952587 95.9475776,48.7952587 L96.1106518,48.584029 L96.3678956,48.6322444 C104.595102,50.1567722 114.781495,59.1524044 115.916124,60.1718175 L116.747572,60.9248975 L112.620188,60.9248975 C114.962944,63.2851604 116.637325,65.2711792 116.823367,65.4915929 L116.889975,65.5489923 L116.657996,65.9255322 L115.511884,67.727873 C117.390682,67.732465 120.427077,67.539603 121.341211,67.539603 C121.325133,67.541899 121.311352,67.546491 121.297571,67.5510829 C121.439974,67.5350111 121.58697,67.5212352 121.736264,67.5120513 C121.880963,67.5028674 125.245803,67.3811807 127.365768,69.5508776 L128.61294,69.1261222 L128.888559,69.0342831 Z M121.722483,66.2860004 L118.061353,66.2860004 L118.364533,65.6523112 L115.553226,62.1073249 L119.696688,62.0751813 C104.974077,48.1684574 95.6237261,47.263843 95.6237261,47.263843 L95.155175,47.826357 L77.9198437,33.27676 L59.7818624,48.1684574 L59.3776223,47.5760957 C46.19388,50.1315165 34.8797486,62.0637014 34.8797486,62.0637014 L38.5270975,62.0637014 L36.3451193,64.3987085 L37.7186172,66.6120289 L20.4534272,66.6120289 L20.4534272,75.2701527 C21.7924728,75.2104573 21.6983032,76.3607411 21.6983032,76.3607411 L21.8223314,98.7005831 C21.8774551,99.843979 21.5030736,100.176895 21.408904,100.243479 C21.3951231,100.252663 21.3882326,100.257255 21.3882326,100.257255 L20.5453,100.50522 L20.5453,109.073801 L29.3030716,109.073801 L30.2677357,108.575574 L30.4239194,109.105944 L36.90784,109.105944 L40.4288638,107.04875 C42.9071317,109.369981 45.9159649,109.138088 45.9159649,109.138088 C48.1415827,109.122016 49.9813349,107.934997 49.9813349,107.934997 C51.0585431,107.250796 53.9065989,105.3658 53.9065989,105.3658 C56.4170223,109.431973 60.7166679,109.122016 60.7166679,109.122016 C63.2891054,109.122016 64.8279742,107.97862 64.8279742,107.97862 L68.8657824,105.349728 C71.1557111,109.151864 75.5610104,109.082985 75.5610104,109.082985 C79.0429883,109.262071 81.4110089,106.807673 81.4110089,106.807673 L83.2025279,109.073801 L97.9297326,109.073801 L97.9297326,106.690578 L101.062594,109.073801 L111.579729,109.073801 L111.579729,106.738794 L114.914711,108.545726 L116.428314,107.358707 C118.578137,109.181712 121.73856,109.138088 121.73856,109.138088 C127.133789,109.138088 128.987322,105.616061 129.198629,105.175234 C129.21241,105.145386 129.219301,105.129315 129.219301,105.129315 C130.105873,103.545092 130.138028,101.345547 130.138028,101.345547 L130.138028,93.6218852 C130.138028,89.0574859 127.443859,86.8464614 127.443859,86.8464614 C126.711174,86.0979734 123.780433,84.1670579 123.780433,84.1670579 L130.154106,84.1670579 L130.154106,67.2801578 L127.65976,68.106709 C125.043683,66.0173713 121.722483,66.2860004 121.722483,66.2860004 L121.722483,66.2860004 Z" id="Fill-16" fill="#498AC9"></path>
                <path d="M66.8822236,104.181536 C66.8645466,104.210987 66.8468697,104.240437 66.8291928,104.263998 C66.8468697,104.240437 66.8645466,104.210987 66.8822236,104.181536" id="Fill-18" fill="#498AC9"></path>
                <path d="M120.626441,81.7456556 C120.626441,81.6278528 120.626441,81.5218302 120.632333,81.4511485 C120.626441,81.5218302 120.626441,81.6219626 120.626441,81.7456556" id="Fill-20" fill="#498AC9"></path>
                <path d="M67.8859923,102.646676 C67.7159781,102.86709 67.541916,103.07832 67.359758,103.280366 C67.541916,103.080616 67.7159781,102.869386 67.8859923,102.646676" id="Fill-22" fill="#498AC9"></path>
                <path d="M123.050044,76.838304 C123.050044,76.8291201 123.0822,75.807411 122.563119,75.2862245 C122.356405,75.0749948 122.089974,74.9762678 121.745451,74.9785638 C121.701811,74.9785638 120.659055,75.0152994 120.629197,77.0472378 L120.629197,81.3889275 C120.629197,81.3889275 120.6269,81.4004074 120.6269,81.4049994 L120.6269,81.439439 L120.6269,81.4509189 L120.6269,81.5657177 L120.6269,81.5886774 C120.6269,81.6690366 120.629197,81.7700595 120.636087,81.8848583 C120.636087,81.9032261 120.638384,81.9238898 120.638384,81.9445536 C120.640681,81.9789933 120.642978,82.0134329 120.647571,82.0501685 C120.888737,82.1374156 123.068419,82.8537599 123.068419,82.8537599 L123.050044,82.6494181 L123.050044,76.838304 Z" id="Fill-24" fill="#081E3F"></path>
                <path d="M27.4102629,98.9246704 C27.4125597,98.9453341 27.6031957,100.855586 28.8894145,101.516827 L29.0019586,101.574226 L29.0019586,101.700505 L29.0019586,107.63101 L28.9904745,107.833055 C28.9904745,107.833055 30.6579652,107.316461 31.2505446,107.105231 L27.4102629,88.2621599 L27.4102629,98.9246704" id="Fill-26" fill="#081E3F"></path>
                <path d="M38.7181929,64.7417273 L38.7870975,64.7026957 C41.2033513,63.3457741 54.3388603,56.5450946 75.621187,55.9297731 C76.4250738,55.8907415 95.5070477,55.0664863 115.820117,65.7611404 L115.893615,65.800172 L111.175948,73.2253569 L111.113934,73.1909173 C108.778069,71.900579 96.2167648,65.421336 78.1522818,64.6315204 C77.9708331,64.6223365 59.80529,63.9587996 43.4909832,72.2105357 L43.4289691,72.2403834 L38.7181929,64.7417273 Z M39.5542351,60.2806468 L39.708122,60.1474802 C41.7362133,58.3933549 48.943632,52.4858098 56.4909799,50.1760584 L56.5552908,50.3138169 C50.8798506,53.8450273 46.1529966,57.1925597 42.4528209,60.2806468 L39.5542351,60.2806468 Z M105.973653,55.3534832 L105.971356,55.3511873 C105.93231,55.3213396 101.924361,52.2355485 98.6766582,50.1439147 L98.743266,50.0084522 C105.277717,52.2631002 112.627538,58.283148 114.724534,60.0763049 L114.880718,60.2094715 L114.674004,60.2094715 L111.667468,60.1888077 C109.581956,58.1591654 107.666409,56.5336147 105.973653,55.3534832 L105.973653,55.3534832 Z M42.7766724,72.5434522 C42.7858597,72.557228 42.7927501,72.5687079 42.8019374,72.5801878 C42.9007006,72.743202 42.9604179,72.837337 42.9604179,72.837337 L43.1740221,73.1679575 L43.5231387,72.9888714 C59.3895657,64.8496381 77.3598792,65.3157211 78.1155327,65.3409769 C97.6178246,66.1927838 110.921001,73.8957817 111.049623,73.9738449 L111.407927,74.1873706 L115.512343,67.7287914 L116.658456,65.9241547 L116.890435,65.5499106 L116.823827,65.4925113 C116.637784,65.2720976 114.963403,63.2860788 112.620648,60.9235199 L116.748032,60.9235199 L115.916583,60.1727359 C114.781954,59.1533228 104.595561,50.1576906 96.3683549,48.6308669 L96.1111112,48.5849473 L95.9457402,48.7961771 C95.9457402,48.7961771 95.5116414,49.365579 95.275069,49.6732398 L95.3347863,49.7237512 L95.8171183,50.1324349 L96.3683549,49.4137945 L96.4257754,49.4459382 C99.5402622,51.1242963 105.599271,55.7690548 105.640614,55.8011985 C109.366055,58.4002428 113.164994,62.4273839 115.096619,64.5947848 L115.004746,64.7118796 C113.41305,63.9014002 111.738669,63.1184725 110.027539,62.3860563 C109.111108,61.9934445 108.203864,61.6283844 107.301214,61.2793961 C90.1347876,54.623363 75.7475121,55.3626672 75.595922,55.3718511 C73.3450392,55.4384343 71.0803755,55.5761929 68.8662418,55.7851267 C66.5051116,55.9986524 64.1141228,56.3109051 61.76218,56.7149967 C57.1823225,57.4887405 52.7816169,58.570145 48.6565296,59.9339545 C48.105293,60.1153365 47.5540564,60.3013105 47.012007,60.4964685 C43.8630679,61.6146086 41.5272028,62.6799412 40.1215494,63.3756218 L40.0342703,63.2539351 C42.3264958,61.0199509 47.7768478,56.2925372 58.5443363,49.744415 L58.6040536,49.7076794 L59.0749015,50.3620324 L59.5664208,49.9579407 L59.6261381,49.9097252 C59.4033466,49.5997685 59.0243715,49.0716942 59.0243715,49.0716942 L58.8590005,48.8512805 L58.5902726,48.901792 C48.7989324,50.8878108 38.945578,59.8604832 38.5298537,60.2393192 C38.5275569,60.2439112 37.7282638,60.9923992 37.7282638,60.9923992 L41.4215491,60.9923992 C38.9639525,63.1483202 38.0291471,64.3330436 37.9901012,64.3835551 L37.801762,64.6177446 L37.9602425,64.8794858 C37.9602425,64.8794858 38.7893943,66.1950798 39.7701361,67.7586391 C39.7816202,67.7747109 39.7931043,67.7930787 39.8022915,67.8091506 C40.9507011,69.6367471 42.2943404,71.7765963 42.7766724,72.5434522 L42.7766724,72.5434522 Z" id="Fill-28" fill="#FEC42F"></path>
                <path d="M114.880029,60.2103899 L114.723845,60.0772233 C112.626849,58.2840664 105.277028,52.2640186 98.7425769,50.0070746 L98.6759692,50.1425372 C101.923672,52.2364668 105.931621,55.322258 105.970667,55.3521057 L105.972964,55.3544016 C107.66572,56.5322371 109.581267,58.1600838 111.666779,60.1897261 L114.673315,60.2103899 L114.880029,60.2103899 Z" id="Fill-30" fill="#498AC9"></path>
                <path d="M56.5543721,50.3133577 L56.4900612,50.1755992 C48.9427132,52.4853506 41.7375914,58.3928957 39.7072032,60.149317 L39.5533163,60.2824835 L42.4519022,60.2824835 C46.1520779,57.1921005 50.8812287,53.8445681 56.5543721,50.3133577" id="Fill-32" fill="#498AC9"></path>
                <path d="M108.998793,65.98959 C108.998793,65.98959 109.265224,65.3650846 108.19261,65.0092084 L105.934837,64.1436256 L105.468582,65.3145731 L107.923882,66.2857708 C107.923882,66.2857708 108.750737,66.7059343 108.998793,65.98959" id="Fill-34" fill="#498AC9"></path>
                <path d="M50.2718825,66.4917198 C50.2718825,66.4917198 51.8566878,65.8626225 51.3422003,64.2255919 C51.3422003,64.2255919 50.9218824,62.7951992 48.994851,63.3393454 L46.9736501,64.0947213 L48.1450279,67.2838314 L50.2718825,66.4917198 Z" id="Fill-36" fill="#498AC9"></path>
                <path d="M49.099586,61.8942584 C52.6803271,61.0493394 53.2614224,63.4647057 53.2614224,63.4647057 C54.1342137,66.1739568 51.3573593,67.4206715 51.3573593,67.4206715 L46.4329789,69.2895956 L46.3732616,69.1656129 C46.559304,69.1036216 46.5133676,68.9314234 46.5133676,68.9314234 L44.6575377,63.806806 C44.5955235,63.7310388 44.4255589,63.806806 44.4255589,63.806806 L44.361248,63.6965992 L49.099586,61.8942584 Z M62.9356249,58.2436573 C62.9356249,58.2436573 63.2663669,58.2321774 63.2342114,57.9337006 L63.3237873,57.9015569 L63.7303243,59.7245615 L63.6568261,59.7429293 C63.6568261,59.7429293 63.5603597,59.5523633 63.3720205,59.492668 L58.7600076,60.5051932 L58.9621277,61.5016466 L61.7045298,60.893213 C61.7045298,60.893213 61.9870386,60.8151499 62.0008195,60.5832563 L62.1110668,60.5419288 L62.4532929,62.1950312 L62.3476392,62.2202869 C62.3476392,62.2202869 62.2971091,62.1077841 62.1271445,62.0641606 L59.2147778,62.6680021 L59.4582406,63.7930302 L64.0105363,62.7965768 C64.0105363,62.7965768 64.1988755,62.775913 64.21725,62.4659563 L64.306826,62.4498845 L64.6972852,64.272889 L64.6168965,64.2889609 C64.6168965,64.2889609 64.4170733,64.0731392 64.2884514,64.1489064 L57.4691952,65.6114428 L57.4370397,65.4805722 C57.6299725,65.4461325 57.5817393,65.2716384 57.5817393,65.2716384 L56.4379234,59.8416562 C56.3873933,59.7567051 56.2381001,59.8095126 56.2381001,59.8095126 L56.2128351,59.6947138 L62.9356249,58.2436573 Z M71.3167182,57.4331779 L71.3167182,57.5571606 C71.3167182,57.5571606 71.0847394,57.5617525 71.1398631,57.7155829 C71.1880963,57.8487495 71.3052341,57.9681402 71.3052341,57.9681402 L74.8193675,60.7462706 L74.647106,57.5893042 C74.647106,57.5893042 74.6287315,57.4148101 74.4335018,57.4354739 L74.431205,57.3023073 L76.7992256,57.2035803 L76.8061161,57.332155 C76.6108864,57.332155 76.6108864,57.515833 76.6108864,57.515833 L76.8612397,62.9687749 C76.8933952,63.058318 77.0794376,63.0422462 77.0794376,63.0422462 L77.1047026,63.1639329 L74.6608869,63.3476109 L74.6516997,63.248884 C74.6516997,63.248884 74.8836784,63.246588 74.8285547,63.0950536 C74.7826183,62.961887 74.6654806,62.8447923 74.6654806,62.8447923 L74.7803215,62.9205594 L70.4347396,59.5684352 L70.6483438,63.2397 C70.6483438,63.2397 70.6759056,63.4141942 70.8734321,63.3958264 L70.8688384,63.5335849 L68.5628319,63.6254239 L68.5421606,63.4876654 C68.739687,63.4899614 68.7511711,63.3131713 68.7511711,63.3131713 L68.5031146,57.8648213 C68.4686624,57.7683903 68.28262,57.7890541 68.28262,57.7890541 L68.257355,57.6673674 L71.3167182,57.4331779 Z M80.4672459,57.3734825 L83.2739589,57.5893042 L83.2578812,57.7293587 C83.1568212,57.7178789 83.0787293,57.7683903 83.0879166,57.8579334 C83.0994007,57.9474764 83.1154784,58.0278356 83.4163617,58.5903496 L84.7990469,61.4924627 L86.8409192,58.6064214 C86.9281983,58.454887 87.0223679,58.3446802 87.0361488,58.2252895 C87.0476329,58.1472263 87.0292583,58.0691631 86.9304951,58.0576832 L86.9488697,57.9176287 L89.307703,58.1311545 L89.2916253,58.268913 C89.0757243,58.2528412 89.0228974,58.3676399 88.875901,58.6087174 L85.8440996,63.3499069 C85.7935696,63.4417459 85.7223682,63.5037372 85.7131809,63.6139441 C85.7039937,63.7218549 85.7361491,63.7425187 85.8050537,63.7562945 L85.7935696,63.8825732 L83.069542,63.5978722 L83.0879166,63.4601137 C83.2257257,63.4463378 83.1476339,63.2764357 83.1476339,63.2764357 L83.083323,63.0766858 L80.8531115,57.9382925 C80.7589419,57.6260398 80.7153024,57.5893042 80.4511681,57.5066491 L80.4672459,57.3734825 Z M91.8204232,64.6655009 C92.0087624,64.7160123 92.0363242,64.5346303 92.0363242,64.5346303 L93.3524016,59.1459757 C93.3432143,59.0426568 93.1847338,59.0265849 93.1847338,59.0265849 L93.2122956,58.9140821 L99.9052268,60.5120811 C99.9052268,60.5120811 100.20611,60.6383598 100.302577,60.3559548 L100.40134,60.3697306 L99.978725,62.1881432 L99.9052268,62.1674795 C99.9052268,62.1674795 99.8983364,61.9608417 99.7559336,61.8253791 L95.1599983,60.7462706 L94.9119419,61.7335401 L97.6497504,62.3672293 C97.6497504,62.3672293 97.9368528,62.4177408 98.0493969,62.213399 L98.1642379,62.2248789 L97.7599977,63.8642054 L97.654344,63.8389497 C97.654344,63.8389497 97.6589376,63.717263 97.5234253,63.6047602 L94.6317299,62.8930077 L94.3698925,64.0134438 L98.9084073,65.0741845 C98.9084073,65.0741845 99.0852624,65.1453598 99.229962,64.8698427 L99.3241316,64.8928024 L98.8877359,66.7089191 L98.809644,66.6882553 C98.809644,66.6882553 98.7223649,66.4058503 98.5730717,66.4173302 L91.7882677,64.7986674 L91.8204232,64.6655009 Z M102.066534,67.6296053 C102.247982,67.7053725 102.300809,67.5331743 102.300809,67.5331743 L104.333494,62.3672293 C104.340385,62.2685024 104.186498,62.2317668 104.186498,62.2317668 L104.232434,62.119264 L109.701161,64.2889609 C111.883139,65.3014861 111.040206,66.8903012 111.040206,66.8903012 C110.401691,68.1990072 108.513705,67.8729787 108.513705,67.8729787 L109.404871,70.4444713 C109.48526,70.4903908 109.515118,70.5500862 109.515118,70.5500862 L109.48526,70.6143735 L106.940384,69.6638396 L106.97254,69.5720006 C107.176956,69.6477678 107.264236,69.4158743 107.264236,69.4158743 C107.213706,69.2413801 106.366179,67.0050999 106.366179,67.0050999 L105.011056,66.4724336 L104.294448,68.3092141 C104.216356,68.4791162 104.402399,68.5571794 104.402399,68.5571794 L104.356462,68.6811621 L102.022894,67.7581799 L102.066534,67.6296053 Z M43.4907535,72.2100765 C59.8050603,63.9606364 77.9706034,64.6218773 78.1520521,64.6310612 C96.2165352,65.4208768 108.777839,71.9001198 111.113705,73.1904581 L111.175719,73.2271937 L115.893385,65.7997128 L115.819887,65.7606812 C95.506818,55.0660271 76.4248441,55.8902823 75.6209574,55.9316099 C54.3386306,56.5446354 41.2054184,63.3453149 38.7868678,64.7045324 L38.7179632,64.7412681 L43.4287394,72.2422202 L43.4907535,72.2100765 Z" id="Fill-38" fill="#498AC9"></path>
                <path d="M59.1102725,50.5321642 L59.1653962,50.4862447 L59.0758202,50.362262 L58.6049723,49.707909 L58.5429582,49.7446446 C47.7777665,56.2927668 42.3251178,61.0201805 40.0328922,63.2541647 L40.1201713,63.3758514 C41.5258247,62.6801708 43.8616898,61.6148382 47.0106289,60.4966981 L47.0129258,60.4966981 C47.5549751,60.3015401 48.1039149,60.1155661 48.6574483,59.9341841 C48.115399,60.1017903 47.5917242,60.2693965 47.0818303,60.4392987 C48.0189326,59.6724428 59.1102725,50.5321642 59.1102725,50.5321642" id="Fill-40" fill="#498AC9"></path>
                <path d="M109.892715,62.2753903 C109.022221,61.9241061 108.158617,61.5957816 107.301903,61.2812329 C108.204553,61.6302212 109.111797,61.9952813 110.028228,62.3855971 C111.739358,63.1203093 113.413739,63.903237 115.005435,64.7114204 L115.097308,64.5943256 C113.163386,62.4269247 109.366744,58.4020796 105.641303,55.8030353 C105.59996,55.7685956 99.5409513,51.1238371 96.4264644,49.445479 L96.369044,49.4133353 L95.8178074,50.1319757 L95.7236378,50.2536624 L109.892715,62.2753903 Z" id="Fill-42" fill="#498AC9"></path>
                <path d="M48.9943917,63.3381974 C50.921423,62.7963472 51.3440377,64.224444 51.3440377,64.224444 C51.8562284,65.8637705 50.2714232,66.4928678 50.2714232,66.4928678 L48.1445686,67.2826834 L46.9731908,64.0958693 L48.9943917,63.3381974 Z M44.657997,63.8065764 L46.5115301,68.9311938 C46.5115301,68.9311938 46.5597633,69.101096 46.3714241,69.1653833 L46.4334383,69.289366 L51.3578186,67.4204419 C51.3578186,67.4204419 54.1346731,66.1737272 53.2595849,63.4644761 C53.2595849,63.4644761 52.6807865,61.0491098 49.1000454,61.8940288 L44.3617073,63.6963696 L44.4260183,63.8065764 C44.4260183,63.8065764 44.5959829,63.7308092 44.657997,63.8065764 L44.657997,63.8065764 Z" id="Fill-44" fill="#FEFEFE"></path>
                <path d="M56.4376937,59.8414266 L57.5815096,65.2714088 C57.5815096,65.2714088 57.6297428,65.445903 57.43681,65.4803426 L57.4689655,65.6112132 L64.2882217,64.1486768 C64.4168436,64.0729096 64.6166669,64.2887313 64.6166669,64.2887313 L64.6970555,64.2749554 L64.3065963,62.4496549 L64.2170203,62.4657267 C64.1986458,62.7756834 64.0126034,62.7963472 64.0126034,62.7963472 L59.4580109,63.7928006 L59.2145481,62.6677725 L62.1269148,62.063931 C62.2968795,62.1075545 62.3474095,62.2200573 62.3474095,62.2200573 L62.4530632,62.1948016 L62.1108371,60.5416992 L62.0005898,60.5830267 C61.9868089,60.8149203 61.7043001,60.8929834 61.7043001,60.8929834 L58.961898,61.5037129 L58.7597779,60.5049636 L63.3717909,59.4924384 C63.56013,59.5521337 63.6565964,59.7426997 63.6565964,59.7426997 L63.7300947,59.7243319 L63.3235577,57.9013273 L63.2339817,57.933471 C63.2661372,58.2319478 62.9353952,58.2434277 62.9353952,58.2434277 L56.2126054,59.6944842 L56.2378704,59.811579 C56.2378704,59.811579 56.3871637,59.7564756 56.4376937,59.8414266" id="Fill-46" fill="#FEFEFE"></path>
                <path d="M68.502885,57.8650509 L68.7509414,63.3134009 C68.7509414,63.3134009 68.7394573,63.490191 68.5442277,63.487895 L68.5626023,63.6256535 L70.8686087,63.5338145 L70.8732024,63.396056 C70.6779727,63.4144238 70.6481141,63.2399296 70.6481141,63.2399296 L70.4345099,59.5709607 L74.7800918,62.920789 L74.6652509,62.8450219 C74.6652509,62.8450219 74.7846855,62.9621166 74.828325,63.0952832 C74.8834487,63.2468176 74.65147,63.2491135 74.65147,63.2491135 L74.6606572,63.3478405 L77.1044729,63.1641625 L77.0815047,63.0424757 C77.0815047,63.0424757 76.8931655,63.0585476 76.86101,62.9690045 L76.6106568,57.5160626 C76.6106568,57.5160626 76.6106568,57.3323846 76.8081832,57.3323846 L76.7989959,57.2038099 L74.4309753,57.3025369 L74.435569,57.4379994 C74.6285018,57.4150397 74.6468763,57.5895338 74.6468763,57.5895338 L74.8191378,60.7465002 L71.3050044,57.9683698 C71.3050044,57.9683698 71.1878666,57.8489791 71.1396334,57.7158125 C71.0845097,57.5619821 71.3164885,57.5573902 71.3164885,57.5573902 L71.3164885,57.4334075 L68.2594221,57.667597 L68.2823903,57.7892837 C68.2823903,57.7892837 68.4684327,57.7686199 68.502885,57.8650509" id="Fill-48" fill="#FEFEFE"></path>
                <path d="M98.808955,66.6891737 L98.8870469,66.7098375 L99.3234425,64.8937208 L99.2292729,64.8707611 C99.0845733,65.1462781 98.9077182,65.0751029 98.9077182,65.0751029 L94.3692035,64.0143622 L94.6310409,62.8939261 L97.5227362,63.6033826 C97.6582486,63.7181814 97.6559518,63.8398681 97.6559518,63.8398681 L97.7616054,63.8651238 L98.1635488,62.2257972 L98.0487078,62.2143174 C97.9361637,62.4186592 97.6490613,62.3681477 97.6490613,62.3681477 L94.9135496,61.7344585 L95.1593093,60.747189 L99.7552445,61.8262975 C99.8999441,61.9617601 99.9045378,62.1683979 99.9045378,62.1683979 L99.978036,62.1890616 L100.400651,60.370649 L100.301887,60.3568732 C100.205421,60.6392781 99.9045378,60.5107035 99.9045378,60.5107035 L93.2116066,58.9127045 L93.1863416,59.0275033 C93.1863416,59.0275033 93.3448221,59.0435751 93.3517126,59.1445981 L92.0356352,64.5355486 C92.0356352,64.5355486 92.0103702,64.7169307 91.8197342,64.6641233 L91.7898755,64.7995858 L98.5746794,66.4182486 C98.7216759,66.4044727 98.808955,66.6891737 98.808955,66.6891737" id="Fill-50" fill="#FEFEFE"></path>
                <path d="M105.934837,64.1443144 L108.19261,65.0076012 C109.265224,65.3634774 108.998793,65.9902788 108.998793,65.9902788 C108.750737,66.7043271 107.923882,66.2841636 107.923882,66.2841636 L105.468582,65.312966 L105.934837,64.1443144 Z M104.402858,68.5571794 C104.402858,68.5571794 104.216816,68.4791162 104.294908,68.3092141 L105.009218,66.4724336 L106.366639,67.0050999 C106.366639,67.0050999 107.214165,69.2413801 107.264695,69.4158743 C107.264695,69.4158743 107.177416,69.6454718 106.970702,69.5720006 L106.940843,69.6638396 L109.485719,70.6143735 L109.515578,70.5500862 C109.515578,70.5500862 109.485719,70.4880948 109.40533,70.4444713 L108.514165,67.8729787 C108.514165,67.8729787 110.40215,68.1990072 111.040666,66.8903012 C111.040666,66.8903012 111.883598,65.3014861 109.70162,64.2889609 L104.232894,62.119264 L104.18466,62.2317668 C104.18466,62.2317668 104.340844,62.2685024 104.333954,62.3672293 L102.301269,67.5308783 C102.301269,67.5308783 102.248442,67.7053725 102.066993,67.6296053 L102.021057,67.7581799 L104.356922,68.6811621 L104.402858,68.5571794 Z" id="Fill-52" fill="#FEFEFE"></path>
                <path d="M80.8526521,57.9369149 L83.0805668,63.0753082 L83.1448777,63.277354 C83.1448777,63.277354 83.2252664,63.4472562 83.0874572,63.4587361 L83.0690827,63.5987906 L85.7931103,63.8811956 L85.8045943,63.7572129 C85.7356898,63.7434371 85.7035343,63.7227733 85.7104248,63.6125665 C85.7219089,63.5023597 85.7931103,63.4426643 85.8436403,63.3485293 L88.8754416,58.6096358 C89.0224381,58.3685583 89.0729681,58.2537596 89.2911659,58.2675354 L89.3072436,58.1297769 L86.9484103,57.9162512 L86.9300358,58.0563057 C87.028799,58.0677855 87.0471735,58.1458487 87.0356894,58.2262078 C87.0219085,58.3455986 86.9277389,58.4535094 86.8404598,58.6050438 L84.7985875,61.493381 L83.4159024,58.591268 C83.1150191,58.026458 83.0989413,57.9483948 83.0874572,57.8565558 C83.07827,57.7670127 83.1563618,57.7187973 83.2574218,57.7302771 L83.2734996,57.5902226 L80.4667865,57.3721049 L80.4507088,57.5075675 C80.714843,57.5879266 80.7584826,57.6246623 80.8526521,57.9369149" id="Fill-54" fill="#FEFEFE"></path>
                <path d="M36.2553136,76.7317707 C36.2553136,76.7363627 36.225455,104.744968 36.2231582,107.424372 L31.7374703,107.424372 L27.4056692,86.1659343 L26.9945386,86.2072618 L26.9945386,98.9430382 C27.0060227,99.0463571 27.205846,101.004824 28.5885311,101.8176 L28.5885311,107.422076 L22.2148578,107.422076 L22.2079674,101.801528 C22.5295221,101.574226 23.4804052,100.749971 23.4528434,98.9453341 L23.4252816,77.1083107 C23.4252816,77.0118798 23.4941861,74.6355451 22.1758119,73.8503214 L22.2079674,68.2182934 L27.7226303,68.2182934 L32.2381769,90.1724116 L32.6493075,90.13338 L32.617152,76.7685063 C32.6217457,76.6766673 32.6906502,74.4725308 31.3699792,73.8044019 L31.3699792,68.2182934 L37.470331,68.2182934 L37.470331,73.9283846 C37.0936527,74.0638472 36.3058437,74.5965135 36.2553136,76.7317707 L36.2553136,76.7317707 Z M36.6687411,76.7363627 C36.7238648,74.4151314 37.6839352,74.2957407 37.6908256,74.2957407 L37.8791648,74.2750769 C37.8814616,74.2750769 37.8814616,74.0868069 37.8814616,74.0868069 L37.8814616,68.0116556 L37.8814616,67.8096098 L37.8814616,67.8050178 L37.6747479,67.8050178 L31.1632655,67.8050178 L30.9542549,67.8050178 L30.9542549,68.0116556 L30.9542549,73.9329766 L30.9542549,74.0730311 L31.0874704,74.1235425 C32.2726291,74.5919215 32.2014277,76.7363627 32.2014277,76.7593224 C32.2014277,76.7639144 32.2220991,84.3268578 32.2312864,88.0761859 L28.094715,67.972624 L28.0579659,67.8050178 L27.8902981,67.8050178 L22.0012537,67.8050178 L21.8083208,67.8050178 L21.7945399,67.8050178 L21.7945399,68.0093596 L21.7623845,73.9628242 L21.7623845,74.0959908 L21.8795222,74.1510942 C23.0784619,74.738864 23.0072605,77.078463 23.0072605,77.1014228 C23.0072605,77.1106067 23.0394159,98.9476301 23.0394159,98.9476301 C23.0669778,100.81885 21.94613,101.480091 21.9001936,101.509939 L21.7945399,101.569634 L21.7945399,101.691321 L21.8014304,107.63101 L21.8014304,107.837647 L22.0081441,107.837647 L28.7883544,107.837647 L28.7952449,107.837647 L28.9904745,107.833055 L29.0019586,107.63101 L29.0019586,101.698209 L29.0019586,101.574226 L28.8894145,101.516827 C27.6054925,100.85329 27.4125597,98.9430382 27.4102629,98.9246704 L27.4102629,88.259864 L31.2505446,107.102935 L31.3676824,107.674633 L31.397541,107.839943 L31.5698025,107.839943 L36.2300486,107.839943 L36.4321687,107.839943 L36.6457729,107.833055 L36.6365856,107.635602 L36.6687411,76.7363627 Z" id="Fill-56" fill="#FEFEFE"></path>
                <path d="M82.456521,102.421441 C80.1895604,107.511619 76.0644731,107.472587 76.0231304,107.470291 C73.8411522,107.399116 72.1415059,106.710323 70.9655345,105.424577 C69.0568778,103.339831 69.1969837,100.350471 69.1992805,100.316032 L69.1992805,73.6459796 C69.307231,71.3959236 70.019245,69.6532781 71.3284319,68.4731467 C73.2991028,66.6914697 75.9817877,66.8154524 76.0047558,66.8200443 C79.0778999,66.8200443 81.2713623,69.6601661 81.2920337,69.6923097 L81.3930937,69.8231803 L81.5446838,69.7520051 L82.4886765,69.3180657 L82.4886765,82.7058991 L77.146275,82.7058991 L77.146275,76.7524345 C77.1600559,75.765165 76.9625295,75.0580046 76.5628829,74.6630968 C76.243625,74.3508441 75.9197735,74.3531401 75.8876181,74.3554361 C75.6005157,74.3531401 75.3478656,74.4633469 75.1457455,74.6768726 C74.4934488,75.3633693 74.566947,76.9498884 74.5715407,77.0164717 L74.5715407,96.9684992 C74.4980424,98.2243978 74.6955689,99.0991645 75.1549327,99.5629516 C75.4741906,99.8843881 75.8026358,99.8775002 75.837088,99.8729083 C76.1448618,99.8683163 76.4112928,99.7443336 76.624897,99.5078481 C77.3185364,98.7341044 77.1830241,96.9616113 77.1784305,96.88814 C77.1807273,96.9042119 77.1807273,90.9599312 77.1807273,90.9599312 L77.1807273,90.7532934 L76.9740136,90.7532934 L76.193095,90.7532934 L76.193095,86.4942588 L82.456521,86.4942588 L82.456521,102.421441 Z M82.8699484,102.51328 L82.8699484,102.469657 L82.8699484,86.285325 L82.8699484,86.0786872 L82.6609379,86.0786872 L75.9840845,86.0786872 L75.7773707,86.0786872 L75.7773707,86.285325 L75.7773707,90.9599312 L75.7773707,91.164273 L75.9840845,91.164273 L76.765003,91.164273 L76.765003,96.9042119 C76.8040489,97.3863667 76.7925648,98.7019607 76.3171233,99.2323311 C76.1793141,99.3815695 76.0208336,99.4573367 75.8210103,99.4596327 C75.811823,99.4596327 75.6280775,99.4596327 75.4328479,99.2598828 C75.1847914,98.9958456 74.9045794,98.3874121 74.9849681,96.9776831 L74.9849681,77.0095838 C74.9642967,76.5871243 75.0056395,75.4253607 75.4466288,74.9615736 C75.570657,74.832999 75.7153566,74.7641197 75.8899149,74.7641197 C75.901399,74.7641197 76.0897382,74.7710076 76.2849678,74.9684615 C76.4962752,75.1911711 76.7489253,75.677918 76.7351444,76.7501385 L76.7351444,82.9148329 L76.7351444,83.1214707 L76.9418581,83.1214707 L82.6930934,83.1214707 L82.8998071,83.1214707 L82.8998071,82.9148329 L82.8998071,68.9966291 L82.8998071,68.6728966 L82.6081111,68.8083591 L81.5171219,69.3088818 C81.0393835,68.730296 78.9446844,66.4044727 76.0162399,66.4044727 C75.9128831,66.3998808 73.1567,66.2667142 71.0551105,68.16319 C69.6609412,69.4190886 68.8961004,71.258165 68.7835563,73.6344997 L68.7835563,100.306848 C68.7789626,100.389503 68.7077612,101.914031 69.3623547,103.583205 C69.6425666,104.297253 70.0514005,105.038853 70.6600576,105.70239 C71.9095272,107.073088 73.7102335,107.805504 76.0093495,107.885863 C76.0483954,107.885863 78.9492781,107.922599 81.3172987,105.070997 C81.8731289,104.402868 82.3991005,103.576317 82.8515739,102.552312 L82.8699484,102.51328 Z" id="Fill-58" fill="#FEFEFE"></path>
                <path d="M96.3853514,107.423683 L84.1019623,107.423683 L84.1019623,101.642417 C84.4533756,101.465626 85.2251069,100.825049 85.0689232,98.6232088 L85.0689232,75.6152378 C85.0689232,75.5509505 85.0528454,74.1251497 84.0376513,73.3628858 L84.0376513,67.4231971 C85.1952482,67.5058522 90.8201584,67.9765272 96.2819945,69.7513163 L96.2819945,82.7006184 L92.4554937,82.7006184 C92.464681,81.3322169 92.3911828,75.4407437 90.4182151,75.3443127 L90.2023141,75.3328328 L90.2023141,75.5509505 L90.2023141,86.2387167 L90.2023141,86.4476505 L90.4090278,86.4476505 L93.443126,86.4476505 L93.443126,90.7342368 L90.4090278,90.7342368 L90.2023141,90.7342368 L90.2023141,90.9431706 L90.2023141,100.443917 L90.2023141,100.597748 L90.3447169,100.641371 C90.3837628,100.655147 90.7213952,100.749282 91.1210418,100.446213 C91.7710416,99.9548746 92.515211,98.4257549 92.4279319,93.9554905 L96.3853514,93.9554905 L96.3853514,107.423683 Z M92.0053172,93.5399189 L92.0122076,93.7511487 C92.1270486,98.4050911 91.359911,99.725277 90.8913598,100.099521 C90.7834093,100.186768 90.6892398,100.2258 90.6157415,100.239576 L90.6157415,91.1498084 L93.6498397,91.1498084 L93.8565534,91.1498084 L93.8565534,90.9431706 L93.8565534,86.2387167 L93.8565534,86.0320789 L93.6498397,86.0320789 L90.6157415,86.0320789 L90.6157415,75.8149877 C91.727402,76.3292862 92.083409,80.3334676 92.0420663,82.9026642 L92.0397694,83.113894 L92.2464832,83.113894 L96.4841146,83.113894 L96.6908283,83.113894 L96.6908283,82.9049602 L96.6908283,69.6020779 L96.6908283,69.4528395 L96.5507224,69.404624 C90.3630914,67.3635017 83.9067326,67.0007376 83.8424217,66.9984416 L83.6265207,66.9846658 L83.6265207,67.2027834 L83.6265207,73.4662047 L83.6265207,73.5764115 L83.7160966,73.6384029 C84.639418,74.2514284 84.6554957,75.599166 84.6554957,75.6152378 L84.6554957,98.6369846 C84.8231635,101.022503 83.8584994,101.300316 83.8470153,101.302612 L83.6908316,101.34394 C83.686238,101.34394 83.6770507,107.832367 83.6770507,107.832367 L86.8030217,107.834663 L96.7987788,107.836959 L96.7987788,104.443507 L96.7987788,93.5399189 L92.0053172,93.5399189 Z" id="Fill-60" fill="#FEFEFE"></path>
                <path d="M109.930843,107.423683 L101.742682,107.423683 L101.742682,101.69752 C102.149219,101.483994 103.299926,100.641371 103.26777,97.9504879 L103.26777,78.2005063 L103.26777,78.0719317 L103.155226,78.0145323 C103.134555,78.0053484 102.925544,77.9089174 102.656816,78.0581558 C102.009113,78.4369918 101.618654,79.9959592 101.494626,82.6983224 L98.187206,82.6983224 L98.187206,70.3115343 C99.5400326,70.7064421 106.010172,72.7016449 113.295683,76.8895043 L113.295683,82.6661787 L110.162821,82.6661787 C110.050277,81.8097799 109.623069,79.2750229 108.614765,79.0844569 L108.369006,79.0431293 L108.369006,79.2910947 L108.369006,97.9229362 C108.366709,98.037735 108.302398,100.866377 109.930843,101.660784 L109.930843,107.423683 Z M110.213351,101.34394 C108.715825,100.749282 108.782433,97.9573759 108.782433,97.9298242 L108.782433,79.6515628 C109.257875,80.1543815 109.639147,81.7431966 109.774659,82.8980723 L109.797627,83.0794543 L109.981373,83.0794543 L113.502397,83.0794543 L113.70911,83.0794543 L113.70911,82.8728165 L113.70911,76.7678176 L113.70911,76.6484268 L113.60805,76.5887315 C105.357876,71.8314701 98.1091142,69.8592271 98.0379128,69.8385634 L97.7737786,69.7673881 L97.7737786,70.0383132 L97.7737786,82.9049602 L97.7737786,83.113894 L97.9827891,83.113894 L101.689855,83.113894 L101.889679,83.113894 L101.896569,82.9141441 C102.045862,79.3599739 102.608583,78.5954141 102.845155,78.4323998 C102.849749,78.4278079 102.854343,78.4278079 102.856639,78.4255119 L102.856639,97.9527839 C102.884201,100.829641 101.524484,101.348532 101.467064,101.371491 L101.329255,101.419707 L101.331552,107.830071 L103.391798,107.832367 L110.34427,107.836959 L110.34427,104.647849 L110.34427,101.394451 L110.213351,101.34394 Z" id="Fill-62" fill="#FEFEFE"></path>
                <path d="M37.4698716,73.9290734 L37.4698716,68.2189822 L31.3695198,68.2189822 L31.3695198,73.8050907 C32.6901909,74.4709236 32.6212863,76.6773561 32.6166927,76.7691951 L32.6488481,90.1317728 L32.2377175,90.1731004 L27.7221709,68.2189822 L22.207508,68.2189822 L22.1753526,73.8487142 C23.4937268,74.6339379 23.4248222,77.0125685 23.4248222,77.1089995 L23.452384,98.9460229 C23.4799459,100.75066 22.5290627,101.574915 22.207508,101.799921 L22.2143985,107.422765 L28.585775,107.422765 L28.585775,101.818288 C27.2053866,101.005513 27.0055633,99.0470459 26.9940792,98.943727 L26.9940792,86.2079506 L27.4052099,86.166623 L31.7370109,107.425061 L36.2226988,107.425061 C36.2249956,104.745657 36.2548543,76.7370515 36.2548543,76.7324595 C36.3053843,74.5972023 37.0931933,74.0645359 37.4698716,73.9290734" id="Fill-64" fill="#FEC42F"></path>
                <path d="M76.1928653,90.7507678 L76.9737839,90.7507678 L77.1804976,90.7507678 L77.1804976,90.9574056 C77.1804976,90.9574056 77.1804976,96.9016863 77.1782008,96.8856145 C77.1827944,96.9590857 77.3183067,98.7315788 76.6246673,99.5076185 C76.41336,99.7418081 76.1446321,99.8657907 75.8391552,99.8726787 C75.8024061,99.8772706 75.4739609,99.8841585 75.1547031,99.560426 C74.6953392,99.0966389 74.5001096,98.2218722 74.5736078,96.9682696 L74.5736078,77.0162421 C74.5690142,76.9496588 74.4932191,75.3608437 75.1455158,74.676643 C75.3476359,74.4608213 75.600286,74.3529105 75.8873884,74.3529105 C75.9195439,74.3529105 76.2456922,74.3506145 76.5626532,74.6628672 C76.9645966,75.057775 77.162123,75.7626395 77.1460453,76.7499089 L77.1460453,82.7056695 L82.4884468,82.7056695 L82.4884468,69.3155401 L81.5444541,69.7540715 L81.392864,69.8229507 L81.2941008,69.6920801 C81.2711326,69.6599365 79.0799671,66.8175187 76.0045262,66.8175187 C75.981558,66.8152228 73.2988731,66.6912401 71.3282023,68.4729171 C70.0213121,69.6553445 69.3070014,71.395694 69.1990509,73.64575 L69.1990509,100.315802 C69.196754,100.347946 69.0589449,103.337306 70.9653048,105.424348 C72.1412763,106.710094 73.8409225,107.396591 76.0251975,107.470062 C76.0665403,107.472358 80.1893308,107.509093 82.4562913,102.418916 L82.4562913,86.4940292 L76.1928653,86.4940292 L76.1928653,90.7507678 Z" id="Fill-66" fill="#FEC42F"></path>
                <path d="M91.1221902,100.447132 C90.7225436,100.747905 90.3849112,100.656066 90.3458653,100.639994 L90.2034625,100.59637 L90.2034625,100.444836 L90.2034625,90.941793 L90.2034625,90.7351552 L90.4078794,90.7351552 L93.4442744,90.7351552 L93.4442744,86.4462729 L90.4078794,86.4462729 L90.2034625,86.4462729 L90.2034625,86.2373391 L90.2034625,75.5518689 L90.2034625,75.3337512 L90.4193635,75.3452311 C92.3900344,75.4416621 92.4658294,81.3308394 92.4566421,82.6992408 L96.2831429,82.6992408 L96.2831429,69.7499387 C90.8213069,67.9774456 85.1963966,67.5067706 84.0387997,67.4241155 L84.0387997,73.3638042 C85.0539938,74.1237721 85.0700716,75.5518689 85.0700716,75.6138602 L85.0700716,98.6241272 C85.2239585,100.823672 84.4522272,101.466545 84.1031107,101.641039 L84.1031107,107.424601 L96.3864998,107.424601 L96.3864998,93.9541129 L92.4290803,93.9541129 C92.5163594,98.4266733 91.77219,99.955793 91.1221902,100.447132" id="Fill-68" fill="#FEC42F"></path>
                <path d="M108.369695,97.922477 L108.369695,79.2929315 L108.369695,79.0426701 L108.615454,79.0862937 C109.623758,79.2768596 110.048669,81.8093207 110.16351,82.6680155 L113.296372,82.6680155 L113.296372,76.8890451 C106.010861,72.7034816 99.5384248,70.7059829 98.1878951,70.3110751 L98.1878951,82.6978632 L101.495315,82.6978632 C101.619343,79.9955 102.009802,78.4365326 102.657505,78.0599926 C102.923936,77.9084582 103.132947,78.0048892 103.153618,78.0140731 L103.268459,78.0737684 L103.268459,78.2000471 L103.268459,97.9500287 C103.300615,100.640912 102.147611,101.485831 101.743371,101.699357 L101.743371,107.423224 L109.931532,107.423224 L109.931532,101.662621 C108.303087,100.865918 108.367398,98.0395718 108.369695,97.922477" id="Fill-70" fill="#FEC42F"></path>
                <path d="M114.76335,94.8686 L114.76335,94.6596662 L114.967767,94.6596662 L120.340027,94.6596662 L120.544444,94.6596662 L120.544444,94.8686 C120.544444,94.8686 120.549038,98.2161323 120.549038,98.2207243 C120.549038,98.2345001 120.53296,99.5477981 121.116352,100.130976 C121.300098,100.312358 121.518296,100.399605 121.78932,100.392717 L121.800804,100.392717 L121.812288,100.395013 C121.821476,100.395013 122.090204,100.408789 122.370415,100.16312 C122.733313,99.839387 122.946917,99.1988098 122.98826,98.3240432 C122.98826,98.3240432 122.98826,94.8364563 122.990557,94.8180885 C122.990557,94.7974247 123.14674,92.6300238 121.800804,91.8287283 C121.800804,91.8287283 117.280664,88.6510982 117.287555,88.6579861 C117.181901,88.5914028 114.669181,86.9566682 114.565824,82.470332 L114.565824,74.8522852 C114.563527,74.7879978 114.405046,69.0067314 120.197624,67.732465 C120.544444,67.6566978 120.907342,67.5947065 121.297801,67.5510829 C121.311582,67.546491 121.325363,67.544195 121.34144,67.539603 C120.427306,67.539603 117.388615,67.732465 115.512113,67.730169 L111.407697,74.1887482 L111.049394,73.9729265 C110.920772,73.8948634 97.6198917,66.1918654 78.115303,65.3400585 C77.3596495,65.3170987 59.389336,64.8510157 43.5252058,72.990249 L43.1737924,73.1670391 L42.9601883,72.8364186 C42.9601883,72.8364186 42.9027678,72.7422836 42.8017077,72.5815653 C42.7925205,72.5700855 42.78563,72.5563096 42.7764427,72.5425338 C42.2964075,71.7779739 40.9504715,69.6358287 39.8020619,67.8105282 L37.881921,67.8105282 L37.881921,68.012574 L37.881921,74.0877253 C37.881921,74.0877253 37.881921,74.2759953 37.8796242,74.2759953 L37.691285,74.2966591 C37.6843945,74.2966591 36.7243241,74.4137538 36.6692005,76.7372811 L36.637045,107.634224 L36.6439355,107.831678 C36.6439355,107.831678 39.8273269,106.040817 40.7184927,105.515039 C38.7776805,102.897626 39.076267,99.1023789 39.0900479,98.9485485 L39.0900479,84.6170692 C39.0900479,84.1142505 38.9775038,83.7698542 38.7661964,83.6114319 C38.5388113,83.4461216 38.2425216,83.5379606 38.2402248,83.5379606 L37.9692001,83.6275037 L37.9692001,83.3405067 L37.9692001,77.4214818 L37.9692001,77.3158669 L38.0518856,77.2538756 C40.5990581,75.4239831 45.0617778,73.5114354 45.1054174,73.4907717 L45.3948166,73.369085 L45.3948166,73.6813376 L45.3948166,79.5705149 L45.3948166,79.655466 L45.3350993,79.7174573 C44.9492337,80.0985893 44.8803291,81.811387 44.9285623,82.8101364 L44.9285623,97.118656 C44.8780323,98.6271119 45.2110711,99.1528903 45.4177848,99.3296804 C45.5969367,99.4903987 45.7646045,99.462847 45.7691982,99.462847 L45.79676,99.4582551 L45.8243218,99.4582551 C45.9116009,99.465143 45.9828023,99.4375913 46.0540037,99.368712 C46.4605407,98.9806922 46.520258,97.6329545 46.5064771,97.1439117 C46.5064771,97.1439117 46.5386326,80.5371206 46.5386326,80.5348246 C46.5547103,79.8758797 46.4054171,79.6416901 46.3135443,79.559035 C46.2354524,79.4878598 46.1619542,79.4970437 46.1619542,79.4970437 L45.9161946,79.5429632 L45.9161946,79.2927019 L45.9161946,73.2473983 L45.9161946,73.1142317 L46.0356292,73.0591283 C50.7349213,70.832032 53.279797,70.2167105 53.305062,70.2098226 L53.5623057,70.1478313 L53.5623057,70.4118685 L53.5623057,76.6110024 L53.5623057,76.7303932 L53.4589488,76.7900885 C52.276087,77.492657 52.3748502,79.3225495 52.3748502,79.3501013 L52.3748502,99.3503442 C52.4644261,102.259345 51.7570058,104.493329 50.2778543,105.994897 C50.2089497,106.063777 50.1446387,106.125768 50.0803278,106.183167 C49.9585964,106.293374 49.8391618,106.396693 49.7174304,106.493124 C50.4753807,106.022449 53.736864,103.951479 54.4144256,103.503764 C53.8402208,101.933317 53.8608922,100.52818 53.863189,100.443229 L53.863189,75.8211868 C54.2743197,68.299571 60.889159,68.2123239 60.9511731,68.2123239 C64.0358013,68.0998211 66.0684863,70.3751328 66.5370374,70.9651986 L67.4167192,70.5656988 L67.710712,70.4348282 L67.710712,70.7539688 L67.710712,82.9042714 L67.710712,83.1132052 L67.5039983,83.1132052 L61.8607135,83.1132052 L61.6539998,83.1132052 L61.6539998,82.9042714 L61.6539998,78.5396219 C61.6677807,77.4903611 61.422021,77.0150941 61.2153073,76.7992724 C61.0246713,76.6041145 60.8432226,76.6018185 60.8317385,76.6018185 C60.6617739,76.6018185 60.5170743,76.6615139 60.3999365,76.7900885 C59.9704313,77.2423957 59.9290885,78.3811996 59.9497599,78.7898832 L59.9497599,96.9992653 C59.8693713,98.3768506 60.1449896,98.9715083 60.3884524,99.2286575 C60.5767916,99.4284074 60.7559435,99.4284074 60.7651307,99.4284074 C60.9580636,99.4261114 61.1165441,99.3503442 61.2474628,99.2011058 C61.7160139,98.6845113 61.7229043,97.3941731 61.6861552,96.9234981 L61.6861552,91.1812632 L60.9259081,91.1812632 L60.7191944,91.1812632 L60.7191944,90.9723295 L60.7191944,86.3000192 L60.7191944,86.0910855 L60.9259081,86.0910855 L67.4718428,86.0910855 L67.6785565,86.0910855 L67.6785565,86.3000192 L67.6785565,102.562414 L67.6785565,102.606038 L67.6578852,102.647365 C67.5637156,102.870075 67.4626555,103.079009 67.3615955,103.281054 C67.3455178,103.313198 67.32944,103.343046 67.3156591,103.370597 C67.2398641,103.51754 67.1617722,103.65989 67.0813836,103.797649 C67.0055885,103.928519 66.9297935,104.057094 66.8494048,104.181077 C66.8425144,104.192557 66.8356239,104.204037 66.8287334,104.21322 C66.2545286,105.117835 65.6229034,105.795148 64.9889813,106.30715 C65.818133,105.806627 68.7259061,103.997399 69.362125,103.581827 C68.7098284,101.914949 68.7810298,100.388125 68.7856234,100.30547 L68.7856234,73.6331221 C68.8958707,71.2590834 69.6607115,69.420007 71.0548808,68.1618124 C73.1564704,66.2653366 75.9149502,66.3985032 76.0160103,66.4053911 C78.9444547,66.4053911 81.0391539,68.7289184 81.5191891,69.3098002 L82.6101782,68.8069815 L82.9018742,68.673815 L82.9018742,68.9952515 L82.9018742,82.9134553 L82.9018742,83.1200931 L82.6928637,83.1200931 L76.9416284,83.1200931 L76.7349147,83.1200931 L76.7349147,82.9134553 L76.7349147,76.748761 C76.7509924,75.6765404 76.4960455,75.1897936 76.2847381,74.9693799 C76.0895085,74.76963 75.9034661,74.7673341 75.8896852,74.7673341 C75.7151269,74.7673341 75.5704273,74.8316214 75.4463991,74.960196 C75.0077066,75.4239831 74.9640671,76.5880427 74.9870353,77.0082062 L74.9870353,96.9786015 C74.9043498,98.3883305 75.1845617,98.994468 75.434915,99.2585052 C75.6278478,99.4582551 75.8138902,99.4582551 75.8230774,99.4582551 C76.0206039,99.4582551 76.1813812,99.3824879 76.3168936,99.2309535 C76.794632,98.7005831 76.8038192,97.3849892 76.7670701,96.9028343 L76.7670701,91.1651914 L75.9861516,91.1651914 L75.7794379,91.1651914 L75.7794379,90.9585536 L75.7794379,86.2839474 L75.7794379,86.0773096 L75.9861516,86.0773096 L82.663005,86.0773096 L82.8720156,86.0773096 L82.8720156,86.2839474 L82.8720156,102.468279 L82.8720156,102.514199 L82.8513442,102.550934 C82.3988708,103.574939 81.8751961,104.40149 81.3193658,105.071915 C81.7419805,105.58851 83.6781991,107.831678 83.6781991,107.831678 C83.6781991,107.831678 83.6873864,101.343251 83.69198,101.343251 L83.8481637,101.301923 C83.8596478,101.299627 84.8243119,101.02411 84.6543473,98.6385918 L84.6543473,75.614549 C84.6543473,75.6007732 84.6405664,74.2530355 83.7172451,73.6400101 L83.6276691,73.5757228 L83.6276691,73.4655159 L83.6276691,67.2020946 L83.6276691,66.983977 L83.8435701,66.9977528 C83.907881,67.0000488 90.361943,67.3628129 96.5518708,69.4062312 L96.6919767,69.4521507 L96.6919767,69.6013891 L96.6919767,82.9042714 L96.6919767,83.1132052 L96.485263,83.1132052 L92.2476316,83.1132052 L92.038621,83.1132052 L92.0432147,82.9019754 C92.0845574,80.3327788 91.7285504,76.3285974 90.6168899,75.8142989 L90.6168899,86.0313901 L93.6509881,86.0313901 L93.8577018,86.0313901 L93.8577018,86.2380279 L93.8577018,90.9424818 L93.8577018,91.1491196 L93.6509881,91.1491196 L90.6168899,91.1491196 L90.6168899,100.238887 C90.6903882,100.227407 90.7845577,100.186079 90.8925083,100.098832 C91.3610594,99.7245882 92.128197,98.4044023 92.013356,93.7504599 L92.0064656,93.5392301 L96.7999272,93.5392301 L96.7999272,104.442818 C97.6336726,105.083395 101.333848,107.829382 101.333848,107.829382 L101.329255,101.421314 L101.467064,101.370803 C101.524484,101.347843 102.884201,100.831248 102.856639,97.9520951 L102.856639,78.4248231 C102.854343,78.4294151 102.849749,78.4294151 102.845155,78.434007 C102.608583,78.5947253 102.045862,79.3592852 101.898866,82.9134553 L101.889679,83.1132052 L101.689855,83.1132052 L97.9827891,83.1132052 L97.7760754,83.1132052 L97.7760754,82.9042714 L97.7760754,70.0376244 L97.7760754,69.7666993 L98.0379128,69.8378746 C98.1091142,69.8585383 105.357876,71.8307813 113.60805,76.5880427 L113.70911,76.647738 L113.70911,76.7671288 L113.70911,82.8744237 L113.70911,83.0810615 L113.502397,83.0810615 L109.981373,83.0810615 L109.797627,83.0810615 L109.774659,82.8973835 C109.639147,81.7425078 109.257875,80.1559887 108.78473,79.650874 L108.78473,97.9291354 C108.78473,97.9566871 108.718122,100.750889 110.213351,101.343251 L110.34427,101.393762 L110.34427,104.64716 C111.127485,105.078803 114.772538,107.000535 114.772538,107.000535 L114.76335,106.584963 L114.76335,94.8686 Z" id="Fill-72" fill="#081E3F"></path>
                <path d="M32.2303677,88.0759563 C32.2211804,84.3289242 32.200509,76.7636848 32.200509,76.7590928 C32.200509,76.7361331 32.2717104,74.5916919 31.0865517,74.1233129 L30.9533362,74.0728015 L30.9533362,73.932747 L30.9533362,68.011426 L30.9533362,67.8116762 L28.0570472,67.8070842 L28.0937963,67.9723944 L32.2303677,88.0759563 Z" id="Fill-74" fill="#081E3F"></path>
                <path d="M28.0584253,67.8057066 L27.8907575,67.8057066 L28.0584253,67.8057066 Z" id="Fill-76" fill="#081E3F"></path>
                <path d="M128.474672,69.610573 L128.474672,82.4450763 L123.465309,82.4450763 L123.465309,76.8451919 C123.467606,76.8038644 123.502058,75.6466927 122.858949,74.9992276 C122.571846,74.7030467 122.197465,74.5561043 121.744992,74.5652882 C121.687571,74.5652882 120.247465,74.5744721 120.21531,77.0449418 L120.21531,81.3774477 C120.210716,81.4578068 120.098172,83.6137278 121.274144,84.3851756 C121.287925,84.3966555 123.265486,85.7765368 126.159478,87.8704665 C126.177853,87.8842424 128.534389,89.7600544 128.474672,93.7114283 L128.474672,101.689943 C128.474672,101.715199 128.463188,104.029542 126.777322,105.705605 C125.58068,106.89492 123.841988,107.484986 121.607182,107.464322 C121.56584,107.466618 118.850999,107.608968 116.549587,105.255593 L116.418668,105.117835 L116.271671,105.237226 L115.176089,106.144136 L115.176089,95.0752378 L120.132625,95.0752378 C120.132625,95.803062 120.137218,98.2161323 120.137218,98.2115404 C120.134921,98.2758277 120.116547,99.7154043 120.82167,100.422565 C121.085804,100.686602 121.41425,100.815177 121.795522,100.805993 L121.77485,100.805993 C121.790928,100.805993 122.21584,100.842728 122.631564,100.486852 C123.095521,100.080464 123.357359,99.3595281 123.400998,98.335523 L123.400998,94.8364563 C123.410186,94.7560972 123.582447,92.4096101 122.02061,91.482036 C122.038984,91.488924 117.518844,88.3135898 117.518844,88.3135898 C117.484392,88.292926 115.077325,86.7132948 114.978562,82.4634441 L114.978562,74.8431013 C114.969375,74.5721761 114.806301,68.4005939 121.758772,67.920735 C121.788631,67.918439 125.176439,67.8013443 127.156298,69.9297136 L127.24817,70.0307365 L127.374495,69.987113 L128.474672,69.610573 Z M121.735804,67.5097554 C121.586511,67.5212352 121.439515,67.5350111 121.297112,67.5510829 C120.908949,67.5947065 120.543755,67.6544018 120.196935,67.732465 C114.404357,69.0044354 114.562838,74.7879978 114.565135,74.8522852 L114.565135,82.470332 C114.668492,86.9566682 117.181212,88.5914028 117.286866,88.6579861 C117.279975,88.6510982 121.800115,91.8287283 121.800115,91.8287283 C123.146051,92.6300238 122.992164,94.7974247 122.989868,94.8180885 C122.987571,94.8364563 122.987571,98.3240432 122.987571,98.3240432 C122.948525,99.1988098 122.732624,99.839387 122.369726,100.16312 C122.089514,100.408789 121.823083,100.395013 121.811599,100.395013 L121.802412,100.392717 L121.788631,100.392717 C121.517606,100.399605 121.301705,100.312358 121.115663,100.130976 C120.534568,99.5477981 120.550646,98.2322041 120.550646,98.2207243 C120.550646,98.2161323 120.543755,94.8686 120.543755,94.8686 L120.543755,94.6596662 L120.339338,94.6596662 L114.969375,94.6596662 L114.762661,94.6596662 L114.762661,94.8686 L114.762661,106.584963 L114.771848,107.000535 L114.877502,106.91788 L115.100294,106.738794 L116.391106,105.673461 C118.800469,108.031428 121.506122,107.884485 121.620963,107.882189 C123.956828,107.900557 125.794284,107.269164 127.073612,105.994897 C128.881209,104.194853 128.888099,101.78867 128.888099,101.689943 L128.888099,93.7137243 C128.95241,89.5488246 126.513188,87.6202052 126.409831,87.53755 C123.502058,85.4390284 121.524497,84.0545551 121.506122,84.0430753 C121.090398,83.7698542 120.869903,83.2555557 120.752766,82.750441 C120.686158,82.4611481 120.654002,82.1787431 120.640222,81.9445536 C120.637925,81.9238898 120.637925,81.9032261 120.635628,81.8848583 C120.628737,81.7677635 120.626441,81.6667406 120.626441,81.5886774 L120.626441,81.5657177 C120.626441,81.5175022 120.626441,81.4784706 120.628737,81.4486229 L120.628737,81.439439 L120.628737,81.4049994 L120.628737,81.3889275 L120.628737,77.0472378 C120.658596,75.0152994 121.701352,74.9785638 121.744992,74.9785638 C122.089514,74.9739719 122.355945,75.0749948 122.564956,75.2839286 C123.08174,75.807411 123.049585,76.8291201 123.049585,76.838304 L123.049585,82.6494181 L123.070256,82.8537599 L123.256299,82.8537599 L124.898524,82.8560559 L128.681386,82.8606479 L128.888099,82.8606479 L128.888099,82.6494181 L128.888099,69.3212801 L128.888099,69.0342831 L128.612481,69.1261222 L127.365308,69.5508776 C125.247641,67.3811807 121.882801,67.5028674 121.735804,67.5097554 L121.735804,67.5097554 Z" id="Fill-78" fill="#FEFEFE"></path>
                <path d="M127.156987,69.9290248 C125.177129,67.8006555 121.78932,67.9200462 121.759462,67.9246381 C114.804693,68.4022011 114.967767,74.5737833 114.979251,74.8424125 L114.979251,82.4650513 C115.078014,86.712606 117.482784,88.2922372 117.519533,88.312901 C117.519533,88.312901 122.037377,91.4905311 122.021299,91.4813472 C123.583136,92.4135133 123.408578,94.7554084 123.401687,94.8357675 L123.401687,98.3371302 C123.358048,99.3588393 123.09621,100.082072 122.629956,100.488459 C122.214232,100.844336 121.791617,100.805304 121.775539,100.805304 L121.796211,100.805304 C121.414939,100.816784 121.086494,100.685913 120.822359,100.424172 C120.117236,99.7170115 120.13561,98.2751389 120.137907,98.2108516 C120.137907,98.2154435 120.133314,95.8046692 120.133314,95.0768449 L115.174481,95.0768449 L115.174481,106.143447 L116.27236,105.236537 L116.41706,105.117146 L116.550276,105.254905 C118.851688,107.610575 121.566529,107.465929 121.607871,107.463633 C123.84038,107.486593 125.581369,106.894231 126.778012,105.704916 C128.463877,104.03115 128.475361,101.71451 128.475361,101.693846 L128.475361,93.7107395 C128.535078,89.7593656 126.178542,87.8835536 126.160167,87.8697777 C123.266175,85.778144 121.288614,84.3982627 121.274833,84.3844868 C120.098861,83.613039 120.211405,81.457118 120.213702,81.3767589 L120.213702,77.044253 C120.245858,74.5760793 121.68826,74.5645994 121.743384,74.5645994 C122.195857,74.5554155 122.570239,74.702358 122.859638,74.9985388 C123.502747,75.6460039 123.468295,76.8054716 123.463701,76.8445031 L123.463701,82.4443875 L128.475361,82.4443875 L128.475361,69.6098842 L127.375185,69.9864242 L127.248859,70.0300477 L127.156987,69.9290248 Z" id="Fill-80" fill="#FEC42F"></path>
                <path d="M60.9686289,107.467307 C58.9497248,107.455827 57.3534355,106.858873 56.2119163,105.678742 C54.2159805,103.623844 54.2779946,100.480653 54.2779946,100.450805 L54.2779946,75.8333555 C54.666157,68.7181273 60.7021979,68.6239923 60.9571448,68.6239923 C64.207144,68.5068975 66.2857654,71.3148756 66.3064368,71.3424273 L66.4052,71.4755939 L66.5590869,71.4113066 L67.294069,71.0737982 L67.294069,82.6983224 L62.0665085,82.6983224 L62.0665085,78.5449026 C62.0848831,77.573705 61.8873566,76.8803204 61.4946005,76.4923005 C61.1822331,76.1846398 60.8606784,76.1846398 60.8262261,76.1869357 C60.5460142,76.1869357 60.3002545,76.2948466 60.1004313,76.5083723 C59.4596187,77.1810932 59.5308201,78.7400605 59.5354137,78.8020519 L59.5354137,96.9861782 C59.4642123,98.221413 59.6571452,99.0801079 60.1073217,99.5324151 C60.421986,99.8515557 60.7458375,99.8446678 60.7802897,99.8423718 C61.0834699,99.8308919 61.3430105,99.7137972 61.5543178,99.4819036 C62.2387699,98.7219357 62.1032576,96.9815863 62.098664,96.908115 L62.098664,90.9730183 L62.098664,90.7686764 L61.8919502,90.7686764 L61.1339999,90.7686764 L61.1339999,86.5073458 L67.2665072,86.5073458 L67.2665072,102.517183 C65.0431862,107.602769 61.1362967,107.471899 60.9686289,107.467307 M66.8301115,104.213909 C66.837002,104.204725 66.8415956,104.193245 66.8484861,104.181766 C66.9288748,104.057783 67.0069666,103.929208 67.0827616,103.796042 C67.1608535,103.658283 67.2389454,103.520525 67.3147404,103.371286 C67.3308181,103.341439 67.344599,103.313887 67.3606768,103.281743 C67.4617368,103.079697 67.5627969,102.868468 67.6592633,102.648054 L67.6776378,102.606726 L67.6776378,102.563103 L67.6776378,86.300708 L67.6776378,86.0917742 L67.4709241,86.0917742 L60.9272862,86.0917742 L60.7205724,86.0917742 L60.7205724,86.300708 L60.7205724,90.9730183 L60.7205724,91.181952 L60.9272862,91.181952 L61.6852365,91.181952 L61.6852365,96.9241869 C61.7242824,97.3948618 61.717392,98.6852001 61.246544,99.2017946 C61.1156254,99.351033 60.9571448,99.4268002 60.7665088,99.4290962 C60.7573216,99.4290962 60.5758728,99.4290962 60.3875337,99.2293463 C60.1440708,98.972197 59.8684525,98.3775394 59.9488412,96.9999541 L59.9488412,78.790572 C59.9304666,78.3818884 59.9695126,77.2430845 60.3990178,76.7907773 C60.5184524,76.6622027 60.6608551,76.6002113 60.8308198,76.6002113 C60.8423039,76.6002113 61.0237526,76.6048033 61.2143886,76.7999612 C61.4211023,77.0134869 61.6691588,77.4887539 61.653081,78.5403107 L61.653081,82.9049602 L61.653081,83.113894 L61.8597948,83.113894 L67.5053764,83.113894 L67.7097933,83.113894 L67.7097933,82.9049602 L67.7097933,70.7546576 L67.7097933,70.435517 L67.4180972,70.5663876 L66.5384155,70.9658874 C66.0675676,70.3758216 64.0348826,68.1005099 60.9502544,68.2107167 C60.8882402,68.2107167 54.2734009,68.2979638 53.8645671,75.8218756 L53.8645671,100.443917 C53.8599735,100.528868 53.8393021,101.934006 54.4135069,103.504453 C54.716687,104.335596 55.1829413,105.212659 55.9156267,105.965739 C57.1398313,107.228525 58.8348839,107.866806 60.9571448,107.882878 C60.9778162,107.882878 62.8267557,107.937982 64.7583806,106.493813 C64.8364725,106.436414 64.9122675,106.36983 64.9903593,106.307839 C65.6219846,105.795836 66.2536099,105.116228 66.8301115,104.213909" id="Fill-82" fill="#FEFEFE"></path>
                <path d="M67.2658181,102.516724 L67.2658181,86.5068866 L61.1356077,86.5068866 L61.1356077,90.7682172 L61.893558,90.7682172 L62.1002717,90.7682172 L62.1002717,90.9725591 L62.1002717,96.9076558 C62.1048654,96.9811271 62.2380809,98.7214765 61.5536288,99.4814444 C61.3446182,99.713338 61.0827808,99.8304327 60.7796007,99.8419126 C60.7451484,99.8442086 60.4235937,99.8510965 60.1089295,99.5319559 C59.6587529,99.0819447 59.4635233,98.2209539 59.5370215,96.985719 L59.5370215,78.8015927 C59.5301311,78.7396014 59.4589297,77.180634 60.0997422,76.5079131 C60.2995655,76.2943874 60.547622,76.1864765 60.8255371,76.1864765 C60.8622862,76.1841806 61.1815441,76.1841806 61.4939115,76.4918413 C61.8866676,76.8821571 62.084194,77.5732458 62.0681163,78.5444434 L62.0681163,82.6978632 L67.29338,82.6978632 L67.29338,71.075635 L66.5583978,71.4108474 L66.4068078,71.4751347 L66.3057477,71.3419681 C66.2873732,71.3144164 64.2087518,68.5064384 60.9587526,68.6258291 C60.7015088,68.6258291 54.665468,68.7176681 54.2796024,75.8328963 L54.2796024,100.450346 C54.2796024,100.480194 54.2175882,103.623384 56.2135241,105.678282 C57.3550433,106.858414 58.9490358,107.455367 60.9679399,107.466847 C61.1356077,107.471439 65.0424971,107.60231 67.2658181,102.516724" id="Fill-84" fill="#FEC42F"></path>
                <path d="M45.8149049,107.496465 C43.9567781,107.480394 42.4799234,106.88344 41.4164961,105.717084 C39.1656133,103.244319 39.498652,99.0082439 39.5032457,98.9692123 L39.5032457,84.6193651 C39.5032457,83.9627161 39.3355779,83.5104089 39.0048359,83.2762194 C38.7912317,83.1200931 38.5569562,83.0925414 38.3801011,83.1017253 L38.3801011,77.5293926 C40.5253302,76.0094568 43.970559,74.4458975 44.9788627,73.9981823 L44.9788627,79.5016356 C44.4115483,80.2340518 44.5034211,82.5506912 44.5149052,82.8239123 L44.5149052,97.1117681 C44.4712656,98.3998103 44.6894634,99.2608012 45.1603114,99.655709 C45.4680852,99.9151542 45.7712653,99.8830105 45.837873,99.8715307 C46.0262122,99.8715307 46.1961768,99.8026514 46.3385796,99.6694848 C46.9495335,99.0794191 46.9265653,97.3321817 46.9196749,97.1370238 C46.9196749,97.1439117 46.9541272,80.5394166 46.9541272,80.5394166 C46.9679081,79.9011354 46.8369894,79.4580121 46.5705584,79.2375984 C46.4878729,79.1641272 46.4051874,79.1250956 46.3293924,79.1067278 L46.3293924,73.3782689 C50.0778013,71.6103677 52.4113696,70.8871354 53.1463518,70.6827936 L53.1463518,76.5030916 C51.8555394,77.3755623 51.9565994,79.2858139 51.9634899,79.3684691 L51.9634899,99.3549362 C52.0438785,102.151434 51.377801,104.284396 49.9859285,105.701013 C48.2127841,107.507945 45.837873,107.496465 45.8149049,107.496465 M50.2776246,105.994897 C51.7567761,104.493329 52.4618996,102.261641 52.3746205,99.3503442 L52.3746205,79.3523972 C52.3746205,79.3225495 52.2735605,77.492657 53.4587192,76.7900885 L53.562076,76.7303932 L53.562076,76.6132984 L53.562076,70.4118685 L53.562076,70.1478313 L53.3048323,70.2098226 C53.2795673,70.2167105 50.7346916,70.832032 46.0353995,73.0591283 L45.9159649,73.1165276 L45.9159649,73.2496942 L45.9159649,79.2927019 L45.9159649,79.5429632 L46.1617246,79.4970437 C46.1617246,79.4970437 46.2352228,79.4878598 46.3133146,79.559035 C46.4051874,79.6416901 46.5544806,79.8781756 46.5384029,80.5348246 C46.5384029,80.5394166 46.5062474,97.1439117 46.5062474,97.1439117 C46.5200283,97.6329545 46.460311,98.9806922 46.0537741,99.371008 C45.9825727,99.4375913 45.9113713,99.465143 45.8240921,99.460551 L45.7965303,99.4582551 L45.7689685,99.462847 C45.7643748,99.462847 45.596707,99.4903987 45.4175551,99.3296804 C45.2108414,99.1528903 44.8778026,98.6271119 44.9283326,97.118656 L44.9283326,82.8124324 C44.8800994,81.813683 44.949004,80.1008853 45.3325728,79.7174573 L45.3945869,79.655466 L45.3945869,79.5705149 L45.3945869,73.6836336 L45.3945869,73.369085 L45.1051877,73.4907717 C45.0615482,73.5114354 40.5988284,75.4239831 38.0516559,77.2538756 L37.9689704,77.3158669 L37.9689704,77.4214818 L37.9689704,83.3405067 L37.9689704,83.6275037 L38.2399951,83.5379606 C38.2422919,83.5379606 38.5385816,83.4461216 38.7659667,83.6114319 C38.9749773,83.7698542 39.0898182,84.1142505 39.0898182,84.6193651 L39.0898182,98.9485485 C39.0760373,99.1023789 38.7774508,102.897626 40.718263,105.515039 C40.8399945,105.680349 40.9686163,105.838771 41.1087223,105.992601 C42.2525383,107.2485 43.8327499,107.891373 45.8080144,107.912037 C45.8861062,107.912037 47.3698515,107.914333 48.9156108,107.034974 C49.1843386,106.88344 49.4530665,106.702058 49.7172007,106.493124 C49.8389321,106.396693 49.9583667,106.293374 50.0800981,106.183167 C50.1444091,106.121176 50.2110168,106.061481 50.2776246,105.994897" id="Fill-86" fill="#FEFEFE"></path>
                <path d="M51.9630305,99.3540178 L51.9630305,79.3675507 C51.95614,79.2848955 51.85508,77.3746439 53.1458924,76.5021732 L53.1458924,70.6818752 C52.4109102,70.888513 50.0773419,71.6117453 46.328933,73.3796464 L46.328933,79.1058095 C46.404728,79.1264732 46.4874135,79.1655048 46.570099,79.2366801 C46.83653,79.4593897 46.9674487,79.900217 46.9536678,80.5384982 C46.9536678,80.5384982 46.9192155,97.1429933 46.9192155,97.1384014 C46.926106,97.3312633 46.9490742,99.0785007 46.3381203,99.6685664 C46.1957175,99.804029 46.0257529,99.8706123 45.8397105,99.8706123 C45.7708059,99.8820922 45.4676258,99.9142358 45.159852,99.6547906 C44.6890041,99.2598828 44.4708063,98.4011879 44.5144458,97.1131457 L44.5144458,82.8252898 C44.5029617,82.5497728 44.411089,80.2331334 44.9784033,79.5007172 L44.9784033,73.9995598 C43.9700997,74.4449791 40.5248709,76.0108344 38.3796417,77.5307702 L38.3796417,83.1008069 C38.5564968,83.093919 38.7907724,83.1191747 39.0043765,83.275301 C39.3351185,83.5094905 39.5027863,83.9617977 39.5027863,84.6184467 L39.5027863,98.9682939 C39.4981927,99.0096215 39.1651539,103.2434 41.4160367,105.716166 C42.479464,106.882522 43.9563188,107.479475 45.8144455,107.495547 C45.8374137,107.495547 48.2123247,107.507027 49.9854692,105.700094 C51.3773416,104.283477 52.045716,102.150516 51.9630305,99.3540178" id="Fill-88" fill="#FEC42F"></path>
                <path d="M77.8909038,36.6699823 L93.5942567,49.9246491 L93.5942567,49.926945 L94.5359526,50.7213526 L92.6456703,49.933833 L84.4345417,46.5151254 L84.4345417,50.0004163 L84.4345417,50.9716139 L83.4583935,50.0118961 L83.4583935,50.0073042 L80.4449667,47.0477917 L79.3677585,50.0417438 L78.205568,53.2767734 L76.7907274,50.0624076 L75.3666995,46.8273781 L71.9375484,49.6606119 L70.8488561,46.1707291 L61.8085757,49.7891865 L77.8909038,36.6699823 Z M59.5668802,49.9567927 L59.0753609,50.3608844 L59.1649368,50.4871631 L59.1098131,50.5307866 C59.1098131,50.5307866 48.0184732,59.6710653 47.081371,60.4379211 C47.5912648,60.2703149 48.1149396,60.1004127 48.6569889,59.9328065 C52.7820762,58.568997 57.180485,57.4898885 61.7626393,56.7138488 C64.1145822,56.312053 66.5032742,55.9975044 68.8644043,55.7839787 C71.0808348,55.5750449 73.3454986,55.4372864 75.5963814,55.3707031 C75.7479715,55.3615192 90.135247,54.622215 107.301674,61.2805441 C108.158387,61.5950928 109.021991,61.9234173 109.892486,62.2747015 L95.7234081,50.2529736 L95.8175777,50.1312869 L95.3329488,49.7248992 L95.2755283,49.6720918 L77.8518579,34.8883052 L59.6243006,49.9085772 L59.5668802,49.9567927 Z" id="Fill-90" fill="#081E3F"></path>
                <polygon id="Fill-92" fill="#FEFEFE" points="71.9380078 49.6610711 75.3671588 46.8278373 76.7911867 50.0628668 78.2037306 53.2772326 79.3682179 50.042203 80.4454261 47.0459549 83.4565561 50.0077634 83.4565561 50.0100594 84.4350011 50.9697771 84.4350011 50.0008755 84.4350011 46.5132886 92.6461297 49.9342922 94.5341151 50.7218118 93.594716 49.9274042 93.594716 49.9251083 77.8913631 36.6704414 61.8090351 49.7896457 70.8493155 46.1711883"></polygon>
                <rect id="Rectangle" x="0" y="0" width="150" height="150"></rect>
            </g>
        </g>
    </g>
</svg>