<svg width="150px" height="150px" viewBox="0 0 150 150" version="1.1" xmlns="http://www.w3.org/2000/svg" xmlns:xlink="http://www.w3.org/1999/xlink">
    <g id="Page-1" stroke="none" stroke-width="1" fill="none" fill-rule="evenodd">
        <g id="HOU">
            <g id="Page-1">
                <g id="Group-3" transform="translate(26.000000, 10.211286)" fill="#FEFEFE">
                    <path d="M13.069953,69.1582872 C15.9267081,67.6107929 23.5885489,66.4105121 30.6557305,65.3479193 C30.6378011,68.0238571 30.5959658,70.8853745 30.5182716,74.0132884 C18.0334155,72.6453873 13.5032475,70.2298596 13.069953,69.1582872 L13.069953,69.1582872 Z M43.3796457,28.1481931 C50.8113923,29.1509215 55.0636542,31.1204596 55.4162662,33.7514992 C55.7808312,36.4693421 55.1443366,38.6992902 53.5665472,40.459303 C51.0145924,42.782041 47.132872,44.0002811 43.8428225,44.6348436 C43.8786813,38.3191514 43.7292695,32.997208 43.3796457,28.1481931 L43.3796457,28.1481931 Z M43.5918105,57.5715363 C43.6575518,55.0632187 43.7262812,52.4770775 43.774093,49.8370583 C49.8491798,50.7320308 53.3812765,52.4112266 53.3215117,54.4466156 L53.1302646,74.8753355 C49.9328505,74.9561524 46.5621186,74.9411863 43.3915986,74.854383 L43.4364222,73.4775022 C43.2989633,68.855972 43.4423987,63.375388 43.5918105,57.5715363 L43.5918105,57.5715363 Z M66.0932387,74.1090714 L66.1948388,65.4407091 C80.02739,67.3234439 83.5176514,68.8110737 83.9509458,69.6401954 C83.9509458,69.6401954 83.9389929,69.703053 83.852334,69.8407411 C81.3571557,71.6546318 74.8159039,73.2200854 66.0932387,74.1090714 L66.0932387,74.1090714 Z M97.1470025,70.2238731 C97.090226,69.0235923 96.4985549,67.9011352 95.3869306,66.8834407 C91.2183393,63.0790593 79.3699778,60.8251654 66.2456388,61.202311 L66.3591918,51.5581592 C66.3562036,49.5556957 65.6987913,47.9004456 64.410861,46.6373071 C63.505425,45.7513143 62.3190948,45.0868197 60.8608349,44.6468165 C62.2264594,43.8296677 63.5651898,42.8209528 64.70072,41.5847534 C67.9130753,38.6035072 69.3892646,34.8470173 69.0934291,30.4230396 C68.9021819,27.6183934 67.682981,25.2417774 65.4657088,23.3620359 C61.0789762,19.632485 53.1123351,18.1747873 42.402492,19.1296242 C41.5896914,13.4874063 40.4481847,8.59648638 38.9211954,4.20842727 L37.456959,0.00295452529 L36.9519469,1.56541486 L36.677029,0.772211818 L35.3084163,5.01659641 C33.4078973,10.928204 32.1438728,15.9268798 31.3669311,20.6471862 C22.5665717,22.2335923 16.530332,24.197144 16.2673671,24.2809541 L3.71676976,28.3906439 L5.91013607,28.1900982 L2.96672216,29.1539147 L16.0910611,27.9656068 C16.1627788,27.9566271 22.8145954,27.4268273 30.5511422,27.3939019 C30.1178478,33.0181605 30.2553067,38.6843241 30.4286245,45.7004296 C30.536201,50.1693056 30.6587188,55.1889339 30.6676835,61.2262567 C18.8133455,61.0706093 5.76072419,62.8545679 1.93578023,67.3354168 C0.280296675,68.7422297 -0.0304800222,70.1640088 0.00239058998,71.1188456 C0.26236725,78.5510085 22.0765008,81.3287158 30.7184835,82.1368849 L31.4356605,105.085895 L34.4179215,105.151746 L34.4776863,104.358543 L34.6808864,104.364529 L34.8273101,110.192327 L37.8125593,110.267157 L37.872324,109.473954 L38.2099949,109.482934 L38.3594067,115.01141 L41.3476442,115.020389 L41.3745383,114.245146 L42.1186095,114.245146 L43.1346102,82.849271 C46.4336244,82.9390676 49.8671092,82.9360744 53.1631352,82.8372982 L54.1970653,115.631006 L57.1823146,115.660938 L57.2211616,114.879708 L57.5917031,122.715955 L60.5769523,122.724935 L60.6128112,121.946698 L60.9086467,121.949691 L61.1178233,129.773966 L64.1060608,129.767979 L64.1239902,128.992736 L64.8830025,128.992736 L65.9766974,82.0740273 C81.3332498,80.6133364 92.2492813,77.506375 95.115001,73.8965529 C96.4626961,72.7591297 97.1470025,71.5468759 97.1470025,70.2927172 L97.1470025,70.2238731 Z" id="Fill-1"></path>
                </g>
                <path d="M120.880424,81.2783493 C120.880424,86.740974 99.6191148,91.6318939 73.9591196,91.6318939 C48.2961362,91.6318939 27.6862624,86.7379808 27.4950152,81.2783493 C27.3216974,76.3545039 41.8534962,73.1278138 58.5099319,73.7653695 C47.689524,75.3936806 36.7645278,76.9321952 36.7645278,79.8625567 C36.7645278,84.2865344 53.1699515,87.4084618 73.9591196,87.4084618 C94.7423112,87.4084618 111.44357,84.2865344 111.44357,79.8625567 C111.44357,77.0070257 101.421022,75.3068773 89.3724485,73.7683627 C106.235073,72.870397 120.665271,76.5281106 120.880424,81.2783493" id="Fill-4" fill="#2D2925"></path>
                <path d="M65.238845,102.593361 L65.8544219,125.183185 L67.1692464,84.5083319 C66.6403284,66.6358211 70.2650605,37.3022745 62.7317138,15.6882398 C54.7351903,40.5349511 59.0382523,46.1262842 57.9863927,85.1698333 L58.9276875,115.251685 L60.179759,98.7979596 C60.2215943,96.7565842 61.7724896,96.945157 61.7724896,98.6961902 L62.3223253,120.364103 L63.6550792,102.731049 C63.6341615,100.354434 65.301598,100.462189 65.238845,102.593361" id="Fill-6" fill="#2D2925"></path>
                <path d="M89.7561382,91.026665 L88.6116432,139.944844 L87.8406779,111.138104 C87.7988426,109.093735 86.092559,109.000945 86.0238296,111.138104 L85.085523,132.871867 L84.1621576,107.710868 C84.1651459,105.687452 82.6202271,105.570716 82.6052859,107.854542 L81.687897,125.795897 L80.5732844,90.3651636 L80.8153317,64.6713714 C81.0185318,57.8019337 60.8509171,57.8887371 60.8509171,57.8887371 C60.8509171,57.8887371 84.8643934,58.3886046 82.8981332,43.7637364 C81.4667674,33.1018902 41.9562916,36.6877666 41.9562916,36.6877666 C41.9562916,36.6877666 53.1263233,33.0270597 67.1351805,31.6651451 C82.8383684,30.1415966 92.3110812,33.9220322 92.825058,41.5068493 C93.730494,54.9284434 76.377799,56.8830155 76.377799,56.8830155 C76.377799,56.8830155 90.0699031,54.2220437 90.093809,62.5461859 L89.7561382,91.026665 Z" id="Fill-8" fill="#2D2925"></path>
                <path d="M121.653481,80.5037042 C121.653481,85.9663289 100.39516,90.860242 74.7351649,90.860242 C49.0691933,90.860242 28.4593194,85.9633357 28.2710605,80.5037042 C28.0947545,75.5828521 42.6295415,72.3501755 59.2829889,72.9907244 C48.4625811,74.6220288 37.5375849,76.1605434 37.5375849,79.0879116 C37.5375849,83.5148825 53.9459968,86.6398032 74.7351649,86.6398032 C95.5183565,86.6398032 112.216627,83.5148825 112.216627,79.0879116 C112.216627,76.2353738 102.197067,74.5352254 90.1455055,72.9907244 C107.005141,72.0927587 121.43534,75.7504723 121.653481,80.5037042" id="Fill-10" fill="#C21F32"></path>
                <path d="M66.013695,101.818716 L66.6262837,124.40854 L67.9411082,83.7336868 C67.4121901,65.8581827 71.0369222,36.5276294 63.509552,14.9135947 C55.5070521,39.760306 59.810114,45.3516391 58.7612427,84.392195 L59.7025375,114.474046 L60.954609,98.0203213 C60.9934561,95.9819391 62.5443513,96.1675187 62.5443513,97.9245383 L63.1001635,119.589458 L64.4299291,101.956404 C64.4090115,99.5767952 66.0704715,99.6875443 66.013695,101.818716" id="Fill-12" fill="#C21F32"></path>
                <path d="M90.529494,90.2523193 L89.3879873,139.170498 L88.6140338,110.363758 C88.5751867,108.319389 86.8689031,108.223606 86.7971854,110.363758 L85.8588789,132.094528 L84.9355135,106.936522 C84.9385017,104.913106 83.3935829,104.793377 83.38163,107.080197 L82.4612529,125.021552 L81.3466403,89.5908178 L81.5886875,63.8970256 C81.7918877,57.0245947 61.6272612,57.1203777 61.6272612,57.1203777 C61.6272612,57.1203777 85.6377493,57.6172521 83.671489,42.9893907 C82.237135,32.3275445 42.7326357,35.9164141 42.7326357,35.9164141 C42.7326357,35.9164141 53.9026674,32.2497208 67.9085364,30.8907993 C83.6147125,29.3642576 93.0874253,33.1446933 93.6014021,40.7354967 C94.5038499,54.1540977 77.1541431,56.1116629 77.1541431,56.1116629 C77.1541431,56.1116629 90.843259,53.4447048 90.8671649,61.7718401 L90.529494,90.2523193 Z" id="Fill-14" fill="#C21F32"></path>
                <rect id="Rectangle" x="0" y="0" width="150" height="150"></rect>
            </g>
        </g>
    </g>
</svg>