<svg width="150px" height="150px" viewBox="0 0 150 150" version="1.1" xmlns="http://www.w3.org/2000/svg" xmlns:xlink="http://www.w3.org/1999/xlink">
    <g id="Page-1" stroke="none" stroke-width="1" fill="none" fill-rule="evenodd">
        <g id="LAC">
            <g id="Page-1">
                <path d="M75.0241573,25.0546297 C47.4931823,25.0546297 25.094157,47.4625629 25.094157,75.0044868 C25.094157,102.549196 47.4931823,124.95713 75.0241573,124.95713 C102.555132,124.95713 124.954158,102.549196 124.954158,75.0044868 C124.954158,47.4625629 102.555132,25.0546297 75.0241573,25.0546297" id="Fill-3" stroke="#FFFFFF" stroke-width="4" fill="#FEFEFE"></path>
                <path d="M111.118612,102.7584 C105.396254,95.3345885 102.146622,86.5095844 101.70387,77.1943024 L120.519431,77.1943024 C120.07668,86.5179414 116.829833,95.3429455 111.118612,102.7584 M77.2132889,120.517049 L77.2132889,107.463398 L72.8358933,107.463398 L72.8358933,120.517049 C60.9846238,119.951558 49.9937967,114.86771 41.8321259,106.170847 C48.5012496,97.8389062 52.2632479,87.8299922 52.725492,77.1943024 L52.725492,72.8152284 C52.2632479,62.1795386 48.5012496,52.1706246 41.8321259,43.8386842 C49.9937967,35.1446067 60.9846238,30.0579724 72.8358933,29.4924813 L72.8358933,42.429135 L77.2132889,42.429135 L77.2132889,29.4924813 C89.0673429,30.0579724 100.05817,35.1446067 108.219841,43.8386842 C101.547933,52.1706246 97.7859342,62.1795386 97.3264748,72.8152284 L97.3264748,77.1943024 C97.7859342,87.8299922 101.547933,97.8389062 108.219841,106.170847 C100.05817,114.86771 89.0673429,119.951558 77.2132889,120.517049 M38.9333544,102.7584 C33.2193495,95.3429455 29.9752872,86.5179414 29.5325354,77.1943024 L48.3480964,77.1943024 C47.90256,86.5095844 44.6529285,95.3345885 38.9333544,102.7584 M38.9333544,47.2511306 C44.6529285,54.6749423 47.90256,63.4999464 48.3480964,72.8152284 L29.5325354,72.8152284 C29.9752872,63.4915894 33.2193495,54.6665853 38.9333544,47.2511306 M111.118612,47.2511306 C116.829833,54.6637997 120.07668,63.4915894 120.519431,72.8152284 L101.70387,72.8152284 C102.146622,63.4999464 105.396254,54.6749423 111.118612,47.2511306 M75.0245911,25.0549083 C47.4932234,25.0549083 25.0938786,47.4628415 25.0938786,75.0047654 C25.0938786,102.546689 47.4932234,124.957408 75.0245911,124.957408 C102.558743,124.957408 124.958088,102.546689 124.958088,75.0047654 C124.958088,47.4628415 102.558743,25.0549083 75.0245911,25.0549083" id="Fill-5" fill="#051821"></path>
                <polygon id="Fill-7" fill="#ED174B" points="63.9012168 54.0841016 63.9012168 95.7577318 86.1585469 95.7577318 86.1585469 90.0276077 69.8574822 90.0276077 69.8574822 54.0841016"></polygon>
                <path d="M93.7243126,68.0461606 L93.7243126,50.8725022 C93.7243126,48.3013283 92.6884404,47.2539162 90.1488826,47.2539162 L59.855189,47.2539162 C57.3490464,47.2539162 56.3243126,48.3013283 56.3243126,50.8725022 L56.3243126,99.1370287 C56.3243126,101.710988 57.3490464,102.7584 59.855189,102.7584 L90.1488826,102.7584 C92.6884404,102.7584 93.7243126,101.710988 93.7243126,99.1370287 L93.7243126,81.9466562 L87.7234936,81.9466562 L87.7234936,97.4879117 L62.2833626,97.4879117 L62.2833626,52.5216191 L87.7234936,52.5216191 L87.7234936,68.0461606 L93.7243126,68.0461606 Z" id="Fill-9" fill="#006AB6"></path>
                <path d="M77.4413478,72.0037626 L80.3429039,72.0037626 L80.3429039,59.8136687 L77.4413478,59.8136687 L77.4413478,72.0037626 Z M86.1488007,88.4141473 L86.1571546,54.0863302 L71.6967123,54.0863302 L71.5546976,88.4141473 L77.3466713,88.4141473 L77.4385632,77.7143871 L80.384673,77.7143871 L80.3429039,88.4141473 L86.1488007,88.4141473 Z" id="Fill-11" fill="#ED174B"></path>
                <rect id="Rectangle" x="0" y="0" width="150" height="150"></rect>
            </g>
        </g>
    </g>
</svg>