<svg width="150px" height="150px" viewBox="0 0 150 150" version="1.1" xmlns="http://www.w3.org/2000/svg" xmlns:xlink="http://www.w3.org/1999/xlink">
    <defs>
        <path d="M4.50220093,40.4973923 C1.72580061,34.9157432 0.16145245,28.6041203 0.16145245,21.9207763 C0.16145245,13.8650968 2.43419448,6.34946727 6.36275291,0.00124448027 L38.5848107,0.00124448027 L38.5848107,40.4973923 L4.50220093,40.4973923 L4.50220093,40.4973923 Z" id="path-1"></path>
        <path d="M15.754772,33.948221 C19.8582972,27.5055387 22.2409385,19.823071 22.2409385,11.5743621 C22.2409385,7.57518101 21.6808859,3.709098 20.636195,0.0528706154 L0.0545452259,0.0528706154 L0.0545452259,33.948221 L15.754772,33.948221 L15.754772,33.948221 Z" id="path-3"></path>
        <path d="M4.97106116,6.07653179 C4.1062931,3.96658821 3.07400618,1.94548363 1.89109361,0.0304121873 L0.0521884192,0.0304121873 L0.0521884192,6.07653179 L4.97106116,6.07653179 L4.97106116,6.07653179 Z" id="path-5"></path>
        <path d="M65.1603251,16.4659545 C57.7699829,6.48868436 46.0245048,0.0382867619 32.7962547,0.0382867619 C19.3273193,0.0382867619 7.39304236,6.72997352 0.0311498991,17.0242575 L0.0311498991,17.4249766 L65.1603251,17.4249766 L65.1603251,16.4659545 L65.1603251,16.4659545 Z" id="path-7"></path>
        <path d="M0.00701910372,7.44311386 C7.00726379,19.7638899 20.0976229,28.0541165 35.0892465,28.0541165 C50.4615893,28.0541165 63.8315374,19.3432409 70.6914172,6.50945159 L70.6914172,0.15208659 L0.00701910372,0.15208659 L0.00701910372,7.44311386 L0.00701910372,7.44311386 Z" id="path-9"></path>
    </defs>
    <g id="Page-1" stroke="none" stroke-width="1" fill="none" fill-rule="evenodd">
        <g id="LAL">
            <g id="Page-1">
                <g id="Group-29" transform="translate(0.000000, 28.177372)">
                    <path d="M32.6273425,21.0920038 C32.6273425,21.0920038 45.3941345,0.172825459 71.5344864,0.172825459 C97.6748383,0.172825459 109.834862,20.4839313 109.834862,20.4839313 L145.298722,20.4839313 L143.877997,29.2119968 C143.877997,29.2119968 142.86425,32.6676285 141.243736,33.0730102 L143.675741,33.0730102 C143.675741,33.0730102 144.487231,36.1207884 139.623222,46.6804871 L149.958009,46.6804871 C149.958009,46.6804871 150.362521,65.1574879 128.072432,73.8904972 C128.072432,73.8904972 116.521642,77.5463479 110.643886,71.2530443 C110.643886,71.2530443 98.8908407,93.1856769 71.5344864,93.1856769 C44.178132,93.1856769 31.815852,70.6449718 31.815852,70.6449718 L0,70.6449718 L5.06873214,61.5065809 L1.6229809,61.5065809 L5.67550008,53.9921886 L12.564536,53.9921886 L13.7805384,51.1446294 L10.5395097,51.1446294 L18.4422921,36.5236983 L22.8993232,36.5236983 L24.7245601,32.0570842 L20.8742969,32.0570842 L26.7495864,21.0920038 L32.6273425,21.0920038 Z" id="Fill-1" fill="#FEFEFE"></path>
                    <path d="M71.9160596,88.2929176 C94.2826109,88.2929176 112.411653,69.8505225 112.411653,47.0947674 C112.411653,24.3439559 94.2826109,5.89908902 71.9160596,5.89908902 C49.5519747,5.89908902 31.4204662,24.3439559 31.4204662,47.0947674 C31.4204662,69.8505225 49.5519747,88.2929176 71.9160596,88.2929176" id="Fill-3" fill="#FEC42F"></path>
                    <path d="M76.3844368,46.8918294 L74.6183968,46.8769983 C74.4926034,46.8769983 74.3914754,46.9783438 74.3914754,47.1019357 C74.3914754,47.2255277 74.4926034,47.3268731 74.6183968,47.3268731 L76.4091021,47.3095703 C77.0134035,47.3095703 77.5708407,47.3861973 77.4179155,47.6556278 L72.7758941,56.5394192 C72.1987246,57.5998384 70.9777891,57.3304079 70.7829328,56.4850388 L68.4841209,44.5781875 L76.569427,38.2898276 C77.3735178,37.5977126 78.9175696,36.4705537 79.7093277,36.4853848 L81.4729012,36.4754974 C82.5458445,36.4680819 82.9256911,36.9723372 82.6741044,37.6199591 L82.3633208,38.223088 C82.1610648,38.5592582 81.5246985,38.6012794 80.9869935,38.6012794 L79.968314,38.6012794 C79.8449872,38.6012794 79.7438592,38.7026249 79.7438592,38.8311605 C79.7438592,38.9547525 79.8449872,39.0560979 79.968314,39.0560979 L80.9721943,39.0560979 C81.4063047,39.0560979 81.9514092,39.0659853 81.7516198,39.3922681 L78.000018,46.5606029 C77.8273605,46.8399207 77.047935,46.8918294 76.3844368,46.8918294 M90.3746308,51.3139504 C86.5909641,55.911572 84.447544,57.4861338 80.6046804,57.4861338 C79.2974162,57.4861338 78.6166521,57.1919849 78.9816995,56.5567221 L83.5398586,47.3738381 L85.2787667,47.3738381 C87.2199308,47.3738381 86.9510784,49.0101959 86.4232396,51.227436 C86.3270447,51.5388878 86.5638322,51.5586625 86.7956866,51.2867601 L91.1293909,43.6561914 C91.3390465,43.1766545 90.7939419,43.0802527 90.5250895,43.4485568 C88.3545375,46.3974615 86.0705249,46.1799396 85.1085757,46.1799396 L84.3242172,46.1799396 L89.1882268,36.8685199 L91.1515897,36.8685199 C93.6230591,37.0242458 94.7749316,39.1277813 94.059636,44.1950524 L95.0881817,44.1950524 L98.6646593,37.1255912 C98.9532441,36.5298779 98.3415431,35.9836013 97.6681787,35.9836013 L73.3826621,35.9934887 C71.9792029,35.9934887 71.9175395,37.0712107 73.2618018,37.0712107 C74.3544774,37.0712107 74.297747,38.6433007 73.3160656,39.4021555 L63.0084103,47.6037192 L65.0877004,57.2908585 C65.2430922,58.022523 65.7092676,58.3710524 66.5182915,58.3710524 L86.5983637,58.3710524 C87.4271199,58.3710524 87.7675019,58.0324103 88.0363543,57.6863528 L91.6744954,51.3905774 C92.1752023,50.4858841 91.0109971,50.5427364 90.3746308,51.3139504" id="Fill-5" fill="#542582"></path>
                    <path d="M45.9463919,48.6710595 L39.5555963,48.6710595 L47.6384359,37.9902407 L45.9463919,48.6710595 Z M44.4664701,55.3054769 C44.2740803,56.4029737 43.1740051,57.1321664 41.7902782,57.4955268 L40.3621537,57.8539435 L41.5337585,55.7380489 C41.8420755,55.1596384 41.1662445,54.8185245 40.4287502,55.6811965 C35.461146,61.4727167 33.8800963,64.2485925 26.221501,64.2658954 L24.1644097,64.2708391 C23.5428425,64.2708391 22.859612,64.0285988 23.2813897,63.4304136 L25.9921131,58.3755017 L36.2800361,58.3755017 C37.6834953,58.3755017 37.323381,57.3175543 36.4970913,57.2878923 C35.9544533,57.2705894 35.3575515,56.9566658 34.9357738,56.2892691 C34.8198466,56.1038811 34.5633268,55.3697448 34.9653722,54.8036935 L38.9044307,49.5584499 L45.4555512,49.5584499 L44.4664701,55.3054769 Z M59.7121311,57.2878923 C59.1694932,57.2705894 58.819245,56.8948698 58.6983847,56.536453 C58.5257272,56.0148949 58.5380599,55.0978424 58.750182,54.6924607 L68.1180869,38.0396775 C68.2710122,37.7331694 68.6508588,37.0855474 69.1170341,37.0904911 C69.9433238,37.0929629 70.3009716,36.0028817 68.8999789,36.0028817 L61.3967755,36.0028817 C59.9933163,36.0028817 59.9785171,37.0707164 61.3227794,37.0707164 C61.872817,37.0707164 62.0874056,37.6095774 61.9344804,37.9383321 L59.8601233,41.7029437 C59.601137,42.1182128 59.0264341,42.1478749 58.4221327,42.1478749 L56.6338938,42.1429312 C56.510567,42.1429312 56.409439,42.2442766 56.409439,42.3703404 C56.409439,42.4939324 56.510567,42.5952778 56.6338938,42.5952778 L58.4073334,42.5952778 C58.888308,42.5952778 59.2706211,42.7386445 58.9919025,43.2997521 L52.0757347,55.9234368 C51.5774944,56.6180237 50.5859468,56.7712778 50.6426771,55.4438999 L53.1018138,36.9520681 C53.1980087,36.3736576 53.0450835,35.983107 52.4309159,35.983107 L48.7212453,35.9880506 C48.2797353,35.9880506 48.0059498,36.2055725 47.7938276,36.4923059 L46.4668311,38.1632695 C46.2941736,38.3362982 45.91926,38.3362982 45.5073485,38.3362982 L42.3945796,38.3313546 C42.2712528,38.3313546 42.1701248,38.4327 42.1701248,38.556292 C42.1701248,38.6798839 42.2712528,38.7812294 42.3945796,38.7812294 L44.935112,38.7812294 C45.3864882,38.7812294 45.914327,38.8875185 45.7244037,39.1000967 L42.1577921,43.5963729 C42.0492646,43.7224367 41.7014829,43.7570424 41.4893608,43.7570424 L40.483014,43.7520987 C40.3596872,43.7520987 40.2560926,43.8534442 40.2560926,43.9745643 C40.2560926,44.1031 40.3596872,44.2044454 40.483014,44.2044454 L41.3241029,44.2044454 C41.5830892,44.2044454 41.5855557,44.332981 41.4794947,44.4491575 L38.1274718,48.6710595 C37.9548143,48.8342009 37.6193653,48.8688067 37.291316,48.8688067 L34.3339389,48.8663348 C34.2081456,48.8663348 34.1094841,48.9652084 34.1094841,49.0912722 C34.1094841,49.2148642 34.2081456,49.3162096 34.3339389,49.3162096 L36.8744713,49.3162096 C37.259251,49.3162096 37.5577019,49.387893 37.3554459,49.6474361 L32.5876312,55.6391753 C31.6922785,56.7811652 27.37584,57.3620475 26.5372176,57.3620475 L42.6560325,27.1339213 C42.8114243,26.7853919 43.4083261,26.2564182 44.0298932,26.2564182 L47.4509791,26.2564182 C49.0665604,26.2564182 49.0196962,25.1786962 47.616237,25.1786962 L30.4096797,25.1786962 C29.0062205,25.1786962 28.9494901,26.2564182 30.5650714,26.2564182 L33.7493698,26.2564182 C34.6521221,26.2564182 34.9456399,26.8051666 34.711319,27.2500977 L34.2574763,28.0831077 C34.1020845,28.35501 33.8899624,28.463771 33.0168085,28.463771 L27.3857061,28.4588273 C27.2623793,28.4588273 27.1612513,28.5601727 27.1612513,28.6837647 C27.1612513,28.8073567 27.2623793,28.9087021 27.3857061,28.9087021 L33.0020093,28.9087021 C33.3078598,28.9087021 33.764169,28.9902728 33.4755843,29.5390212 L32.6887592,31.0072939 C32.5530997,31.2272876 32.2077846,31.3335767 31.8156054,31.3335767 L29.2602737,31.328633 C29.1344804,31.328633 29.0333524,31.4275066 29.0333524,31.5535704 C29.0333524,31.6771624 29.1344804,31.7785078 29.2602737,31.7785078 L31.8008061,31.7785078 C32.1658535,31.7785078 32.1732531,32.0207481 31.9635975,32.3569183 L30.1506933,35.7334512 C29.9953015,36.0226564 29.7017837,36.0572621 29.1246142,36.0572621 L28.1059347,36.0523185 C27.9826079,36.0523185 27.8814799,36.1536639 27.8814799,36.2797277 C27.8814799,36.4057915 27.9826079,36.5071369 28.1059347,36.5071369 L29.109815,36.5071369 C29.4945947,36.5071369 29.5957227,36.722187 29.4230651,37.0855474 L27.9332772,39.8564796 C27.7112889,40.2544457 27.3955723,40.4126435 26.4040247,40.4126435 L20.7753888,40.4076998 C20.6495954,40.4076998 20.550934,40.5090452 20.550934,40.6326372 C20.550934,40.758701 20.6495954,40.8600464 20.7753888,40.8600464 L26.3892254,40.8600464 C27.0255918,40.8699338 27.2599128,41.1517235 27.0083261,41.6040702 L24.1027463,47.0791948 C23.9300887,47.3189633 23.4540472,47.3560408 22.6474898,47.3560408 L17.018854,47.3510972 C16.8930606,47.3510972 16.7919326,47.4524426 16.7919326,47.5760346 C16.7919326,47.6996265 16.8930606,47.7985001 17.018854,47.7985001 L22.6326906,47.8034438 C23.306055,47.8034438 23.7155001,47.830634 23.5157106,48.1865789 L21.8409325,51.3431181 C21.5326154,51.8251268 20.6693277,51.8251268 20.3314122,51.8251268 L18.5456399,51.8201831 C18.4223131,51.8201831 18.3211851,51.9165849 18.3211851,52.0426487 C18.3211851,52.1687125 18.4223131,52.2700579 18.5456399,52.2700579 L20.316613,52.2700579 C20.9406467,52.2700579 21.2736291,52.3788189 21.1083712,52.7174609 L18.8736893,56.9294755 C18.6714333,57.3051951 17.7958129,57.322498 17.1224485,57.322498 L8.41804181,57.3175543 C8.29471499,57.3175543 8.19358701,57.4188998 8.19358701,57.5424917 C8.19358701,57.6660837 8.29471499,57.7674291 8.41804181,57.7674291 L17.1076493,57.769901 C17.6848188,57.769901 18.412447,57.8415843 18.1460611,58.3013465 L16.7179365,60.9931798 C16.582277,61.2156454 16.0939028,61.2329482 15.3934065,61.2329482 L13.6076342,61.2304764 C13.4818409,61.2304764 13.3807129,61.3318218 13.3807129,61.4554138 C13.3807129,61.5790058 13.4818409,61.6803512 13.6076342,61.6803512 L15.3786073,61.6803512 C15.8127177,61.6803512 16.3380899,61.729788 16.1530997,62.0585426 L15.2626801,63.7764712 C14.9740954,64.2016276 14.6855106,64.579819 13.9948804,64.579819 L9.62664461,64.579819 C8.01352985,64.579819 8.06779365,65.6624848 9.47125282,65.6624848 L35.120764,65.6748439 C35.8705911,65.6748439 35.8952564,65.5734985 36.2479711,65.0222783 L40.0513701,58.3755017 L59.495076,58.3755017 C60.8985351,58.3755017 60.5384208,57.3175543 59.7121311,57.2878923 L59.7121311,57.2878923 Z" id="Fill-7" fill="#542582"></path>
                    <path d="M109.361041,45.0982626 C108.655611,45.6791449 107.54567,46.3465416 107.331081,46.1339634 C107.030164,45.8348708 106.097813,45.1897206 105.597106,44.9598396 L109.782818,37.2872495 C109.955476,37.0153472 110.155265,36.8695086 110.616508,36.8695086 C112.246888,36.8695086 112.782127,38.6418176 112.015034,40.8491703 C111.479795,42.3965419 110.609108,44.0699773 109.361041,45.0982626 M143.177254,51.9773921 C143.071193,51.4508903 142.878803,51.7697576 142.533488,52.4346824 C142.427427,52.6349014 142.089511,52.6398451 141.754062,52.6398451 L140.725517,52.6447888 C140.60219,52.6447888 140.501062,52.7461342 140.501062,52.8697262 C140.501062,52.9933182 140.60219,53.0946636 140.725517,53.0946636 L141.736797,53.0946636 C142.121576,53.0946636 142.126509,53.3517349 141.946452,53.7373419 C141.241023,55.2501077 140.510928,56.2635619 139.544046,57.4722915 C139.39112,57.6675668 139.001408,57.8282364 138.693091,57.8282364 L137.662079,57.8356519 C137.536285,57.8356519 137.435157,57.9320537 137.435157,58.0605893 C137.435157,58.1841813 137.536285,58.2855267 137.662079,58.2855267 L138.670892,58.2855267 C139.181465,58.2855267 138.665959,58.5994503 138.57963,58.7156268 C136.786458,61.1133112 135.550723,62.1836177 134.231126,63.2563961 C134.078201,63.3799881 133.333307,63.3379668 132.812868,63.335495 L131.796655,63.3404387 C131.670862,63.3404387 131.569734,63.4393122 131.569734,63.5653761 C131.569734,63.688968 131.670862,63.7903135 131.796655,63.7903135 L132.800535,63.7903135 C133.567628,63.7903135 132.992925,64.2327727 132.876998,64.3291745 C130.082412,66.662591 125.916433,67.4165021 124.014733,67.1767337 C117.826193,66.400576 116.553461,61.6966653 116.097151,59.8155954 C116.000957,59.4225729 115.704972,58.6192251 115.606311,58.1199135 C115.416387,57.1361213 118.20604,56.8568034 118.975599,57.3734179 C120.147204,58.1569911 122.87026,58.9578671 125.01368,58.9677544 C126.996775,58.97517 131.054228,57.5316156 132.228299,54.1155334 C133.429502,50.6277677 130.410462,46.7519233 129.073599,45.414658 C127.371689,43.7066169 125.765974,40.9900652 126.441805,38.9952907 C126.952378,37.494884 127.808266,36.8126563 129.638436,36.8126563 C132.003844,36.8126563 133.725487,38.3353095 133.725487,40.4981691 C133.725487,40.6909726 133.607093,40.9208537 133.451701,40.9208537 L132.615545,40.9257974 C132.492218,40.9257974 132.39109,41.0271428 132.39109,41.1507348 C132.39109,41.2743268 132.492218,41.3756722 132.615545,41.3756722 L133.40237,41.3756722 C133.621892,41.3756722 133.760018,41.5437573 133.703288,41.8131878 C133.547896,42.5374368 133.498565,43.0466357 133.340707,43.7733566 C133.249445,44.1935693 133.866079,44.4852464 134.078201,44.1762664 L137.795271,37.5245461 C138.064124,37.0227627 137.467222,36.8892833 137.025712,37.0425374 C136.009499,37.3984823 134.351987,37.6407226 133.767418,37.218038 C132.376291,36.2218867 131.110958,35.5767365 129.167327,35.5767365 C125.864635,35.5767365 123.548558,36.3924436 122.063703,39.1188826 C121.950242,39.3314608 121.624659,39.328989 121.345941,39.328989 L120.712041,39.3265172 C120.586248,39.3265172 120.48512,39.4278626 120.48512,39.5539264 C120.48512,39.6775184 120.586248,39.7788638 120.712041,39.7788638 L121.252212,39.7739201 C121.4816,39.7739201 121.636992,39.838188 121.521065,40.1051466 C121.41747,40.3523306 121.328675,40.6118737 121.242346,40.8788324 C120.864966,42.0578999 120.988293,43.7115606 121.575329,45.1897206 C121.614793,45.2861224 121.491466,45.3330873 121.264545,45.3306155 L120.250799,45.3355592 C120.127472,45.3355592 120.026344,45.4369046 120.026344,45.5604966 C120.026344,45.6865604 120.127472,45.7879058 120.250799,45.7879058 L121.259612,45.7879058 C121.720854,45.7879058 121.826915,45.8348708 122.019305,46.1043013 C122.539744,46.8384376 123.074983,47.3847142 123.748347,48.2399707 C123.958003,48.511873 123.05525,48.5860282 122.574276,48.5810845 L118.568621,48.5810845 C118.442827,48.5810845 118.344166,48.68243 118.344166,48.8060219 C118.344166,48.9320858 118.442827,49.0309593 118.568621,49.0309593 L122.626073,49.0260157 C123.279705,49.0260157 124.397046,49.0161283 124.52284,49.159495 C125.504521,50.2940694 126.690925,52.0441318 126.890714,53.5148763 C126.949911,53.9400327 126.789586,54.1155334 126.269147,54.1155334 L125.726509,54.1155334 C125.603182,54.1155334 125.502054,54.2168788 125.502054,54.3429426 C125.502054,54.4690064 125.603182,54.56788 125.726509,54.56788 L126.205017,54.56788 C126.616929,54.56788 126.84385,54.6321478 126.747655,54.9411278 C126.222283,56.6293942 125.432991,57.8480111 122.221561,57.8282364 C118.854739,57.8134054 118.169042,54.506084 119.155656,51.055396 C119.350513,50.3682246 119.14579,50.0740756 118.83994,50.6104648 L116.49673,54.3033932 C116.437533,54.3899075 116.210612,54.6000139 115.855431,54.6000139 L115.522448,54.5975421 C115.399122,54.5975421 115.297994,54.6988875 115.297994,54.8249513 C115.297994,54.9485433 115.401588,55.0474169 115.524915,55.0474169 C115.823366,55.0474169 115.939293,55.2080864 115.825832,55.3712279 L114.962545,56.7159086 C113.549219,53.4703832 111.176411,49.4734186 109.911078,48.0175051 L109.933277,47.9482936 C113.053446,47.757962 117.660935,44.8288321 118.413229,42.2086821 C119.72296,37.6629691 115.317726,35.9821182 112.917786,35.9821182 L102.363477,35.9870619 C100.962485,35.9870619 100.85889,37.0499529 102.205619,37.0499529 C102.930781,37.0499529 103.567147,37.6876875 103.244031,38.3328377 L100.905754,42.5547397 C100.713364,42.903269 99.9906693,42.8810225 99.0484524,42.8810225 L98.0248398,42.8810225 C97.901513,42.8810225 97.800385,42.9823679 97.800385,43.1059599 C97.800385,43.2295519 97.901513,43.3308973 98.0248398,43.3308973 L99.0311866,43.3308973 C99.7045511,43.3308973 100.444512,43.3729186 100.195392,43.8549273 L97.4328711,48.8529869 C97.2972116,49.0853398 96.9395638,49.1075864 95.997347,49.1075864 L94.9786675,49.1100582 C94.8553407,49.1100582 94.7542127,49.2114036 94.7542127,49.3349956 C94.7542127,49.4610594 94.8553407,49.5624049 94.9786675,49.5624049 L95.9751481,49.559933 C96.7175756,49.559933 96.9938276,49.6588066 96.7817055,50.0444136 L93.0893006,56.7356833 C92.6477906,57.217692 92.1224184,57.3066782 91.2196661,57.3066782 C89.8754038,57.3066782 89.890203,58.3745129 91.2936622,58.3745129 L100.331051,58.3745129 C101.73451,58.3745129 101.376863,57.2869035 100.550573,57.2869035 C100.064665,57.2893754 99.5491593,56.3920976 99.8722755,55.8557084 L104.487165,47.095509 L104.955807,47.095509 C107.007965,47.095509 107.503739,50.46957 107.890985,54.1550828 C107.918117,54.4170978 107.414944,54.429457 106.393798,54.429457 L103.8286,54.4319288 C103.705273,54.4319288 103.604145,54.5332742 103.604145,54.6618099 C103.604145,54.7854019 103.705273,54.8842755 103.8286,54.8842755 L106.366666,54.8842755 C107.04003,54.8842755 107.982247,54.891691 108.004446,55.1092129 C108.182036,56.7257959 108.315229,58.1471037 108.62108,59.4423476 C108.719741,59.8477293 107.999513,59.7834615 107.229953,59.7834615 L103.964259,59.790877 C103.838466,59.790877 103.739804,59.8922224 103.739804,60.0133426 C103.739804,60.1394064 103.838466,60.2407518 103.964259,60.2407518 L107.227487,60.2456955 C108.253566,60.2456955 108.781405,60.2432237 108.840602,60.4558019 C110.246527,65.6219466 116.274742,69.6881227 122.137699,69.4631853 C127.166966,69.2703818 131.414342,66.5291117 133.589827,64.7815211 C136.485541,62.4530482 140.735383,57.5810524 142.464425,54.0389063 C142.782608,53.3888125 143.293181,52.5558026 143.177254,51.9773921" id="Fill-9" fill="#542582"></path>
                    <path d="M58.4657903,29.1642903 C57.6197684,30.2642589 56.4950278,30.5435768 55.2346278,30.5435768 L54.87698,30.5435768 L57.1017958,26.1313431 C57.2078568,25.9286523 57.4421778,25.7729264 57.7307625,25.7729264 C58.0094811,25.7729264 57.9774162,25.2142907 57.6123688,25.2142907 L54.1074207,25.2142907 C53.8089698,25.2142907 53.7029087,25.7729264 53.9816273,25.7729264 C54.2800782,25.7729264 54.3368085,26.1041529 54.1912829,26.3809989 L52.2007881,30.3186394 C52.0675951,30.5312176 51.8456069,30.5855981 51.6014198,30.647394 C51.3079019,30.7240211 51.1031794,31.2554666 51.4386284,31.2554666 L57.0351993,31.2554666 C57.4668431,31.2554666 57.5679711,31.094797 57.6814318,30.941543 L58.8061724,29.1964242 C58.9689638,28.983846 58.6285817,28.9517121 58.4657903,29.1642903" id="Fill-11" fill="#542582"></path>
                    <path d="M75.319633,25.3695222 C75.149442,25.4609802 74.7498631,25.5153607 74.5772056,25.3695222 C74.1307625,24.9962744 73.2526756,24.709541 72.7938998,24.709541 C71.4743029,24.709541 70.5172868,24.971556 69.9450504,26.219835 C69.4542097,27.2802542 69.9573831,28.1725883 71.1215882,28.7114493 C71.6247616,28.9438022 72.293193,29.2503103 72.0366732,29.8583829 C71.8492164,30.303314 71.3337103,30.3502789 70.867535,30.3453352 C70.2435013,30.3403916 69.3037509,29.8682702 69.1582253,28.9858235 C69.1088946,28.6966183 68.7734456,28.7608861 68.6772507,28.9190838 L67.883026,30.5060048 C67.7572327,30.718583 68.085282,30.9558796 68.2160084,30.8149848 C68.4848609,30.5282514 69.06943,30.4590399 69.3580147,30.6518434 C69.7551271,30.9138584 70.7738066,31.381036 71.3830411,31.3760924 C72.7199037,31.366205 73.6004572,31.0201475 74.330552,29.8707421 C75.0014498,28.8251539 74.5895383,27.7845094 73.3710693,27.206099 C72.7248368,26.9020627 72.1747992,26.3632017 72.463384,25.772432 C72.6483742,25.3868251 73.2230772,25.4683958 73.5091954,25.5203044 C74.0542999,25.6117625 74.7523297,26.1259051 74.8337254,26.5757799 C74.8682569,26.7685834 75.112444,26.805661 75.218505,26.635104 L75.6378162,25.6513119 C75.7340111,25.4609802 75.4256941,25.3126699 75.319633,25.3695222" id="Fill-13" fill="#542582"></path>
                    <path d="M114.143655,26.9505108 L114.629562,26.0507612 C114.841684,25.6552668 114.493903,25.2078639 113.936466,25.2078639 L107.402611,25.2078639 C106.931502,25.2078639 107.069629,25.6997599 107.262018,25.6997599 C107.68133,25.6997599 107.807123,26.2114307 107.55307,26.6440027 L105.58724,30.2677195 C105.293722,30.6113052 105.106266,30.7620874 104.686954,30.7620874 C104.351505,30.7620874 104.230645,31.2539835 104.701754,31.2539835 L111.324404,31.2539835 C111.59079,31.2539835 111.709183,31.1575817 111.805378,31.0241024 L112.705664,29.8252602 C112.925186,29.536055 112.451611,29.536055 112.306085,29.6794217 C111.164079,30.8263552 109.940677,30.7917495 109.052724,30.7917495 L108.280698,30.7917495 L109.188383,28.764841 L109.380773,28.764841 C109.962876,28.764841 110.633773,28.7574255 110.811364,29.2023566 C110.858228,29.3061739 111.146813,29.3926883 111.260274,29.2023566 L112.0323,27.6525132 C112.158093,27.4226321 111.810311,27.3806109 111.716583,27.5462241 C111.410732,28.0925007 110.068937,27.9466621 109.716222,27.9466621 L109.523832,27.9466621 L110.653506,25.714591 L111.911439,25.714591 C112.693331,25.714591 113.366696,26.2682831 113.586217,26.8738837 C113.640481,27.0172504 114.057326,27.1334269 114.143655,26.9505108" id="Fill-15" fill="#542582"></path>
                    <path d="M81.842635,28.099669 L84.0205866,26.3150008 L84.0304527,28.099669 L81.842635,28.099669 Z M97.428678,25.2076167 L95.1027342,25.2076167 C94.6316258,25.2076167 94.7722184,25.6995128 94.9646082,25.6995128 C95.460382,25.6995128 95.9117582,26.2828669 95.6404392,26.8217279 L94.67849,28.5866214 L92.5548022,25.4745754 C92.4117431,25.2817719 92.0762942,25.187842 91.790176,25.187842 L89.5012303,25.187842 C89.0301218,25.187842 89.141116,25.6772662 89.3335058,25.6772662 C89.8169469,25.6772662 89.6936201,26.0406266 89.5727598,26.3001698 L87.7499895,29.8175975 C87.6340623,30.1018591 87.1382885,30.1389366 86.9828967,29.7829917 L85.5720379,25.1754828 C85.512841,24.9925666 84.6890179,25.002454 84.4793623,25.1754828 L80.9423492,28.0971972 L79.1121793,28.099669 C78.7471319,28.099669 78.6040728,28.2504512 78.6040728,28.4432547 C78.6040728,28.6360582 78.7421988,28.8115588 79.1269785,28.8115588 L80.0839946,28.809087 L79.1269785,29.6000756 C78.5942066,29.9980418 78.0491021,30.5443183 77.6865213,30.5443183 L77.464533,30.5443183 C77.1167514,30.5443183 76.9243616,30.5986988 76.9243616,30.8780167 C76.9243616,31.1573346 77.0698872,31.2537363 77.39547,31.2537363 L80.2492525,31.2537363 C80.7844909,31.2537363 80.6808964,30.5517339 80.4120439,30.5517339 C80.1185261,30.5517339 79.6301519,30.1760142 80.081528,29.6445687 L80.9522154,28.8115588 L82.6689247,28.8115588 C83.6851376,28.8115588 84.3979666,29.9955699 83.7911987,30.3589304 L83.3200902,30.6209454 C83.1005685,30.73465 83.0019071,31.2537363 83.3200902,31.2537363 L88.8944623,31.2537363 C89.3063739,31.2537363 89.2225117,30.7074597 89.0301218,30.7074597 C88.4603519,30.7074597 88.7292044,29.8843372 88.837732,29.6643434 L90.3028546,26.8859958 L92.3599459,30.8780167 C92.4931388,31.1326162 92.6139991,31.2537363 92.8557197,31.2537363 L93.6425447,31.2537363 C93.8941314,31.2537363 93.9755271,31.1103696 94.0939209,30.9175661 L96.4346639,26.6783612 C96.8120439,25.9219783 97.1006287,25.7019846 97.5742036,25.7019846 C97.7665935,25.7019846 97.8997864,25.2076167 97.428678,25.2076167 L97.428678,25.2076167 Z" id="Fill-17" fill="#542582"></path>
                    <path d="M64.9767063,28.7201007 C64.3551391,29.963436 63.3142608,30.7000442 62.6532291,30.3688177 C61.9897308,30.0351194 61.9576658,28.7571783 62.5767664,27.5163149 C63.1983336,26.2729795 64.2392119,25.5363714 64.9027102,25.8675979 C65.5637419,26.1988244 65.5982734,27.4767654 64.9767063,28.7201007 M64.4217356,24.940658 C62.4633058,24.940658 60.4432125,25.9096191 60.0411671,27.9711333 C59.6909189,29.763217 60.9266536,31.6245122 63.1169379,31.6245122 C65.1986945,31.6245122 67.1225929,30.2575849 67.5098391,28.2776414 C67.8970853,26.2902824 66.41963,24.940658 64.4217356,24.940658" id="Fill-19" fill="#542582"></path>
                    <path d="M104.054535,27.9476509 L101.536201,27.9476509 C101.065092,27.9476509 101.203219,28.4395469 101.395608,28.4395469 C101.595398,28.4395469 101.780388,28.545836 101.780388,28.8622315 C101.780388,29.8831012 101.346278,30.2761237 100.473124,30.2761237 C99.5136411,30.2761237 99.1683261,29.1118873 99.8145586,27.683164 C100.22647,26.7685834 101.316679,25.9157987 102.611611,25.9157987 C103.403369,25.9157987 104.069334,26.0863557 104.170462,26.8328512 C104.195127,27.0132955 104.468913,27.0132955 104.565108,26.8427386 L105.162009,25.7674884 C105.228606,25.6537837 105.125011,25.5178326 104.942488,25.5079452 C104.789562,25.4980578 104.444247,25.6933332 104.217326,25.5277199 C103.714153,25.1495285 102.616544,24.7886399 101.790254,24.7886399 C100.438592,24.7886399 98.551692,25.095148 97.2764927,27.3099162 C96.1246202,29.31705 97.8018649,31.4378883 99.3582494,31.4403602 C100.224004,31.442832 101.227884,30.8001537 101.802587,30.5603853 L102.443886,30.9929572 C102.540081,31.1091337 102.742337,31.2525004 102.934727,31.2525004 L103.173981,31.2525004 C103.395969,31.2525004 103.482298,30.9534078 103.568627,30.7606043 L104.555241,28.3629199 C104.681035,28.1231515 104.611972,27.9476509 104.054535,27.9476509" id="Fill-21" fill="#542582"></path>
                    <path d="M138.545099,25.3695222 C138.374908,25.4609802 137.975329,25.5153607 137.802671,25.3695222 C137.356228,24.9962744 136.478141,24.709541 136.019365,24.709541 C134.702235,24.709541 133.742752,24.971556 133.170516,26.219835 C132.679675,27.2802542 133.182849,28.1725883 134.347054,28.7114493 C134.850227,28.9438022 135.521125,29.2503103 135.262139,29.8583829 C135.074682,30.303314 134.559176,30.3502789 134.093,30.3453352 C133.468967,30.3403916 132.531683,29.8682702 132.383691,28.9858235 C132.336827,28.6966183 132.001378,28.7608861 131.905183,28.9190838 L131.106025,30.5060048 C130.982698,30.718583 131.310747,30.9558796 131.441474,30.8149848 C131.710326,30.5282514 132.297362,30.4590399 132.58348,30.6518434 C132.980593,30.9138584 133.999272,31.381036 134.608507,31.3760924 C135.945369,31.366205 136.825923,31.0201475 137.558484,29.8707421 C138.226915,28.8251539 137.815004,27.7845094 136.596535,27.206099 C135.950302,26.9020627 135.400265,26.3632017 135.688849,25.772432 C135.876306,25.3868251 136.451009,25.4683958 136.737127,25.5203044 C137.279765,25.6117625 137.977795,26.1259051 138.059191,26.5757799 C138.093722,26.7685834 138.337909,26.805661 138.443971,26.635104 L138.865748,25.6513119 C138.959477,25.4609802 138.65116,25.3126699 138.545099,25.3695222" id="Fill-23" fill="#542582"></path>
                    <path d="M121.03861,29.1642903 C120.192588,30.2642589 119.067848,30.5435768 117.807448,30.5435768 L117.4498,30.5435768 L119.674616,26.1313431 C119.780677,25.9286523 120.014998,25.7729264 120.303582,25.7729264 C120.582301,25.7729264 120.54777,25.2142907 120.182722,25.2142907 L116.680241,25.2142907 C116.38179,25.2142907 116.275729,25.7729264 116.554447,25.7729264 C116.852898,25.7729264 116.907162,26.1041529 116.764103,26.3809989 L114.773608,30.3186394 C114.637949,30.5312176 114.418427,30.5855981 114.17424,30.647394 C113.878255,30.7240211 113.675999,31.2554666 114.011448,31.2554666 L119.605553,31.2554666 C120.039663,31.2554666 120.138325,31.094797 120.254252,30.941543 L121.378992,29.1964242 C121.541784,28.983846 121.201402,28.9517121 121.03861,29.1642903" id="Fill-25" fill="#542582"></path>
                    <path d="M129.476384,25.714591 C130.258276,25.714591 130.931641,26.2682831 131.151163,26.8738837 C131.205426,27.0172504 131.622271,27.1309551 131.7086,26.9505108 L132.196974,26.0507612 C132.40663,25.6577387 132.058848,25.2078639 131.501411,25.2078639 L124.967556,25.2078639 C124.496448,25.2078639 124.63704,25.6972881 124.826963,25.6972881 C125.246275,25.6972881 125.372068,26.2114307 125.118015,26.6440027 L123.154652,30.2677195 C122.861134,30.6113052 122.671211,30.7620874 122.2519,30.7620874 C121.916451,30.7620874 121.79559,31.2539835 122.269165,31.2539835 L128.886882,31.2539835 C129.158201,31.2539835 129.274128,31.1575817 129.37279,31.0216306 L130.270609,29.8227884 C130.492597,29.5385268 130.016556,29.5385268 129.873497,29.6794217 C128.729024,30.8263552 127.505622,30.7942213 126.617669,30.7942213 L125.845643,30.7942213 L126.753328,28.7623692 L126.945718,28.7623692 C127.527821,28.7623692 128.198719,28.7574255 128.373843,29.1998848 C128.423173,29.3061739 128.709292,29.3926883 128.825219,29.1998848 L129.599711,27.6500414 C129.723038,27.4201603 129.37279,27.3830827 129.281528,27.5462241 C128.975678,28.0949725 127.633882,27.9466621 127.281167,27.9466621 L127.088777,27.9466621 L128.215984,25.714591 L129.476384,25.714591 Z" id="Fill-27" fill="#542582"></path>
                </g>
                <g id="Group-60" transform="translate(31.259754, 52.610597)">
                    <path d="M45.124683,22.4586047 L43.358643,22.4437737 C43.2328497,22.4437737 43.1317217,22.5451191 43.1317217,22.6687111 C43.1317217,22.7923031 43.2328497,22.8936485 43.358643,22.8936485 L45.1493484,22.8763456 C45.7536498,22.8763456 46.311087,22.9529726 46.1581617,23.2224031 L41.5161404,32.1061946 C40.9389709,33.1666138 39.7180354,32.8971832 39.523179,32.0518141 L37.2243672,20.1449629 L45.3096732,13.856603 C46.1137641,13.1644879 47.6578158,12.0373291 48.449574,12.0521601 L50.2131474,12.0422727 C51.2860907,12.0348572 51.6659373,12.5391125 51.4143506,13.1867345 L51.1035671,13.7898633 C50.9013111,14.1260335 50.2649447,14.1680548 49.7272398,14.1680548 L48.7085603,14.1680548 C48.5852335,14.1680548 48.4841055,14.2694002 48.4841055,14.3979359 C48.4841055,14.5215278 48.5852335,14.6228733 48.7085603,14.6228733 L49.7124406,14.6228733 C50.146551,14.6228733 50.6916555,14.6327606 50.491866,14.9590434 L46.7402643,22.1273782 C46.5676068,22.4066961 45.7881813,22.4586047 45.124683,22.4586047 M59.114877,26.8807257 C55.3312103,31.4783473 53.1877902,33.0529091 49.3449267,33.0529091 C48.0376624,33.0529091 47.3568984,32.7587602 47.7219458,32.1234975 L52.2801049,22.9406134 L54.019013,22.9406134 C55.9601771,22.9406134 55.6913246,24.5769712 55.1634858,26.7942113 C55.0672909,27.1056631 55.3040784,27.1254378 55.5359328,26.8535355 L59.8696371,19.2229667 C60.0792927,18.7434298 59.5341882,18.6470281 59.2653357,19.0153322 C57.0947838,21.9642368 54.8107711,21.7467149 53.848822,21.7467149 L53.0644634,21.7467149 L57.9284731,12.4352952 L59.891836,12.4352952 C62.3633054,12.5910211 63.5151778,14.6945566 62.7998823,19.7618277 L63.8284279,19.7618277 L67.4049056,12.6923665 C67.6934904,12.0966532 67.0817893,11.5503767 66.4084249,11.5503767 L42.1229083,11.560264 C40.7194491,11.560264 40.6577857,12.6379861 42.002048,12.6379861 C43.0947236,12.6379861 43.0379933,14.210076 42.0563118,14.9689308 L31.7486565,23.1704945 L33.8279467,32.8576338 C33.9833384,33.5892983 34.4495138,33.9378277 35.2585377,33.9378277 L55.3386099,33.9378277 C56.1673661,33.9378277 56.5077481,33.5991857 56.7766006,33.2531281 L60.4147417,26.9573527 C60.9154485,26.0526595 59.7512434,26.1095118 59.114877,26.8807257" id="Fill-30" fill="#542582"></path>
                    <g id="Group-34" transform="translate(0.000000, 0.744227)">
                        <mask id="mask-2" fill="white">
                            <use xlink:href="#path-1"></use>
                        </mask>
                        <g id="Clip-33"></g>
                        <path d="M14.6866382,23.4936078 L8.29584258,23.4936078 L16.3786821,12.812789 L14.6866382,23.4936078 Z M13.2067164,30.1280252 C13.0143266,31.225522 11.9142514,31.9547147 10.5305245,32.3180751 L9.10239996,32.6764918 L10.2740047,30.5605972 C10.5823218,29.9821867 9.9064908,29.6410728 9.16899644,30.5037449 C4.20139229,36.295265 2.62034251,39.0711408 -5.03825277,39.0884437 L-7.09534406,39.0933874 C-7.71691121,39.0933874 -8.40014177,38.8511471 -7.97836406,38.2529619 L-5.26764065,33.19805 L5.02028235,33.19805 C6.42374152,33.19805 6.06362721,32.1401027 5.23733755,32.1104406 C4.69469955,32.0931377 4.09779776,31.7792141 3.67602005,31.1118174 C3.56009285,30.9264294 3.30357307,30.1922931 3.70561849,29.6262418 L7.64467699,24.3809982 L14.1957975,24.3809982 L13.2067164,30.1280252 Z M28.4523774,32.1104406 C27.9097394,32.0931377 27.5594913,31.7174181 27.438631,31.3590013 C27.2659734,30.8374432 27.2783061,29.9203907 27.4904282,29.515009 L36.8583332,12.8622258 C37.0112584,12.5557177 37.391105,11.9080957 37.8572804,11.9130394 C38.6835701,11.9155112 39.0412178,10.82543 37.6402252,10.82543 L30.1370217,10.82543 C28.7335625,10.82543 28.7187633,11.8932647 30.0630256,11.8932647 C30.6130632,11.8932647 30.8276519,12.4321257 30.6747266,12.7608804 L28.6003696,16.525492 C28.3413833,16.9407611 27.7666803,16.9704232 27.1623789,16.9704232 L25.3741401,16.9654795 C25.2508133,16.9654795 25.1496853,17.0668249 25.1496853,17.1928887 C25.1496853,17.3164807 25.2508133,17.4178261 25.3741401,17.4178261 L27.1475797,17.4178261 C27.6285543,17.4178261 28.0108674,17.5611928 27.7321488,18.1223004 L20.815981,30.7459851 C20.3177406,31.4405721 19.326193,31.5938261 19.3829233,30.2664483 L21.8420601,11.7746164 C21.938255,11.1962059 21.7853297,10.8056553 21.1711622,10.8056553 L17.4614916,10.8105989 C17.0199816,10.8105989 16.746196,11.0281208 16.5340739,11.3148542 L15.2070774,12.9858178 C15.0344198,13.1588465 14.6595063,13.1588465 14.2475947,13.1588465 L11.1348259,13.1539029 C11.0114991,13.1539029 10.9103711,13.2552483 10.9103711,13.3788403 C10.9103711,13.5024322 11.0114991,13.6037777 11.1348259,13.6037777 L13.6753583,13.6037777 C14.1267344,13.6037777 14.6545732,13.7100668 14.4646499,13.922645 L10.8980384,18.4189212 C10.7895108,18.544985 10.4417292,18.5795907 10.2296071,18.5795907 L9.22326024,18.5746471 C9.09993342,18.5746471 8.9963389,18.6759925 8.9963389,18.7971126 C8.9963389,18.9256483 9.09993342,19.0269937 9.22326024,19.0269937 L10.0643491,19.0269937 C10.3233354,19.0269937 10.325802,19.1555294 10.2197409,19.2717058 L6.86771805,23.4936078 C6.69506051,23.6567492 6.35961157,23.691355 6.03156224,23.691355 L3.07418519,23.6888831 C2.94839184,23.6888831 2.84973039,23.7877567 2.84973039,23.9138205 C2.84973039,24.0374125 2.94839184,24.1387579 3.07418519,24.1387579 L5.6147176,24.1387579 C5.99949727,24.1387579 6.29794816,24.2104413 6.09569219,24.4699844 L1.32787748,30.4617236 C0.432524791,31.6037135 -3.88391377,32.1845958 -4.72253612,32.1845958 L11.3962787,1.95646959 C11.5516705,1.60794021 12.1485723,1.07896654 12.7701395,1.07896654 L16.1912253,1.07896654 C17.8068066,1.07896654 17.7599424,0.00124448027 16.3564833,0.00124448027 L-0.850074096,0.00124448027 C-2.25353326,0.00124448027 -2.3102636,1.07896654 -0.694682307,1.07896654 L2.48961608,1.07896654 C3.39236838,1.07896654 3.6858862,1.62771492 3.45156525,2.07264605 L2.99772257,2.90565598 C2.84233078,3.17755834 2.63020865,3.28631928 1.7570548,3.28631928 L-3.87404763,3.2813756 C-3.99737444,3.2813756 -4.09850243,3.38272102 -4.09850243,3.506313 C-4.09850243,3.62990498 -3.99737444,3.7312504 -3.87404763,3.7312504 L1.74225558,3.7312504 C2.04810608,3.7312504 2.5044153,3.81282111 2.21583055,4.36156949 L1.42900547,5.8298422 C1.29334597,6.04983592 0.948030883,6.15612503 0.555851608,6.15612503 L-1.99948002,6.15118135 C-2.12527337,6.15118135 -2.22640136,6.25005493 -2.22640136,6.37611875 C-2.22640136,6.49971073 -2.12527337,6.60105615 -1.99948002,6.60105615 L0.54105239,6.60105615 C0.906099765,6.60105615 0.913499374,6.84329643 0.703843787,7.17946661 L-1.10906041,10.5559995 C-1.2644522,10.8452047 -1.55797002,10.8798105 -2.13513952,10.8798105 L-3.15381902,10.8748668 C-3.27714584,10.8748668 -3.37827382,10.9762122 -3.37827382,11.102276 C-3.37827382,11.2283398 -3.27714584,11.3296853 -3.15381902,11.3296853 L-2.14993874,11.3296853 C-1.76515907,11.3296853 -1.66403108,11.5447353 -1.83668862,11.9080957 L-3.32647656,14.6790279 C-3.54846483,15.0769941 -3.86418148,15.2351918 -4.85572908,15.2351918 L-10.484365,15.2302481 C-10.6101583,15.2302481 -10.7088198,15.3315935 -10.7088198,15.4551855 C-10.7088198,15.5812493 -10.6101583,15.6825948 -10.484365,15.6825948 L-4.8705283,15.6825948 C-4.23416193,15.6924821 -3.99984098,15.9742718 -4.25142768,16.4266185 L-7.15700747,21.9017431 C-7.32966501,22.1415116 -7.80570652,22.1785892 -8.6122639,22.1785892 L-14.2408998,22.1736455 C-14.3666931,22.1736455 -14.4678211,22.2749909 -14.4678211,22.3985829 C-14.4678211,22.5221749 -14.3666931,22.6210484 -14.2408998,22.6210484 L-8.62706312,22.6259921 C-7.9536987,22.6259921 -7.54425367,22.6531824 -7.74404311,23.0091273 L-9.41882128,26.1656664 C-9.72713832,26.6476751 -10.590426,26.6476751 -10.9283415,26.6476751 L-12.7141138,26.6427314 C-12.8374406,26.6427314 -12.9385686,26.7391332 -12.9385686,26.865197 C-12.9385686,26.9912608 -12.8374406,27.0926062 -12.7141138,27.0926062 L-10.9431407,27.0926062 C-10.319107,27.0926062 -9.98612463,27.2013672 -10.1513826,27.5400092 L-12.3860645,31.7520238 C-12.5883204,32.1277435 -13.4639408,32.1450463 -14.1373053,32.1450463 L-22.8417119,32.1401027 C-22.9650388,32.1401027 -23.0661667,32.2414481 -23.0661667,32.3650401 C-23.0661667,32.488632 -22.9650388,32.5899775 -22.8417119,32.5899775 L-14.1521045,32.5924493 C-13.574935,32.5924493 -12.8473068,32.6641326 -13.1136927,33.1238948 L-14.5418172,35.8157281 C-14.6774767,36.0381937 -15.1658509,36.0554965 -15.8663472,36.0554965 L-17.6521195,36.0530247 C-17.7779129,36.0530247 -17.8790409,36.1543701 -17.8790409,36.2779621 C-17.8790409,36.4015541 -17.7779129,36.5028995 -17.6521195,36.5028995 L-15.8811464,36.5028995 C-15.447036,36.5028995 -14.9216638,36.5523363 -15.106654,36.881091 L-15.9970736,38.5990195 C-16.2856584,39.0241759 -16.5742431,39.4023673 -17.2648733,39.4023673 L-21.6331091,39.4023673 C-23.2462239,39.4023673 -23.1919601,40.4850331 -21.7885009,40.4850331 L3.86101028,40.4973923 C4.61083732,40.4973923 4.63550268,40.3960468 4.98821738,39.8448266 L8.79161638,33.19805 L28.2353222,33.19805 C29.6387814,33.19805 29.2786671,32.1401027 28.4523774,32.1104406 L28.4523774,32.1104406 Z" id="Fill-32" fill="#542582" mask="url(#mask-2)"></path>
                    </g>
                    <g id="Group-37" transform="translate(58.911701, 11.090641)">
                        <mask id="mask-4" fill="white">
                            <use xlink:href="#path-3"></use>
                        </mask>
                        <g id="Clip-36"></g>
                        <path d="M19.1895864,9.57439666 C18.484157,10.155279 17.3742157,10.8226757 17.159627,10.6100974 C16.8587096,10.3110049 15.9263589,9.66585473 15.425652,9.43597365 L19.6113641,1.7633836 C19.7840217,1.49148125 19.9838111,1.34564271 20.4450534,1.34564271 C22.0754339,1.34564271 22.6106723,3.11795169 21.8435795,5.32530443 C21.3083411,6.87267601 20.4376538,8.5461114 19.1895864,9.57439666 M53.0057994,16.4535262 C52.8997383,15.9270244 52.7073485,16.2458917 52.3620334,16.9108165 C52.2559723,17.1110355 51.9180569,17.1159792 51.5826079,17.1159792 L50.5540623,17.1209229 C50.4307354,17.1209229 50.3296075,17.2222683 50.3296075,17.3458603 C50.3296075,17.4694523 50.4307354,17.5707977 50.5540623,17.5707977 L51.5653422,17.5707977 C51.9501218,17.5707977 51.9550549,17.827869 51.7749977,18.213476 C51.0695684,19.7262418 50.3394736,20.739696 49.3725914,21.9484256 C49.2196661,22.1437009 48.8299534,22.3043705 48.5216363,22.3043705 L47.4906242,22.311786 C47.3648308,22.311786 47.2637028,22.4081877 47.2637028,22.5367234 C47.2637028,22.6603154 47.3648308,22.7616608 47.4906242,22.7616608 L48.4994375,22.7616608 C49.0100105,22.7616608 48.4945044,23.0755844 48.4081757,23.1917609 C46.6150038,25.5894453 45.3792691,26.6597518 44.0596721,27.7325302 C43.9067469,27.8561222 43.1618529,27.8141009 42.6414137,27.8116291 L41.6252008,27.8165727 C41.4994074,27.8165727 41.3982794,27.9154463 41.3982794,28.0415101 C41.3982794,28.1651021 41.4994074,28.2664475 41.6252008,28.2664475 L42.6290811,28.2664475 C43.3961739,28.2664475 42.8214709,28.7089068 42.7055437,28.8053086 C39.910958,31.1387251 35.7449782,31.8926362 33.8432787,31.6528678 C27.6547391,30.8767101 26.3820063,26.1727994 25.9256971,24.2917295 C25.8295022,23.898707 25.5335178,23.0953591 25.4348564,22.5960476 C25.2449331,21.6122554 28.0345857,21.3329375 28.804145,21.849552 C29.9757497,22.6331251 32.6988058,23.4340012 34.8422259,23.4438885 C36.8253211,23.451304 40.8827733,22.0077497 42.0568446,18.5916674 C43.2580478,15.1039018 40.2390074,11.2280573 38.9021447,9.89079213 C37.2002346,8.18275098 35.5945195,5.46619929 36.2703504,3.47142475 C36.7809234,1.97101813 37.6368116,1.2887904 39.4669815,1.2887904 C41.8323898,1.2887904 43.5540322,2.81144358 43.5540322,4.97430321 C43.5540322,5.1671067 43.4356384,5.39698778 43.2802467,5.39698778 L42.4440908,5.40193146 C42.320764,5.40193146 42.219636,5.50327688 42.219636,5.62686886 C42.219636,5.75046084 42.320764,5.85180626 42.4440908,5.85180626 L43.2309159,5.85180626 C43.4504377,5.85180626 43.5885637,6.01989135 43.5318334,6.28932187 C43.3764416,7.01357086 43.3271108,7.52276982 43.1692525,8.24949065 C43.0779907,8.66970338 43.6946248,8.96138045 43.9067469,8.6524005 L47.6238171,2.0006802 C47.8926696,1.49889677 47.2957678,1.36541743 46.8542578,1.51867148 C45.8380448,1.87461638 44.1805324,2.11685666 43.5959633,1.69417209 C42.2048368,0.698020745 40.9395037,0.0528706154 38.9958731,0.0528706154 C35.6931809,0.0528706154 33.3771033,0.868577676 31.8922485,3.59501673 C31.7787878,3.80759493 31.453205,3.80512309 31.1744864,3.80512309 L30.5405866,3.80265125 C30.4147932,3.80265125 30.3136652,3.90399668 30.3136652,4.03006049 C30.3136652,4.15365247 30.4147932,4.2549979 30.5405866,4.2549979 L31.080758,4.25005422 C31.3101459,4.25005422 31.4655377,4.31432205 31.3496105,4.58128072 C31.2460159,4.82846468 31.1572206,5.08800783 31.0708919,5.35496651 C30.6935118,6.53403399 30.8168386,8.18769466 31.4038743,9.66585473 C31.4433388,9.76225647 31.320012,9.80922142 31.0930907,9.80674958 L30.0793443,9.81169326 C29.9560174,9.81169326 29.8548895,9.91303869 29.8548895,10.0366307 C29.8548895,10.1626945 29.9560174,10.2640399 30.0793443,10.2640399 L31.0881576,10.2640399 C31.5493999,10.2640399 31.655461,10.3110049 31.8478508,10.5804354 C32.36829,11.3145717 32.9035284,11.8608483 33.5768928,12.7161048 C33.7865484,12.9880071 32.8837961,13.0621623 32.4028215,13.0572186 L28.3971665,13.0572186 C28.2713731,13.0572186 28.1727117,13.1585641 28.1727117,13.282156 C28.1727117,13.4082198 28.2713731,13.5070934 28.3971665,13.5070934 L32.4546187,13.5021498 C33.1082509,13.5021498 34.2255918,13.4922624 34.3513852,13.6356291 C35.3330666,14.7702035 36.5194706,16.5202659 36.71926,17.9910104 C36.7784569,18.4161668 36.618132,18.5916674 36.0976929,18.5916674 L35.5550549,18.5916674 C35.4317281,18.5916674 35.3306001,18.6930129 35.3306001,18.8190767 C35.3306001,18.9451405 35.4317281,19.0440141 35.5550549,19.0440141 L36.0335629,19.0440141 C36.4454745,19.0440141 36.6723958,19.1082819 36.5762009,19.4172619 C36.0508287,21.1055283 35.2615371,22.3241452 32.0501068,22.3043705 C28.6832847,22.2895394 27.9975876,18.9822181 28.9842021,15.53153 C29.1790585,14.8443586 28.974336,14.5502097 28.6684855,15.0865989 L26.325276,18.7795272 C26.2660791,18.8660416 26.0391578,19.076148 25.6839765,19.076148 L25.3509941,19.0736762 C25.2276673,19.0736762 25.1265393,19.1750216 25.1265393,19.3010854 C25.1265393,19.4246774 25.2301339,19.523551 25.3534607,19.523551 C25.6519116,19.523551 25.7678388,19.6842205 25.6543781,19.8473619 L24.7910904,21.1920427 C23.3777651,17.9465173 21.0049571,13.9495527 19.739624,12.4936392 L19.7618228,12.4244277 C22.8819913,12.234096 27.4894811,9.30496615 28.2417747,6.6848162 C29.5515055,2.13910322 25.1462716,0.458252306 22.7463318,0.458252306 L12.1920229,0.463195985 C10.7910302,0.463195985 10.6874357,1.526087 12.0341645,1.526087 C12.7593262,1.526087 13.3956926,2.16382161 13.0725763,2.80897174 L10.7342999,7.03087374 C10.5419101,7.37940312 9.81921492,7.35715656 8.87699804,7.35715656 L7.85338547,7.35715656 C7.73005866,7.35715656 7.62893067,7.45850199 7.62893067,7.58209397 C7.62893067,7.70568594 7.73005866,7.80703137 7.85338547,7.80703137 L8.85973229,7.80703137 C9.53309671,7.80703137 10.2730576,7.84905264 10.0239374,8.33106136 L7.26141675,13.329121 C7.12575726,13.5614739 6.76810949,13.5837205 5.82589262,13.5837205 L4.80721311,13.5861923 C4.6838863,13.5861923 4.58275831,13.6875377 4.58275831,13.8111297 C4.58275831,13.9371935 4.6838863,14.0385389 4.80721311,14.0385389 L5.80369379,14.0360671 C6.54612122,14.0360671 6.82237329,14.1349407 6.61025117,14.5205477 L2.91784629,21.2118174 C2.47633629,21.6938261 1.95096405,21.7828123 1.04821176,21.7828123 C-0.296050534,21.7828123 -0.281251316,22.850647 1.12220785,22.850647 L10.1595969,22.850647 C11.5630561,22.850647 11.2054083,21.7630376 10.3791187,21.7630376 C9.89321101,21.7655095 9.37770492,20.8682317 9.70082118,20.3318425 L14.3157106,11.571643 L14.7843525,11.571643 C16.8365108,11.571643 17.3322846,14.9457041 17.7195308,18.6312169 C17.7466627,18.8932319 17.2434892,18.9055911 16.2223432,18.9055911 L13.6571454,18.9080629 C13.5338186,18.9080629 13.4326906,19.0094083 13.4326906,19.137944 C13.4326906,19.261536 13.5338186,19.3604095 13.6571454,19.3604095 L16.1952113,19.3604095 C16.8685757,19.3604095 17.8107926,19.3678251 17.8329914,19.5853469 C18.010582,21.20193 18.143775,22.6232378 18.4496255,23.9184817 C18.548287,24.3238634 17.8280584,24.2595956 17.058499,24.2595956 L13.7928049,24.2670111 C13.6670116,24.2670111 13.5683501,24.3683565 13.5683501,24.4894767 C13.5683501,24.6155405 13.6670116,24.7168859 13.7928049,24.7168859 L17.0560325,24.7218296 C18.0821116,24.7218296 18.6099504,24.7193577 18.6691472,24.931936 C20.0750729,30.0980807 26.1032877,34.1642568 31.9662445,33.9393194 C36.9955121,33.7465159 41.2428877,31.0052458 43.4183727,29.2576552 C46.3140863,26.9291823 50.5639284,22.0571865 52.2929704,18.5150404 C52.6111536,17.8649466 53.1217266,17.0319367 53.0057994,16.4535262" id="Fill-35" fill="#542582" mask="url(#mask-4)"></path>
                    </g>
                    <path d="M27.2060366,4.73106564 C26.3600146,5.83103425 25.2352741,6.11035212 23.974874,6.11035212 L23.6172263,6.11035212 L25.842042,1.69811848 C25.9481031,1.49542763 26.182424,1.33970174 26.4710088,1.33970174 C26.7497274,1.33970174 26.7176624,0.781065994 26.352615,0.781065994 L22.8476669,0.781065994 C22.549216,0.781065994 22.443155,1.33970174 22.7218736,1.33970174 C23.0203245,1.33970174 23.0770548,1.67092824 22.9315292,1.94777427 L20.9410343,5.88541472 C20.8078414,6.09799292 20.5858531,6.15237339 20.341666,6.21416938 C20.0481482,6.29079641 19.8434257,6.82224192 20.1788746,6.82224192 L25.7754455,6.82224192 C26.2070894,6.82224192 26.3082174,6.66157235 26.421678,6.50831829 L27.5464186,4.76319955 C27.70921,4.55062135 27.368828,4.51848743 27.2060366,4.73106564" id="Fill-38" fill="#542582"></path>
                    <path d="M44.0598793,0.93629752 C43.8896883,1.02775558 43.4901094,1.08213605 43.3174518,0.93629752 C42.8710088,0.563049744 41.9929218,0.276316353 41.5341461,0.276316353 C40.2145492,0.276316353 39.2575331,0.538331348 38.6852966,1.78661033 C38.1944559,2.84702951 38.6976293,3.7393636 39.8618345,4.27822463 C40.3650079,4.51057755 41.0334392,4.81708565 40.7769194,5.42515819 C40.5894627,5.87008931 40.0739566,5.91705427 39.6077812,5.91211059 C38.9837475,5.90716691 38.0439972,5.43504555 37.8984716,4.55259882 C37.8491408,4.26339359 37.5136919,4.32766142 37.417497,4.48585915 L36.6232723,6.07278016 C36.4974789,6.28535836 36.8255283,6.52265496 36.9562547,6.38176011 C37.2251071,6.09502672 37.8096762,6.02581521 38.098261,6.21861869 C38.4953733,6.48063369 39.5140528,6.94781137 40.1232873,6.94286769 C41.46015,6.93298033 42.3407035,6.58692279 43.0707982,5.43751739 C43.7416961,4.39192925 43.3297845,3.35128479 42.1113156,2.77287432 C41.4650831,2.46883806 40.9150455,1.92997703 41.2036302,1.33920737 C41.3886204,0.953600397 41.9633234,1.0351711 42.2494416,1.08707973 C42.7945461,1.1785378 43.4925759,1.69268043 43.5739716,2.14255523 C43.6085031,2.33535872 43.8526902,2.37243631 43.9587513,2.20187938 L44.3780625,1.21808723 C44.4742574,1.02775558 44.1659403,0.879445209 44.0598793,0.93629752" id="Fill-40" fill="#542582"></path>
                    <g id="Group-44" transform="translate(73.078658, 0.744227)">
                        <mask id="mask-6" fill="white">
                            <use xlink:href="#path-5"></use>
                        </mask>
                        <g id="Clip-43"></g>
                        <path d="M9.80524249,1.77305909 L10.2911501,0.873309483 C10.5032723,0.477815151 10.1554907,0.0304121873 9.59805344,0.0304121873 L3.06419873,0.0304121873 C2.59309029,0.0304121873 2.73121632,0.522308263 2.92360616,0.522308263 C3.34291733,0.522308263 3.46871068,1.03397906 3.21465744,1.46655098 L1.24882799,5.0902678 C0.955310173,5.4338535 0.767853412,5.58463572 0.348542238,5.58463572 C0.013093298,5.58463572 -0.107766982,6.07653179 0.363341456,6.07653179 L6.98599148,6.07653179 C7.2523774,6.07653179 7.37077114,5.98013005 7.46696606,5.84665071 L8.36725182,4.64780852 C8.58677355,4.35860329 8.11319858,4.35860329 7.96767293,4.50196998 C6.82566662,5.64890354 5.6022646,5.61429779 4.71431153,5.61429779 L3.94228566,5.61429779 L4.84997102,3.58738934 L5.04236086,3.58738934 C5.62446343,3.58738934 6.29536131,3.57997382 6.47295192,4.02490494 C6.51981611,4.12872221 6.80840086,4.21523659 6.92186153,4.02490494 L7.6938874,2.47506153 C7.81968075,2.24518045 7.47189913,2.20315918 7.37817075,2.36877243 C7.07232025,2.91504897 5.73052449,2.76921044 5.3778098,2.76921044 L5.18541996,2.76921044 L6.3150936,0.5371393 L7.57302712,0.5371393 C8.35491914,0.5371393 9.02828355,1.09083137 9.24780528,1.69643206 C9.30206908,1.83979876 9.71891372,1.95597522 9.80524249,1.77305909" id="Fill-42" fill="#542582" mask="url(#mask-6)"></path>
                    </g>
                    <path d="M50.5828812,3.66644433 L52.7608328,1.88177616 L52.770699,3.66644433 L50.5828812,3.66644433 Z M66.1689243,0.774392027 L63.8429805,0.774392027 C63.3718721,0.774392027 63.5124646,1.2662881 63.7048545,1.2662881 C64.2006283,1.2662881 64.6520044,1.84964224 64.3806854,2.38850327 L63.4187363,4.15339673 L61.2950485,1.0413507 C61.1519894,0.848547215 60.8165404,0.754617311 60.5304222,0.754617311 L58.2414765,0.754617311 C57.7703681,0.754617311 57.8813622,1.24404155 58.073752,1.24404155 C58.5571932,1.24404155 58.4338663,1.60740196 58.3130061,1.86694512 L56.4902357,5.38437284 C56.3743085,5.66863439 55.8785347,5.70571198 55.7231429,5.34976708 L54.3122842,0.742258113 C54.2530873,0.559341984 53.4292642,0.569229342 53.2196086,0.742258113 L49.6825955,3.66397249 L47.8524255,3.66644433 C47.4873782,3.66644433 47.344319,3.81722655 47.344319,4.01003003 C47.344319,4.20283352 47.4824451,4.37833413 47.8672247,4.37833413 L48.8242408,4.37586229 L47.8672247,5.16685095 C47.3344529,5.56481713 46.7893484,6.11109367 46.4267675,6.11109367 L46.2047793,6.11109367 C45.8569976,6.11109367 45.6646078,6.16547414 45.6646078,6.44479202 C45.6646078,6.72410989 45.8101335,6.82051163 46.1357162,6.82051163 L48.9894988,6.82051163 C49.5247372,6.82051163 49.4211426,6.11850919 49.1522902,6.11850919 C48.8587723,6.11850919 48.3703982,5.74278958 48.8217743,5.21134407 L49.6924616,4.37833413 L51.4091709,4.37833413 C52.4253839,4.37833413 53.1382129,5.56234529 52.5314449,5.9257057 L52.0603365,6.1877207 C51.8408148,6.30142532 51.7421533,6.82051163 52.0603365,6.82051163 L57.6347086,6.82051163 C58.0466201,6.82051163 57.9627579,6.27423509 57.7703681,6.27423509 C57.2005982,6.27423509 57.4694506,5.45111251 57.5779782,5.23111878 L59.0431008,2.4527711 L61.1001921,6.44479202 C61.2333851,6.69939149 61.3542454,6.82051163 61.5959659,6.82051163 L62.382791,6.82051163 C62.6343777,6.82051163 62.7157734,6.67714494 62.8341671,6.48434145 L65.1749101,2.24513658 C65.5522902,1.48875366 65.8408749,1.26875994 66.3144499,1.26875994 C66.5068397,1.26875994 66.6400327,0.774392027 66.1689243,0.774392027 L66.1689243,0.774392027 Z" id="Fill-45" fill="#542582"></path>
                    <path d="M33.7169525,4.28687607 C33.0953854,5.53021137 32.054507,6.26681957 31.3934753,5.93559306 C30.729977,5.60189472 30.6979121,4.32395366 31.3170127,3.08309019 C31.9385798,1.83975488 32.9794582,1.10314669 33.6429564,1.43437319 C34.3039882,1.7655997 34.3385197,3.04354076 33.7169525,4.28687607 M33.1619819,0.507433353 C31.203552,0.507433353 29.1834588,1.47639447 28.7814133,3.53790867 C28.4311652,5.32999237 29.6668999,7.19128757 31.8571841,7.19128757 C33.9389408,7.19128757 35.8628391,5.82436028 36.2500853,3.84441678 C36.6373315,1.85705776 35.1598763,0.507433353 33.1619819,0.507433353" id="Fill-47" fill="#542582"></path>
                    <path d="M72.7947808,3.5144262 L70.2764472,3.5144262 C69.8053387,3.5144262 69.9434648,4.00632227 70.1358546,4.00632227 C70.3356441,4.00632227 70.5206343,4.11261138 70.5206343,4.42900684 C70.5206343,5.44987659 70.0865239,5.84289908 69.21337,5.84289908 C68.2538874,5.84289908 67.9085723,4.67866264 68.5548048,3.24993936 C68.9667164,2.33535872 70.0569255,1.48257407 71.351857,1.48257407 C72.1436152,1.48257407 72.80958,1.653131 72.910708,2.39962655 C72.9353733,2.58007084 73.2091589,2.58007084 73.3053538,2.40951391 L73.9022556,1.33426369 C73.9688521,1.22055907 73.8652575,1.08460789 73.6827338,1.07472054 C73.5298086,1.06483318 73.1844935,1.2601085 72.9575722,1.09449525 C72.4543988,0.716303797 71.3567901,0.355415219 70.5305004,0.355415219 C69.1788385,0.355415219 67.2919382,0.661923327 66.016739,2.87669159 C64.8648665,4.88382532 66.5421112,7.00466368 68.0984956,7.00713552 C68.9642499,7.00960736 69.9681301,6.36692907 70.5428331,6.12716063 L71.1841326,6.55973256 C71.2803275,6.67590902 71.4825834,6.81927571 71.6749733,6.81927571 L71.9142273,6.81927571 C72.1362156,6.81927571 72.2225443,6.52018312 72.3088731,6.32737964 L73.2954876,3.92969525 C73.421281,3.68992681 73.352218,3.5144262 72.7947808,3.5144262" id="Fill-49" fill="#542582"></path>
                    <g id="Group-53" transform="translate(99.751842, 0.000000)" fill="#542582">
                        <path d="M7.53350238,0.93629752 C7.36331138,1.02775558 6.96373249,1.08213605 6.79107495,0.93629752 C6.34463188,0.563049744 5.46654494,0.276316353 5.00776919,0.276316353 C3.69063879,0.276316353 2.73115616,0.538331348 2.15891974,1.78661033 C1.66807901,2.84702951 2.17125242,3.7393636 3.33545756,4.27822463 C3.83863097,4.51057755 4.50952885,4.81708565 4.25054254,5.42515819 C4.06308578,5.87008931 3.54757969,5.91705427 3.08140432,5.91211059 C2.45737063,5.90716691 1.52008683,5.43504555 1.37209465,4.55259882 C1.32523046,4.26339359 0.989781522,4.32766142 0.893586605,4.48585915 L0.0944288372,6.07278016 C-0.0288979789,6.28535836 0.299151352,6.52265496 0.429877777,6.38176011 C0.698730236,6.09502672 1.28576588,6.02581521 1.57188409,6.21861869 C1.96899644,6.48063369 2.98767594,6.94781137 3.59691041,6.94286769 C4.9337731,6.93298033 5.81432657,6.58692279 6.54688785,5.43751739 C7.2153192,4.39192925 6.80340763,3.35128479 5.58493869,2.77287432 C4.93870617,2.46883806 4.38866857,1.92997703 4.67725332,1.33920737 C4.86471008,0.953600397 5.43941305,1.0351711 5.72553126,1.08707973 C6.26816925,1.1785378 6.96619903,1.69268043 7.04759473,2.14255523 C7.08212624,2.33535872 7.32631333,2.37243631 7.43237439,2.20187938 L7.8541521,1.21808723 C7.94788048,1.02775558 7.63956344,0.879445209 7.53350238,0.93629752" id="Fill-51"></path>
                    </g>
                    <g id="Group-56" transform="translate(82.486088, 0.744227)" fill="#542582">
                        <path d="M7.29276844,3.98683861 C6.44674648,5.08680723 5.32200592,5.3661251 4.06160586,5.3661251 L3.70395809,5.3661251 L5.92877385,0.953891453 C6.03483491,0.751200608 6.26915586,0.595474714 6.55774061,0.595474714 C6.83645922,0.595474714 6.80192771,0.0368389702 6.43688033,0.0368389702 L2.93439876,0.0368389702 C2.63594786,0.0368389702 2.5298868,0.595474714 2.80860541,0.595474714 C3.1070563,0.595474714 3.1613201,0.926701218 3.01826099,1.20354725 L1.02776618,5.1411877 C0.892106683,5.3537659 0.672584951,5.40814637 0.428397855,5.46994236 C0.132413497,5.54656939 -0.0698424818,6.0780149 0.265606458,6.0780149 L5.85971083,6.0780149 C6.29382123,6.0780149 6.39248268,5.91734532 6.50840989,5.76409127 L7.63315045,4.01897253 C7.79594185,3.80639432 7.45555983,3.77426041 7.29276844,3.98683861" id="Fill-54"></path>
                    </g>
                    <g id="Group-59" transform="translate(90.517957, 0.744227)" fill="#542582">
                        <path d="M7.69867348,0.5371393 C8.4805655,0.5371393 9.15392991,1.09083137 9.37345165,1.69643206 C9.42771545,1.83979876 9.84456008,1.95350338 9.93088886,1.77305909 L10.419263,0.873309483 C10.6289186,0.48028699 10.281137,0.0304121873 9.7236998,0.0304121873 L3.18984509,0.0304121873 C2.71873665,0.0304121873 2.85932922,0.519836423 3.04925252,0.519836423 C3.46856369,0.519836423 3.59435705,1.03397906 3.34030381,1.46655098 L1.37694089,5.0902678 C1.08342307,5.4338535 0.893499774,5.58463572 0.4741886,5.58463572 C0.13873966,5.58463572 0.0178793804,6.07653179 0.491454354,6.07653179 L7.1091713,6.07653179 C7.3804903,6.07653179 7.49641751,5.98013005 7.59507896,5.84417887 L8.49289818,4.64533668 C8.71488645,4.36107513 8.23884494,4.36107513 8.09578583,4.50196998 C6.95131298,5.64890354 5.72791096,5.61676963 4.83995789,5.61676963 L4.06793202,5.61676963 L4.97561739,3.5849175 L5.16800722,3.5849175 C5.75010979,3.5849175 6.42100767,3.57997382 6.59613175,4.0224331 C6.64546248,4.12872221 6.93158069,4.21523659 7.0475079,4.0224331 L7.8220003,2.47258969 C7.94532712,2.24270861 7.59507896,2.20563101 7.50381712,2.36877243 C7.19796661,2.91752081 5.85617085,2.76921044 5.50345616,2.76921044 L5.31106633,2.76921044 L6.43827342,0.5371393 L7.69867348,0.5371393 Z" id="Fill-57"></path>
                    </g>
                </g>
                <g id="Group-65" transform="translate(36.825086, 32.835880)" fill="#2D2925">
                    <path d="M42.1257813,5.4357871 C39.0426109,5.21579338 36.5242773,5.12680715 34.3216604,5.35916007 C34.9604933,3.74752067 36.2356926,2.24217037 37.2198406,1.5821892 C39.318863,1.66870359 41.4894149,1.97521169 43.2061242,2.31632556 C48.7065002,3.40393497 57.2530486,6.76069311 60.9355873,11.7142596 C56.02718,8.42918483 47.8703444,5.84611247 42.1257813,5.4357871 M32.8935359,5.55196356 C31.0387006,5.66566818 27.6792781,6.3973327 26.4805414,6.74586208 C26.1722244,5.9350987 25.3237359,3.4311252 25.0524169,2.62283366 C28.4636366,1.65387255 32.429827,1.31523053 35.4809325,1.5821892 C34.632444,2.23722669 33.2018529,4.81782721 32.8935359,5.55196356 M17.3642232,10.1347541 C16.9843766,9.49207585 15.1764055,7.84088701 14.1971906,7.51460418 C16.4762701,5.82139407 21.7694571,3.39404761 23.7772176,2.97136304 C24.1249992,3.54730166 25.0524169,6.01419756 25.3607339,7.05237018 C23.5848278,7.43797716 18.8712769,9.13365911 17.3642232,10.1347541 M66.9243375,15.7581892 C66.4211641,15.1797787 65.7256008,13.9488026 60.7431975,9.59589311 C53.4175846,3.19630044 43.7092976,0.274586065 34.5929794,0.274586065 C27.8716679,0.274586065 21.9889788,1.78488005 15.4723898,5.38387847 C7.16756204,9.96172537 3.72921041,15.2267437 2.88072191,16.2970502 C2.25422169,17.085567 2.16542638,17.5453292 2.56993834,17.7801539 C2.86098962,17.948239 3.41842683,17.3352228 3.94133253,16.6431077 C6.41033539,13.3753358 9.65876372,10.1347541 13.0773831,8.22896582 C14.1404602,8.38221988 15.6277816,9.86532362 16.2049511,10.6538404 C14.0171334,11.8502108 10.3937915,14.6137274 9.02239735,15.6815621 C7.83599338,16.6010865 7.42654835,17.1177009 7.74719807,17.4909487 C8.01111746,17.8024005 8.91880283,17.1893843 9.67849601,16.5664807 C10.9906933,15.4887587 14.8927538,12.7153547 16.8240517,11.6747102 C18.1387156,13.2171381 17.7120048,16.0646973 17.248296,16.6826572 C16.9991758,17.0138837 16.9646443,17.3673567 17.248296,17.5304981 C17.519615,17.6837522 17.8131328,17.2932015 18.1954459,16.7395095 C19.0907986,15.4442655 18.7331508,12.3050293 17.9635915,11.1753986 C20.3191337,9.70959773 23.700755,8.72827742 25.7479801,8.26604342 C25.9206377,8.59479808 28.4019732,15.8620064 28.8755482,17.1819688 C29.1345345,17.9062178 29.3910543,18.7713616 29.9188931,18.6082202 C30.2691412,18.4994593 30.0372868,17.7084706 29.743769,16.9125383 C29.3836547,15.9287461 27.504154,9.82577419 26.924518,8.01638762 C27.6028155,7.65055536 31.68,6.82001726 32.701146,6.8595667 C32.1979726,9.51926608 34.0750068,10.6093473 36.196228,12.0034649 C37.3234351,12.7450167 44.4911897,16.870517 45.9883772,17.7999287 C46.8417988,18.3289023 47.505297,18.6700162 47.6878207,18.4154167 C47.8974763,18.1311552 47.3153737,17.5304981 46.5285487,17.0682641 C45.8995819,16.6999601 39.2325342,12.8216438 36.4453482,11.0592221 C34.4523868,9.79611211 33.3794435,8.44401587 33.8579516,6.66676321 C34.5165168,6.47643156 36.5242773,6.45912869 38.6109671,6.47643156 C52.8256159,6.59013618 64.2210137,14.7570941 65.496213,16.0646973 C66.1399789,16.7296221 67.0402647,17.2981452 67.3880463,17.0287147 C67.6075681,16.8581578 67.2277215,16.1067186 66.9243375,15.7581892" id="Fill-61"></path>
                    <path d="M69.999615,64.5258537 C70.5249872,63.5568926 70.951698,63.0056724 70.5027884,62.7560166 C70.0908768,62.5261355 69.6888314,63.4258851 69.1881245,64.2959726 C67.5281456,67.1830813 65.7152414,69.5684065 61.6183246,73.3107716 C57.0798977,77.4511029 51.8631734,79.8562028 50.0502692,80.4741627 C48.5037509,76.1212532 42.6136622,57.5824564 42.4582704,57.0534827 C42.226416,56.2649659 42.0290931,56.0350848 41.7627072,56.1314865 C41.4642563,56.2377756 41.64678,56.6678757 41.8021718,57.3624626 C41.955097,58.0545777 48.9674598,79.992154 49.1993142,80.7608961 C47.8081877,81.4579548 42.157353,83.0374603 38.2084283,83.1684678 C34.6960806,83.2846443 30.5621657,83.1684678 28.475476,82.6889309 C26.0311385,80.7089874 20.4690991,72.8386502 18.357744,68.6488821 C15.8690089,63.7101467 14.2213626,59.1669055 13.7971184,57.2438143 C13.5923958,56.3218182 13.330943,55.6568933 12.8697007,55.7434077 C12.3714604,55.8398095 12.6575786,56.5690021 12.9486299,57.557738 C13.6959904,60.0938454 14.9169259,63.690372 17.506789,68.8219109 C20.2520439,74.2550143 25.1530516,80.6274167 26.5811761,82.3601763 C22.1044127,81.4184054 16.660767,79.3173418 11.4884404,75.4538565 C7.03387577,72.1242886 3.2058114,67.8850837 1.28191307,64.7977561 C0.951397203,64.2663106 0.564151,63.5148713 0.0856429538,63.8337386 C-0.131412242,63.9771053 0.13497368,64.5777624 0.47042262,65.1833631 C3.26500827,70.2135566 10.0825147,77.3373983 18.8189863,81.2453766 C29.0008482,85.7985051 40.1027282,85.5562648 50.0305369,81.7051388 C58.7127448,78.3360214 66.2677455,71.4049833 69.999615,64.5258537" id="Fill-63"></path>
                </g>
                <g id="Group-72" transform="translate(36.825086, 34.039163)">
                    <g id="Group-68" transform="translate(2.292992, 0.000000)">
                        <mask id="mask-8" fill="white">
                            <use xlink:href="#path-7"></use>
                        </mask>
                        <g id="Clip-67"></g>
                        <path d="M39.8327895,4.23250416 C36.7496191,4.01251043 34.2312855,3.92352421 32.0286686,4.15587713 C32.6675015,2.54423772 33.9427008,1.03888742 34.9268487,0.378906256 C37.0258712,0.465420641 39.1964231,0.771928748 40.9131324,1.11304261 C46.4135084,2.20065202 54.9600568,5.55741017 58.6425955,10.5109767 C53.7341882,7.22590188 45.5773526,4.64282953 39.8327895,4.23250416 M30.600544,4.34868062 C28.7457087,4.46238524 25.3862863,5.19404975 24.1875496,5.54257913 C23.8792326,4.73181575 23.0307441,2.22784226 22.7594251,1.41955072 C26.1706448,0.450589603 30.1368352,0.111947581 33.1879406,0.378906256 C32.3394521,1.03394374 30.9088611,3.61454426 30.600544,4.34868062 M15.0712314,8.93147119 C14.6913848,8.2887929 12.8834136,6.63760406 11.9041987,6.31132124 C14.1832783,4.61811113 19.4764652,2.19076467 21.4842258,1.7680801 C21.8320074,2.34401872 22.7594251,4.81091462 23.0677421,5.84908724 C21.291836,6.23469421 16.5782851,7.93037616 15.0712314,8.93147119 M64.6313457,14.5549062 C64.1281723,13.9764958 63.432609,12.7455197 58.4502056,8.39261016 C51.1245928,1.9930175 41.4163058,-0.92869688 32.2999876,-0.92869688 C25.5786761,-0.92869688 19.695987,0.581597101 13.179398,4.18059552 C4.87457021,8.75844242 1.43621858,14.0234607 0.587730085,15.0937673 C-0.0387701401,15.8822841 -0.127565448,16.3420462 0.276946509,16.576871 C0.567997795,16.7449561 1.125435,16.1319399 1.6483407,15.4398248 C4.11734356,12.1720529 7.3657719,8.93147119 10.7843912,7.02568288 C11.8474684,7.17893693 13.3347898,8.66204068 13.9119593,9.4505575 C11.7241416,10.6469279 8.10079972,13.4104445 6.72940553,14.4782792 C5.54300155,15.3978035 5.13355653,15.914418 5.45420625,16.2876658 C5.71812563,16.5991176 6.625811,15.9861013 7.38550419,15.3631978 C8.69770151,14.2854757 12.599762,11.5120717 14.5310599,10.4714272 C15.8457238,12.0138551 15.419013,14.8614143 14.9553042,15.4793742 C14.706184,15.8106007 14.6716525,16.1640738 14.9553042,16.3272152 C15.2266232,16.4804693 15.520141,16.0899186 15.9024541,15.5362265 C16.7978068,14.2409826 16.440159,11.1017463 15.6705997,9.97211565 C18.0261419,8.50631478 21.4077632,7.52499447 23.4549883,7.06276047 C23.6276459,7.39151513 26.1089814,14.6587235 26.5825564,15.9786858 C26.8415427,16.7029348 27.0980625,17.5680787 27.6259012,17.4049373 C27.9761494,17.2961763 27.744295,16.5051877 27.4507772,15.7092553 C27.0906629,14.7254632 25.2111622,8.62249124 24.6315261,6.81310467 C25.3098236,6.44727242 29.3870082,5.61673432 30.4081542,5.65628375 C29.9049808,8.31598314 31.7820149,9.40606439 33.9032362,10.8001819 C35.0304433,11.5417338 42.1981978,15.667234 43.6953854,16.5966457 C44.5488069,17.1256194 45.2123052,17.4667332 45.3948289,17.2121338 C45.6044845,16.9278722 45.0223819,16.3272152 44.2355568,15.8649812 C43.6065901,15.4966771 36.9395424,11.6183608 34.1523563,9.85593919 C32.159395,8.59282917 31.0864517,7.24073292 31.5649597,5.46348026 C32.2235249,5.27314862 34.2312855,5.25584574 36.3179752,5.27314862 C50.5326241,5.38685324 61.9280219,13.5538112 63.2032211,14.8614143 C63.8469871,15.5263392 64.7472729,16.0948623 65.0950545,15.8254318 C65.3145762,15.6548748 64.9347296,14.9034356 64.6313457,14.5549062" id="Fill-66" fill="#2D2925" mask="url(#mask-8)"></path>
                    </g>
                    <g id="Group-71" transform="translate(0.000000, 54.380471)">
                        <mask id="mask-10" fill="white">
                            <use xlink:href="#path-9"></use>
                        </mask>
                        <g id="Clip-70"></g>
                        <path d="M69.999615,8.9421001 C70.5249872,7.97313899 70.951698,7.42191876 70.5027884,7.17226296 C70.0908768,6.94238188 69.6888314,7.84213149 69.1881245,8.71221902 C67.5281456,11.5993276 65.7152414,13.9846528 61.6183246,17.727018 C57.0798977,21.8673492 51.8631734,24.2724492 50.0502692,24.890409 C48.5037509,20.5374996 42.6136622,1.99870273 42.4582704,1.46972906 C42.226416,0.681212236 42.0290931,0.451331155 41.7627072,0.547732899 C41.4642563,0.654022 41.64678,1.08412209 41.8021718,1.77870901 C41.955097,2.47082409 48.9674598,24.4084003 49.1993142,25.1771424 C47.8081877,25.8742012 42.157353,27.4537067 38.2084283,27.5847142 C34.6960806,27.7008906 30.5621657,27.5847142 28.475476,27.1051773 C26.0311385,25.1252338 20.4690991,17.2548966 18.357744,13.0651285 C15.8690089,8.12639304 14.2213626,3.5831519 13.7971184,1.66006071 C13.5923958,0.738064546 13.330943,0.0731397 12.8697007,0.159654085 C12.3714604,0.256055829 12.6575786,0.985248504 12.9486299,1.97398433 C13.6959904,4.51009174 14.9169259,8.10661832 17.506789,13.2381573 C20.2520439,18.6712607 25.1530516,25.0436631 26.5811761,26.7764226 C22.1044127,25.8346518 16.660767,23.7335881 11.4884404,19.8701029 C7.03387577,16.540535 3.2058114,12.3013301 1.28191307,9.21400245 C0.951397203,8.68255695 0.564151,7.93111771 0.0856429538,8.24998502 C-0.131412242,8.39335171 0.13497368,8.99400873 0.47042262,9.59960943 C3.26500827,14.629803 10.0825147,21.7536446 18.8189863,25.661623 C29.0008482,30.2147515 40.1027282,29.9725112 50.0305369,26.1213852 C58.7127448,22.7522678 66.2677455,15.8212296 69.999615,8.9421001" id="Fill-69" fill="#2D2925" mask="url(#mask-10)"></path>
                    </g>
                </g>
                <rect id="Rectangle" x="0" y="0" width="150" height="150"></rect>
            </g>
        </g>
    </g>
</svg>