<svg width="150px" height="150px" viewBox="0 0 150 150" version="1.1" xmlns="http://www.w3.org/2000/svg" xmlns:xlink="http://www.w3.org/1999/xlink">
    <g id="Page-1" stroke="none" stroke-width="1" fill="none" fill-rule="evenodd">
        <g id="MEM">
            <g id="Page-1">
                <path d="M121.442955,48.8577515 L121.442955,48.8549131 C121.201195,48.4887616 120.959435,48.136802 120.717675,47.7876808 C125.618291,38.9262465 121.613609,31.0639232 115.640717,27.4166 C109.591032,23.7238626 100.711333,23.7948222 95.6969484,30.9447111 C86.0009545,29.4432061 77.792495,32.4575697 75.4090269,33.4623576 C72.8207739,32.3667414 64.8170993,29.494297 55.2775383,30.9191657 C49.3416219,23.335004 40.678085,23.911196 34.9867727,27.7799131 C29.084987,31.7877111 25.6918158,39.7891152 30.2198364,47.6145394 C29.935413,48.0175899 29.6538338,48.4319939 29.3750989,48.8577515 C15.3444923,70.1598222 25.5638253,84.6412566 26.0046815,85.2458323 L26.983098,86.5883879 L28.5588037,85.0187616 C30.1373536,89.6708727 34.8701591,100.011105 47.2624868,107.476055 L49.0287561,108.540448 L49.4781451,106.071055 C53.8298232,110.175358 57.9994703,112.409166 62.0525038,114.577691 C66.4440012,116.930711 70.5908944,119.153166 74.5699779,123.640651 L75.6450983,124.855479 L76.7088419,123.629297 C80.1190785,119.68962 84.2887256,117.549479 88.7086653,115.28161 C93.1570474,113.002388 97.7334199,110.655044 101.959952,106.352055 L101.959952,108.815772 L104.004956,107.819499 C115.942206,102.020681 120.214246,91.6123273 121.704624,85.8674384 L122.318979,86.9971152 L123.658613,85.3338222 C123.778071,85.1833879 135.493471,70.202398 121.442955,48.8577515" id="Fill-1" fill="#FEFEFE"></path>
                <path d="M120.25435,49.636604 C119.847624,49.0206747 119.440899,48.4359677 119.028485,47.8654525 C129.262039,31.127503 105.12018,18.2951697 96.3770047,32.5012808 C85.6172673,30.5229273 76.620955,34.4484121 75.4121556,35.0132505 C74.1976676,34.4540889 65.3151247,30.5740182 54.6549355,32.4587051 C44.0971387,17.6423414 22.3216829,32.9639374 31.923817,47.6724424 C31.4630511,48.3025636 31.0108179,48.9553919 30.5642731,49.636604 C16.9119497,70.3653212 27.1568807,84.4124828 27.1568807,84.4124828 L29.2587697,82.3177556 C29.2587697,82.3177556 32.2423712,96.7679677 47.9994278,106.262362 L48.5682746,103.148655 C58.2728012,113.491725 67.263425,113.256139 75.6340058,122.699442 C83.3788551,113.750018 94.6221123,113.750018 103.382353,102.578139 L103.382353,106.5462 C119.568889,98.6810384 121.056424,81.6819576 121.056424,81.6819576 L122.552491,84.4437051 C122.552491,84.4437051 133.900984,70.3653212 120.25435,49.636604" id="Fill-3" fill="#00275D"></path>
                <path d="M85.9332617,64.318996 C86.689828,64.0408343 88.026618,64.8412586 88.743365,66.2320667 C92.0284553,65.2840465 91.8492685,60.8646828 91.8322031,60.555299 C89.2268847,61.5657636 87.079488,63.3085313 85.9332617,64.318996" id="Fill-5" fill="#FDB826"></path>
                <path d="M87.8636434,66.9303091 C95.8161218,88.2919859 85.6849601,102.015572 85.6849601,102.015572 C91.9252096,85.7147333 87.9148396,72.1557737 85.1843749,67.1204808 C83.7821675,67.2595616 82.098381,67.1772485 82.098381,67.1772485 C82.098381,67.1772485 84.2031142,65.8772687 85.5711907,64.6397333 C85.6792716,64.5432283 85.8015737,64.4325313 85.9409412,64.3133192 C85.9380969,64.3133192 85.9352527,64.3161576 85.9324085,64.318996 C86.6889747,64.0436727 88.0257647,64.8412586 88.7425117,66.2292283 C92.0219135,65.2868848 91.8484153,60.8845515 91.8313499,60.5581374 C92.7870125,60.1863091 93.8052483,59.9138242 94.8547707,59.8116424 C94.8547707,59.8116424 94.1010486,66.833804 87.8636434,66.9303091 M91.8313499,60.555299 L91.8313499,60.5581374 C91.7972191,60.5723293 91.7630882,60.5865212 91.7261132,60.6007131 C91.7630882,60.5865212 91.7943748,60.5694909 91.8313499,60.555299 M38.8062946,46.1760465 C38.5190269,43.4852586 41.9292635,40.8171778 41.9292635,40.8171778 C40.5242119,39.3667636 38.0667937,40.6241677 38.0667937,40.6241677 C40.2966732,36.2757636 45.2854597,38.4017131 45.2854597,38.4017131 C43.3940441,36.0912687 39.3893625,36.2360263 39.3893625,36.2360263 C44.3440182,31.3369758 50.3254424,38.8274707 50.3254424,38.8274707 C45.0010363,40.0281071 38.8062946,46.1760465 38.8062946,46.1760465 M100.412404,39.3639253 C100.412404,39.3639253 103.646298,31.2972384 113.55561,33.2415313 C113.55561,33.2415313 104.459749,27.2695717 98.128484,38.0724606 C98.128484,38.0724606 89.1463929,33.8177232 75.6049946,39.6619556 C75.6049946,39.6619556 62.7718106,35.1971778 53.0985706,37.7261778 C53.0985706,37.7261778 47.4556103,27.9536222 39.5116646,31.9812889 C31.5677189,36.0004404 35.7146121,45.307501 37.0969099,47.7201273 C37.0969099,47.7201273 23.9309505,61.1059455 28.882762,77.6537232 L31.5307439,74.3555212 C31.5307439,74.3555212 35.3107309,92.3764202 45.0692979,98.0560263 L45.6523659,93.6281475 C45.6523659,93.6281475 55.8404123,105.892804 67.8203261,111.101238 C68.9580197,111.634855 75.3120385,114.782622 75.5082907,116.335218 L75.5082907,107.751945 C75.5082907,107.751945 67.1917503,108.441673 64.9960016,104.615531 C63.5084672,102.015572 53.9546851,85.0051374 58.6732694,67.1914404 C58.6732694,67.1914404 54.0798314,66.5045515 53.2151842,58.7699556 C53.2151842,58.7699556 49.785038,57.1038242 45.5272196,57.4472687 C45.5272196,57.4472687 53.1469226,55.0630263 60.2859501,57.8219354 C67.4221333,60.5780061 69.3334586,67.6001677 74.1743449,64.4978141 L75.6049946,44.7171172 L76.9645385,64.4978141 C81.8025806,67.6001677 83.7167501,60.5780061 90.8500891,57.8219354 C97.9919608,55.0630263 105.611664,57.4472687 105.611664,57.4472687 C105.611664,57.4472687 102.565489,55.3042889 97.6677181,54.3278848 C93.5805538,53.5075919 87.5735315,56.133097 87.5735315,56.133097 C87.5735315,56.133097 88.4012036,50.5216121 91.1288241,47.5299556 C93.4696287,44.9555414 98.7769694,44.3878646 100.412404,39.3639253 M75.5395773,85.6522889 C76.4468879,85.5160465 90.8188025,84.9937838 82.0130539,93.9091475 C88.1537552,85.7942081 77.0100463,85.734602 75.5395773,85.6522889" id="Fill-7" fill="#6089B8"></path>
                <path d="M59.6644849,60.5465 C59.6445753,60.8729141 59.4767655,65.286601 62.7533231,66.2289444 C63.4586931,64.8636818 64.7186888,64.0717727 65.486632,64.3073586 C63.7317396,62.9477727 61.5331467,61.4320758 59.6644849,60.5465" id="Fill-9" fill="#FDB826"></path>
                <path d="M75.5102816,96.4370121 L75.5102816,100.495901 L72.7428419,100.640659 C69.8417232,100.731487 66.0446707,101.906578 66.0446707,101.906578 C59.0080357,84.5158 62.9103248,71.3542141 64.7903635,66.6595273 C57.8134574,68.1695475 56.6871407,59.8133455 56.6871407,59.8133455 C57.4067319,59.6657495 58.4676312,59.9779717 59.6650538,60.5456485 C59.6451441,60.874901 59.4744901,65.2829111 62.7538919,66.2280929 C63.4564178,64.8685071 64.7164134,64.076598 65.4815124,64.3093455 C66.0020072,64.7067192 66.485527,65.1012545 66.9064737,65.4560525 C71.650656,69.4383051 75.3339391,68.6265273 75.3339391,68.6265273 C75.3339391,68.6265273 75.3851353,83.7891737 75.3851353,85.6483152 C75.3851353,85.6483152 61.6617061,84.5782444 69.036805,93.9080121 C69.036805,93.9080121 70.2171621,90.4962747 71.4771578,91.5720222 C73.2235175,93.0678505 75.5102816,96.1134364 75.5102816,96.4370121 M59.6735865,60.5513253 C59.667898,60.5484869 59.6650538,60.5484869 59.6650538,60.5484869 C59.6650538,60.5484869 59.667898,60.5484869 59.6735865,60.5513253 M75.5131259,105.701497 C65.4815124,105.701497 66.8325236,103.493234 66.8325236,103.493234 C67.9133325,102.823376 74.9385906,102.684295 75.4989047,102.684295 C76.0535303,102.684295 83.1072308,102.823376 84.1851955,103.493234 C84.1851955,103.493234 85.5390509,105.701497 75.5131259,105.701497" id="Fill-11" fill="#BDD3E8"></path>
                <rect id="Rectangle" x="0" y="0" width="150" height="150"></rect>
            </g>
        </g>
    </g>
</svg>