<svg width="150px" height="150px" viewBox="0 0 150 150" version="1.1" xmlns="http://www.w3.org/2000/svg" xmlns:xlink="http://www.w3.org/1999/xlink">
    <g id="Page-1" stroke="none" stroke-width="1" fill="none" fill-rule="evenodd">
        <g id="MIA">
            <g id="Page-1">
                <g id="Group-3" transform="translate(25.000000, 22.173736)" fill="#FEFEFE">
                    <path d="M15.6158824,42.6681961 C15.5894118,42.6534604 15.56,42.6387247 15.5305882,42.6239891 C13.7305882,41.6337517 13.2158824,40.8645494 13.1776471,40.7171927 C13.3158824,39.1257398 21.8658824,34.8111341 40.2394118,33.6705928 C39.1658824,35.1441603 38.2688235,37.0450624 37.9364706,39.4528718 L37.7364706,40.9028622 C37.6276471,41.6514345 37.4864706,42.5178922 37.1805882,43.3224601 C36.6894118,44.6074109 35.2717647,45.9513045 33.0688235,47.2215197 C25.3658824,46.2165467 19.1805882,44.6015167 15.6158824,42.6681961 M75.1658824,37.3957715 C75.7011765,37.2012606 76.0688235,36.7179305 76.1247059,36.1668162 C81.2276471,37.42819 84.9747059,39.0196429 86.3658824,40.5551003 C86.6070588,40.8232896 86.6688235,40.9794877 86.6805882,40.9824348 C86.6188235,41.1975757 86.0482353,41.9933022 84.1658824,42.9805924 C81.31,44.4865784 76.9217647,45.7567936 71.4747059,46.682194 C72.3541176,45.5858598 72.9658824,44.1034508 73.0335294,42.0168792 C73.0894118,40.13366 73.2188235,39.5589686 73.2864706,39.3998233 C73.6805882,38.6158854 74.6452941,37.5843882 75.1658824,37.3957715 M97.1541176,33.4171392 C93.5570588,29.4414541 86.0982353,26.1082443 76.0305882,23.9568358 C76.1894118,23.8418975 76.3776471,23.7092764 76.5982353,23.5560254 C77.2894118,23.0785895 78.1482353,22.4803211 79.0070588,21.6639647 C82.5158824,18.3248607 80.2570588,13.5563962 78.3688235,11.2694194 L76.1747059,8.58752655 C75.7541176,8.07472506 75.0423529,7.90379123 74.4394118,8.17492765 C73.8335294,8.44606407 73.4835294,9.08853951 73.5835294,9.74575062 L74.11,13.1762158 C74.2717647,14.2312901 74.2335294,14.6998846 73.1805882,15.5869723 C73.1217647,14.729356 72.9952941,13.8098498 72.7511765,12.8019297 C72.1247059,10.2025566 70.8011765,9.05612102 70.6541176,8.93234135 C70.2276471,8.59047369 69.6541176,8.4991125 69.1511765,8.71425336 C68.9776471,8.7849846 68.8217647,8.89108146 68.6894118,9.01780827 L68.6364706,8.71425336 C68.1982353,6.16203442 68.7982353,4.74740961 68.8011765,4.66488982 C68.9482353,4.57647577 69.0805882,4.46448464 69.1864706,4.33186357 C69.6923529,3.71296521 70.6982353,2.69325649 70.7041176,2.68441508 C71.0423529,2.33665315 71.1923529,1.84742873 71.1011765,1.37588713 C71.01,0.901398387 70.6952941,0.500588022 70.2541176,0.303129975 C69.9688235,0.179350303 69.1129412,-0.0888389846 67.3070588,0.141037548 C63.9041176,0.612579153 60.5188235,2.6018953 60.6276471,5.98225918 C60.6717647,7.43519676 61.1276471,8.7761432 61.4982353,9.86363602 C61.6482353,10.3116005 61.86,10.9363932 61.9305882,11.3165736 C61.7423529,11.3990934 61.4041176,11.5140316 60.8335294,11.6171814 C55.5688235,12.5750003 51.5070588,15.0948007 49.3923529,18.7050411 C48.8923529,19.5597103 48.5070588,20.4644807 48.2394118,21.407564 C36.5335294,21.5342908 25.4129412,23.0609067 16.8041176,25.731011 C6.31294118,28.981701 0.515882353,33.5939673 0.0335294118,39.0579557 C-0.222352941,41.9137295 0.907058824,46.0986613 7.65117647,49.9741438 C7.77176471,50.1008706 7.91294118,50.2069675 8.07764706,50.283593 L10.8305882,51.6009624 C10.9041176,51.6392751 10.9835294,51.6687465 11.0629412,51.6893764 C13.1658824,52.617724 15.5217647,53.4606046 18.1011765,54.212124 C17.7070588,54.5186261 17.3305882,54.8280752 16.9717647,55.1463658 C10.4805882,60.4895216 6.75705882,68.3848964 6.75705882,76.8078083 C6.75705882,84.3053198 9.66882353,91.3548668 14.9570588,96.6508685 C20.2452941,101.949817 27.2776471,104.867481 34.7570588,104.867481 C47.9864706,104.867481 59.5217647,95.4602259 62.1394118,82.6637656 C64.3688235,75.9855576 64.11,68.900645 64.0129412,66.2393821 C63.8364706,61.2705124 66.1041176,58.4265271 67.6747059,57.0590565 C76.0394118,55.9656694 83.3276471,54.1207628 88.7952941,51.7100064 C88.8747059,51.6893764 88.9541176,51.6599051 89.0276471,51.6215923 L89.8923529,51.2089934 C89.9041176,51.2030991 89.9158824,51.200152 89.9276471,51.1942577 L91.8394118,50.2806459 C91.9952941,50.2069675 92.1335294,50.0979235 92.2482353,49.9741438 C96.8952941,47.2775153 99.51,44.0091425 99.8217647,40.504999 C100.042353,38.0058285 99.1452941,35.6215962 97.1541176,33.4171392" id="Fill-1"></path>
                </g>
                <path d="M36.7120588,62.760665 C37.0091176,59.3685125 49.2091176,54.8888673 68.9267647,54.1903963 C67.0973529,55.5637612 64.9267647,57.9656763 64.3914706,61.8293703 L64.1914706,63.2911493 C64.0591176,64.1929726 63.9002941,65.1124787 63.5532353,66.0231434 C62.7944118,68.0183539 60.6532353,69.6628552 58.3620588,70.9183347 C50.4238235,69.9163088 43.7885294,68.2423361 39.915,66.1380817 L39.9091176,66.1380817 C37.7885294,64.9857519 36.6238235,63.7567966 36.7120588,62.760665 M112.456176,61.7409562 C113.209118,62.5720483 113.159118,63.1084269 113.144412,63.2882021 C113.062059,64.246021 111.862059,65.4012979 109.856176,66.4593194 L109.850294,66.4593194 C105.632647,68.6814592 98.3855882,70.3613262 89.7561765,71.2454667 C90.1326471,71.0008545 90.5473529,70.7857136 90.9944118,70.6029913 L91.1355882,70.5469957 C93.615,69.5361284 96.4267647,68.39264 96.5591176,64.2843338 C96.5797059,63.6330169 96.615,61.626018 96.9738235,60.9098642 C97.4355882,59.990358 98.6208824,58.5639447 99.665,58.1867114 C99.6797059,58.17787 97.9208824,57.8360023 97.9208824,57.8360023 C97.8267647,57.8271609 97.7385294,57.8212666 97.6473529,57.8212666 C98.2385294,57.3909849 98.6591176,56.8781834 98.9679412,56.3388577 C105.976765,57.8006367 110.691471,59.7929 112.456176,61.7409562 M121.065,56.5805228 C117.359118,52.4869522 109.188529,49.165531 98.6620588,47.1555849 C98.7091176,45.9443124 99.4444118,45.431511 100.756176,44.5237934 C101.441471,44.0493046 102.215,43.5099789 102.994412,42.770248 C106.391471,39.5372409 102.403235,34.586054 102.232647,34.3768074 L100.038529,31.6949146 L100.565,35.1253797 C100.923824,37.4742464 100.065,38.3053384 97.5179412,40.0883551 C97.1914706,40.3123374 96.915,40.5628439 96.6708824,40.828086 C96.7767647,39.2602102 96.8502941,37.5125591 96.3238235,35.3228378 C95.7944118,33.1301693 94.7208824,32.2430817 94.7208824,32.2430817 L94.4414706,35.4230404 C94.4385294,35.4407232 94.1944118,37.9045281 90.9120588,40.8840816 C91.1944118,40.565791 91.4591176,40.2357119 91.6944118,39.8908971 C93.3032353,37.5449776 92.8385294,34.8748733 92.3002941,31.7862757 L92.1885294,31.1349589 C91.6355882,27.9137403 92.4944118,25.9037942 93.0473529,25.5737151 C93.5855882,24.916504 94.6561765,23.8231169 94.6561765,23.8231169 C94.6561765,23.8231169 94.0885294,23.5696633 92.5091176,23.7759627 C90.4561765,24.0588877 87.0061765,25.2907901 87.0973529,28.1053041 C87.1355882,29.3431008 87.5355882,30.5190077 87.8855882,31.5563992 C88.2620588,32.664522 88.6179412,33.7166492 88.3032353,34.2559749 C88.0502941,34.6833095 87.2885294,35.02223 86.0973529,35.240318 C81.2591176,36.1215114 77.5532353,38.3908054 75.6620588,41.6267596 C75.0355882,42.6965696 74.6179412,43.8430052 74.4091176,45.0454363 C62.4091176,45.0808019 51.0473529,46.5808936 42.2385294,49.3128878 C32.365,52.3749611 26.9238235,56.54221 26.4973529,61.3637229 C26.2708824,63.9012062 27.415,67.5615479 33.7532353,71.0804272 L33.7091176,71.1275813 L35.5091176,71.9881447 C35.5120588,71.9910919 35.515,71.9910919 35.515,71.9910919 L36.4620588,72.4478978 L36.4767647,72.4331621 C39.3973529,73.7416901 42.8238235,74.8733899 46.6414706,75.8046846 C45.2826471,76.5738869 44.0297059,77.4580274 42.9061765,78.4600533 C36.765,83.5114427 33.2267647,91.0001128 33.2267647,98.9809545 C33.2267647,106.08355 35.9855882,112.761758 40.9973529,117.783676 C46.0091176,122.805594 52.6708824,125.570007 59.7591176,125.570007 C72.3032353,125.570007 83.2208824,116.660818 85.7444118,104.371264 C87.8855882,97.9494573 87.6385294,91.0620027 87.5444118,88.4655767 C87.3326471,82.5624652 90.2238235,79.2970396 92.0620588,77.8264192 C100.444412,76.7625035 107.862059,74.9234912 113.385588,72.4567392 L113.394412,72.4655806 L114.288529,72.0411932 C114.288529,72.0411932 114.291471,72.038246 114.294412,72.0352989 L116.206176,71.1246342 L116.153235,71.0745329 C120.597353,68.5871509 123.079706,65.663593 123.356176,62.5484712 C123.538529,60.4736882 122.767941,58.4666892 121.065,56.5805228" id="Fill-4" fill="#2D2925"></path>
                <path d="M34.2497059,100.862406 C34.9438235,104.360655 36.9408824,108.551481 40.9085294,111.348312 C42.1085294,112.191193 43.4144118,112.874928 44.7997059,113.402465 C43.9408824,111.937739 42.9438235,110.461224 41.9291176,108.958185 C40.0291176,106.15546 38.0673529,103.252532 36.8232353,100.134463 C35.535,96.9073503 35.1820588,93.5328807 35.7438235,90.1407283 C34.7320588,92.8962995 34.1732353,95.8729059 34.1732353,98.9821334 C34.1732353,99.6157674 34.2026471,100.243507 34.2497059,100.862406" id="Fill-6" fill="#8B2231"></path>
                <path d="M38.5244118,99.4498437 C39.6979412,102.388137 41.6038235,105.202651 43.445,107.928751 C44.8714706,110.033006 46.2626471,112.093053 47.3214706,114.17373 C48.4861765,114.447814 49.695,114.621695 50.9273529,114.695373 C49.6538235,112.876991 48.5479412,110.808102 47.6008824,108.441553 C43.9185294,99.2700685 44.4508824,87.93244 49.0155882,81.3721174 C51.3773529,77.9888064 54.1979412,75.6870939 57.8302941,73.703672 C60.9538235,71.9913866 62.9097059,71.4815322 64.8979412,70.2938368 C67.0597059,69.0029917 68.2155882,66.8427417 66.795,61.9976517 C66.3773529,60.5830269 66.3038235,59.4660627 66.3891176,58.5966579 C65.895,59.5544767 65.5097059,60.6655467 65.3302941,61.9593389 L65.3420588,61.9475504 C65.1185294,63.3179682 65.0244118,64.8239542 64.4420588,66.3594115 C62.5302941,71.3754354 53.2744118,74.160478 52.0538235,74.531817 C48.5420588,75.5927856 45.7273529,77.2137099 43.5361765,79.1706075 C37.1979412,84.8202654 36.0655882,93.2962257 38.5244118,99.4498437" id="Fill-8" fill="#8B2231"></path>
                <path d="M77.1308824,54.1208439 C77.225,54.4302931 77.3014706,54.7367951 77.3397059,55.0374029 C77.5808824,56.7909482 77.0514706,58.205573 74.9073529,58.5503878 C72.6985294,58.9069912 71.9455882,56.982512 71.775,55.411689 C71.7573529,54.8664691 71.7985294,54.4302931 71.8426471,54.1149496 C71.4720588,54.1208439 71.1044118,54.1267382 70.7367647,54.1385267 C70.0279412,54.5422842 69.1073529,55.1729711 68.2220588,56.0777415 C67.7808824,57.026719 67.2485294,58.3381941 68.0661765,61.4150031 C69.5073529,66.8406787 68.8955882,70.1149457 64.5485294,71.9893236 C59.0044118,74.3794501 55.4632353,75.7822864 50.7102941,81.7708648 C48.4485294,84.6207444 47.2132353,89.3420547 47.0102941,94.0957835 C46.8132353,98.7080498 47.7602941,103.63566 49.3808824,107.673235 C50.4661765,110.375757 51.7338235,112.724624 53.2220588,114.719834 C54.7073529,114.663839 56.2102941,114.472275 57.7132353,114.142196 C56.0632353,112.202981 55.1132353,109.845273 54.9426471,107.198746 C54.375,98.4015478 59.1044118,94.6999462 66.3808824,88.8557774 L69.6367647,86.1178889 C82.6308824,75.0602383 78.8397059,63.813971 80.2691176,54.2122051 C79.2426471,54.1709452 78.1955882,54.1414738 77.1308824,54.1208439" id="Fill-10" fill="#8B2231"></path>
                <path d="M82.3367647,54.305924 C81.9397059,56.2245089 81.7602941,58.2256136 81.6338235,60.2974495 C81.1191176,68.6614187 81.3691176,78.1305636 70.8044118,87.5348715 L67.6073529,90.1254032 C60.5367647,95.8074795 56.4926471,99.3558301 56.7720588,107.083218 C56.8632353,109.63249 57.9367647,111.863471 59.7279412,113.617017 C61.7044118,113.021695 63.6602941,112.190603 65.5397059,111.117846 C74.7308824,105.892576 80.5132353,98.0797206 82.7220588,88.0565144 C84.1220588,81.7201741 84.0926471,76.5656349 84.0691176,72.421963 C84.0573529,70.32655 84.3279412,66.2182438 84.3279412,66.2182438 C84.6220588,63.6247649 85.0397059,59.9880003 88.0426471,55.222483 C88.1397059,55.0692319 88.2455882,54.9130338 88.3455882,54.7568356 C86.4308824,54.568219 84.4279412,54.4179151 82.3367647,54.305924" id="Fill-12" fill="#8B2231"></path>
                <path d="M85.4297059,81.1944052 L85.4297059,81.1619867 C85.4297059,81.1767224 85.4267647,81.1944052 85.4267647,81.2091408 C85.1385294,82.7092326 85.065,84.3949938 84.8826471,86.0748608 C84.7944118,86.7173362 84.7091176,87.3391817 84.615,87.9433444 C84.5826471,88.1142782 84.5502941,88.2852121 84.5120588,88.4531987 C82.1914706,99.0068893 76.1855882,107.223502 66.5267647,112.716961 C64.8679412,113.660045 63.1826471,114.435141 61.4914706,115.036357 C64.3238235,116.919576 67.6267647,117.500162 69.8973529,117.158294 C78.5708824,115.852713 82.7973529,110.182425 84.8326471,104.117221 C86.9208824,97.8928723 86.6973529,91.2500299 86.5973529,88.5003529 C86.2679412,79.314133 93.3591176,75.9249277 93.3591176,75.9249277 C87.8444118,75.6243199 86.0355882,78.0321293 85.4297059,81.1944052" id="Fill-14" fill="#8B2231"></path>
                <path d="M79.6379412,115.078501 C76.0908824,118.049213 72.2673529,118.70053 70.5291176,118.968719 C67.1144118,119.493309 63.0702941,118.6799 59.4938235,115.853597 C59.435,115.806443 59.3791176,115.756342 59.3232353,115.709188 C57.7908824,116.118839 56.2555882,116.392923 54.7261765,116.51965 C58.2261765,120.286088 62.835,122.425708 69.0144118,122.847149 C69.0408824,122.847149 69.0702941,122.850096 69.0938235,122.850096 L69.0997059,122.850096 C73.3055882,121.196753 76.9702941,118.461812 79.7497059,114.981245 C79.7114706,115.016611 79.6761765,115.046082 79.6379412,115.078501" id="Fill-16" fill="#8B2231"></path>
                <path d="M47.36,121.405116 C47.4276471,119.468848 46.8835294,117.564999 45.9952941,115.661149 C43.8747059,115.048145 41.7952941,114.134533 39.7952941,112.917367 C38.6688235,112.230684 37.6541176,111.181504 36.7570588,110.206002 C36.7541176,110.200108 36.7482353,110.200108 36.7452941,110.194214 C39.0511765,114.936154 42.7717647,118.858791 47.36,121.408063 L47.36,121.405116 Z" id="Fill-18" fill="#8B2231"></path>
                <path d="M65.0476471,124.044864 C61.5888235,123.243244 58.63,122.014288 56.0329412,120.042655 C54.7064706,119.031788 53.4976471,117.894194 52.3976471,116.603348 C50.9976471,116.585666 49.6064706,116.450097 48.23,116.19075 C48.9947059,118.168277 49.38,120.184118 49.1329412,122.30016 L49.1329412,122.303108 C52.3711765,123.785517 55.9652941,124.619556 59.7594118,124.619556 C61.5858824,124.619556 63.3682353,124.425045 65.0858824,124.0596 C65.0711765,124.056653 65.0594118,124.047812 65.0476471,124.044864" id="Fill-20" fill="#8B2231"></path>
                <path d="M94.7720588,61.0819768 C94.175,63.0801344 92.2132353,62.8443636 91.6455882,61.7657122 C90.7426471,60.0622681 91.0838235,58.7448988 92.025,57.8460226 C92.9632353,56.9471464 94.5014706,56.4667634 95.9926471,55.7918695 C96.0014706,55.7859752 96.0073529,55.783028 96.0132353,55.7800809 C94.2897059,55.4853674 92.4544118,55.2201253 90.5132353,54.9902487 C90.4867647,55.0226672 90.4602941,55.0521386 90.4338235,55.0816099 C90.2602941,55.279068 90.0897059,55.4735789 89.9220588,55.6769312 C86.8367647,60.3275103 86.4514706,63.7727111 86.1485294,66.4221855 L86.0544118,67.2385419 C85.8838235,68.6295897 85.8926471,70.383135 85.9014706,72.4107639 C85.9044118,72.6877946 85.9073529,72.9766138 85.9073529,73.2713273 C85.8838235,73.9786397 85.8573529,74.6771107 85.825,75.3578989 C85.8426471,75.3637932 85.8544118,75.3667403 85.8691176,75.3696875 C85.8926471,75.0867625 85.9044118,74.9777185 85.9014706,75.1221281 C86.775,72.3370855 88.3779412,70.6424829 90.6367647,69.7229768 C93.0838235,68.7297922 95.4985294,67.8132333 95.6102941,64.2530941 C95.6602941,62.7677381 95.7691176,61.2794349 96.1073529,60.5220212 C96.725,59.1457091 97.8308824,58.7802644 97.8308824,58.7802644 C96.6426471,58.6653261 95.3455882,59.1633919 94.7720588,61.0819768" id="Fill-22" fill="#8B2231"></path>
                <path d="M97.7332353,46.9814093 C97.9126471,44.6001242 100.162647,44.1551068 102.339118,42.0803237 C105.136176,39.4220079 101.500882,34.9806754 101.500882,34.9806754 C101.959706,37.9661232 100.580294,39.1066645 98.0567647,40.8661041 C97.2567647,41.4260597 96.6744118,42.2099976 96.595,43.1972879 C96.5067647,44.3054107 96.4332353,45.5019475 96.1920588,46.71322 C96.7126471,46.7986869 97.2244118,46.8900481 97.7332353,46.9814093" id="Fill-24" fill="#F9A11A"></path>
                <path d="M90.0344118,42.8315484 C89.3608824,43.3325614 88.7314706,43.84831 88.1432353,44.3758472 C87.7255882,44.7766575 87.3167647,45.1774679 86.9402941,45.5605955 C89.3961765,45.7727892 91.7844118,46.0498199 94.0873529,46.3857933 C95.5579412,43.7039004 96.2608824,40.6595099 95.3873529,35.4784465 C95.3873529,35.4784465 95.1844118,38.9884843 90.0344118,42.8315484" id="Fill-26" fill="#F9A11A"></path>
                <path d="M76.3061765,45.0504464 C79.115,45.0769706 81.8708824,45.1919089 84.5591176,45.3746312 C84.6502941,45.2862172 84.7326471,45.194856 84.8267647,45.106442 C86.6326471,43.1672271 89.4208824,41.52862 90.915,39.3536344 C92.4061765,37.1757016 91.8061765,34.5173858 91.2532353,31.2961672 C90.3032353,25.7437648 92.6385294,24.7152147 92.6385294,24.7152147 C92.6385294,24.7152147 87.9561765,25.3606372 88.0444118,28.0749486 C88.165,31.7176075 91.9120588,35.1451255 86.2679412,36.1736757 C80.0738235,37.3024284 76.2238235,40.6592152 75.3767647,45.0474993 C75.6855882,45.0504464 75.9944118,45.0474993 76.3061765,45.0504464" id="Fill-28" fill="#F9A11A"></path>
                <path d="M76.29,46.5048575 C50.3429412,46.2484568 28.6958824,52.9590833 27.9429412,61.4939863 C27.6429412,64.892033 30.7047059,68.0690446 36.1370588,70.6772591 C39.4958824,72.2893419 43.7576471,73.6803897 48.69,74.7767239 C49.6752941,74.3376008 50.7076471,73.9456318 51.7958824,73.6155527 C52.6547059,73.3562048 54.24,72.8345619 55.9870588,72.0742011 C48.7223529,71.0102853 42.84,69.3775725 39.2223529,67.4177277 C36.5517647,65.9677373 35.1135294,64.3409188 35.2664706,62.6315804 C35.7723529,56.9023499 53.9370588,52.4315461 75.8429412,52.6466869 C97.7458824,52.8647749 115.095882,57.6833407 114.59,63.4155184 C114.451765,64.9745528 113.004706,66.442226 110.528235,67.7478069 C105.951765,70.1556162 97.8694118,72.0093641 88.0517647,72.8728747 C87.7135294,73.338522 87.4135294,73.8542706 87.1694118,74.4407505 C91.6341176,72.7432007 96.7782353,75.2512127 96.7782353,75.2512127 C96.7782353,75.2512127 97.1223529,75.3838337 97.3635294,75.5488733 C103.878235,74.384755 109.475294,72.7284651 113.669412,70.7244132 C118.631176,68.3578638 121.64,65.5079842 121.910588,62.4193867 C122.663529,53.8874308 102.24,46.7583111 76.29,46.5048575" id="Fill-30" fill="#FEFEFE"></path>
                <rect id="Rectangle" x="0" y="0" width="150" height="150"></rect>
            </g>
        </g>
    </g>
</svg>