<svg width="150px" height="150px" viewBox="0 0 150 150" version="1.1" xmlns="http://www.w3.org/2000/svg" xmlns:xlink="http://www.w3.org/1999/xlink">
    <g id="Page-1" stroke="none" stroke-width="1" fill="none" fill-rule="evenodd">
        <g id="MIN">
            <g id="Page-1" transform="translate(27.000000, 27.000000)">
                <path d="M48.0003852,96.0000476 C27.5863751,96.0000476 9.36436602,83.0354174 2.6563627,63.7394328 C-6.0196416,38.7419302 7.25936498,11.3440514 32.2573774,2.66730671 C37.3553799,0.896766912 42.6513825,0 47.9993852,0 C68.4183953,0 86.6394043,12.9636305 93.3424076,32.2586153 L93.5704078,32.9114456 L93.5644078,32.9184438 C101.787412,57.7349935 88.5274053,84.7309766 63.749393,93.3317411 C58.6473904,95.1032807 53.3493878,96.0000476 48.0003852,96.0000476" id="Fill-1" stroke="#FFFFFF" fill="#C4CDD3"></path>
                <path d="M87.7919,59.5986 C86.7409,63.2086 85.2349,66.5616 83.3659,69.6236 C81.1699,61.6756 76.1029,53.4656 69.5839,45.9656 C70.1719,44.9656 70.8449,43.9576 71.6139,42.8826 C73.3929,40.9516 74.2309,42.7426 74.2309,42.7426 C75.6589,38.8696 74.7509,36.9196 74.0589,36.0856 C73.7999,35.7026 73.4879,35.5646 73.4879,35.5646 C72.8889,32.8406 70.4199,31.4106 70.4199,31.4106 C70.4199,31.4106 71.2709,27.5836 70.8589,23.6216 C84.2099,29.1976 88.1549,39.2846 89.3019,44.5776 C89.7119,49.4986 89.2549,54.5746 87.7919,59.5986 M69.9919,83.1166 C69.6939,78.2836 68.8899,74.3776 68.8899,74.3776 C69.3239,74.5536 70.4119,75.3356 70.4119,75.3356 C70.2049,66.2946 66.4039,63.1106 66.5079,58.1796 C66.5939,54.0506 67.1579,51.1786 68.2479,48.5986 C74.8449,56.3676 79.7729,64.7876 81.3539,72.6156 C78.2339,76.8426 74.3599,80.3826 69.9919,83.1166 M7.4049,39.7116 C10.2119,35.9066 17.4449,27.3996 25.4249,28.2516 C24.7939,29.3896 24.2629,30.3686 23.9469,30.9946 C21.8549,34.2296 19.8919,38.1106 18.4329,42.7016 C16.9139,47.4836 16.1239,52.4606 16.0379,57.6026 C14.3379,59.0026 12.5839,60.3026 10.7889,61.4386 C10.7889,61.4386 13.9849,64.2896 17.1649,65.4116 C17.1649,65.4116 14.9799,68.8466 13.5849,71.0876 C7.5869,62.1296 5.1049,50.9046 7.4049,39.7116 M17.2979,20.1616 C18.2139,20.0986 19.5159,20.0506 21.0729,20.0936 C24.8599,20.4336 26.2319,21.4776 28.4309,22.9196 C27.9179,23.8176 27.3559,24.8066 26.7989,25.7946 C19.7599,24.4176 13.4239,29.0676 9.2109,33.4386 C11.0929,28.4156 13.8629,23.9426 17.2979,20.1616 M36.0119,8.3426 C35.8109,9.6126 35.7859,11.2166 36.4039,12.7936 C36.7949,13.7876 37.3969,14.6496 38.1899,15.3836 C36.3699,16.1556 34.7309,16.8756 33.3829,17.4816 C30.1909,17.3526 24.6049,17.1916 20.6819,17.4236 C20.4699,17.4206 20.2459,17.4116 20.0449,17.4116 C24.6229,13.2376 30.0909,10.1396 36.0119,8.3426 M38.9009,7.5776 C43.7589,6.4796 48.8619,6.2436 53.9919,6.9986 C55.8569,7.2726 57.7239,7.6786 59.5849,8.2216 C59.6549,8.2416 59.7219,8.2656 59.7919,8.2856 C57.1759,8.6896 53.8099,9.4516 50.0209,10.8336 C47.0219,11.8376 43.9089,13.0296 41.0449,14.1966 C40.0009,13.5876 39.2589,12.8066 38.8769,11.8416 C38.2419,10.2416 38.6209,8.4816 38.9009,7.5776 M49.3959,28.0986 C47.9849,27.1436 46.5689,26.2336 45.1559,25.3826 C44.0949,24.1896 41.9559,21.9526 40.8349,20.7856 C41.3869,19.9116 42.1219,18.8696 43.0139,17.8836 C47.3869,19.3916 51.0159,19.6736 53.2979,19.8286 C53.7419,19.8596 54.1379,19.8856 54.4809,19.9196 L54.8119,19.9476 C55.4139,19.9986 55.9939,20.0636 56.5769,20.1276 C54.3849,22.4236 52.0799,24.8886 49.3959,28.0986 M35.8579,36.8896 C32.1849,40.5766 26.1199,48.5256 18.8319,55.1776 C19.4669,45.3716 22.7789,37.1106 27.3339,30.7026 C27.8139,30.2306 28.3849,29.7626 29.0159,29.3066 C31.8579,30.7386 34.0859,33.4726 35.8579,36.8896 M37.8729,35.1086 C36.1809,32.0046 34.1019,29.4046 31.5129,27.7046 C32.7099,27.0136 33.9519,26.3816 35.0869,25.8406 C36.7119,26.0616 41.4509,26.7506 43.4369,27.4646 C44.8529,28.3126 46.2709,29.2236 47.6869,30.1836 C47.3249,30.6316 46.9589,31.0896 46.5839,31.5676 C46.5839,31.5676 42.3829,31.6196 37.8729,35.1086 M65.4759,10.4776 L65.4779,10.4286 C74.9159,14.8036 82.1039,22.4596 86.0509,31.5876 C81.7299,26.2186 75.8809,22.8486 70.2979,20.7336 C69.6229,18.5186 68.3469,16.5616 66.0449,15.5976 C65.5959,14.5696 64.9669,13.8506 63.7329,13.3876 C62.3749,13.6896 60.1609,15.2656 58.7889,17.7596 C57.2989,17.5316 56.0169,17.3916 55.0329,17.3076 L54.7339,17.2816 C54.3709,17.2466 53.9489,17.2186 53.4779,17.1856 C51.4749,17.0486 48.6849,16.8476 45.3059,15.8586 C45.4899,15.7336 45.6759,15.6146 45.8659,15.5036 C56.6489,10.2756 65.3609,10.4746 65.4759,10.4776 M87.5349,26.3076 C81.7369,15.7476 72.1749,8.0776 60.6069,4.7086 C58.6139,4.1296 56.5679,3.6816 54.5289,3.3816 L54.5279,3.3816 L54.5239,3.3806 C32.3839,0.1196 10.9609,13.8866 4.6969,35.4046 C1.3289,46.9716 2.6669,59.1566 8.4639,69.7176 C14.2619,80.2786 23.8249,87.9486 35.3909,91.3166 C37.3859,91.8976 39.4319,92.3446 41.4739,92.6446 C45.9999,93.3116 50.4919,93.2556 54.8349,92.5796 C54.8889,92.6056 54.9409,92.6366 54.9949,92.6616 L55.0469,92.5466 C71.8579,89.8436 86.3379,77.6706 91.3029,60.6206 C94.6709,49.0546 93.3329,36.8686 87.5349,26.3076" id="Fill-3" fill="#002A5B"></path>
                <path d="M41.0453,14.1963 C43.9093,13.0293 47.0213,11.8383 50.0213,10.8333 C53.8093,9.4513 57.1753,8.6893 59.7923,8.2863 C59.7213,8.2653 59.6553,8.2403 59.5863,8.2213 C57.7233,7.6793 55.8583,7.2733 53.9923,6.9993 C48.8613,6.2433 43.7583,6.4803 38.9013,7.5783 C38.6213,8.4813 38.2413,10.2413 38.8763,11.8413 C39.2593,12.8073 40.0013,13.5883 41.0453,14.1963" id="Fill-5" fill="#004F83"></path>
                <path d="M18.4325,42.7017 C19.8925,38.1097 21.8555,34.2297 23.9465,30.9947 C24.2635,30.3687 24.7935,29.3887 25.4245,28.2517 C17.4455,27.3997 10.2125,35.9067 7.4055,39.7117 C5.1045,50.9047 7.5875,62.1297 13.5855,71.0877 C14.9795,68.8467 17.1645,65.4117 17.1645,65.4117 C13.9845,64.2897 10.7895,61.4397 10.7895,61.4397 C12.5845,60.3027 14.3385,59.0027 16.0375,57.6027 C16.1235,52.4607 16.9135,47.4837 18.4325,42.7017" id="Fill-7" fill="#004F83"></path>
                <path d="M20.0453,17.4121 C20.2453,17.4131 20.4693,17.4201 20.6803,17.4241 C24.6053,17.1911 30.1903,17.3521 33.3823,17.4811 C34.7313,16.8751 36.3703,16.1551 38.1903,15.3841 C37.3973,14.6491 36.7953,13.7881 36.4043,12.7931 C35.7863,11.2161 35.8113,9.6121 36.0123,8.3431 C30.0903,10.1391 24.6233,13.2371 20.0453,17.4121" id="Fill-9" fill="#004F83"></path>
                <path d="M69.9921,83.1162 C74.3601,80.3832 78.2351,76.8432 81.3531,72.6152 C79.7731,64.7872 74.8451,56.3672 68.2491,48.5982 C67.1581,51.1792 66.5931,54.0502 66.5081,58.1792 C66.4041,63.1112 70.2051,66.2952 70.4111,75.3362 C70.4111,75.3362 69.3231,74.5532 68.8881,74.3782 C68.8881,74.3782 69.6931,78.2822 69.9921,83.1162" id="Fill-11" fill="#004F83"></path>
                <path d="M35.0868,25.8399 C33.9528,26.3809 32.7098,27.0129 31.5128,27.7059 C34.1018,29.4039 36.1808,32.0059 37.8718,35.1099 C42.3818,31.6189 46.5838,31.5679 46.5838,31.5679 C46.9598,31.0899 47.3248,30.6319 47.6858,30.1829 C46.2728,29.2249 44.8528,28.3129 43.4368,27.4649 C41.4508,26.7519 36.7118,26.0619 35.0868,25.8399" id="Fill-13" fill="#004F83"></path>
                <path d="M56.577,20.1279 C55.994,20.0639 55.414,19.9989 54.811,19.9479 L54.481,19.9199 C54.138,19.8849 53.742,19.8589 53.298,19.8299 C51.015,19.6729 47.387,19.3929 43.014,17.8849 C42.122,18.8689 41.388,19.9119 40.836,20.7859 C41.956,21.9519 44.095,24.1899 45.156,25.3829 C46.57,26.2329 47.985,27.1439 49.395,28.0999 C52.08,24.8879 54.386,22.4239 56.577,20.1279" id="Fill-15" fill="#004F83"></path>
                <path d="M9.2108,33.439 C13.4238,29.068 19.7598,24.418 26.7988,25.794 C27.3558,24.806 27.9178,23.818 28.4308,22.919 C26.2318,21.477 24.8598,20.433 21.0728,20.093 C19.5158,20.05 18.2128,20.1 17.2978,20.163 C13.8628,23.943 11.0928,28.416 9.2108,33.439" id="Fill-17" fill="#004F83"></path>
                <path d="M87.7919,59.5986 C89.2549,54.5746 89.7119,49.4986 89.3019,44.5776 C88.1549,39.2846 84.2099,29.1976 70.8589,23.6216 C71.2709,27.5836 70.4199,31.4106 70.4199,31.4106 C70.4199,31.4106 72.8889,32.8406 73.4879,35.5646 C73.4879,35.5646 73.7999,35.7026 74.0589,36.0856 C74.7509,36.9196 75.6589,38.8696 74.2309,42.7426 C74.2309,42.7426 73.3929,40.9516 71.6139,42.8826 C70.8449,43.9576 70.1719,44.9656 69.5839,45.9656 C76.1029,53.4656 81.1699,61.6756 83.3659,69.6236 C85.2349,66.5616 86.7409,63.2086 87.7919,59.5986" id="Fill-19" fill="#004F83"></path>
                <path d="M63.7333,13.3882 C64.9653,13.8502 65.5953,14.5692 66.0463,15.5972 C68.3463,16.5622 69.6233,18.5182 70.2973,20.7342 C75.8803,22.8482 81.7303,26.2182 86.0503,31.5872 C82.1043,22.4602 74.9153,14.8032 65.4773,10.4292 L65.4753,10.4782 C65.3613,10.4742 56.6483,10.2752 45.8663,15.5032 C45.6753,15.6142 45.4893,15.7332 45.3063,15.8592 C48.6843,16.8472 51.4733,17.0492 53.4773,17.1862 C53.9493,17.2192 54.3703,17.2472 54.7333,17.2822 L55.0333,17.3082 C56.0153,17.3902 57.2983,17.5312 58.7893,17.7602 C60.1613,15.2662 62.3753,13.6902 63.7333,13.3882" id="Fill-21" fill="#004F83"></path>
                <path d="M35.8583,36.8892 C34.0863,33.4722 31.8583,30.7392 29.0153,29.3062 C28.3853,29.7632 27.8143,30.2312 27.3333,30.7022 C22.7783,37.1102 19.4673,45.3712 18.8303,55.1782 C26.1203,48.5252 32.1833,40.5762 35.8583,36.8892" id="Fill-23" fill="#004F83"></path>
                <path d="M39.9242,16.9204 L37.0582,21.0774 C37.0582,21.0774 39.2242,22.5824 41.0052,24.6184 C37.8882,23.9814 34.4662,23.4054 34.4662,23.4054 L29.0412,26.3554 L31.5842,22.1354 C31.5842,22.1354 29.8732,20.6744 27.9002,19.4014 C30.0632,19.4644 34.1772,19.8054 34.1772,19.8054 L39.9242,16.9204 Z" id="Fill-25" fill="#7AC142"></path>
                <path d="M45.2841,35.3071 C45.2841,35.3071 44.6771,36.9861 44.5971,38.5461 C44.5971,38.5461 40.7931,39.1071 38.9621,40.3531 C38.9621,40.3531 42.7601,36.5681 45.2841,35.3071" id="Fill-27" fill="#7AC142"></path>
                <path d="M70.912,35.1387 C71.335,35.0357 71.651,35.0187 71.887,35.0357 C71.816,34.8417 71.685,34.5507 71.449,34.2637 C71.113,33.8567 70.624,33.5517 70.624,33.5517 C70.939,34.0377 70.948,34.7087 70.912,35.1387" id="Fill-29" fill="#FEFEFE"></path>
                <path d="M67.4803,36.8701 C67.9713,36.5321 68.4193,36.2521 68.8263,36.0241 C68.7523,35.8481 68.6373,35.5941 68.4653,35.2871 C68.1393,34.7031 67.2893,34.1941 67.2893,34.1941 C67.6403,35.2331 67.5653,36.2871 67.4803,36.8701" id="Fill-31" fill="#FEFEFE"></path>
                <path d="M26.6747,62.5469 C23.4407,63.8689 15.7877,62.0669 15.7877,62.0669 C23.5187,61.6219 31.0807,56.0829 31.0807,56.0829 C31.0747,56.0959 31.0677,56.1099 31.0637,56.1219 C28.7967,59.5989 25.6727,61.6099 25.6727,61.6099 C26.0167,62.0499 26.3637,62.3429 26.6747,62.5469" id="Fill-33" fill="#C4CDD3"></path>
                <path d="M65.2235,16.419 C65.2235,16.419 63.3225,14.929 61.1655,17.24 C63.4765,13.028 64.8115,15.443 65.2235,16.419" id="Fill-35" fill="#7AC142"></path>
                <path d="M72.7294,36.8467 C72.7294,36.8467 72.5304,36.7117 72.4884,36.6887 C71.2824,36.0467 69.1204,37.9207 67.7084,38.6977 C66.2984,39.4747 64.2434,41.1297 63.2394,38.8497 C62.2364,36.5697 64.5434,33.0037 65.3434,30.7597 C67.1074,25.7987 67.1714,22.8777 66.7994,21.2987 C68.4294,23.1397 68.9424,26.6687 68.9424,26.6687 C68.9424,26.6687 69.5484,20.0407 66.3074,18.2947 C66.3824,18.5297 66.2974,19.3557 66.2314,20.0067 C66.2314,20.0067 66.2254,19.9977 66.2214,19.9927 C64.7114,20.2687 61.3824,19.8907 60.3014,19.3247 C56.2084,23.7147 51.7464,29.8237 48.3874,35.4337 C46.9304,38.4007 45.5044,41.8807 45.1474,44.7097 C45.1474,44.7097 44.6834,43.4307 44.5734,41.7247 C42.7154,42.4417 36.3974,45.5467 35.0464,55.0667 C35.0464,55.0667 39.0614,50.9237 43.5004,49.3097 C43.5004,49.3097 40.6894,56.6717 46.0554,69.7217 C46.0554,69.7217 48.2274,61.7197 52.7714,59.7007 C55.5224,73.3647 63.5874,73.5887 65.9394,82.8857 C65.9394,82.8857 68.4044,78.0697 65.4374,69.8837 C65.4374,69.8837 66.4604,70.1697 67.3284,71.1917 C67.3284,71.1917 67.1934,68.7967 64.9554,63.6317 C63.4974,60.8667 63.0404,57.1347 63.0404,57.1347 C61.7304,58.3217 61.3944,62.3307 61.3944,62.3307 C57.3904,51.4677 68.7554,40.7017 70.8304,39.1147 C71.8424,38.3377 72.4664,38.3247 72.8444,38.5107 C73.2344,37.7017 73.1994,37.1847 72.7294,36.8467" id="Fill-37" fill="#C4CDD3"></path>
            </g>
        </g>
    </g>
</svg>