<svg width="150px" height="150px" viewBox="0 0 150 150" version="1.1" xmlns="http://www.w3.org/2000/svg" xmlns:xlink="http://www.w3.org/1999/xlink">
    <defs>
        <polygon id="path-1" points="0.000914545455 59.362085 149.773737 59.362085 149.773737 0.0780839733 0.000914545455 0.0780839733"></polygon>
    </defs>
    <g id="Page-1" stroke="none" stroke-width="1" fill="none" fill-rule="evenodd">
        <g id="NOP">
            <g id="Page-1">
                <g id="Group-3" transform="translate(0.000000, 45.110332)">
                    <mask id="mask-2" fill="white">
                        <use xlink:href="#path-1"></use>
                    </mask>
                    <g id="Clip-2"></g>
                    <path d="M147.672569,17.3912644 C128.028133,5.95721354 99.47831,0.30183337 86.1785327,0.0780839733 C82.9524736,0.0780839733 81.4617645,1.59638345 80.7758555,2.87495144 C80.5014918,3.39094495 80.3162964,3.92977002 80.2202691,4.48686036 C79.4863464,4.02794578 78.8827464,3.72428588 78.8461645,3.70373747 L76.8661736,2.70599781 L77.0399373,3.84985953 C76.2442827,3.41834283 75.4943555,2.97084404 75.4874964,2.96627772 L74.9044736,2.61467153 L74.3191645,2.96171141 C74.3191645,2.96171141 73.5440873,3.41834283 72.7392873,3.85214268 L72.9176236,2.69914834 L70.93306,3.70373747 C70.8941918,3.72428588 70.2905918,4.02794578 69.5566691,4.48686036 C69.4606418,3.92977002 69.27316,3.38866179 68.9987964,2.87266828 C68.31746,1.59638345 66.8267509,0.0780839733 63.4086373,0.0780839733 C50.2963418,0.30183337 21.7488055,5.95721354 2.08150545,17.4049633 L0.000914545455,18.6880976 L0.348441818,19.5762457 C0.426178182,19.7725972 2.10665545,23.9370758 6.17866909,25.9051572 L6.43016909,26.3161255 C6.53534182,26.482796 8.67995091,29.9029653 12.20781,31.4692111 L12.4524509,31.8641973 C12.5690555,32.0514162 15.0291827,35.9419159 19.8076827,37.585789 L20.3426918,38.1634278 C20.4935918,38.3255319 23.6076191,41.6315434 28.60561,42.8575988 L28.5598827,42.8918462 L29.8928327,43.7799943 C30.0460191,43.8827364 33.23321,45.9741083 38.1420327,46.9946795 L37.5361464,47.5335046 L39.3332282,48.1887707 C39.77221,48.3508748 49.8024873,51.9445641 58.8450555,49.1842272 C61.7418782,55.3122209 68.0591009,59.3625416 74.8907555,59.3625416 C81.7201236,59.3625416 88.03506,55.3122209 90.9318827,49.1842272 C99.9675918,51.9445641 110.004728,48.3508748 110.44371,48.1887707 L112.238505,47.5335046 L111.634905,46.9969627 C116.541442,45.9741083 119.728633,43.8827364 119.881819,43.7799943 L121.214769,42.8918462 L121.171328,42.8575988 C126.167033,41.6315434 129.28106,38.3255319 129.43196,38.1634278 L129.962396,37.5880722 C134.745469,35.9441991 137.205596,32.0514162 137.319915,31.8641973 L137.564555,31.4714943 C141.094701,29.9052485 143.241596,26.482796 143.344483,26.3161255 L143.598269,25.9051572 C147.670283,23.9370758 149.348474,19.7725972 149.42621,19.5762457 L149.773737,18.6880976 L147.672569,17.3912644 Z" id="Fill-1" fill="#FEFEFE" mask="url(#mask-2)"></path>
                </g>
                <path d="M148.362365,64.2696731 L147.09572,63.4865503 C127.615901,52.148392 99.3335832,46.5500908 86.3493241,46.3309077 L86.1778468,46.3309077 C84.0423832,46.3309077 82.5631059,47.0683674 81.7857423,48.5204554 C81.1295559,49.7556434 81.2050059,50.9931145 81.5250968,52.0410836 C81.3010332,51.78537 80.9763695,51.5136743 80.6219832,51.2533944 C79.5679695,50.4588558 78.3287605,49.8332707 78.3287605,49.8332707 C78.3287605,49.8332707 78.4910923,50.8561251 78.1138423,50.7305515 C77.9377923,50.6757557 77.7205877,50.5821462 77.4805195,50.4725547 C76.4265059,49.967977 74.899215,49.0547141 74.899215,49.0547141 C74.899215,49.0547141 73.3490605,49.967977 72.2973332,50.4725547 C72.057265,50.5821462 71.8377741,50.6757557 71.6617241,50.7305515 C71.2844741,50.8561251 71.4490923,49.8332707 71.4490923,49.8332707 C71.4490923,49.8332707 70.2098832,50.4588558 69.1535832,51.2533944 C68.7991968,51.5136743 68.4745332,51.78537 68.2504695,52.0410836 C68.5705605,50.9931145 68.6482968,49.7556434 67.9898241,48.5204554 C67.2124605,47.0683674 65.7331832,46.3309077 63.5977195,46.3309077 L63.4262423,46.3309077 C50.4419832,46.5500908 22.159665,52.148392 2.68213318,63.4865503 L1.41320136,64.2696731 C1.41320136,64.2696731 3.32460136,69.1327978 8.04594227,70.516391 L7.40347409,70.8269004 C7.40347409,70.8269004 10.0716605,75.1489168 14.2191241,76.0461975 L13.4257559,76.3749722 C13.4257559,76.3749722 16.350015,81.0942579 22.0179105,82.0919976 L21.1811014,82.4961164 C21.1811014,82.4961164 25.2256786,86.8615128 31.4285832,87.2519326 L30.5277559,87.9391629 C30.5277559,87.9391629 34.6386377,90.6743852 40.6997877,91.3616155 L39.7257968,92.226932 C39.7257968,92.226932 50.4739923,96.1516791 59.4754059,92.8799149 C61.9583968,99.115217 68.0607014,103.329925 74.8854968,103.329925 L74.8877832,103.329925 L74.8900695,103.329925 C81.714865,103.329925 87.8171695,99.115217 90.3001605,92.8799149 C99.3015741,96.1516791 110.04977,92.226932 110.04977,92.226932 L109.075779,91.3616155 C115.136929,90.6743852 119.24781,87.9391629 119.24781,87.9391629 L118.346983,87.2519326 C124.549888,86.8615128 128.592179,82.4961164 128.592179,82.4961164 L127.757656,82.0919976 C133.425551,81.0942579 136.347524,76.3749722 136.347524,76.3749722 L135.556442,76.0461975 C139.703906,75.1489168 142.372092,70.8269004 142.372092,70.8269004 L141.729624,70.516391 C146.450965,69.1327978 148.362365,64.2696731 148.362365,64.2696731" id="Fill-4" fill="#B49759"></path>
                <path d="M146.31264,64.8292749 C127.258085,53.7445472 99.2638491,48.1051491 86.3276036,47.885966 C84.7683036,47.8608513 83.7074309,48.2398554 83.1632764,49.2535771 C82.2624491,50.9431134 83.5336673,52.8290012 84.0755355,53.6418051 C85.24844,55.3861371 86.8008809,58.116793 86.8008809,61.399973 C86.8008809,67.7676982 81.6451309,72.4778513 75.2958991,72.4778513 C75.1587173,72.4778513 75.0238218,72.4801344 74.8889264,72.4801344 C74.7517445,72.4801344 74.6168491,72.4778513 74.4796673,72.4778513 C68.1327218,72.4778513 62.9746855,67.7676982 62.9769718,61.399973 C62.9769718,58.116793 64.5294127,55.3861371 65.7000309,53.6418051 C66.2418991,52.8290012 67.5154036,50.9431134 66.61229,49.2535771 C66.0704218,48.2398554 65.0095491,47.8608513 63.4479627,47.885966 C50.5117173,48.1051491 22.5197673,53.7445472 3.46292636,64.8292749 C3.47893091,64.8772212 6.51750818,70.0691205 12.5832309,69.626188 C11.6481082,70.0805363 10.7152718,70.5463004 9.78700818,71.0257634 C9.80301273,71.0828423 12.5695127,75.6286081 19.2502673,74.9710588 C18.1368082,75.496185 17.0302082,76.0304437 15.9258945,76.5852509 C15.9396127,76.6468962 19.1313764,81.1150346 26.1688036,80.9985936 C24.5477718,81.818247 23.5669218,82.3388069 23.5737809,82.3365237 C23.5783536,82.3707711 28.2242445,86.8594579 35.7349491,85.6242699 C34.92329,86.2156076 34.1047718,86.8434758 33.1353536,87.5192903 C33.13764,87.5307061 38.6523491,90.5399072 45.1410491,89.6038128 C44.30424,90.2362473 43.4674309,90.8755313 42.6329082,91.5216648 C42.6169036,91.437188 52.5694445,94.243188 59.6480264,91.1312449 C65.7388991,88.4508184 69.1227173,81.8844586 69.8955082,80.2314528 C71.0981355,80.4962991 72.1475764,80.6492706 72.9478036,80.74288 C72.9455173,80.82964 74.2373127,80.9415147 74.8889264,80.9141168 C75.5382536,80.9415147 76.8323355,80.82964 76.8300491,80.74288 C77.62799,80.6492706 78.6797173,80.4962991 79.8800582,80.2314528 C80.6505627,81.8844586 84.0366673,88.4508184 90.12754,91.1312449 C97.2061218,94.243188 107.156376,91.437188 107.142658,91.5216648 C106.310422,90.8755313 105.473613,90.2362473 104.634517,89.6038128 C111.123217,90.5399072 116.637926,87.5307061 116.637926,87.5192903 C115.673081,86.8434758 114.852276,86.2156076 114.040617,85.6242699 C121.551322,86.8594579 126.197213,82.3707711 126.201785,82.3365237 C126.208645,82.3388069 125.227795,81.818247 123.606763,80.9985936 C130.64419,81.1150346 133.835954,76.6468962 133.849672,76.5852509 C132.747645,76.0304437 131.638758,75.496185 130.527585,74.9710588 C137.206054,75.6286081 139.972554,71.0828423 139.986272,71.0257634 C139.058008,70.5463004 138.127458,70.0805363 137.192335,69.626188 C143.258058,70.0691205 146.296635,64.8772212 146.31264,64.8292749" id="Fill-6" fill="#002A5B"></path>
                <path d="M69.4046259,76.8784083 C69.4046259,76.8784083 52.3757895,71.1864976 59.7744623,53.0764954 C59.7744623,53.0764954 41.771635,53.8230878 17.0926259,63.766237 C17.0926259,63.766237 15.3618486,64.4854315 14.3535623,64.8461703 C13.3429895,65.2069091 11.7196714,65.8507594 9.39215318,64.7365788 C9.39215318,64.7365788 31.963135,52.9532049 60.9633714,50.2202658 C64.7861714,49.859527 65.2914577,50.4371658 64.280885,51.8778379 C63.4532214,53.0582301 53.0982805,66.2160646 69.4046259,76.8784083" id="Fill-8" fill="#FEFEFE"></path>
                <path d="M54.2764436,58.2051512 C39.6848709,60.1001716 25.4156755,65.1756299 25.4156755,65.1756299 C27.84608,69.4907968 34.43538,67.6802532 34.43538,67.6802532 C46.7977482,64.1847397 52.3147436,62.9997812 54.0843891,62.6573076 C54.0157982,61.282847 54.0729573,59.7987949 54.2764436,58.2051512" id="Fill-10" fill="#B49759"></path>
                <path d="M54.3848173,65.2998336 C51.9475536,65.770164 41.7320809,67.8638191 31.42744,71.7200714 C31.42744,71.7200714 34.6763627,75.4142196 41.1216218,73.587694 C46.54259,72.0534124 53.4931355,69.83875 55.5668673,69.1743513 C55.0478627,68.007658 54.6431764,66.7176742 54.3848173,65.2998336" id="Fill-12" fill="#B49759"></path>
                <path d="M56.6487745,71.2173202 C54.4470064,71.9273821 43.4381655,75.4891072 38.7899882,77.2699697 C38.7899882,77.2699697 41.4558882,80.8408275 49.1540745,77.8156443 C54.5155973,75.7082903 57.4695791,74.4776686 58.7728064,73.9205783 C57.9977291,73.1191901 57.2798109,72.2196262 56.6487745,71.2173202" id="Fill-14" fill="#B49759"></path>
                <path d="M60.4724891,75.4735817 C58.5496573,76.3069341 51.4047709,79.4234435 47.2733118,81.4120734 C47.2733118,81.4120734 52.4725027,83.964643 59.0137891,79.9280213 L63.08123,77.2635769 C62.1964073,76.7475834 61.3161573,76.1539625 60.4724891,75.4735817" id="Fill-16" fill="#B49759"></path>
                <path d="M65.0596205,78.3008152 C63.7518205,79.1159023 58.3331386,82.5200895 55.6878159,84.4721889 C55.6878159,84.4721889 60.1782341,86.3261124 64.7852568,81.9926802 C66.2851114,80.5839723 67.1036295,79.7848673 67.5540432,79.3282359 C66.760675,79.0428412 65.9215795,78.704934 65.0596205,78.3008152" id="Fill-18" fill="#B49759"></path>
                <path d="M80.3720836,76.8784083 C80.3720836,76.8784083 97.40092,71.1864976 90.0022473,53.0764954 C90.0022473,53.0764954 108.005075,53.8230878 132.681797,63.766237 C132.681797,63.766237 134.412575,64.4854315 135.423147,64.8461703 C136.43372,65.2069091 138.057038,65.8507594 140.38227,64.7365788 C140.38227,64.7365788 117.811288,52.9532049 88.8133382,50.2202658 C84.9882518,49.859527 84.4852518,50.4371658 85.4935382,51.8778379 C86.3234882,53.0582301 96.6784291,66.2160646 80.3720836,76.8784083" id="Fill-20" fill="#FEFEFE"></path>
                <path d="M95.4991227,58.2051512 C110.090695,60.1001716 124.359891,65.1756299 124.359891,65.1756299 C121.931773,69.4907968 115.340186,67.6802532 115.340186,67.6802532 C102.977818,64.1847397 97.4631091,62.9997812 95.6934636,62.6573076 C95.7620545,61.282847 95.7026091,59.7987949 95.4991227,58.2051512" id="Fill-22" fill="#B49759"></path>
                <path d="M95.3918923,65.2998336 C97.8268695,65.770164 108.042342,67.8638191 118.34927,71.7200714 C118.34927,71.7200714 115.09806,75.4142196 108.655088,73.587694 C103.23412,72.0534124 96.2835741,69.83875 94.2098423,69.1743513 C94.7265605,68.007658 95.1312468,66.7176742 95.3918923,65.2998336" id="Fill-24" fill="#B49759"></path>
                <path d="M93.127935,71.2173202 C95.3274168,71.9273821 106.338544,75.4891072 110.984435,77.2699697 C110.984435,77.2699697 108.320821,80.8408275 100.622635,77.8156443 C95.2611123,75.7082903 92.3071305,74.4776686 91.0039032,73.9205783 C91.7789805,73.1191901 92.4968986,72.2196262 93.127935,71.2173202" id="Fill-26" fill="#B49759"></path>
                <path d="M89.3042205,75.4735817 C91.2270523,76.3069341 98.3719386,79.4234435 102.503398,81.4120734 C102.503398,81.4120734 97.3042068,83.964643 90.7606341,79.9280213 L86.6954795,77.2635769 C87.5803023,76.7475834 88.4582659,76.1539625 89.3042205,75.4735817" id="Fill-28" fill="#B49759"></path>
                <path d="M84.7170891,78.3008152 C86.0248891,79.1159023 91.4435709,82.5200895 94.0888936,84.4721889 C94.0888936,84.4721889 89.5961891,86.3261124 84.98688,81.9926802 C83.4915982,80.5839723 82.67308,79.7848673 82.2226664,79.3282359 C83.0160345,79.0428412 83.85513,78.704934 84.7170891,78.3008152" id="Fill-30" fill="#B49759"></path>
                <path d="M88.8320864,86.7644786 C88.8320864,94.4587181 82.5903136,100.69402 74.8875545,100.69402 C67.1847955,100.69402 60.9430227,94.4587181 60.9430227,86.7644786 C60.9430227,79.0748054 67.1847955,72.8372202 74.8875545,72.8372202 C82.5903136,72.8372202 88.8320864,79.0748054 88.8320864,86.7644786" id="Fill-32" fill="#FEFEFE"></path>
                <path d="M85.9473814,89.6453662 C85.9473814,95.7505284 80.9951177,100.693564 74.8882405,100.693564 C68.7790768,100.693564 63.8290995,95.7505284 63.8290995,89.6453662 C63.8290995,83.5470536 68.7790768,78.6017353 74.8882405,78.6017353 C80.9951177,78.6017353 85.9473814,83.5470536 85.9473814,89.6453662" id="Fill-34" fill="#B49759"></path>
                <path d="M82.2274677,97.3042168 C81.6673086,96.8658506 80.8716541,96.0895772 80.7298995,95.1306512 C80.7161814,95.0461744 80.7093223,94.9616976 80.6978905,94.8749376 C83.5329814,93.6876959 85.9268041,91.6419871 87.5455495,89.0209228 C86.9350905,92.438809 84.9711041,95.3909311 82.2274677,97.3042168 L82.2274677,97.3042168 Z M62.228645,89.009507 C63.8473905,91.6374208 66.2412132,93.6854128 69.0808768,94.8749376 C69.069445,94.9616976 69.0625859,95.0461744 69.0488677,95.1329344 C68.9048268,96.0941435 68.1114586,96.8681338 67.5512995,97.3042168 C64.8030905,95.3909311 62.8368177,92.4342427 62.228645,89.009507 L62.228645,89.009507 Z M65.1917723,78.342597 C64.617895,81.5139022 65.9348405,84.5025549 67.1420405,87.2354939 C67.9811359,89.1396469 68.7859359,90.9661726 69.044295,92.8155299 C65.724495,91.160241 63.2026359,88.1304915 62.2629405,84.3336012 C62.6996359,82.0687094 63.7330723,80.013868 65.1917723,78.342597 L65.1917723,78.342597 Z M78.7979223,93.5689717 C77.8422223,93.8749148 76.8430814,94.0758326 75.8165041,94.1511768 L75.8165041,73.9589353 C77.8788041,74.1073405 79.8062086,74.739775 81.4866859,75.7466473 C84.0382677,79.4270966 82.600145,82.7125597 80.9333859,86.4866184 C79.934245,88.7515102 78.9099541,91.0803305 78.7979223,93.5689717 L78.7979223,93.5689717 Z M75.8165041,96.0073835 C76.8819495,95.9434551 77.9153859,95.7722184 78.9099541,95.5005227 C79.1180132,96.6946138 79.8565086,97.6444072 80.5424177,98.295107 C79.0974359,99.007452 77.5015541,99.4526676 75.8165041,99.573675 L75.8165041,96.0073835 Z M70.8688132,95.5005227 C71.8633814,95.7722184 72.8968177,95.9434551 73.9576905,96.0073835 L73.9576905,99.573675 C72.2749268,99.4526676 70.679045,99.007452 69.2340632,98.295107 C69.9222586,97.6444072 70.6607541,96.6946138 70.8688132,95.5005227 L70.8688132,95.5005227 Z M68.2920814,75.7466473 C69.9702723,74.739775 71.8999632,74.1073405 73.9576905,73.9589353 L73.9576905,94.1511768 C72.9311132,94.0803989 71.9342586,93.8863306 70.980845,93.5918033 C70.8756723,91.0940294 69.8468086,88.7606429 68.843095,86.4866184 C67.1740495,82.7125597 65.7382132,79.4270966 68.2920814,75.7466473 L68.2920814,75.7466473 Z M87.5158268,84.345017 C86.5875632,88.0619968 84.0382677,91.0963126 80.739045,92.7721499 C81.0042632,90.9364916 81.8022041,89.1236648 82.6344405,87.2354939 C83.8416405,84.5002717 85.1585859,81.511619 84.5824223,78.342597 C86.045695,80.0184343 87.0791314,82.0755588 87.5158268,84.345017 L87.5158268,84.345017 Z M74.8882405,71.7534055 C66.6024586,71.7534055 59.8599723,78.488719 59.8599723,86.7651636 C59.8599723,95.0416081 66.6024586,101.774638 74.8882405,101.774638 C83.1763086,101.774638 89.918795,95.0416081 89.918795,86.7651636 C89.918795,78.488719 83.1763086,71.7534055 74.8882405,71.7534055 L74.8882405,71.7534055 Z" id="Fill-36" fill="#002A5B"></path>
                <path d="M79.3528227,52.2696277 C79.3528227,52.2696277 79.2407909,52.7422412 78.9527091,52.7422412 C78.6646273,52.7422412 76.8606864,51.8769246 75.9941545,51.4065943 C75.6237636,51.2079596 75.1047591,50.9065829 74.9241364,50.8015576 C74.9241364,50.8015576 74.1513455,51.2079596 73.7809545,51.4065943 C72.9144227,51.8769246 71.1127682,52.7422412 70.8224,52.7422412 C70.5343182,52.7422412 70.4222864,52.2696277 70.4222864,52.2696277 C70.4222864,52.2696277 65.6872273,55.1235741 65.6872273,63.0095987 C65.6872273,68.8795957 68.7463818,71.54404 68.7463818,71.54404 L69.1625,73.2038952 L74.3708364,73.2038952 L75.4042727,73.2038952 L80.6103227,73.2038952 L81.0264409,71.54404 C81.0264409,71.54404 84.0878818,68.8795957 84.0878818,63.0095987 C84.0878818,55.1235741 79.3528227,52.2696277 79.3528227,52.2696277" id="Fill-38" fill="#002A5B"></path>
                <path d="M81.6090064,61.0166309 C81.6090064,58.5805022 80.6167245,56.5941556 79.5467064,55.4114802 C79.5467064,55.4114802 79.5101245,56.1101262 78.3440791,55.3315697 C77.3380791,54.6397731 76.1537427,54.2356543 74.8825245,54.2356543 C73.6044473,54.2356543 72.4178245,54.6420562 71.4095382,55.336136 C70.2846473,56.1009936 70.2297745,55.4114802 70.2297745,55.4114802 C69.1620427,56.5941556 68.1674745,58.5805022 68.1674745,61.0166309 C68.1674745,63.0417912 68.6636155,64.0372477 68.8373791,64.3226424 C69.8410927,66.9003268 72.1686109,68.7085872 74.8825245,68.7085872 C77.5621427,68.7085872 79.8667973,66.9391404 80.8910882,64.4025529 C80.9505336,64.3203592 81.6090064,63.3500175 81.6090064,61.0166309" id="Fill-40" fill="#FEFEFE"></path>
                <path d="M77.4169586,66.521551 C77.4100995,66.5078521 77.3986677,66.4941531 77.3918086,66.4804542 C77.3918086,66.4804542 76.7264768,65.2338504 77.821645,64.370817 C77.821645,64.370817 80.3000632,64.8868105 80.3595086,61.6059137 C80.3595086,61.6059137 80.3000632,61.2565907 80.6475905,60.5693604 C80.6475905,60.5693604 80.0119814,59.9917217 78.6287314,61.0305581 C77.243195,62.0625452 76.4955541,65.0009684 75.7456268,64.3114549 C75.004845,63.6265078 75.2769223,59.8022196 74.8905268,59.6560976 L74.8768086,59.6560976 C74.4949859,59.8045028 74.7670632,63.6265078 74.023995,64.3114549 C73.2763541,65.0009684 72.5241405,62.0625452 71.1408905,61.0305581 C69.7553541,59.9917217 69.1243177,60.5693604 69.1243177,60.5693604 C69.4695586,61.2565907 69.4101132,61.6059137 69.4101132,61.6059137 C69.4695586,64.8868105 71.9479768,64.370817 71.9479768,64.370817 C73.0454314,65.2338504 72.3823859,66.4850205 72.3823859,66.4850205 C72.3755268,66.4987194 72.3663814,66.5124184 72.3595223,66.5238342 C69.4009677,63.3502458 67.6816223,63.7817625 68.5298632,67.3366381 C69.3643859,70.8298685 72.565295,85.8210781 73.0728677,89.2983264 C73.0042768,92.4262516 72.640745,93.5427154 72.5470041,93.7824469 L72.2223405,94.4285804 L72.5790132,95.1386423 C73.143745,95.9582957 73.5324268,96.8738417 73.671895,97.2231647 L74.8928132,100.319126 L76.1022995,97.2300142 C76.2463405,96.8738417 76.6373086,95.9582957 77.1974677,95.1386423 L77.570145,94.4628278 L77.2340495,93.7847301 C77.1380223,93.5495649 76.7859223,92.4741979 76.7058995,89.4581474 C77.1265905,86.3416379 80.3983768,70.8892306 81.2466177,67.3366381 C82.0925723,63.7817625 80.3755132,63.3502458 77.4169586,66.521551" id="Fill-42" fill="#002A5B"></path>
                <path d="M72.882185,82.1513597 C71.8190259,76.5736068 70.9822168,72.4456588 70.3054532,69.4524398 C69.7910214,67.1669995 71.1674123,68.0802624 71.9081941,69.5095187 L72.882185,82.1513597 Z" id="Fill-44" fill="#E21836"></path>
                <path d="M76.8945245,82.1513597 C77.9576836,76.5736068 78.7944927,72.4456588 79.4712564,69.4524398 C79.9856882,67.1669995 78.6092973,68.0802624 77.8685155,69.5095187 L76.8945245,82.1513597 Z" id="Fill-46" fill="#E21836"></path>
                <path d="M71.202165,63.2573213 C70.9941059,63.2002423 70.8683559,62.9833424 70.9300877,62.7710088 C70.9529514,62.6910983 71.0032514,62.6271699 71.0649832,62.5746573 C70.925515,62.4194026 70.7631832,62.2618648 70.5665559,62.1225922 C70.5665559,62.1225922 70.221315,63.7367843 71.6640105,63.5632643 C71.6640105,63.5632643 71.6137105,63.4194254 71.5062514,63.2139413 C71.4170832,63.2664539 71.3096241,63.2847192 71.202165,63.2573213" id="Fill-48" fill="#E21836"></path>
                <path d="M79.2076386,62.1225922 C79.0110114,62.2618648 78.8486795,62.4194026 78.7092114,62.5746573 C78.7732295,62.6271699 78.8235295,62.6910983 78.8486795,62.773292 C78.9058386,62.9833424 78.7800886,63.2002423 78.5720295,63.2573213 C78.4645705,63.2847192 78.3571114,63.2687371 78.2702295,63.2162244 C78.1627705,63.4171423 78.1124705,63.5632643 78.1124705,63.5632643 C79.5551659,63.7367843 79.2076386,62.1225922 79.2076386,62.1225922" id="Fill-50" fill="#E21836"></path>
                <path d="M75.5638609,84.2205849 C76.0211336,75.60395 76.7093291,69.4987879 76.7093291,68.7362134 C76.7093291,68.4668009 76.6796064,68.1151947 76.5652882,67.7316243 L76.0645745,69.3709311 L75.9091018,66.4736047 C75.6576018,66.1493964 75.3146473,65.8251881 74.8802382,65.5146787 L74.8528018,65.5146787 C74.4206791,65.8251881 74.1165927,66.1493964 73.8628064,66.4736047 L73.7141927,69.3709311 L73.2089064,67.7293411 C73.0968745,68.1151947 73.0648655,68.4668009 73.0648655,68.7362134 C73.0648655,69.4987879 73.7507745,75.60395 74.2080473,84.2205849 C74.6676064,92.8395031 73.5975882,94.4422793 73.5975882,94.4422793 C74.2171927,95.3372769 74.8870973,96.9309206 74.8870973,96.9309206 C74.8870973,96.9309206 75.5570018,95.3372769 76.1766064,94.4422793 C76.1766064,94.4422793 75.1065882,92.8395031 75.5638609,84.2205849" id="Fill-52" fill="#E21836"></path>
                <path d="M146.31264,64.8292749 C127.258085,53.7445472 99.2638491,48.1051491 86.3276036,47.885966 C84.7683036,47.8608513 83.7074309,48.2398554 83.1632764,49.2535771 C82.2624491,50.9431134 83.5336673,52.8290012 84.0755355,53.6418051 C85.24844,55.3861371 86.8008809,58.116793 86.8008809,61.399973 C86.8008809,67.7676982 81.6451309,72.4778513 75.2958991,72.4778513 C75.1587173,72.4778513 75.0238218,72.4801344 74.8889264,72.4801344 C74.7517445,72.4801344 74.6168491,72.4778513 74.4796673,72.4778513 C68.1327218,72.4778513 62.9746855,67.7676982 62.9769718,61.399973 C62.9769718,58.116793 64.5294127,55.3861371 65.7000309,53.6418051 C66.2418991,52.8290012 67.5154036,50.9431134 66.61229,49.2535771 C66.0704218,48.2398554 65.0095491,47.8608513 63.4479627,47.885966 C50.5117173,48.1051491 22.5197673,53.7445472 3.46292636,64.8292749 C3.47893091,64.8772212 6.51750818,70.0691205 12.5832309,69.626188 C11.6481082,70.0805363 10.7152718,70.5463004 9.78700818,71.0257634 C9.80301273,71.0828423 12.5695127,75.6286081 19.2502673,74.9710588 C18.1368082,75.496185 17.0302082,76.0304437 15.9258945,76.5852509 C15.9396127,76.6468962 19.1313764,81.1150346 26.1688036,80.9985936 C24.5477718,81.818247 23.5669218,82.3388069 23.5737809,82.3365237 C23.5783536,82.3707711 28.2242445,86.8594579 35.7349491,85.6242699 C34.92329,86.2156076 34.1047718,86.8434758 33.1353536,87.5192903 C33.13764,87.5307061 38.6523491,90.5399072 45.1410491,89.6038128 C44.30424,90.2362473 43.4674309,90.8755313 42.6329082,91.5216648 C42.6169036,91.437188 52.5694445,94.243188 59.6480264,91.1312449 C65.7388991,88.4508184 69.1227173,81.8844586 69.8955082,80.2314528 C71.0981355,80.4962991 72.1475764,80.6492706 72.9478036,80.74288 C72.9455173,80.82964 74.2373127,80.9415147 74.8889264,80.9141168 C75.5382536,80.9415147 76.8323355,80.82964 76.8300491,80.74288 C77.62799,80.6492706 78.6797173,80.4962991 79.8800582,80.2314528 C80.6505627,81.8844586 84.0366673,88.4508184 90.12754,91.1312449 C97.2061218,94.243188 107.156376,91.437188 107.142658,91.5216648 C106.310422,90.8755313 105.473613,90.2362473 104.634517,89.6038128 C111.123217,90.5399072 116.637926,87.5307061 116.637926,87.5192903 C115.673081,86.8434758 114.852276,86.2156076 114.040617,85.6242699 C121.551322,86.8594579 126.197213,82.3707711 126.201785,82.3365237 C126.208645,82.3388069 125.227795,81.818247 123.606763,80.9985936 C130.64419,81.1150346 133.835954,76.6468962 133.849672,76.5852509 C132.747645,76.0304437 131.638758,75.496185 130.527585,74.9710588 C137.206054,75.6286081 139.972554,71.0828423 139.986272,71.0257634 C139.058008,70.5463004 138.127458,70.0805363 137.192335,69.626188 C143.258058,70.0691205 146.296635,64.8772212 146.31264,64.8292749" id="Fill-54" fill="#002A5B"></path>
                <path d="M69.4046259,76.8784083 C69.4046259,76.8784083 52.3757895,71.1864976 59.7744623,53.0764954 C59.7744623,53.0764954 41.771635,53.8230878 17.0926259,63.766237 C17.0926259,63.766237 15.3618486,64.4854315 14.3535623,64.8461703 C13.3429895,65.2069091 11.7196714,65.8507594 9.39215318,64.7365788 C9.39215318,64.7365788 31.963135,52.9532049 60.9633714,50.2202658 C64.7861714,49.859527 65.2914577,50.4371658 64.280885,51.8778379 C63.4532214,53.0582301 53.0982805,66.2160646 69.4046259,76.8784083" id="Fill-56" fill="#FEFEFE"></path>
                <path d="M54.2764436,58.2051512 C39.6848709,60.1001716 25.4156755,65.1756299 25.4156755,65.1756299 C27.84608,69.4907968 34.43538,67.6802532 34.43538,67.6802532 C46.7977482,64.1847397 52.3147436,62.9997812 54.0843891,62.6573076 C54.0157982,61.282847 54.0729573,59.7987949 54.2764436,58.2051512" id="Fill-58" fill="#B49759"></path>
                <path d="M54.3848173,65.2998336 C51.9475536,65.770164 41.7320809,67.8638191 31.42744,71.7200714 C31.42744,71.7200714 34.6763627,75.4142196 41.1216218,73.587694 C46.54259,72.0534124 53.4931355,69.83875 55.5668673,69.1743513 C55.0478627,68.007658 54.6431764,66.7176742 54.3848173,65.2998336" id="Fill-60" fill="#B49759"></path>
                <path d="M56.6487745,71.2173202 C54.4470064,71.9273821 43.4381655,75.4891072 38.7899882,77.2699697 C38.7899882,77.2699697 41.4558882,80.8408275 49.1540745,77.8156443 C54.5155973,75.7082903 57.4695791,74.4776686 58.7728064,73.9205783 C57.9977291,73.1191901 57.2798109,72.2196262 56.6487745,71.2173202" id="Fill-62" fill="#B49759"></path>
                <path d="M60.4724891,75.4735817 C58.5496573,76.3069341 51.4047709,79.4234435 47.2733118,81.4120734 C47.2733118,81.4120734 52.4725027,83.964643 59.0137891,79.9280213 L63.08123,77.2635769 C62.1964073,76.7475834 61.3161573,76.1539625 60.4724891,75.4735817" id="Fill-64" fill="#B49759"></path>
                <path d="M65.0596205,78.3008152 C63.7518205,79.1159023 58.3331386,82.5200895 55.6878159,84.4721889 C55.6878159,84.4721889 60.1782341,86.3261124 64.7852568,81.9926802 C66.2851114,80.5839723 67.1036295,79.7848673 67.5540432,79.3282359 C66.760675,79.0428412 65.9215795,78.704934 65.0596205,78.3008152" id="Fill-66" fill="#B49759"></path>
                <path d="M80.3720836,76.8784083 C80.3720836,76.8784083 97.40092,71.1864976 90.0022473,53.0764954 C90.0022473,53.0764954 108.005075,53.8230878 132.681797,63.766237 C132.681797,63.766237 134.412575,64.4854315 135.423147,64.8461703 C136.43372,65.2069091 138.057038,65.8507594 140.38227,64.7365788 C140.38227,64.7365788 117.811288,52.9532049 88.8133382,50.2202658 C84.9882518,49.859527 84.4852518,50.4371658 85.4935382,51.8778379 C86.3234882,53.0582301 96.6784291,66.2160646 80.3720836,76.8784083" id="Fill-68" fill="#FEFEFE"></path>
                <path d="M95.4991227,58.2051512 C110.090695,60.1001716 124.359891,65.1756299 124.359891,65.1756299 C121.931773,69.4907968 115.340186,67.6802532 115.340186,67.6802532 C102.977818,64.1847397 97.4631091,62.9997812 95.6934636,62.6573076 C95.7620545,61.282847 95.7026091,59.7987949 95.4991227,58.2051512" id="Fill-70" fill="#B49759"></path>
                <path d="M95.3918923,65.2998336 C97.8268695,65.770164 108.042342,67.8638191 118.34927,71.7200714 C118.34927,71.7200714 115.09806,75.4142196 108.655088,73.587694 C103.23412,72.0534124 96.2835741,69.83875 94.2098423,69.1743513 C94.7265605,68.007658 95.1312468,66.7176742 95.3918923,65.2998336" id="Fill-72" fill="#B49759"></path>
                <path d="M93.127935,71.2173202 C95.3274168,71.9273821 106.338544,75.4891072 110.984435,77.2699697 C110.984435,77.2699697 108.320821,80.8408275 100.622635,77.8156443 C95.2611123,75.7082903 92.3071305,74.4776686 91.0039032,73.9205783 C91.7789805,73.1191901 92.4968986,72.2196262 93.127935,71.2173202" id="Fill-74" fill="#B49759"></path>
                <path d="M89.3042205,75.4735817 C91.2270523,76.3069341 98.3719386,79.4234435 102.503398,81.4120734 C102.503398,81.4120734 97.3042068,83.964643 90.7606341,79.9280213 L86.6954795,77.2635769 C87.5803023,76.7475834 88.4582659,76.1539625 89.3042205,75.4735817" id="Fill-76" fill="#B49759"></path>
                <path d="M84.7170891,78.3008152 C86.0248891,79.1159023 91.4435709,82.5200895 94.0888936,84.4721889 C94.0888936,84.4721889 89.5961891,86.3261124 84.98688,81.9926802 C83.4915982,80.5839723 82.67308,79.7848673 82.2226664,79.3282359 C83.0160345,79.0428412 83.85513,78.704934 84.7170891,78.3008152" id="Fill-78" fill="#B49759"></path>
                <path d="M88.8320864,86.7644786 C88.8320864,94.4587181 82.5903136,100.69402 74.8875545,100.69402 C67.1847955,100.69402 60.9430227,94.4587181 60.9430227,86.7644786 C60.9430227,79.0748054 67.1847955,72.8372202 74.8875545,72.8372202 C82.5903136,72.8372202 88.8320864,79.0748054 88.8320864,86.7644786" id="Fill-80" fill="#FEFEFE"></path>
                <path d="M85.9473814,89.6453662 C85.9473814,95.7505284 80.9951177,100.693564 74.8882405,100.693564 C68.7790768,100.693564 63.8290995,95.7505284 63.8290995,89.6453662 C63.8290995,83.5470536 68.7790768,78.6017353 74.8882405,78.6017353 C80.9951177,78.6017353 85.9473814,83.5470536 85.9473814,89.6453662" id="Fill-82" fill="#B49759"></path>
                <path d="M82.2274677,97.3042168 C81.6673086,96.8658506 80.8716541,96.0895772 80.7298995,95.1306512 C80.7161814,95.0461744 80.7093223,94.9616976 80.6978905,94.8749376 C83.5329814,93.6876959 85.9268041,91.6419871 87.5455495,89.0209228 C86.9350905,92.438809 84.9711041,95.3909311 82.2274677,97.3042168 L82.2274677,97.3042168 Z M62.228645,89.009507 C63.8473905,91.6374208 66.2412132,93.6854128 69.0808768,94.8749376 C69.069445,94.9616976 69.0625859,95.0461744 69.0488677,95.1329344 C68.9048268,96.0941435 68.1114586,96.8681338 67.5512995,97.3042168 C64.8030905,95.3909311 62.8368177,92.4342427 62.228645,89.009507 L62.228645,89.009507 Z M65.1917723,78.342597 C64.617895,81.5139022 65.9348405,84.5025549 67.1420405,87.2354939 C67.9811359,89.1396469 68.7859359,90.9661726 69.044295,92.8155299 C65.724495,91.160241 63.2026359,88.1304915 62.2629405,84.3336012 C62.6996359,82.0687094 63.7330723,80.013868 65.1917723,78.342597 L65.1917723,78.342597 Z M78.7979223,93.5689717 C77.8422223,93.8749148 76.8430814,94.0758326 75.8165041,94.1511768 L75.8165041,73.9589353 C77.8788041,74.1073405 79.8062086,74.739775 81.4866859,75.7466473 C84.0382677,79.4270966 82.600145,82.7125597 80.9333859,86.4866184 C79.934245,88.7515102 78.9099541,91.0803305 78.7979223,93.5689717 L78.7979223,93.5689717 Z M75.8165041,96.0073835 C76.8819495,95.9434551 77.9153859,95.7722184 78.9099541,95.5005227 C79.1180132,96.6946138 79.8565086,97.6444072 80.5424177,98.295107 C79.0974359,99.007452 77.5015541,99.4526676 75.8165041,99.573675 L75.8165041,96.0073835 Z M70.8688132,95.5005227 C71.8633814,95.7722184 72.8968177,95.9434551 73.9576905,96.0073835 L73.9576905,99.573675 C72.2749268,99.4526676 70.679045,99.007452 69.2340632,98.295107 C69.9222586,97.6444072 70.6607541,96.6946138 70.8688132,95.5005227 L70.8688132,95.5005227 Z M68.2920814,75.7466473 C69.9702723,74.739775 71.8999632,74.1073405 73.9576905,73.9589353 L73.9576905,94.1511768 C72.9311132,94.0803989 71.9342586,93.8863306 70.980845,93.5918033 C70.8756723,91.0940294 69.8468086,88.7606429 68.843095,86.4866184 C67.1740495,82.7125597 65.7382132,79.4270966 68.2920814,75.7466473 L68.2920814,75.7466473 Z M87.5158268,84.345017 C86.5875632,88.0619968 84.0382677,91.0963126 80.739045,92.7721499 C81.0042632,90.9364916 81.8022041,89.1236648 82.6344405,87.2354939 C83.8416405,84.5002717 85.1585859,81.511619 84.5824223,78.342597 C86.045695,80.0184343 87.0791314,82.0755588 87.5158268,84.345017 L87.5158268,84.345017 Z M74.8882405,71.7534055 C66.6024586,71.7534055 59.8599723,78.488719 59.8599723,86.7651636 C59.8599723,95.0416081 66.6024586,101.774638 74.8882405,101.774638 C83.1763086,101.774638 89.918795,95.0416081 89.918795,86.7651636 C89.918795,78.488719 83.1763086,71.7534055 74.8882405,71.7534055 L74.8882405,71.7534055 Z" id="Fill-84" fill="#002A5B"></path>
                <path d="M79.3528227,52.2696277 C79.3528227,52.2696277 79.2407909,52.7422412 78.9527091,52.7422412 C78.6646273,52.7422412 76.8606864,51.8769246 75.9941545,51.4065943 C75.6237636,51.2079596 75.1047591,50.9065829 74.9241364,50.8015576 C74.9241364,50.8015576 74.1513455,51.2079596 73.7809545,51.4065943 C72.9144227,51.8769246 71.1127682,52.7422412 70.8224,52.7422412 C70.5343182,52.7422412 70.4222864,52.2696277 70.4222864,52.2696277 C70.4222864,52.2696277 65.6872273,55.1235741 65.6872273,63.0095987 C65.6872273,68.8795957 68.7463818,71.54404 68.7463818,71.54404 L69.1625,73.2038952 L74.3708364,73.2038952 L75.4042727,73.2038952 L80.6103227,73.2038952 L81.0264409,71.54404 C81.0264409,71.54404 84.0878818,68.8795957 84.0878818,63.0095987 C84.0878818,55.1235741 79.3528227,52.2696277 79.3528227,52.2696277" id="Fill-86" fill="#002A5B"></path>
                <path d="M81.6090064,61.0166309 C81.6090064,58.5805022 80.6167245,56.5941556 79.5467064,55.4114802 C79.5467064,55.4114802 79.5101245,56.1101262 78.3440791,55.3315697 C77.3380791,54.6397731 76.1537427,54.2356543 74.8825245,54.2356543 C73.6044473,54.2356543 72.4178245,54.6420562 71.4095382,55.336136 C70.2846473,56.1009936 70.2297745,55.4114802 70.2297745,55.4114802 C69.1620427,56.5941556 68.1674745,58.5805022 68.1674745,61.0166309 C68.1674745,63.0417912 68.6636155,64.0372477 68.8373791,64.3226424 C69.8410927,66.9003268 72.1686109,68.7085872 74.8825245,68.7085872 C77.5621427,68.7085872 79.8667973,66.9391404 80.8910882,64.4025529 C80.9505336,64.3203592 81.6090064,63.3500175 81.6090064,61.0166309" id="Fill-88" fill="#FEFEFE"></path>
                <path d="M77.4169586,66.521551 C77.4100995,66.5078521 77.3986677,66.4941531 77.3918086,66.4804542 C77.3918086,66.4804542 76.7264768,65.2338504 77.821645,64.370817 C77.821645,64.370817 80.3000632,64.8868105 80.3595086,61.6059137 C80.3595086,61.6059137 80.3000632,61.2565907 80.6475905,60.5693604 C80.6475905,60.5693604 80.0119814,59.9917217 78.6287314,61.0305581 C77.243195,62.0625452 76.4955541,65.0009684 75.7456268,64.3114549 C75.004845,63.6265078 75.2769223,59.8022196 74.8905268,59.6560976 L74.8768086,59.6560976 C74.4949859,59.8045028 74.7670632,63.6265078 74.023995,64.3114549 C73.2763541,65.0009684 72.5241405,62.0625452 71.1408905,61.0305581 C69.7553541,59.9917217 69.1243177,60.5693604 69.1243177,60.5693604 C69.4695586,61.2565907 69.4101132,61.6059137 69.4101132,61.6059137 C69.4695586,64.8868105 71.9479768,64.370817 71.9479768,64.370817 C73.0454314,65.2338504 72.3823859,66.4850205 72.3823859,66.4850205 C72.3755268,66.4987194 72.3663814,66.5124184 72.3595223,66.5238342 C69.4009677,63.3502458 67.6816223,63.7817625 68.5298632,67.3366381 C69.3643859,70.8298685 72.565295,85.8210781 73.0728677,89.2983264 C73.0042768,92.4262516 72.640745,93.5427154 72.5470041,93.7824469 L72.2223405,94.4285804 L72.5790132,95.1386423 C73.143745,95.9582957 73.5324268,96.8738417 73.671895,97.2231647 L74.8928132,100.319126 L76.1022995,97.2300142 C76.2463405,96.8738417 76.6373086,95.9582957 77.1974677,95.1386423 L77.570145,94.4628278 L77.2340495,93.7847301 C77.1380223,93.5495649 76.7859223,92.4741979 76.7058995,89.4581474 C77.1265905,86.3416379 80.3983768,70.8892306 81.2466177,67.3366381 C82.0925723,63.7817625 80.3755132,63.3502458 77.4169586,66.521551" id="Fill-90" fill="#002A5B"></path>
                <path d="M72.882185,82.1513597 C71.8190259,76.5736068 70.9822168,72.4456588 70.3054532,69.4524398 C69.7910214,67.1669995 71.1674123,68.0802624 71.9081941,69.5095187 L72.882185,82.1513597 Z" id="Fill-92" fill="#E21836"></path>
                <path d="M76.8945245,82.1513597 C77.9576836,76.5736068 78.7944927,72.4456588 79.4712564,69.4524398 C79.9856882,67.1669995 78.6092973,68.0802624 77.8685155,69.5095187 L76.8945245,82.1513597 Z" id="Fill-94" fill="#E21836"></path>
                <path d="M71.202165,63.2573213 C70.9941059,63.2002423 70.8683559,62.9833424 70.9300877,62.7710088 C70.9529514,62.6910983 71.0032514,62.6271699 71.0649832,62.5746573 C70.925515,62.4194026 70.7631832,62.2618648 70.5665559,62.1225922 C70.5665559,62.1225922 70.221315,63.7367843 71.6640105,63.5632643 C71.6640105,63.5632643 71.6137105,63.4194254 71.5062514,63.2139413 C71.4170832,63.2664539 71.3096241,63.2847192 71.202165,63.2573213" id="Fill-96" fill="#E21836"></path>
                <path d="M79.2076386,62.1225922 C79.0110114,62.2618648 78.8486795,62.4194026 78.7092114,62.5746573 C78.7732295,62.6271699 78.8235295,62.6910983 78.8486795,62.773292 C78.9058386,62.9833424 78.7800886,63.2002423 78.5720295,63.2573213 C78.4645705,63.2847192 78.3571114,63.2687371 78.2702295,63.2162244 C78.1627705,63.4171423 78.1124705,63.5632643 78.1124705,63.5632643 C79.5551659,63.7367843 79.2076386,62.1225922 79.2076386,62.1225922" id="Fill-98" fill="#E21836"></path>
                <path d="M75.5638609,84.2205849 C76.0211336,75.60395 76.7093291,69.4987879 76.7093291,68.7362134 C76.7093291,68.4668009 76.6796064,68.1151947 76.5652882,67.7316243 L76.0645745,69.3709311 L75.9091018,66.4736047 C75.6576018,66.1493964 75.3146473,65.8251881 74.8802382,65.5146787 L74.8528018,65.5146787 C74.4206791,65.8251881 74.1165927,66.1493964 73.8628064,66.4736047 L73.7141927,69.3709311 L73.2089064,67.7293411 C73.0968745,68.1151947 73.0648655,68.4668009 73.0648655,68.7362134 C73.0648655,69.4987879 73.7507745,75.60395 74.2080473,84.2205849 C74.6676064,92.8395031 73.5975882,94.4422793 73.5975882,94.4422793 C74.2171927,95.3372769 74.8870973,96.9309206 74.8870973,96.9309206 C74.8870973,96.9309206 75.5570018,95.3372769 76.1766064,94.4422793 C76.1766064,94.4422793 75.1065882,92.8395031 75.5638609,84.2205849" id="Fill-100" fill="#E21836"></path>
                <rect id="Rectangle" x="0" y="0" width="150" height="150"></rect>
            </g>
        </g>
    </g>
</svg>