<svg width="150px" height="150px" viewBox="0 0 150 150" version="1.1" xmlns="http://www.w3.org/2000/svg" xmlns:xlink="http://www.w3.org/1999/xlink">
    <defs>
        <polygon id="path-1" points="149.988602 88.0629636 0 88.0629636 0 0.0916478276 149.988602 0.0916478276 149.988602 88.0629636"></polygon>
    </defs>
    <g id="Page-1" stroke="none" stroke-width="1" fill="none" fill-rule="evenodd">
        <g id="OKC">
            <g id="Page-1">
                <g id="Group-3" transform="translate(0.000000, 31.220391)">
                    <mask id="mask-2" fill="white">
                        <use xlink:href="#path-1"></use>
                    </mask>
                    <g id="Clip-2"></g>
                    <path d="M80.5667061,20.9836118 L80.5667061,20.9867291 L80.5635972,20.9898463 L80.5667061,20.9836118 L80.5667061,20.9836118 Z M85.2362846,43.2378241 L85.2362846,43.2347068 L85.2393935,43.2347068 L85.2393935,43.2347068 C85.2362846,43.2347068 85.2362846,43.2378241 85.2362846,43.2378241 L85.2362846,43.2378241 Z M149.954404,26.9438379 C149.948186,26.9157824 149.957513,26.887727 149.951295,26.8596715 C149.932642,26.7879742 149.889117,26.7318633 149.864246,26.6632833 C149.826939,26.5666478 149.79585,26.4700124 149.742998,26.3827287 C149.693256,26.3047969 149.631078,26.2424514 149.568899,26.1738714 C149.500504,26.1021741 149.441434,26.0273596 149.360603,25.9650141 C149.276662,25.9057859 149.186504,25.8652614 149.093237,25.8216196 C149.015514,25.7842123 148.9409,25.7405705 148.85696,25.7156323 C148.751257,25.6875768 148.642445,25.6844596 148.530525,25.678225 C148.455911,25.6719905 148.387515,25.643935 148.309792,25.6501696 C139.278417,26.3764942 129.992111,27.766798 120.66539,29.7275627 C121.20634,28.2717962 121.725527,26.7942088 122.219844,25.2948004 C131.052249,23.6956394 139.940614,22.2554592 148.654881,21.0179018 C148.723277,21.00855 148.776128,20.9711427 148.841415,20.9524391 C148.934682,20.9275009 149.024841,20.9025627 149.108781,20.8620381 C149.19894,20.8152791 149.276662,20.7591681 149.357494,20.69994 C149.432108,20.643829 149.500504,20.5908354 149.562682,20.5253727 C149.631078,20.4505581 149.683929,20.369509 149.73678,20.2822254 C149.783414,20.2042935 149.833157,20.129479 149.867355,20.0421953 C149.904661,19.9486771 149.920206,19.8489244 149.938859,19.7460544 C149.951295,19.6774744 149.985493,19.6182462 149.988602,19.5465489 C149.988602,19.5184935 149.976166,19.490438 149.976166,19.4623826 C149.976166,19.4343271 149.988602,19.4062716 149.985493,19.3750989 C149.982384,19.2971671 149.945077,19.2285871 149.929533,19.1537725 C149.910879,19.0602543 149.895335,18.9667361 149.861137,18.8794525 C149.820721,18.7859343 149.761652,18.7048852 149.705691,18.6207188 C149.655949,18.542787 149.612424,18.4679724 149.547137,18.4025097 C149.478741,18.3276952 149.391692,18.2747015 149.307751,18.2154733 C149.233138,18.1624797 149.16785,18.1063688 149.08391,18.0689615 C148.984425,18.0222024 148.878722,18.0034988 148.773019,17.9816779 C148.698405,17.9629742 148.633118,17.9255669 148.555396,17.9193324 C140.807999,17.3145814 132.743494,17.1680696 124.560851,17.4392723 C124.781583,16.6100777 124.999207,15.7715313 125.210612,14.9205157 C125.384711,14.2191293 125.055167,13.4896874 124.414732,13.1592564 C106.439031,3.87601731 92.1225138,0.0916478276 75.0048713,0.0916478276 C57.8841198,0.0916478276 43.5676025,3.87601731 25.5825749,13.1592564 C24.94214,13.4896874 24.6125958,14.2191293 24.7835857,14.9205157 L25.8717032,19.3158707 C27.5069884,25.9089032 29.7858173,32.208912 32.5993782,38.1504345 C21.2518673,43.019615 10.5199199,48.6307065 0.720644669,54.8777217 C0.0522296395,55.3047881 -0.190265115,56.1682727 0.157932481,56.8821282 C0.4284074,57.427651 0.97868396,57.7518474 1.55383178,57.7518474 C1.73103948,57.7518474 1.91135609,57.7206747 2.08545489,57.6583292 C11.4370475,54.2511498 21.1772535,50.9842476 31.0355979,47.8825609 C29.2293229,51.7105722 27.451028,55.5572872 25.7411291,59.4195885 L25.4644364,60.0368085 C24.5193286,62.1191469 23.2229144,64.9745691 24.1431509,67.371752 C24.5783979,68.5064394 25.4302384,69.3543377 26.9038604,69.974675 C27.084177,70.0214341 27.2613847,70.0619587 27.4417013,70.0931314 C20.5523632,74.9186701 14.064074,80.0216461 8.06699218,85.3365966 C7.47319092,85.8634158 7.37059699,86.7549558 7.82760633,87.4033486 C8.12917032,87.830415 8.60794202,88.0642105 9.09914934,88.0642105 C9.35407973,88.0642105 9.61211902,88.0018651 9.85150486,87.8678223 C23.4654091,80.3115525 37.8534312,72.9672572 52.6238489,66.0313246 C58.8634255,72.0913034 66.0947435,77.6026422 74.2058821,82.47494 C74.6970895,82.7679636 75.3095442,82.7679636 75.8038604,82.47494 C94.9236391,70.9815542 107.903326,57.2998428 116.505672,39.537621 C127.365085,35.6098569 138.258695,31.9657647 148.891158,28.6957453 C148.959554,28.6739244 149.009296,28.6271653 149.074583,28.5991099 C149.158524,28.5617026 149.236246,28.5242953 149.31086,28.4744189 C149.39791,28.4120735 149.469414,28.3403762 149.544028,28.2655616 C149.603097,28.2000989 149.662167,28.1408707 149.711909,28.0660562 C149.770978,27.9787725 149.808285,27.8883716 149.848701,27.7917361 C149.882899,27.710687 149.920206,27.6296379 149.938859,27.539237 C149.960622,27.436367 149.960622,27.333497 149.963731,27.2275097 C149.963731,27.1589297 149.988602,27.093467 149.979275,27.024887 C149.976166,26.9968315 149.957513,26.9718933 149.954404,26.9438379 L149.954404,26.9438379 Z" id="Fill-1" fill="#FEFEFE" mask="url(#mask-2)"></path>
                </g>
                <path d="M148.435081,58.4263917 C137.612975,61.7525221 126.5919,65.4433734 115.424705,69.4927111 C116.419556,67.4072554 117.352228,65.256337 118.235157,63.0399558" id="Fill-4" fill="#0070B9"></path>
                <path d="M118.235779,63.0399558 C128.557351,60.7394083 138.673735,59.2088273 148.435703,58.4263917" id="Fill-6" fill="#0070B9"></path>
                <path d="M9.09759489,117.724718 C17.7310299,110.071813 27.4650181,102.789863 38.1316784,96.0877261 C40.1369235,95.0683778 42.1452775,94.0583813 44.1629582,93.0577367 C44.9930364,92.6462566 46.6189949,91.8544693 48.6646557,90.869411 C50.0387927,92.4186957 51.4626721,93.9212213 52.9362941,95.3863396 C37.6187088,102.549833 22.9633206,110.028171 9.09759489,117.724718" id="Fill-8" fill="#0070B9"></path>
                <path d="M148.435081,50.6943077 C139.465884,51.9692723 130.328806,53.449977 121.054936,55.1426563 C121.567906,53.5528471 122.049786,51.9287478 122.516122,50.2765931" id="Fill-10" fill="#EF5133"></path>
                <path d="M122.516433,50.2756579 C131.438997,49.8984679 140.109739,50.0449797 148.435392,50.6933725" id="Fill-12" fill="#ED2A37"></path>
                <path d="M1.55445356,87.4136021 C11.5744612,81.0263096 22.6732596,75.2094781 34.6580965,70.1563785 C35.0560366,70.9606349 35.4695213,71.7617741 35.8861148,72.5504442 C35.24568,73.872168 34.6021362,75.1907745 33.9679191,76.5187328 C22.825596,79.9664368 12.0097082,83.6042944 1.55445356,87.4136021" id="Fill-14" fill="#EF5133"></path>
                <path d="M75.0023841,35.9739209 C91.8930765,35.9739209 105.14013,39.9359749 120.093973,47.4111957 C112.778714,75.0614076 99.3886515,93.6341205 75.005493,108.724839 C65.8435438,103.042051 58.0557315,96.7077517 51.5487889,89.4881473 C54.4431814,88.1103126 57.7075339,86.5579106 60.5739462,85.1987796 C61.7335686,85.3047669 62.8465573,85.3608778 63.8818234,85.3889332 C63.8165363,86.9818598 63.3160023,88.1508372 62.5139043,88.9893836 C62.9802403,89.5224373 63.4559031,90.0586083 63.9315659,90.5823101 C65.1968911,89.4476227 66.0083158,87.7767644 66.0736029,85.3951678 C69.0395003,85.3484087 71.9028037,85.0429159 74.5609193,84.4786895 C74.4116918,88.83352 73.8054549,92.0411939 72.5681099,93.3130413 C72.5245852,93.3535659 72.5028228,93.3847386 72.4810605,93.4283804 C72.1732787,93.7525768 71.8965859,94.0268969 71.6572001,94.2357542 C72.8541293,94.017545 74.0261873,93.7401077 75.1858097,93.4127941 C76.6780851,90.3173419 76.6967385,84.8964041 76.7185009,83.9549876 C79.4885371,83.2567185 81.9507915,82.555332 84.1674423,81.7947174 C84.2544917,84.3415295 85.2679954,86.7730025 87.2079535,87.6707771 C88.0815564,87.053557 88.9271791,86.3958124 89.7448217,85.7162469 C89.2536143,85.7910615 86.1882319,86.003036 86.2317566,81.0559237 C92.7200458,78.6026298 96.9450505,75.647455 100.663303,71.2302791 C101.645718,69.0076634 102.438489,66.6759431 102.998093,64.2600565 C98.5523555,71.2957418 94.4548159,75.4011904 86.4555979,78.6213335 C86.6825482,77.2029742 87.0929239,75.5071777 87.7551211,73.4747156 C90.0868014,72.4958919 92.5210757,71.3269145 93.9884799,70.7221635 L97.4860004,67.0375468 C98.3658211,63.6334846 99.239424,60.2263052 100.113027,56.822243 L97.3771886,57.6763758 L100.591799,54.2879 C101.26954,51.6226316 101.931738,48.9511286 102.593935,46.2858601 C100.983521,46.5227729 99.3699981,46.7628029 97.7564753,47.015302 C98.0269502,45.6811091 98.2197025,44.3625026 98.3222964,43.0438961 C97.5450696,42.8475079 96.7678428,42.6573543 95.9843982,42.482787 C95.8196262,43.9634917 95.5304978,45.6062946 95.0921419,47.4361339 L94.8714095,47.4704239 C93.3604806,47.7260403 91.8122449,48.224804 90.4660881,49.3626086 L90.8982262,48.0502367 C88.3053977,48.5209449 85.7218959,48.9978877 83.138394,49.4997686 L80.564219,52.2117962 L80.6481595,51.9935871 L81.4813466,49.8208478 C78.9258249,50.3476669 76.3765211,50.8869551 73.8241083,51.444947 C73.2924852,47.9878912 72.7577532,44.8643836 72.294526,42.3362752 C71.5701507,42.4204415 70.8457753,42.5233116 70.1276178,42.6261816 C70.5939538,45.1823455 71.1380126,48.3837849 71.6820713,51.9187725 L69.8726874,52.3271353 L67.575205,54.755491 C65.9647912,53.0472254 62.6973298,54.1258018 60.6361244,54.6463864 C58.403929,55.2106129 56.1748426,55.7966602 53.9457562,56.3982939 C53.2804501,56.582213 52.6182529,56.7848357 51.9684913,57.0092794 C50.2990082,54.5965101 48.7290101,52.1058089 47.4325958,49.4249541 L47.1994278,48.9293077 C46.524795,49.2036277 45.8563799,49.4872995 45.1879649,49.7834405 L45.4739844,50.3757224 C46.7362006,52.997349 48.2564562,55.4475256 49.8948503,57.8260049 C47.4916651,58.8983469 45.2719054,60.3852861 43.3474919,62.5112663 C43.3474919,62.5112663 40.2230402,65.7906376 39.8561892,66.1927658 C39.0447644,67.1279477 38.3452603,68.1223578 37.7265878,69.1354716 C34.4466908,62.5143836 31.8445356,55.3103656 29.8921419,47.414313 C44.849094,39.9390922 58.1023651,35.9708036 75.0023841,35.9739209 L75.0023841,35.9739209 Z M76.6532138,77.8295461 C78.2076674,77.143746 79.7621209,76.4641805 81.3103567,75.7814977 L82.0378409,75.0240004 C82.3425138,75.0738767 82.6938203,75.0832285 83.0886515,75.0458213 C83.6948884,74.9429513 84.4348083,74.734094 85.2369064,74.4535394 C84.71461,76.3644278 84.3975014,78.0165825 84.2544917,79.4536454 C82.0440587,80.2360809 79.5631509,80.9748746 76.7433721,81.6887301 C76.7402632,80.45429 76.7091741,79.163739 76.6532138,77.8295461 L76.6532138,77.8295461 Z M65.8963952,82.6893748 L67.3544726,82.0098093 L71.0975968,78.9922889 L71.9307839,76.6855069 C72.4717337,77.782787 72.763971,78.2129707 73.3018119,79.3196026 L74.5329392,78.7771971 C74.5764639,79.9648781 74.5951173,81.1213864 74.5951173,82.2249011 C71.893477,82.8452384 68.9742132,83.1787866 65.9616822,83.2255457 L65.8963952,82.6893748 Z" id="Fill-16" fill="#FEFEFE"></path>
                <path d="M84.1015335,41.6330184 C87.6705588,41.6330184 91.1929506,41.8200548 94.6655998,42.1941275 C97.3081709,42.7490021 99.9258707,43.4223331 102.521808,44.2078859 C103.510441,47.6836454 104.045173,51.355793 104.045173,55.146397 C104.045173,58.285491 103.684539,61.3310668 102.997471,64.2581862 C98.5517337,71.2938714 94.4541942,75.4024373 86.4549762,78.6225804 C86.6819264,77.2042211 87.095411,75.5053073 87.7544993,73.4759626 C90.0861797,72.4940215 92.5204539,71.3281614 93.9847492,70.7202932 L97.4853786,67.0356764 C98.3651993,63.6316143 99.2388022,60.2244348 100.112405,56.8203727 L97.3765669,57.6745055 L100.594286,54.2860297 C101.268919,51.6207612 101.934225,48.9523755 102.593313,46.287107 C100.982899,46.5209025 99.3693763,46.7609325 97.7558535,47.0134316 C98.0263284,45.6823561 98.2190807,44.3606323 98.3216746,43.0420258 C97.5475567,42.8456376 96.7641121,42.6586012 95.9837765,42.4840339 C95.8221133,43.9616213 95.529876,45.6075415 95.0915201,47.4373808 L94.8707877,47.4716708 C93.35675,47.7272872 91.8116231,48.2260509 90.4654663,49.3607383 L90.8976044,48.0483663 C88.3047759,48.5190745 85.7212741,48.9991346 83.1377723,49.4978983 L80.5635972,52.2099258 L80.6506466,51.9917167 L81.4807248,49.8220947 C78.928312,50.3457965 76.3758993,50.888202 73.8234866,51.4461939 C73.2918634,47.9891381 72.7602403,44.8656305 72.2939043,42.3375221 C76.1644936,41.8668138 80.10037,41.6330184 84.1015335,41.6330184 L84.1015335,41.6330184 Z M100.662682,71.2284087 C98.1724471,76.8706729 94.4106695,81.8177852 89.7473088,85.7143765 C89.2529926,85.7891911 86.1845012,86.0011657 86.2311348,81.0540533 C92.7225329,78.6007594 96.9444288,75.6455846 100.662682,71.2284087 L100.662682,71.2284087 Z M87.2073317,87.6689067 C83.5916727,90.2219534 79.5438756,92.1827181 75.1882968,93.4109237 C76.6774633,90.3154716 76.6961167,84.8945337 76.720988,83.9562345 C79.4879153,83.2579654 81.9501698,82.5534617 84.1668205,81.7959643 C84.2538699,84.3396591 85.2673736,86.7711321 87.2073317,87.6689067 L87.2073317,87.6689067 Z M71.6596872,94.2370011 C70.4378867,94.464562 69.2005417,94.6328947 67.9476521,94.7451166 C66.5641884,93.3953373 65.2242495,92.0050336 63.9309441,90.5804398 C65.1931604,89.4457524 66.0076941,87.774894 66.0729811,85.3964147 C69.0388785,85.3465383 71.902182,85.0441628 74.5602975,84.4768191 C74.41107,88.8316496 73.8048331,92.0393236 72.570597,93.311171 C72.5239634,93.3516955 72.502201,93.3859855 72.4835476,93.4265101 C72.169548,93.7538237 71.8959641,94.0250265 71.6596872,94.2370011 L71.6596872,94.2370011 Z M62.5163914,88.9875132 C61.5557391,87.8839986 60.619958,86.7555457 59.7090483,85.6083893 L60.5733244,85.1969092 C61.7329468,85.3060138 62.8459355,85.3621247 63.8812016,85.3870629 C63.8190235,86.9799894 63.3153805,88.1520841 62.5163914,88.9875132 L62.5163914,88.9875132 Z M45.3427885,60.6078594 C44.1334236,57.5311109 43.0639596,54.3795479 42.1499409,51.1594048 C43.1541179,50.682462 44.1707305,50.2242229 45.190452,49.7815701 L45.4733626,50.3769693 C46.7355789,52.9985959 48.2558344,55.4456552 49.8942285,57.8241346 C48.2838146,58.5411074 46.7542323,59.4482338 45.3427885,60.6078594 L45.3427885,60.6078594 Z M47.198806,48.9274373 C54.6477475,45.8693924 62.2645699,43.7621159 70.1301049,42.6274285 C70.5933321,45.1835924 71.1373908,48.3819145 71.6814496,51.9200194 L69.8720656,52.3252649 L67.5745833,54.7567379 C65.9610605,53.0484723 62.6935991,54.1270487 60.6355026,54.6445161 C58.4033073,55.214977 56.171112,55.7947898 53.9451345,56.3964235 C53.2798283,56.5803426 52.6176311,56.7829654 51.9678695,57.007409 C50.2983864,54.5946397 48.7283883,52.1039385 47.4319741,49.4230837 L47.198806,48.9274373 Z M76.6557009,77.8276757 C78.2070456,77.1418757 79.7614991,76.4623101 81.3097349,75.7827446 L82.0372191,75.0252473 C82.341892,75.0720064 82.6931986,75.0875927 83.0880298,75.0439509 C83.6911577,74.9410809 84.4310776,74.7322236 85.2393935,74.4547863 C84.7139882,76.3625574 84.3999886,78.0147121 84.2538699,79.451775 C82.043437,80.2373278 79.5625291,80.9730042 76.7427503,81.689977 C76.7396414,80.4524196 76.7085524,79.1649859 76.6557009,77.8276757 L76.6557009,77.8276757 Z M65.8957734,82.6875044 L67.3538508,82.0110562 L71.096975,78.9904186 L71.9301621,76.6836365 C72.471112,77.7840339 72.7664581,78.2111003 73.3011902,79.3208495 L74.5323174,78.7753267 C74.5758421,79.966125 74.5944955,81.1226333 74.5944955,82.2292653 C71.8928552,82.8433681 68.9735915,83.1769163 65.9610605,83.2236754 L65.8957734,82.6875044 Z" id="Fill-18" fill="#EF5133"></path>
                <path d="M75.7323555,104.124679 C68.553889,99.2492644 62.1557582,93.5103647 56.6250124,87.0700786 L59.7090483,85.6080775 C60.619958,86.755234 61.5557391,87.8805696 62.5163914,88.9872015 C62.9796185,89.5202552 63.4552813,90.0564262 63.9309441,90.5832453 C68.0284837,95.0939394 72.5643792,99.2243262 77.5075415,102.933881 C76.919958,103.336009 76.3292657,103.731903 75.7323555,104.124679 L75.7323555,104.124679 Z M41.910555,64.0240789 C39.8120427,59.4198667 38.0461835,54.6317353 36.6378486,49.6783884 C49.1543086,43.7555696 62.1153424,40.5603647 75.8722563,40.1894092 C82.3045852,40.2455201 88.5565974,40.9188511 94.6687088,42.1938158 C91.1929506,41.8228603 87.6705588,41.6327066 84.1015335,41.6327066 C80.0972611,41.6327066 76.1644936,41.8696194 72.2939043,42.3372103 C71.5695289,42.4213767 70.8482624,42.5211295 70.1301049,42.6271167 C62.261461,43.7618041 54.6477475,45.8690807 47.198806,48.9271256 C46.5241732,49.2045629 45.8557582,49.4882347 45.1873431,49.7843757 C44.1707305,50.2239112 43.1541179,50.6821503 42.1499409,51.1590931 C43.0639596,54.3792361 44.1303147,57.5307992 45.3427885,60.6075477 C44.6495022,61.1748914 43.9810872,61.8108151 43.349979,62.5090842 L41.910555,64.0240789 Z" id="Fill-20" fill="#FCB424"></path>
                <path d="M26.2935819,45.7655872 C42.4723345,37.4144128 56.6644955,32.8694286 75.0039386,32.8694286 C93.3340549,32.8694286 107.529325,37.4144128 123.70186,45.7655872 C116.187631,76.1215922 101.840025,96.2248861 75.0039386,112.356774 C64.8751192,106.271857 56.0240607,99.1426537 48.6652775,90.869411 C46.6196166,91.8544693 44.9936582,92.6431394 44.1604711,93.0546194 C41.6267118,94.3202323 39.0929525,95.5920797 36.5716288,96.8795134 C33.7269788,98.3352799 30.5683292,100.536075 27.2915411,99.6850592 C23.7100801,98.1264226 26.0697406,93.7528886 27.1640759,91.2684219 C29.9496567,84.9746477 32.8564848,78.733867 35.8876693,72.5491973 C32.247139,65.6974311 29.3838356,58.2471485 27.3785905,50.1609422 L26.2935819,45.7655872 Z M75.0039386,35.9742326 C58.1008106,35.9711153 44.8506485,39.9394039 29.8905874,47.4146247 C31.84609,55.3044428 34.4451364,62.5209299 37.7281423,69.1357833 C38.3437059,68.1226696 39.04321,67.1282594 39.8577437,66.1899603 C40.2214858,65.7909493 43.3490463,62.5115781 43.3490463,62.5115781 C45.2703509,60.3824806 47.4932195,58.8955413 49.8932958,57.8263167 C48.2549018,55.4478373 46.7377551,52.9976607 45.4724299,50.3760341 L45.1895194,49.7837522 C45.8579344,49.4876113 46.5263494,49.2039394 47.2009823,48.9265021 L47.4341503,49.4252658 C48.7305646,52.1030034 50.2974537,54.5937045 51.9700458,57.0095911 C52.6198074,56.7851475 53.2788957,56.5825247 53.9473107,56.3986056 C56.1732882,55.7938546 58.4023746,55.2109246 60.6376788,54.6435809 C62.6957753,54.1261136 65.9632367,53.0475371 67.5736506,54.7558027 L69.8742418,52.327447 L71.6805169,51.9190842 C71.139567,48.3840966 70.5923994,45.1826572 70.1291722,42.6264933 C70.8473298,42.5236233 71.5717051,42.4207533 72.2929716,42.3365869 C72.7593076,44.8646953 73.2909308,47.9882029 73.8225539,51.4452587 C76.3749666,50.8872669 78.9273794,50.3479786 81.482901,49.8211595 L80.6497139,51.9907815 L80.5626645,52.2089906 L83.1368396,49.4969631 C85.7203414,48.9981994 88.3069521,48.5181394 90.8966718,48.0474311 L90.4645337,49.3629203 C91.8106904,48.2251157 93.3589262,47.726352 94.869855,47.4707356 L95.0936964,47.4364456 C95.5289434,45.6066063 95.8211806,43.9638034 95.9828438,42.4830987 C96.7662884,42.657666 97.5466241,42.8478197 98.3238508,43.0410906 C98.218148,44.3596971 98.0253958,45.6814209 97.7549208,47.0124965 C99.3684436,46.7631146 100.985075,46.5230846 102.59238,46.2861718 C101.933292,48.9514403 101.267986,51.619826 100.593353,54.2882118 L97.3756342,57.6735703 L100.111472,56.8194375 C99.2409784,60.2266169 98.3642666,63.6306791 97.4875548,67.0378585 L93.9869254,70.719358 C92.5226302,71.3272262 90.085247,72.4962036 87.7535667,73.4750274 C87.0944784,75.5043721 86.6809937,77.2032859 86.4540435,78.6216452 C94.4532615,75.4015021 98.5508011,71.2929362 102.996538,64.257251 C102.436935,66.6762549 101.644164,69.0079751 100.661749,71.2305908 C96.9434961,75.6477667 92.7216002,78.6029415 86.2333111,81.0562354 C86.1866775,86.0033478 89.2551688,85.7882559 89.7463761,85.7134414 C88.9287335,86.3961242 88.0800019,87.0538688 87.206399,87.6679716 C85.266441,86.7733142 84.2529372,84.3418412 84.1658879,81.7950291 C81.9492371,82.5556438 79.4900916,83.2570302 76.7200553,83.9552994 C76.6951841,84.8935986 76.6765306,90.3176537 75.1873641,93.4131058 C74.0277418,93.7404195 72.8525749,94.0147395 71.6587545,94.2360659 C71.8950315,94.0272086 72.1717242,93.7528886 72.4826149,93.4255749 C72.5012684,93.3850503 72.5230307,93.3538776 72.5696643,93.3133531 C73.8039004,92.0415057 74.4101373,88.8338317 74.5593649,84.4790012 C71.9012493,85.0432277 69.0379458,85.3456031 66.0751574,85.3954795 C66.0098703,87.7739588 65.1953366,89.4479345 63.9331204,90.5795046 C63.4543487,90.0620373 62.9817948,89.522749 62.5154587,88.9865781 C63.3175567,88.1511489 63.8180908,86.9821715 63.8802689,85.3861277 C62.8450029,85.3611895 61.735123,85.3050786 60.5723918,85.195974 C57.7059794,86.5551051 54.4447358,88.1137416 51.5472344,89.488459 C58.054177,96.7080634 65.8450982,103.042362 75.0039386,108.722034 C99.3870971,93.6344322 112.77716,75.0586021 120.095527,47.4115074 C105.138575,39.9362866 91.8946309,35.9742326 75.0039386,35.9742326 L75.0039386,35.9742326 Z M76.6547683,77.8267406 C76.7107286,79.1640507 76.7387088,80.4546017 76.7418177,81.6890419 C79.5647053,80.9720691 82.0425043,80.2363926 84.2529372,79.4508398 C84.3990559,78.0137769 84.7130555,76.3616222 85.2384608,74.4538511 C84.4332539,74.737523 83.693334,74.943263 83.090206,75.0430157 C82.6953748,75.0835403 82.3440683,75.0710712 82.0362865,75.0211948 L81.3119111,75.7818094 C79.7605665,76.461375 78.2061129,77.1409405 76.6547683,77.8267406 L76.6547683,77.8267406 Z M65.8948407,82.6896865 L65.9601278,83.2258575 C68.9726588,83.1822156 71.8919226,82.8455502 74.5966718,82.2252128 C74.5966718,81.1216982 74.5780183,79.9651899 74.5313847,78.7743916 L73.3002575,79.3199143 C72.7655255,78.2132824 72.4701793,77.7830987 71.9323384,76.6858186 L71.0960423,78.9926007 L67.3529182,82.0132383 L65.8948407,82.6896865 Z" id="Fill-22" fill="#081E3F"></path>
                <path d="M54.2283559,57.6713882 C50.4230536,58.7094401 47.028127,60.3397739 44.3109422,63.354177 C42.7502708,65.146609 41.6372821,67.2008919 40.5989071,69.3019339 C37.558396,75.50219 34.6422411,81.7554398 31.8504425,88.0648004 C31.1229582,89.7107206 28.8845451,93.7132992 31.265968,94.7482338 C33.9023212,95.4340339 37.1977627,93.2145355 39.5232253,92.0268545 C42.0507667,90.7394207 44.5814171,89.4613387 47.1213942,88.1988432 C51.445884,86.0479248 55.3226912,83.4387672 57.9528266,79.246035 C59.0005283,77.4754239 59.780864,75.5770046 60.5487641,73.6817026 C62.1995937,69.6074267 63.8815125,65.5331508 65.5945203,61.4744613 C66.2380641,59.9532321 67.3603796,58.0361091 67.0028552,56.3746026 C66.2815888,54.1457524 62.526029,55.5080007 60.8907438,55.9163635 C58.6709842,56.4837072 56.4481156,57.0666372 54.2283559,57.6713882 M49.4188766,80.9511833 C47.4074137,81.8520752 45.4052775,82.7560844 43.4000324,83.6819145 C46.3068606,76.9236665 49.3225005,70.2121777 52.4718234,63.5536824 C54.2314648,62.9925733 55.9973241,62.4470505 57.77251,61.9015277 C54.8905531,68.2108884 52.1111902,74.5638909 49.4188766,80.9511833 M83.8344784,50.6886966 C81.0488976,54.3390233 78.2975148,58.0174055 75.58033,61.7207259 C76.8487641,58.3322501 78.1358516,54.9468916 79.4322659,51.5740021 C76.5440912,52.166284 73.6652432,52.7990904 70.7895041,53.4537178 C70.0464753,55.1993907 69.3003376,56.9419463 68.5666355,58.6907365 C69.1884169,58.5161692 69.8133073,58.3447192 70.4319798,58.1732692 C68.1655865,63.6659043 65.9613714,69.177243 63.797572,74.6979336 C62.9115335,76.9454875 62.0286039,79.1930413 61.1487831,81.4374779 C64.0369578,80.0721123 66.9251326,78.7160986 69.822634,77.3819057 C71.1345928,73.7502826 72.4558783,70.1217768 73.7958173,66.5026227 C75.0238356,68.971503 76.2456361,71.4466178 77.4581099,73.9279671 C79.3203452,73.0894207 81.1919073,72.2664606 83.0665783,71.4497351 C81.9256094,68.8436948 80.7690959,66.2438891 79.6032558,63.6440834 C81.6768968,60.489403 83.7660824,57.3471918 85.8770303,54.2174497 C86.4708316,54.0740551 87.0646328,53.9337778 87.6584341,53.7966178 C88.1030078,52.4374868 88.5475815,51.0783557 88.9921553,49.7192247 C87.2729296,50.0340692 85.5505951,50.3520311 83.8344784,50.6886966 M95.0141083,48.7715736 C93.4627637,49.0303073 92.0606466,49.529071 90.9041331,50.6949311 C89.9559165,51.7236312 89.4522735,52.942485 89.0294621,54.2455051 C87.795226,58.1358619 86.5516632,62.0293359 85.3112092,65.92281 C84.8262197,67.4627428 84.0334484,70.2651713 86.4925939,70.056314 C87.3319989,69.919154 88.1216613,69.5731367 88.9082148,69.2333539 C91.3953405,68.1703638 93.888684,67.1198428 96.3882453,66.0849082 C97.0255712,63.6440834 97.6597883,61.197024 98.2846786,58.7468474 C96.9696109,59.1583274 95.660761,59.5791593 94.3488022,59.9999912 C94.0379115,61.1035058 93.7332386,62.2101378 93.4254568,63.3105351 C92.514547,63.6472006 91.6036372,63.9776316 90.6927274,64.3174143 C91.846132,60.3678294 92.9995365,56.4213617 94.1436143,52.4686595 C94.9519302,52.2940922 95.7571371,52.1226422 96.5685619,51.9543094 C96.3758097,52.646344 96.1892752,53.3383787 95.996523,54.0335306 C97.1747988,53.7498587 98.3561835,53.4693041 99.5344593,53.2012187 C99.9821419,51.4212557 100.429825,49.6381756 100.874398,47.8582126 C98.9220046,48.148119 96.966502,48.4504945 95.0141083,48.7715736" id="Fill-24" fill="#FEFEFE"></path>
                <path d="M105.512888,45.1614597 C106.697381,45.5511189 107.804152,45.9470125 108.910923,46.3616099 C111.684068,47.3965445 114.136996,48.4501828 116.164003,49.4258893 C109.902665,70.9755978 97.0784227,89.0464297 78.9814743,101.908298 L77.5047435,102.933881 C72.2071657,98.9562407 69.0796052,95.8327331 69.0796052,95.8327331 L71.5729487,95.4212531 C79.1400286,94.1556402 86.4335247,90.7172881 92.4648045,85.0781411 C102.742851,75.4613538 106.915005,61.7360005 104.797839,48.8024347 C104.744988,48.509411 104.685918,48.2163873 104.639285,47.9233637 L104.614414,47.7955555 L104.589542,47.6583954 L104.558453,47.5150009 L104.530473,47.3809581 L104.505602,47.231329 L104.474513,47.0910517 L104.440315,46.9351881 L104.406117,46.7886763 L104.375028,46.648399 L104.353265,46.5299426 L104.309741,46.3647271 L104.278652,46.2088635 L104.247562,46.0935244 L104.2258,45.9781853 L104.19782,45.8659634 C104.08279,45.4014898 103.980196,45.0055961 103.868276,44.6221715 C104.42477,44.8029733 104.975047,44.9837752 105.512888,45.1614597 M105.711858,45.4139588 C106.818629,45.7942662 107.959598,46.1963944 109.047715,46.6047572 C107.940944,46.180808 106.827955,45.7880316 105.711858,45.4139588" id="Fill-26" fill="#0070B9"></path>
                <rect id="Rectangle" x="0" y="0" width="150" height="150"></rect>
            </g>
        </g>
    </g>
</svg>