<svg width="150px" height="150px" viewBox="0 0 150 150" version="1.1" xmlns="http://www.w3.org/2000/svg" xmlns:xlink="http://www.w3.org/1999/xlink">
    <defs>
        <polygon id="path-1" points="129.783924 75.681462 129.783924 0.0113368962 0.000535555837 0.0113368962 0.000535555837 75.681462 129.783924 75.681462"></polygon>
    </defs>
    <g id="Page-1" stroke="none" stroke-width="1" fill="none" fill-rule="evenodd">
        <g id="ORL">
            <g id="Page-1">
                <g id="Group-3" transform="translate(10.000000, 37.026899)">
                    <mask id="mask-2" fill="white">
                        <use xlink:href="#path-1"></use>
                    </mask>
                    <g id="Clip-2"></g>
                    <path d="M112.496717,18.567687 C113.452684,18.1470236 114.571996,17.6647342 115.602941,17.2333532 L118.936776,15.8373935 L108.008759,12.2925669 L105.381858,0.0102651421 L98.7730986,9.89451715 L87.5692705,7.04097191 L91.334228,11.9335293 C77.2250095,10.1410206 61.5546457,11.4646369 47.4802383,15.6551953 L48.4094277,12.7346655 L46.004782,13.4259468 C26.8399163,18.9213659 10.0663075,33.8455415 2.22577006,52.3734901 L0.000535555837,57.6358027 L4.3305045,53.9114572 C13.6973761,45.8652635 23.364159,37.5591694 37.3957219,33.1113899 L33.4861643,42.2052233 L36.8949772,40.3376918 C39.9744232,38.6496791 43.4501806,37.3528567 47.1589048,36.457942 L52.1663519,38.1781073 C60.0068893,40.8655307 66.8111263,43.1939164 73.4948631,47.4702152 C73.4439853,54.7635017 76.4029313,61.9978418 81.6808341,67.4289556 C86.8623368,72.7582528 93.6237292,75.681462 100.741266,75.681462 L100.952811,75.681462 C117.292619,75.5582103 126.927269,63.5250913 129.227481,51.6607737 C131.294727,40.9941412 128.014447,26.2923546 112.496717,18.567687" id="Fill-1" fill="#FEFEFE" mask="url(#mask-2)"></path>
                </g>
                <path d="M60.5120199,73.2233329 C69.7985581,71.7979 79.0663519,72.2158841 87.1800228,75.6428178 L88.1681233,73.467157 C75.0416498,69.2390871 58.5411744,69.4561173 46.250168,76.1894123 L49.7500254,68.0494401 C34.3019172,72.2266016 23.9067784,80.9453211 13.458084,89.9239409 C21.0763658,71.9157929 37.6411079,57.1121897 56.3748511,51.7400224 L55.4215617,54.7275369 C71.825637,49.3714459 89.8310242,48.3559589 104.408854,50.7647262 L100.994686,46.3196261 L109.35739,48.4524167 L114.737048,40.4142611 L116.863205,50.3547802 L125.086665,53.0234479 C125.086665,53.0234479 119.096473,55.5340318 119.382995,55.6519248 C150.528245,68.4888593 140.558873,111.141992 110.942635,111.36974 C95.9631385,111.492992 84.3415769,97.9486996 84.8476771,83.7801106 C77.2320731,78.7643015 69.5896913,76.3501754 60.5120199,73.2233329" id="Fill-4" fill="#C4CDD3"></path>
                <path d="M116.302478,55.6637141 C118.016257,54.9161656 121.216203,53.5202059 121.216203,53.5202059 L121.454525,53.4157099 L121.205492,53.3326489 C121.205492,53.3326489 116.0588,51.6392775 114.952877,51.2802399 C114.786855,50.1147073 113.97281,44.5147922 113.97281,44.5147922 L113.935321,44.2441743 L112.063554,47.2906353 C112.063554,47.2906353 110.989764,49.0188388 110.411364,49.9619824 C109.192974,49.6511737 103.874905,48.2954048 103.874905,48.2954048 L103.593738,48.2257407 L103.770472,48.4534885 C103.775827,48.4588473 105.936795,51.2427285 107.246229,52.9360999 C101.893348,51.7732467 95.7183895,51.1221561 88.6383414,51.1221561 C86.314029,51.1221561 83.8933166,51.1918202 81.3762042,51.336507 C71.7228102,51.8884603 62.230083,53.6890072 53.1202782,56.9819716 L54.1619343,53.8819229 L53.9771676,53.93819 C39.7206712,58.3940076 24.1306408,71.7668191 17.2380371,84.9895851 L17.3933483,85.107478 C27.1377868,75.9627363 40.3258493,68.6587323 52.1482444,66.0007822 L49.0420205,73.2431604 L49.2830207,73.1279468 C54.7831791,70.4699967 62.0051496,69.2937466 69.2940645,69.2937466 C76.7490018,69.2937466 84.2735613,70.5262638 90.0896977,72.6456575 L87.8591076,77.5087416 C82.5571048,75.0758598 74.8879452,73.4360761 68.5255419,73.4360761 C67.3928413,73.4360761 66.3003074,73.4869844 65.2693624,73.5968392 L65.2532957,73.7924343 C72.7671441,75.9145074 80.5487704,78.3125572 86.7156959,83.2587023 C86.678207,83.7838618 86.6594625,84.3090213 86.6594625,84.8315014 C86.6621403,97.8479547 97.8927462,109.629211 111.070098,109.631891 C111.158464,109.631891 111.249509,109.629211 111.337876,109.629211 C125.86215,109.457731 136.624144,96.1331481 136.626822,82.2405359 C136.6295,72.0079638 130.775875,61.4619036 116.302478,55.6637141" id="Fill-6" fill="#120C0D"></path>
                <path d="M108.379733,79.5064912 C103.016141,79.5064912 97.6498717,77.5398225 92.2595022,75.5570774 C90.8402792,78.5633476 90.1172788,81.7143046 90.1172788,84.9188493 C90.1172788,86.6229383 90.32079,88.345783 90.7358458,90.0659483 C91.1803571,90.0766658 91.6275463,90.0820246 92.0747354,90.0820246 C102.480585,90.0820246 113.523747,87.1882886 122.443429,81.8965028 C121.415162,79.9834218 120.140539,78.1962719 118.817716,76.4761066 C115.344637,78.6732024 111.863524,79.5064912 108.379733,79.5064912" id="Fill-8" fill="#C4CDD3"></path>
                <path d="M91.6998463,92.1041566 L91.3490572,92.1041566 C94.6025589,100.525464 102.06553,106.106624 111.167301,106.232555 C114.080725,99.0518024 117.312804,91.2065626 124.700797,87.5384842 C124.315197,86.2443412 123.84123,84.9850301 123.319063,83.7444748 C113.804913,89.3068785 102.697485,92.1041566 91.6998463,92.1041566" id="Fill-10" fill="#C4CDD3"></path>
                <path d="M114.191853,65.6760407 C110.957095,64.4408441 108.895205,64.057692 108.702405,64.02286 C107.797316,64.1461117 106.568215,64.2666841 105.574759,64.4649586 C111.074918,66.6566957 115.134431,69.3146458 119.215366,73.8669212 C121.312067,72.2083818 123.15438,70.3301328 124.43168,68.0231821 C120.690823,64.3818976 113.645586,59.9207213 96.0739986,58.5381585 C103.494125,60.3038734 110.317106,62.6858468 114.282897,65.5018806 L114.191853,65.6760407 Z" id="Fill-12" fill="#C4CDD3"></path>
                <path d="M64.9258033,63.2369963 C66.0156595,63.2128819 67.1912045,63.1994849 68.4363718,63.1994849 C80.9201784,63.2048437 100.1868,64.6731468 107.657804,73.54995 L107.531948,73.6999955 C104.947891,72.2584863 99.7770994,69.8711541 96.5530533,69.8738335 C96.4486199,69.8738335 96.3468643,69.8765129 96.2477865,69.8818716 C95.1391859,71.1063507 94.1591187,72.4621196 93.2808071,73.8661174 C98.2748653,75.7068551 103.330512,77.5368752 108.340637,77.5341958 C111.487028,77.5341958 114.614674,76.8161205 117.712864,74.927154 C109.052927,65.4850005 94.3974411,61.3667855 80.5720671,61.3667855 C75.0826198,61.3667855 69.7217059,62.0151967 64.9258033,63.2369963" id="Fill-14" fill="#C4CDD3"></path>
                <path d="M124.000022,80.9091494 C126.415379,79.2640069 128.501369,77.5465209 130.394559,75.3387075 C129.202947,73.0719477 127.143735,70.5265317 125.665601,69.2163123 C124.289222,71.6438353 122.527244,73.6480155 120.38502,75.4110509 C121.646254,77.0937048 122.979788,79.0576942 124.000022,80.9091494" id="Fill-16" fill="#C4CDD3"></path>
                <path d="M113.284621,106.144939 C117.670823,105.609062 121.703559,104.111286 125.093627,101.230946 C125.615794,99.2883922 125.83805,97.2788533 125.83805,95.2639556 C125.83805,93.340157 125.634539,91.4083203 125.289105,89.5300713 C118.672313,92.7105015 115.924911,99.6956587 113.284621,106.144939" id="Fill-18" fill="#C4CDD3"></path>
                <path d="M127.791222,96.5578307 C127.791222,97.2223182 127.775155,97.8868058 127.743022,98.5512933 C130.316368,95.0680925 131.695424,92.0430666 132.458591,87.5926078 C130.581468,87.7587297 128.720411,88.0748972 126.950399,88.6616825 C127.5288,91.2848006 127.791222,93.9105981 127.791222,96.5578307" id="Fill-20" fill="#C4CDD3"></path>
                <path d="M124.91127,82.7509588 C125.489671,84.0799338 126.006482,85.4276646 126.456349,86.807548 C128.518239,86.1350223 130.510507,85.7893816 132.660763,85.6580917 C132.663441,85.5053667 132.663441,85.3553212 132.663441,85.2025962 C132.663441,82.3544097 132.24303,80.1626727 131.316518,77.4377379 C129.342995,79.4579943 127.259683,81.1781596 124.91127,82.7509588" id="Fill-22" fill="#C4CDD3"></path>
                <path d="M132.660228,85.6591635 C130.509971,85.7904533 128.520381,86.136094 126.455813,86.8086197 C126.005947,85.4260569 125.491813,84.0810056 124.910735,82.7520305 C127.259147,81.176552 129.345137,79.4563867 131.315983,77.4361303 C132.242494,80.1637444 132.662906,82.3554815 132.662906,85.203668 C132.662906,85.3537135 132.662906,85.5064385 132.660228,85.6591635" id="Fill-24" fill="#C4CDD3"></path>
                <path d="M132.660228,85.6591635 C130.509971,85.7904533 128.520381,86.136094 126.455813,86.8086197 C126.005947,85.4260569 125.491813,84.0810056 124.910735,82.7520305 C127.259147,81.176552 129.345137,79.4563867 131.315983,77.4361303 C132.242494,80.1637444 132.662906,82.3554815 132.662906,85.203668 C132.662906,85.3537135 132.662906,85.5064385 132.660228,85.6591635" id="Fill-26" fill="#C4CDD3"></path>
                <path d="M125.664798,69.2157765 C127.142932,70.5259958 129.204822,73.0740912 130.396433,75.3381717 C128.500566,77.5459851 126.414576,79.2661504 123.999219,80.9086135 C122.978985,79.0571583 121.645451,77.093169 120.384217,75.4105151 C122.52644,73.6474796 124.288419,71.6432995 125.664798,69.2157765" id="Fill-28" fill="#C4CDD3"></path>
                <path d="M125.664798,69.2157765 C127.142932,70.5259958 129.204822,73.0740912 130.396433,75.3381717 C128.500566,77.5459851 126.414576,79.2661504 123.999219,80.9086135 C122.978985,79.0571583 121.645451,77.093169 120.384217,75.4105151 C122.52644,73.6474796 124.288419,71.6432995 125.664798,69.2157765" id="Fill-30" fill="#C4CDD3"></path>
                <path d="M96.0729275,58.5373547 C113.644515,59.9225968 120.689752,64.3837732 124.433287,68.0223783 C123.153308,70.329329 121.310996,72.207578 119.216973,73.8661174 C115.136038,69.3165214 111.073846,66.6558919 105.576366,64.4641548 C106.567144,64.2685596 107.796245,64.1453079 108.701334,64.0220562 C108.894134,64.0568882 110.956024,64.4400403 114.190781,65.6752369 L114.284504,65.5010768 C110.316035,62.685043 103.493054,60.3057489 96.0729275,58.5373547" id="Fill-32" fill="#C4CDD3"></path>
                <path d="M96.0729275,58.5373547 C113.644515,59.9225968 120.689752,64.3837732 124.433287,68.0223783 C123.153308,70.329329 121.310996,72.207578 119.216973,73.8661174 C115.136038,69.3165214 111.073846,66.6558919 105.576366,64.4641548 C106.567144,64.2685596 107.796245,64.1453079 108.701334,64.0220562 C108.894134,64.0568882 110.956024,64.4400403 114.190781,65.6752369 L114.284504,65.5010768 C110.316035,62.685043 103.493054,60.3057489 96.0729275,58.5373547" id="Fill-34" fill="#C4CDD3"></path>
                <path d="M92.0744676,90.0828284 C91.6272785,90.0828284 91.1800894,90.0774697 90.735578,90.0667521 C90.3205222,88.3439074 90.117011,86.6237421 90.117011,84.9196531 C90.117011,81.7124291 90.8400114,78.5614721 92.2619122,75.5578812 C97.6496039,77.5379469 103.015873,79.507295 108.379465,79.507295 C111.863256,79.507295 115.344369,78.6740062 118.817448,76.474231 C120.140271,78.1970757 121.414894,79.9842256 122.443161,81.8973066 C113.523479,87.1890924 102.480318,90.0828284 92.0744676,90.0828284" id="Fill-36" fill="#C4CDD3"></path>
                <path d="M92.0744676,90.0828284 C91.6272785,90.0828284 91.1800894,90.0774697 90.735578,90.0667521 C90.3205222,88.3439074 90.117011,86.6237421 90.117011,84.9196531 C90.117011,81.7124291 90.8400114,78.5614721 92.2619122,75.5578812 C97.6496039,77.5379469 103.015873,79.507295 108.379465,79.507295 C111.863256,79.507295 115.344369,78.6740062 118.817448,76.474231 C120.140271,78.1970757 121.414894,79.9842256 122.443161,81.8973066 C113.523479,87.1890924 102.480318,90.0828284 92.0744676,90.0828284" id="Fill-38" fill="#C4CDD3"></path>
                <path d="M111.167569,106.231751 C102.065797,106.10582 94.6028267,100.52466 91.349325,92.1033528 L91.7001141,92.1033528 C102.697753,92.1033528 113.805181,89.3060747 123.319331,83.743671 C123.841498,84.9869057 124.315465,86.2435374 124.701065,87.5376804 C117.313072,91.2057588 114.080993,99.0509986 111.167569,106.231751" id="Fill-40" fill="#C4CDD3"></path>
                <path d="M111.167569,106.231751 C102.065797,106.10582 94.6028267,100.52466 91.349325,92.1033528 L91.7001141,92.1033528 C102.697753,92.1033528 113.805181,89.3060747 123.319331,83.743671 C123.841498,84.9869057 124.315465,86.2435374 124.701065,87.5376804 C117.313072,91.2057588 114.080993,99.0509986 111.167569,106.231751" id="Fill-42" fill="#C4CDD3"></path>
                <path d="M127.743022,98.5520971 C127.775155,97.8849302 127.791222,97.2204427 127.791222,96.5586345 C127.791222,93.9114019 127.5288,91.2829251 126.950399,88.6598069 C128.720411,88.0730216 130.581468,87.7595335 132.458591,87.5907322 C131.695424,92.0438705 130.316368,95.0688963 127.743022,98.5520971" id="Fill-44" fill="#C4CDD3"></path>
                <path d="M127.743022,98.5520971 C127.775155,97.8849302 127.791222,97.2204427 127.791222,96.5586345 C127.791222,93.9114019 127.5288,91.2829251 126.950399,88.6598069 C128.720411,88.0730216 130.581468,87.7595335 132.458591,87.5907322 C131.695424,92.0438705 130.316368,95.0688963 127.743022,98.5520971" id="Fill-46" fill="#C4CDD3"></path>
                <path d="M117.711793,74.9258143 C114.613603,76.8147808 111.488634,77.5355355 108.339566,77.5355355 C103.329441,77.5355355 98.2737942,75.7081948 93.279736,73.8647777 C94.1580476,72.4607799 95.1381148,71.1076904 96.2467154,69.8805319 C96.3457932,69.8778526 96.4475488,69.8724938 96.5519822,69.8724938 C99.7760283,69.8698144 104.94682,72.259826 107.530877,73.7013352 L107.656732,73.5486103 C100.188406,64.6718071 80.9191073,63.203504 68.4353007,63.1981452 C67.1928112,63.1981452 66.0145884,63.2142216 64.9247322,63.2356566 C69.7233125,62.0165364 75.0815487,61.3681252 80.5736738,61.3681252 C94.3990477,61.3654458 109.054533,65.4836608 117.711793,74.9258143" id="Fill-48" fill="#C4CDD3"></path>
                <path d="M117.711793,74.9258143 C114.613603,76.8147808 111.488634,77.5355355 108.339566,77.5355355 C103.329441,77.5355355 98.2737942,75.7081948 93.279736,73.8647777 C94.1580476,72.4607799 95.1381148,71.1076904 96.2467154,69.8805319 C96.3457932,69.8778526 96.4475488,69.8724938 96.5519822,69.8724938 C99.7760283,69.8698144 104.94682,72.259826 107.530877,73.7013352 L107.656732,73.5486103 C100.188406,64.6718071 80.9191073,63.203504 68.4353007,63.1981452 C67.1928112,63.1981452 66.0145884,63.2142216 64.9247322,63.2356566 C69.7233125,62.0165364 75.0815487,61.3681252 80.5736738,61.3681252 C94.3990477,61.3654458 109.054533,65.4836608 117.711793,74.9258143" id="Fill-50" fill="#C4CDD3"></path>
                <path d="M125.093359,101.229875 C121.703291,104.110214 117.670556,105.610669 113.284353,106.143867 C115.924643,99.694587 118.672045,92.7121091 125.288837,89.5289995 C125.634271,91.4072485 125.837782,93.3390853 125.837782,95.2628838 C125.837782,97.2777815 125.615526,99.2873204 125.093359,101.229875" id="Fill-52" fill="#C4CDD3"></path>
                <path d="M125.093359,101.229875 C121.703291,104.110214 117.670556,105.610669 113.284353,106.143867 C115.924643,99.694587 118.672045,92.7121091 125.288837,89.5289995 C125.634271,91.4072485 125.837782,93.3390853 125.837782,95.2628838 C125.837782,97.2777815 125.615526,99.2873204 125.093359,101.229875" id="Fill-54" fill="#C4CDD3"></path>
                <polygon id="Fill-56" fill="#C4CDD3" points="107.733049 57.5435707 111.55424 56.2065575 114.454275 59.4995219 114.116875 55.2017881 117.817566 53.5861188 113.790186 52.2651819 113.166263 47.9728068 111.016006 51.4586869 106.937749 50.4164061 109.642306 53.8942481"></polygon>
                <polygon id="Fill-58" fill="#FEFEFE" points="87.3760363 60.6396003 90.0297154 59.329381 92.241561 61.2960497 91.8104386 58.3701611 94.3650399 56.8831023 91.4489384 56.3847366 90.8196603 53.4990388 89.4513151 56.1221569 86.5030802 55.8220657 88.5730035 57.9361007"></polygon>
                <polygon id="Fill-60" fill="#FEFEFE" points="57.5359361 66.5128127 59.2845259 65.6500506 60.7358822 66.9441937 60.4520376 65.0203951 62.1310052 64.0397401 60.2137153 63.7101758 59.7986595 61.813171 58.8962479 63.530657 56.9602136 63.3404206 58.3205254 64.7310215"></polygon>
                <path d="M123.602372,92.9200294 L123.599694,92.5636712 L121.136137,96.6926038 L121.843071,93.0566781 L121.669015,92.9736171 C118.059369,97.3544119 116.680313,100.50269 115.558323,104.382439 L115.504768,104.567317 L115.686857,104.505691 C119.738337,103.099014 121.829682,101.472627 122.686571,100.792063 L122.705316,100.775987 L122.716027,100.754552 C123.318527,99.4470118 123.602372,96.7970998 123.60505,93.5496849 C123.60505,93.3406929 123.602372,93.1317008 123.602372,92.9200294" id="Fill-62" fill="#0077C0"></path>
                <path d="M115.365791,83.3591792 C111.4241,84.1603154 106.823675,84.6318872 102.608851,84.6318872 C101.974217,84.6318872 101.350295,84.6211696 100.739761,84.5997345 L109.782621,81.9230287 L109.758521,81.7274336 C103.787074,81.4460982 99.1786158,81.333564 93.3437349,78.5979117 L93.2607238,78.5577209 L93.2152015,78.6381025 C92.3476011,80.1975047 91.8522119,82.3812036 91.8522119,84.5943758 C91.8522119,85.8510074 92.0128787,87.1183566 92.3556344,88.2812098 L92.3770567,88.3508738 L92.4466789,88.3535532 C92.4520345,88.3535532 92.6582235,88.358912 93.0411459,88.358912 C95.6493028,88.358912 106.363097,88.0722178 115.430058,83.5467362 L115.365791,83.3591792 Z" id="Fill-64" fill="#0077C0"></path>
                <path d="M117.360201,90.6985511 C112.799943,94.0879734 109.36703,96.8289845 102.643127,98.0963337 C108.868963,94.8596364 113.046299,92.6330673 116.971923,88.6541802 L116.851423,88.4987759 C109.889197,92.5553651 100.822237,94.2916067 94.4250222,94.5327514 L94.2509665,94.5381101 L94.3446888,94.6854763 C99.6118805,103.023723 106.274195,103.771272 108.440518,103.771272 L108.453907,103.771272 C108.903774,103.771272 109.155485,103.741798 109.160841,103.741798 L109.206363,103.73376 L109.230463,103.696249 C112.058198,99.2243549 113.854988,94.9185828 117.49409,90.8459173 L117.360201,90.6985511 Z" id="Fill-66" fill="#0077C0"></path>
                <path d="M112.691225,62.9119869 C112.361858,62.7378269 112.024458,62.5743844 111.673669,62.4163006 C117.058683,64.0158936 120.689752,66.0950965 122.719508,67.6759338 C122.406208,68.1394674 122.058097,68.5869248 121.701952,69.0209852 C119.20894,66.4353784 116.164305,64.3293817 112.691225,62.9119869 M129.280067,93.0845437 L129.261323,92.7335442 C129.553201,91.2839968 129.716545,89.8290906 129.767423,88.3929402 C130.147668,88.2911235 130.538623,88.2134214 130.929579,88.141078 C130.511846,89.9228691 129.992356,91.5438972 129.280067,93.0845437 M131.529402,83.6316727 C130.827824,83.7254512 130.177123,83.8272678 129.534456,83.9665958 C129.389856,82.924315 129.180989,81.8927517 128.915889,80.8772647 C129.61479,80.2904793 130.284234,79.6929764 130.961713,79.0552827 C131.34999,80.5530591 131.513335,81.9597363 131.529402,83.6316727 M129.127434,74.7843427 C128.530289,75.4273952 127.951889,75.9981042 127.365455,76.5313019 C126.712077,75.127304 125.94891,73.7795733 125.065243,72.5068653 C125.525821,71.9522326 125.970332,71.3788441 126.388066,70.7786619 C127.512733,72.024576 128.490122,73.4821615 129.127434,74.7843427" id="Fill-68" fill="#FEFEFE"></path>
                <rect id="Rectangle" x="0" y="0" width="150" height="150"></rect>
            </g>
        </g>
    </g>
</svg>