<svg width="150px" height="150px" viewBox="0 0 150 150" version="1.1" xmlns="http://www.w3.org/2000/svg" xmlns:xlink="http://www.w3.org/1999/xlink">
    <defs>
        <polygon id="path-1" points="0.000905742508 99.7358002 99.5320442 99.7358002 99.5320442 0.0997358002 0.000905742508 0.0997358002 0.000905742508 99.7358002"></polygon>
    </defs>
    <g id="Page-1" stroke="none" stroke-width="1" fill="none" fill-rule="evenodd">
        <g id="PHI">
            <g id="Page-1">
                <g id="Group-3" transform="translate(25.000000, 25.177720)">
                    <mask id="mask-2" fill="white">
                        <use xlink:href="#path-1"></use>
                    </mask>
                    <g id="Clip-2"></g>
                    <path d="M99.5329499,49.9174658 C99.5329499,77.4324574 77.2516842,99.7370091 49.7684374,99.7370091 C22.2821714,99.7370091 0.000905742508,77.4324574 0.000905742508,49.9174658 C0.000905742508,22.4024741 22.2821714,0.097922422 49.7684374,0.097922422 C77.2516842,0.097922422 99.5329499,22.4024741 99.5329499,49.9174658" id="Fill-1" fill="#FEFEFE" mask="url(#mask-2)"></path>
                </g>
                <path d="M27.9578531,84.8828948 C30.5694107,97.3982266 37.8968676,108.145515 48.58161,115.151199 C59.2693716,122.147817 72.040341,124.565654 84.5456259,121.951367 C97.0448725,119.33708 107.889629,112.074501 114.779311,101.309079 C121.635782,90.5980584 124.060152,77.8137422 121.575399,65.3074773 C119.087626,52.7891232 111.639403,42.0690359 100.939565,35.0633515 C90.236708,28.0486002 77.4717769,25.624718 64.9906451,28.2359826 C52.4883794,30.8502695 41.7492924,38.1853842 34.7539411,48.8843155 C27.764628,59.5802245 25.3493147,72.3645407 27.9578531,84.8828948" id="Fill-4" fill="#006AB6"></path>
                <path d="M91.0497628,37.7918812 C91.2067582,39.6536161 90.3372454,41.4730389 88.4683967,43.2108597 C79.4985267,36.6282968 70.9573749,33.3823499 62.5762375,33.3521269 C60.7738099,33.3460823 59.0227077,33.4911526 57.322931,33.7571147 C59.9646799,32.6449094 62.736252,31.7775102 65.6014175,31.1790954 C73.0888889,29.6135456 80.6820302,29.9822658 87.8072046,32.1734311 C89.3530052,33.6513343 90.8595569,35.6218719 91.0497628,37.7918812" id="Fill-6" fill="#FEFEFE"></path>
                <path d="M81.6916312,115.118256 C91.1173916,106.456353 95.4891088,87.8843379 98.0976472,76.7864634 L98.5052313,75.051665 C99.8487494,69.3999696 102.224814,65.1899099 104.775989,62.6602474 C114.23194,77.3637222 112.951824,92.5568091 110.560664,102.089134 C104.024222,110.796371 94.6739405,116.762386 83.9288152,119.010974 C80.8704247,119.648679 77.7939193,119.96602 74.7415671,119.969043 C76.978751,118.853815 79.3185859,117.29431 81.6916312,115.118256" id="Fill-8" fill="#FEFEFE"></path>
                <path d="M98.8192221,52.1160577 C102.641455,48.903356 105.717961,46.4552955 107.876647,44.8655672 C112.601604,50.0216059 116.046445,56.2263816 117.942466,63.0718842 C116.173249,60.708448 113.914931,58.4568367 111.472445,57.9551354 C109.365084,57.5199247 107.200359,58.1274064 105.174515,59.5569528 C103.390203,57.0514687 101.285861,54.5580736 98.8192221,52.1160577" id="Fill-10" fill="#FEFEFE"></path>
                <path d="M30.8157726,73.0687359 C35.1663558,61.3694243 51.1255388,56.5941951 57.1336308,54.7989507 L57.4023344,54.7173487 C59.3738339,54.1249785 62.2027697,53.6444333 65.4785384,53.0913529 C73.2196177,51.779676 82.7631246,50.1476357 88.5145895,45.8408625 C90.8483861,47.6240177 93.2516229,49.6670905 95.7212808,51.9942591 C82.6785886,63.0830667 62.5197796,81.7155276 40.9932993,104.612449 C35.9785049,98.8851967 32.4974346,91.9308914 30.9003086,84.2663462 C30.2602506,81.2198709 29.9432407,78.158284 29.9402216,75.114831 C30.4504565,73.9270683 30.8097344,73.0838474 30.8157726,73.0687359" id="Fill-12" fill="#FEFEFE"></path>
                <path d="M97.3099531,50.653266 C94.8855823,48.3623648 92.4944221,46.3041806 90.1364725,44.4726686 C92.3193119,42.3449716 93.3156287,40.038959 93.1012696,37.6060099 C92.9744657,36.1281067 92.4008287,34.7559839 91.6158519,33.5319536 C94.2696774,34.6199805 96.838967,35.9709472 99.2965484,37.5757869 C101.89301,39.2803624 104.278132,41.2176548 106.43078,43.3574411 C104.169443,45.0287713 101.080861,47.488921 97.3099531,50.653266" id="Fill-14" fill="#FEFEFE"></path>
                <path d="M86.7840175,44.5554796 C81.3706965,48.2970832 72.4249796,49.8172986 65.1367716,51.0534181 C61.7915626,51.6246322 58.9052631,52.111222 56.8099788,52.7398598 L56.5442943,52.8214618 C50.783772,54.5411488 36.2767961,58.8872118 30.2988956,69.3383148 C31.1502935,62.7013506 33.4961666,56.2910587 37.2670746,50.5275384 C40.4432117,45.6676849 44.6639718,41.1825962 49.2772203,37.9517607 C59.8895033,33.466672 71.8000173,33.7749463 86.7840175,44.5554796" id="Fill-16" fill="#FEFEFE"></path>
                <path d="M111.057313,59.978261 C114.188163,60.6220103 117.554506,65.8838293 119.154651,68.9212378 C120.534399,78.7618367 118.641397,88.6447479 113.714158,97.2824726 C113.955689,95.7622572 114.151933,94.1604398 114.275718,92.4860873 C114.903699,84.087124 113.759445,72.6447077 106.365567,61.3080717 C108.001942,60.150532 109.641335,59.6881205 111.057313,59.978261" id="Fill-18" fill="#FEFEFE"></path>
                <path d="M97.2377956,53.4525174 C99.7074535,55.8884888 101.805757,58.3728169 103.571955,60.8813234 C100.513564,63.8069069 97.9080451,68.6395597 96.5011251,74.5723287 L96.0905218,76.3131717 C93.5333088,87.1813517 89.2582041,105.366513 80.2973916,113.596227 C76.5959239,116.993289 72.9638964,118.767377 69.7394531,119.695223 C62.8527909,118.924537 56.1925643,116.539944 50.2237212,112.635137 C47.34346,110.746201 44.722845,108.564103 42.3920676,106.140221 C64.1147921,83.022671 84.3641755,64.3962548 97.2377956,53.4525174" id="Fill-20" fill="#FEFEFE"></path>
                <path d="M87.1330303,88.4210979 L88.3467253,88.0886452 C89.0743384,87.8952182 89.5755159,87.6473899 89.5755159,86.580519 C89.5755159,85.7010306 89.3249272,84.087124 88.2682276,84.087124 C87.1330303,84.087124 87.1330303,86.000238 87.1330303,87.0368859 L87.1330303,88.4210979 Z" id="Fill-22" fill="#FEFEFE"></path>
                <path d="M72.5541989,87.7356409 C72.5541989,83.9003461 72.4153184,80.5879086 69.8158374,80.5879086 C67.6963999,80.5879086 67.3341029,83.9003461 67.3341029,87.7356409 C67.3341029,91.5679135 67.2254138,94.8894179 69.8158374,94.8894179 C72.0198108,94.8894179 72.5541989,91.5679135 72.5541989,87.7356409" id="Fill-24" fill="#FEFEFE"></path>
                <path d="M87.1330303,88.4210979 L88.3467253,88.0886452 C89.0743384,87.8952182 89.5755159,87.6473899 89.5755159,86.580519 C89.5755159,85.7010306 89.3249272,84.087124 88.2682276,84.087124 C87.1330303,84.087124 87.1330303,86.000238 87.1330303,87.0368859 L87.1330303,88.4210979 Z" id="Fill-26" fill="#FEFEFE"></path>
                <path d="M67.0472844,78.9591927 L66.9989782,78.9591927 L67.0925716,78.9591927 C68.3394771,77.0158558 70.7125225,76.0880106 73.0312233,76.0880106 C78.2966064,76.0880106 81.527088,80.630523 81.527088,86.7446297 C81.527088,93.983031 76.6240019,98.2898042 70.5736419,98.2898042 C61.2565707,98.2898042 57.875132,90.767307 57.875132,82.0540248 C57.875132,72.0199989 62.2287343,63.7328606 73.0765104,63.7328606 C77.3002896,63.7328606 80.78136,66.4680393 80.78136,70.6357869 C80.78136,73.3377204 78.692114,74.6584641 76.6994804,74.6584641 C73.770913,74.6584641 72.8410174,72.2073813 72.4243758,70.067595 C72.2522847,69.1548614 72.5934477,67.1420116 71.0808577,67.1420116 C67.931893,67.1420116 67.4156197,73.3226089 67.2797584,75.5953762 L67.0472844,78.9591927 Z" id="Fill-28" fill="#FEFEFE"></path>
                <path d="M72.5541989,87.7356409 C72.5541989,83.9003461 72.4153184,80.5879086 69.8158374,80.5879086 C67.6963999,80.5879086 67.3341029,83.9003461 67.3341029,87.7356409 C67.3341029,91.5679135 67.2254138,94.8894179 69.8158374,94.8894179 C72.0198108,94.8894179 72.5541989,91.5679135 72.5541989,87.7356409" id="Fill-30" fill="#FEFEFE"></path>
                <path d="M102.731728,80.9233835 C101.699181,80.9233835 100.932319,81.3737058 100.349625,82.017455 C100.289242,81.8784294 100.222821,81.7394037 100.153381,81.6003781 L99.6522032,80.6302207 L92.4938183,82.7276948 L92.4938183,86.647614 L93.8162024,86.647614 C93.9430063,86.647614 94.0154657,86.6657478 94.0305614,86.6566809 C94.0909442,86.7685059 94.2056716,87.1342038 94.2056716,88.337078 L94.2056716,92.8977242 L92.8953641,93.0820843 L92.8953641,97.3888575 L102.810225,97.3888575 L102.810225,93.0820843 L101.508975,92.8977242 L101.508975,91.5618689 C101.508975,90.7881609 101.66899,89.3314137 101.871272,88.4761037 C102.236589,88.5849064 102.677383,88.6755753 103.166484,88.6755753 C104.944759,88.6755753 106.185626,87.0737579 106.185626,84.7858791 C106.185626,82.4768442 104.796821,80.9233835 102.731728,80.9233835" id="Fill-32" fill="#FEFEFE"></path>
                <path d="M115.150061,85.4930966 C115.065525,85.1666885 115.035334,85.0427743 115.035334,84.8674811 C115.035334,83.6948299 114.567367,80.9626734 110.22886,80.9626734 C107.828643,80.9626734 103.12482,82.8123192 103.12482,87.0858471 C103.12482,88.672553 103.595806,89.8270704 104.275113,90.6884251 C103.333141,91.2445277 102.753466,92.3144208 102.753466,93.6532984 C102.753466,95.1946699 103.529385,97.7787338 108.722309,97.7787338 C113.163466,97.7787338 115.711622,95.4757435 115.711622,91.4560885 C115.711622,87.6268382 115.373478,86.342362 115.150061,85.4930966" id="Fill-34" fill="#FEFEFE"></path>
                <path d="M62.7981444,62.4420375 C62.5264217,62.1277187 62.1339333,61.9463808 61.7142726,61.9463808 C61.062138,61.9463808 60.5398264,62.3574132 59.911845,63.0223186 C57.7984458,65.2588183 54.9393186,66.4405364 51.645435,66.4405364 C47.3280624,66.4405364 42.7842541,64.451865 39.1824181,60.991335 C38.8895614,60.7102614 38.5121686,60.5561242 38.1196802,60.5561242 C36.3595206,60.5561242 35.8945728,63.3910388 35.8915537,63.4212618 L35.8824962,77.6290798 L37.0116552,77.7983285 C41.3048747,78.4299885 44.9852084,78.3030521 48.3485323,77.3933407 C44.7134857,80.6513768 36.5346308,89.506707 36.6553965,97.954027 C36.6765305,99.5105099 37.6396367,99.6797586 38.05024,99.6797586 C38.5665132,99.6797586 38.9046571,99.4047295 39.1280736,99.2233917 C39.1884564,99.175035 39.2609158,99.1115667 39.3545092,99.0450762 C40.5138596,98.1806993 42.4068614,97.6880649 44.5444138,97.6880649 C46.3106116,97.6880649 48.0617138,98.0416736 49.3599448,98.6642668 C49.6075144,98.7791141 49.897352,98.900006 50.2505916,98.900006 C50.6611948,98.900006 51.0355684,98.7368019 51.3072911,98.4375945 C51.7692198,97.9328709 51.7118561,97.3133 51.6756264,96.8932008 C51.0748172,90.7700271 52.4213544,84.0665724 55.0298929,80.2101215 L55.4223813,79.6298404 C57.6414504,76.3415813 62.2577181,69.5021233 63.13025,63.8534502 C63.2178051,63.2761915 63.1060969,62.8016909 62.7981444,62.4420375" id="Fill-36" fill="#FEFEFE"></path>
                <path d="M90.1793443,92.0771705 C89.6811859,92.0771705 89.3400229,91.7628516 89.1166064,91.3729753 L91.6617428,90.6869139 C90.940168,91.5512909 90.3846459,92.0197469 90.1793443,92.0771705 L90.1793443,92.0771705 Z M95.7406033,89.5867978 L95.6772013,88.5108601 C95.6349333,87.8036426 95.5292634,87.1296704 95.3662297,86.5010326 L95.3179234,85.2679354 L95.0914878,85.6185219 C94.0196925,82.7231614 91.6164557,80.9218724 88.5490078,80.9218724 C83.9568932,80.9218724 80.7475456,84.5576957 80.7475456,89.762091 C80.7475456,93.7545454 83.0813422,97.7802449 88.2953999,97.7802449 C91.281331,97.7802449 94.0166734,96.275141 95.4386891,93.8512589 L95.6349333,93.5188062 L95.4869954,89.6563107 L95.7406033,89.5867978 Z" id="Fill-38" fill="#FEFEFE"></path>
                <path d="M78.6540728,77.0167625 C78.3944266,76.6450199 78.1015698,76.2339876 77.8600385,75.8682896 C80.1153374,75.4149451 82.1049517,73.6378345 82.1049517,70.6336713 C82.1049517,65.9460887 78.2223355,62.4100012 73.0777181,62.4100012 C62.7311195,62.4100012 56.5539556,69.7541828 56.5539556,82.0549315 C56.5539556,93.213252 61.6623433,99.6114547 70.5748496,99.6114547 C77.8026748,99.6114547 82.8506797,94.322435 82.8506797,86.7455364 C82.8506797,82.9737098 80.3236581,79.3892656 78.6540728,77.0167625" id="Fill-40" fill="#FEFEFE"></path>
                <path d="M87.1608064,87.0513929 C87.1608064,86.0117227 87.1608064,84.101631 88.2960037,84.101631 C89.3527033,84.101631 89.603292,85.7125153 89.603292,86.595026 C89.603292,87.6588746 89.1021145,87.9097252 88.3714822,88.1031522 L87.1608064,88.4356049 L87.1608064,87.0513929 Z M90.2071204,93.413328 C88.600937,93.413328 87.6559456,91.947514 87.492912,90.4605439 L94.3856125,88.6048535 C94.18333,85.2380147 92.2390027,82.2580299 88.5767839,82.2580299 C84.6820911,82.2580299 82.0977058,85.2984606 82.0977058,89.7744825 C82.0977058,93.2743024 84.1024159,96.4688703 88.323176,96.4688703 C90.7354702,96.4688703 93.0783241,95.326442 94.3282488,93.1957226 L92.9635967,91.5757715 C92.2993856,92.6063747 91.5234662,93.413328 90.2071204,93.413328 L90.2071204,93.413328 Z" id="Fill-42" fill="#006AB6"></path>
                <path d="M101.517127,96.0792962 L94.2470339,96.0792962 L94.2470339,94.2447619 L95.5543222,94.0573795 L95.5543222,88.3512828 C95.5543222,86.3142547 95.2886378,85.3380527 93.8424689,85.3380527 L93.8424689,83.733213 L99.0052012,82.2190423 C99.5939338,83.3675151 99.7781015,84.6882589 99.8626374,85.9908689 L99.9139628,85.9908689 C100.430236,84.4404305 101.073313,82.2583321 102.757994,82.2583321 C104.237374,82.2583321 104.892527,83.4037827 104.892527,84.7970616 C104.892527,86.2114966 104.273603,87.366014 103.192751,87.366014 C102.450042,87.366014 101.819041,87.0516951 101.462783,86.9308032 C100.52081,86.6104398 100.215877,90.7207636 100.215877,91.5730514 L100.215877,94.0573795 L101.517127,94.2447619 L101.517127,96.0792962 Z" id="Fill-44" fill="#006AB6"></path>
                <path d="M113.741028,84.8810814 C113.741028,86.0114205 112.765845,86.57659 111.739337,86.57659 C110.486393,86.57659 109.607823,85.5610983 109.375349,84.337068 C108.84398,84.337068 108.466587,84.612097 108.466587,85.5187861 C108.466587,87.6313717 114.417316,86.1262678 114.417316,91.4696888 C114.417316,95.47121 111.527997,96.468568 108.750387,96.468568 C107.059667,96.468568 104.100909,96.2479404 104.100909,93.6668987 C104.100909,92.4972698 104.750024,91.6056922 105.912394,91.6056922 C107.71784,91.6056922 108.028812,93.2619109 108.333745,94.4345622 C108.4213,94.7458588 108.686985,94.7942155 108.940593,94.7942155 C109.891622,94.7942155 110.583006,94.4013169 110.583006,93.7726791 C110.583006,91.3729753 104.475282,92.3038428 104.475282,87.0994474 C104.475282,83.7930545 108.379032,82.3000398 110.256938,82.3000398 C112.39751,82.3000398 113.741028,83.0163242 113.741028,84.8810814" id="Fill-46" fill="#006AB6"></path>
                <path d="M69.8427077,94.9024137 C67.2522842,94.9024137 67.3609733,91.5809094 67.3609733,87.7486368 C67.3609733,83.9133419 67.7262894,80.6009045 69.8427077,80.6009045 C72.4421887,80.6009045 72.5810693,83.9133419 72.5810693,87.7486368 C72.5810693,91.5809094 72.0466812,94.9024137 69.8427077,94.9024137 M73.0580936,76.1007043 C70.742412,76.1007043 68.3693666,77.0285494 67.1194419,78.9718864 L67.0741548,78.9718864 L67.0258485,78.9718864 L67.0741548,78.9718864 L67.3066287,75.6080699 C67.4424901,73.3353025 67.9587633,67.1577275 71.1077281,67.1577275 C72.6203181,67.1577275 72.2821742,69.167555 72.4512462,70.0802887 C72.8678877,72.2200749 73.8008025,74.6711578 76.7263508,74.6711578 C78.7189843,74.6711578 80.8112495,73.350414 80.8112495,70.6484805 C80.8112495,66.480733 77.3301791,63.7455542 73.1063999,63.7455542 C62.2556047,63.7455542 57.9020023,72.0326925 57.9020023,82.0697408 C57.9020023,90.7800007 61.283441,98.3024978 70.6005123,98.3024978 C76.6508723,98.3024978 81.5569775,93.9957247 81.5569775,86.7573234 C81.5569775,80.6432166 78.3234768,76.1007043 73.0580936,76.1007043" id="Fill-48" fill="#006AB6"></path>
                <path d="M37.2326564,63.5684476 L37.2326564,76.5008564 C44.469539,77.5707495 53.1073034,76.8605097 59.2120079,67.9205553 C59.468635,67.5397458 59.6195921,67.8087303 59.4565584,68.1381606 C57.7477242,71.6168245 53.7141509,74.8295262 50.2270422,77.5707495 C46.875795,80.2031702 37.884791,89.6448259 38.0055567,97.950098 C38.011595,98.5878027 38.0327289,98.4125095 38.5942893,97.9954325 C41.3235934,95.9674712 46.664455,95.904003 49.9462621,97.4786197 C50.4081907,97.6932028 50.4414013,97.6267122 50.3870568,97.034342 C49.7560561,90.5968495 51.202225,83.5639644 53.9617205,79.4868858 C55.8577415,76.6549935 60.9691484,69.3773024 61.8507378,63.6651611 C61.941312,63.0727909 61.6363787,63.1664821 60.8997081,63.9462347 C55.1089944,70.0694084 44.6416301,69.9182936 37.884791,63.4324443 C37.459092,63.0214119 37.2688861,63.205772 37.2326564,63.5684476" id="Fill-50" fill="#ED174B"></path>
                <path d="M62.1740878,55.80326 C62.1740878,62.6517849 56.6279245,68.2007222 49.7895686,68.2007222 C42.9481935,68.2007222 37.4050494,62.6517849 37.4050494,55.80326 C37.4050494,48.9547351 42.9481935,43.4057978 49.7895686,43.4057978 C56.6279245,43.4057978 62.1740878,48.9547351 62.1740878,55.80326" id="Fill-52" fill="#FEFEFE"></path>
                <polygon id="Fill-54" fill="#006AB6" points="49.7786997 43.8440309 50.1923221 45.1647746 51.5901847 45.1647746 50.4519683 45.9898617 50.8686099 47.2864271 49.7786997 46.4945853 48.6706747 47.2864271 49.081278 45.9838171 47.952119 45.1647746 49.3499816 45.1647746"></polygon>
                <polygon id="Fill-56" fill="#006AB6" points="58.0218623 48.6594566 58.4475612 49.9711335 59.848443 49.9711335 58.7102266 50.7992429 59.1268681 52.0958083 58.0248814 51.2948996 56.9198756 52.0958083 57.3485937 50.7992429 56.1952815 49.9711335 57.6022016 49.9711335"></polygon>
                <polygon id="Fill-58" fill="#006AB6" points="54.484032 44.9435425 54.9036927 46.2582417 56.3106128 46.2582417 55.1723963 47.0893734 55.5860188 48.3919834 54.4870512 47.5820078 53.3880836 48.3919834 53.801706 47.0833288 52.6634896 46.2582417 54.0643713 46.2582417"></polygon>
                <polygon id="Fill-60" fill="#006AB6" points="59.3705129 53.2068047 59.7901736 54.5215039 61.1910553 54.5215039 60.0588772 55.3465909 60.4694804 56.6461786 59.3765511 55.8422476 58.2745644 56.6461786 58.6972443 55.3465909 57.5499704 54.5215039 58.9417947 54.5215039"></polygon>
                <polygon id="Fill-62" fill="#006AB6" points="58.7799687 58.0131636 59.1996294 59.3248404 60.6035303 59.3248404 59.4653139 60.1620167 59.8819555 61.4585821 58.7829879 60.6576734 57.6900586 61.4585821 58.0976427 60.1529498 56.9624454 59.3248404 58.3633272 59.3248404"></polygon>
                <polygon id="Fill-64" fill="#006AB6" points="56.1300681 61.8508763 56.5436905 63.1655754 57.9506105 63.1655754 56.8123941 63.9967071 57.2260165 65.2902502 56.1361064 64.4923638 55.0311005 65.2902502 55.4477421 63.9967071 54.3034874 63.1655754 55.7104074 63.1655754"></polygon>
                <polygon id="Fill-66" fill="#006AB6" points="51.9612372 63.9973116 52.3839171 65.3120107 53.7757414 65.3120107 52.6435633 66.1461647 53.063224 67.4457524 51.9642564 66.647866 50.8622697 67.4457524 51.2758921 66.1431424 50.1376757 65.3120107 51.5385574 65.3120107"></polygon>
                <polygon id="Fill-68" fill="#006AB6" points="41.3758245 48.2333128 40.9531447 49.5449897 39.5552821 49.5449897 40.6874602 50.3791436 40.2738378 51.6726867 41.3697863 50.8687557 42.4778113 51.6726867 42.0581506 50.3791436 43.2024053 49.5449897 41.7954852 49.5449897"></polygon>
                <polygon id="Fill-70" fill="#006AB6" points="44.8267035 44.9435425 44.4070428 46.2582417 43.0061611 46.2582417 44.1443775 47.0893734 43.7247168 48.3919834 44.8267035 47.5820078 45.9286902 48.3919834 45.5150678 47.0833288 46.6532842 46.2582417 45.2493833 46.2582417"></polygon>
                <polygon id="Fill-72" fill="#006AB6" points="39.7660182 52.6189679 39.3523958 53.9276225 37.9484949 53.9276225 39.0927496 54.7557319 38.676108 56.0583419 39.7660182 55.2604555 40.8680049 56.0583419 40.4543825 54.7557319 41.6016563 53.9276225 40.2007746 53.9276225"></polygon>
                <polygon id="Fill-74" fill="#006AB6" points="40.2010765 57.4180733 39.7723584 58.7388171 38.3744958 58.7388171 39.5127122 59.5699487 39.0990898 60.8695364 40.1950382 60.0656054 41.2970249 60.8695364 40.8743451 59.5669264 42.0125615 58.7388171 40.6146989 58.7388171"></polygon>
                <polygon id="Fill-76" fill="#006AB6" points="42.8476561 61.3428281 42.4310146 62.6605496 41.0271137 62.6605496 42.1653301 63.488659 41.7456694 64.7852244 42.8476561 63.9812934 43.9556811 64.7852244 43.5330013 63.4856367 44.6712177 62.6605496 43.270336 62.6605496"></polygon>
                <polygon id="Fill-78" fill="#006AB6" points="47.016487 63.8322941 46.5998454 65.1500156 45.1959445 65.1500156 46.3341609 65.9811473 45.9205385 67.2746904 47.0104487 66.4828486 48.1214928 67.2746904 47.698813 65.9720804 48.8430677 65.1500156 47.4391668 65.1500156"></polygon>
                <rect id="Rectangle" x="0" y="0" width="150" height="150"></rect>
            </g>
        </g>
    </g>
</svg>