<svg width="150px" height="150px" viewBox="0 0 150 150" version="1.1" xmlns="http://www.w3.org/2000/svg" xmlns:xlink="http://www.w3.org/1999/xlink">
    <defs></defs>
    <g id="Page-1" stroke="none" stroke-width="1" fill="none" fill-rule="evenodd">
        <g id="PHX">
            <g id="Page-1">
                <polygon id="Fill-1" fill="#FEFEFE" points="111.802411 18.0008383 99.4653185 30.2731806 79.6185705 19.8841622 76.0329545 39.5920015 55.8953296 43.9510302 67.1584151 50.732673 54.5220555 57.0672358 64.8034317 57.955807 18.2239867 94.1497164 54.172444 75.0733774 15.2620777 104.66727 56.8127103 83.0230163 11.0639423 117.389487 58.5300022 92.1182973 5.00027969 130.854973 68.3946415 96.1727528 27.7110455 128.996798 88.0008568 94.3816391 87.2289145 99.819248 96.699192 94.5660595 115.413199 112.245274 125.342166 82.4418124 138.196684 80.6031965 132.661634 63.4297411 144.867272 52.8227713 129.028471 46.1417216 133.497905 27.1967123 118.503765 34.056594"></polygon>
                <polygon id="Fill-2" fill="#F9A01B" points="23.7998713 118.977738 81.4438224 87.4390476 42.354455 118.977738 89.7841554 91.7449856 89.0066193 97.2356852 96.9162309 92.8459198 114.779982 109.723185 124.289416 81.1827238 136.358007 79.4530835 131.049505 62.9781905 142.25945 53.2402321 127.396764 46.969937 131.480226 29.6567692 117.767063 35.9270643 111.314633 20.458101 99.7243108 31.987173 80.6550988 22.006115 77.2428901 40.7583211 59.6336559 44.569677 70.0520799 50.8455606 59.5665305 56.1015433 68.4774295 56.8727561 31.835343 85.3433608 68.6927902 65.7836166 29.158717 95.8525319 71.2407592 73.9344414 26.2863085 107.702943 75.8276626 81.3280247"></polygon>
                <g id="Group-9" transform="translate(71.768690, 33.296278)">
                    <path d="M57.5140185,29.93563 C56.8623426,45.7622572 43.4904003,58.0625421 27.6460052,57.4030992 C11.8072039,56.7548334 -0.501919319,43.392734 0.155350382,27.568901 C0.807026297,11.7394795 14.1789686,-0.555216855 30.0177699,0.0958431997 C45.8593681,0.755286002 58.1712882,14.1090027 57.5140185,29.93563" id="Fill-3" fill="#E55F1F"></path>
                    <path d="M32.3489797,53.4931064 C16.5129752,52.8392521 4.20105515,39.4771526 4.85273107,23.6533196 C5.15479544,16.3267983 8.18103296,9.77148977 12.9133748,4.88993649 C5.54636037,9.80502076 0.542719971,18.039673 0.153951936,27.5708569 C-0.503317765,43.3918957 11.8086023,56.7512009 27.6446068,57.4050552 C36.1583471,57.7571306 43.953286,54.3621179 49.4491795,48.6953806 C44.5713992,51.9506809 38.6615657,53.7529716 32.3489797,53.4931064" id="Fill-5" fill="#B85914"></path>
                    <path d="M57.5291217,29.0870165 C57.5431062,28.0587328 57.5011528,27.0472146 57.4060585,26.0412849 C55.7502982,24.8900543 53.781286,24.01266 51.4514747,23.7108811 C51.0095657,23.6577904 50.5844381,23.6298479 50.1565135,23.5963169 C49.8768243,21.701816 49.4488998,19.8464345 48.8811306,18.0413496 C49.1748043,18.0664978 49.4768687,18.0776748 49.7761362,18.0944403 C51.7954924,18.2453298 53.7840829,18.471664 55.7475013,18.7594716 C55.4762028,18.0273783 55.1657477,17.3148448 54.8385113,16.6134883 C52.6345601,16.2753841 50.3914525,16.0155189 48.1203759,15.8450697 L48.0980008,15.8450697 C47.3708088,14.0008653 46.4841939,12.2237228 45.4437499,10.5332021 C46.9093215,10.2314232 48.2182671,9.63065961 49.2782893,8.63031841 C48.7384891,8.08264558 48.1735169,7.55173824 47.5861695,7.04597914 C46.6659919,7.89263663 45.4717189,8.345305 44.1012416,8.52972544 C43.8886778,8.23074078 43.6817078,7.94013887 43.4607533,7.65233121 C41.5113193,5.12074147 39.2626179,2.95519837 36.7873681,1.19761564 C34.6253704,0.571703832 32.3654813,0.191685946 30.0160918,0.0966814744 C29.8874347,0.0910929761 29.7587777,0.0966814744 29.6273237,0.088298727 C33.9904758,1.80396771 37.8865468,4.6848386 41.0190663,8.53810819 C38.0319852,8.25030053 34.5890108,7.24995933 31.1823959,6.25241238 C30.1755146,5.95342772 29.1882116,5.6628258 28.2344714,5.40016638 C22.4337166,3.79906161 17.9754702,3.54199069 14.6275901,3.83538685 C12.1411528,5.24927693 9.88965449,7.02921364 7.93462674,9.09975227 C11.5510085,7.59644622 18.83971,5.0201485 27.6862805,7.46791076 C28.6260363,7.72777593 29.6021517,8.01278935 30.5950485,8.30339126 C34.505104,9.45462192 38.8878343,10.734388 42.6832172,10.7735075 C43.7292549,12.3299043 44.6326512,13.9729228 45.3794214,15.6857975 C44.6382449,15.6522666 43.8942716,15.6327068 43.1586889,15.6159413 C24.7243715,15.3001912 8.92192974,20.8104505 0.150875354,29.6011584 C0.201219416,31.3475641 0.399798772,33.0548503 0.749410315,34.7174286 C3.22186315,31.1687321 6.88579211,27.9665226 11.6125402,25.3063974 C20.5346267,20.2963087 32.373872,17.6585375 44.9514969,17.8792831 C45.3822183,17.8848716 45.8185335,17.9016371 46.2520518,17.9184026 C46.8869464,19.7374588 47.3624181,21.6179885 47.6644825,23.5516089 C39.5618853,23.8925073 34.3093215,28.9417156 28.2792216,34.3150567 C22.867235,39.1574905 16.2609752,43.9775703 6.5977122,46.8780009 C7.50670221,47.9984948 8.4968021,49.043544 9.56801187,50.0103542 C18.6746933,46.3470936 24.7243715,40.6412368 29.8370907,36.0754337 C35.6378454,30.8893072 40.6219075,25.9211322 47.9385779,25.6752383 C48.1259697,27.6954804 48.1343604,29.7548421 47.9497655,31.8337634 C46.9652594,43.0694393 40.454094,52.5950347 31.5739608,57.2921676 C33.8478343,57.0825989 36.0461917,56.5991938 38.1382671,55.8782775 C38.8486778,55.2914852 39.545104,54.6711618 40.2135613,54.0145133 C46.0366911,48.2863025 49.6530729,40.4819646 50.3914525,32.0489206 C50.5760474,29.9364683 50.5760474,27.8407814 50.405437,25.7758313 C50.769033,25.8149508 51.132629,25.8484817 51.5074125,25.9099552 C54.0022405,26.3179156 55.9796434,27.5725335 57.5291217,29.0870165" id="Fill-7" fill="#051821"></path>
                </g>
                <rect id="Rectangle" x="0" y="0" width="150" height="150"></rect>
            </g>
        </g>
    </g>
</svg>