<svg width="150px" height="150px" viewBox="0 0 150 150" version="1.1" xmlns="http://www.w3.org/2000/svg" xmlns:xlink="http://www.w3.org/1999/xlink">
    <defs></defs>
    <g id="Page-1" stroke="none" stroke-width="1" fill="none" fill-rule="evenodd">
        <g id="POR">
            <g id="Page-1" transform="translate(28.000000, 23.000000)">
                <path d="M82.9348,28.4891 C81.3928,26.2071 79.6218,24.0621 77.6718,22.1111 C76.8258,21.2651 75.9428,20.4531 75.0288,19.6781 L94.2068,0.5001 L38.3348,0.5001 L16.7698,22.0661 L16.7728,22.0661 C16.7578,22.0811 16.7428,22.0961 16.7268,22.1111 C14.7768,24.0621 13.0068,26.2071 11.4648,28.4891 C9.9088,30.7931 8.5718,33.2561 7.4918,35.8091 C5.2438,41.1221 4.1048,46.7661 4.1048,52.5841 C4.1048,58.4021 5.2438,64.0451 7.4918,69.3581 C8.5718,71.9111 9.9088,74.3741 11.4648,76.6781 C13.0068,78.9601 14.7768,81.1071 16.7268,83.0561 C17.5758,83.9051 18.4608,84.7191 19.3788,85.4951 L0.2068,104.6671 L56.0628,104.6671 L77.7148,83.0141 L77.7128,83.0141 C79.6468,81.0751 81.4038,78.9451 82.9348,76.6781 C84.4908,74.3741 85.8278,71.9111 86.9078,69.3581 C89.1548,64.0451 90.2928,58.4021 90.2928,52.5841 C90.2928,46.7661 89.1548,41.1221 86.9078,35.8091 C85.8278,33.2561 84.4908,30.7931 82.9348,28.4891" id="Fill-1" fill="#061922"></path>
                <path d="M82.9348,28.4891 C81.3928,26.2071 79.6218,24.0621 77.6718,22.1111 C76.8258,21.2651 75.9428,20.4531 75.0288,19.6781 L94.2068,0.5001 L38.3348,0.5001 L16.7698,22.0661 L16.7728,22.0661 C16.7578,22.0811 16.7428,22.0961 16.7268,22.1111 C14.7768,24.0621 13.0068,26.2071 11.4648,28.4891 C9.9088,30.7931 8.5718,33.2561 7.4918,35.8091 C5.2438,41.1221 4.1048,46.7661 4.1048,52.5841 C4.1048,58.4021 5.2438,64.0451 7.4918,69.3581 C8.5718,71.9111 9.9088,74.3741 11.4648,76.6781 C13.0068,78.9601 14.7768,81.1071 16.7268,83.0561 C17.5758,83.9051 18.4608,84.7191 19.3788,85.4951 L0.2068,104.6671 L56.0628,104.6671 L77.7148,83.0141 L77.7128,83.0141 C79.6468,81.0751 81.4038,78.9451 82.9348,76.6781 C84.4908,74.3741 85.8278,71.9111 86.9078,69.3581 C89.1548,64.0451 90.2928,58.4021 90.2928,52.5841 C90.2928,46.7661 89.1548,41.1221 86.9078,35.8091 C85.8278,33.2561 84.4908,30.7931 82.9348,28.4891" id="Stroke-3" stroke="#FFFFFF"></path>
                <path d="M75.1467,24.5897 C74.3017,23.7447 73.4287,22.9457 72.5297,22.1937 L49.0797,45.6427 C50.2347,45.9677 51.3247,46.5837 52.2337,47.4897 L52.2397,47.4967 C55.0717,50.3287 55.0717,54.9197 52.2397,57.7517 L8.8047,101.1867 L13.8937,101.1867 L54.7847,60.2957 C59.0097,56.0717 59.0217,49.2307 54.8227,44.9897 L57.3667,42.4457 C62.9707,48.0907 62.9587,57.2107 57.3287,62.8397 L18.9807,101.1867 L24.0707,101.1867 L59.8737,65.3837 C66.9087,58.3497 66.9207,46.9517 59.9117,39.9017 L62.4567,37.3567 C70.8717,45.8127 70.8577,59.4887 62.4177,67.9287 L29.1597,101.1867 L34.2497,101.1867 L64.9617,70.4737 C74.8077,60.6287 74.8207,44.6727 65.0007,34.8117 L67.5457,32.2677 C78.7717,43.5337 78.7587,61.7677 67.5067,73.0187 L39.3387,101.1867 L44.4277,101.1867 L70.0517,75.5627 C82.7087,62.9077 82.7207,42.3947 70.0897,29.7227 L72.6507,27.1607 C86.6967,41.2477 86.6837,64.0527 72.6137,78.1247 L49.5497,101.1867 L54.6397,101.1867 L75.1587,80.6697 L75.1467,80.6577 C90.6297,65.1747 90.6297,40.0717 75.1467,24.5897" id="Fill-5" fill="#FFFFFF"></path>
                <path d="M19.2751,80.6136 C20.1201,81.4586 20.9931,82.2576 21.8921,83.0096 L45.3421,59.5596 C44.1881,59.2346 43.0981,58.6196 42.1891,57.7136 L42.1821,57.7066 C39.3501,54.8746 39.3501,50.2826 42.1821,47.4516 L85.6771,3.9566 L80.5881,3.9566 L39.6371,44.9066 C35.4131,49.1316 35.4001,55.9726 39.6001,60.2136 L37.0561,62.7576 C31.4521,57.1116 31.4631,47.9916 37.0931,42.3636 L75.5001,3.9566 L70.4101,3.9566 L34.5481,39.8186 C27.5141,46.8526 27.5021,58.2516 34.5111,65.3006 L31.9671,67.8456 C23.5511,59.3896 23.5641,45.7136 32.0041,37.2736 L65.3211,3.9566 L60.2321,3.9566 L29.4601,34.7286 C19.6141,44.5746 19.6011,60.5296 29.4221,70.3906 L26.8771,72.9356 C15.6511,61.6696 15.6631,43.4346 26.9151,32.1836 L55.1421,3.9566 L50.0531,3.9566 L24.3701,29.6396 C11.7131,42.2966 11.7011,62.8076 24.3321,75.4806 L21.7711,78.0416 C7.7251,63.9556 7.7381,41.1496 21.8091,27.0786 L44.9311,3.9566 L39.8411,3.9566 L19.2641,24.5336 L19.2751,24.5446 C3.7921,40.0276 3.7921,65.1306 19.2751,80.6136" id="Fill-7" fill="#E03A3E"></path>
            </g>
        </g>
    </g>
</svg>