<svg width="150px" height="150px" viewBox="0 0 150 150" version="1.1" xmlns="http://www.w3.org/2000/svg" xmlns:xlink="http://www.w3.org/1999/xlink">
    <g id="Page-1" stroke="none" stroke-width="1" fill="none" fill-rule="evenodd">
        <g id="SAS">
            <g id="Page-1">
                <polygon id="Fill-1" fill="#FEFEFE" points="106.219314 20.0006035 99.356807 32.1696576 98.0904392 41.5506617 87.1966616 60.9644218 75.648594 60.9644218 85.7795359 43.0382252 85.7795359 20.0006035 71.7318996 20.0006035 65.1467874 32.091206 63.9648442 41.5566964 47.4085937 71.0846815 50.797635 79.5755613 59.7828155 79.5755613 56.8430333 87.0224311 46.8598344 76.223263 48.087005 92.7584519 30.1799623 93.5097771 44.5592664 103.633054 34.4283245 118.747062 51.0086963 113.324847 57.7777333 129.60356 62.8854165 112.054535 81.4738856 116.849136 69.4283164 102.908885 84.0036059 90.8695781 70.4353802 91.7114244 81.1723695 79.5755613 99.2753976 79.5755613 119.537281 43.6416992 119.730252 43.2947017 119.730252 20.0006035"></polygon>
                <polygon id="Fill-2" fill="#FEFEFE" points="107.101249 21.5077799 100.666895 32.9134394 99.5482697 42.0289149 88.0785963 62.4715982 73.0600781 62.4715982 84.2704476 42.6384236 84.2704476 21.5077799 72.6258949 21.5077799 66.4689356 32.8138662 65.428705 42.0289149 49.0744703 71.1917982 51.8212822 78.0653675 62.0004666 78.0653675 57.3661638 89.8059551 48.6855145 80.415899 49.7076542 94.1992462 34.6770754 94.8298766 46.6321897 103.24834 38.1173743 115.951468 51.8634945 111.455587 57.5289825 125.069961 61.8466934 110.230534 77.1787884 114.180272 67.2769988 102.729352 79.4612654 92.6664221 66.8910582 93.4449036 80.4954658 78.0653675 98.3964781 78.0653675 118.224179 42.9009349 118.224179 21.5077799"></polygon>
                <path d="M107.101249,22.5858863 L107.101249,21.5086851 L107.101249,22.5858863 Z" id="Fill-3" fill="#FEFEFE"></path>
                <polygon id="Fill-4" fill="#2D2925" points="107.101249 21.5077799 100.666895 32.9134394 99.5482697 42.0289149 88.0785963 62.4715982 73.0600781 62.4715982 84.2704476 42.6384236 84.2704476 21.5077799 72.6258949 21.5077799 66.4689356 32.8138662 65.428705 42.0289149 49.0744703 71.1917982 51.8212822 78.0653675 62.0004666 78.0653675 57.3661638 89.8059551 48.6855145 80.415899 49.7076542 94.1992462 34.6770754 94.8298766 46.6321897 103.24834 38.1173743 115.951468 51.8634945 111.455587 57.5289825 125.069961 61.8466934 110.230534 77.1787884 114.180272 67.2769988 102.729352 79.4612654 92.6664221 66.8910582 93.4449036 80.4954658 78.0653675 98.3964781 78.0653675 118.224179 42.9009349 118.224179 21.5077799"></polygon>
                <polygon id="Fill-5" fill="#C4CDD3" points="104.692135 31.6805419 110.12244 31.6805419 113.903452 24.5776524 108.669133 24.5776524"></polygon>
                <polygon id="Fill-6" fill="#C4CDD3" points="70.543323 31.6923097 76.3927358 31.6772228 80.1194751 24.5743333 74.4811236 24.5773506"></polygon>
                <polygon id="Fill-7" fill="#C4CDD3" points="69.1521276 40.6382089 74.4226295 40.6532958 74.9141008 34.5491558 69.8154631 34.5491558"></polygon>
                <polygon id="Fill-8" fill="#C4CDD3" points="103.187268 40.6382089 108.460785 40.6532958 108.958286 34.5491558 103.847588 34.5491558"></polygon>
                <path d="M55.3761574,104.241658 C54.0404409,104.241658 52.957998,103.161439 52.957998,101.827762 C52.957998,100.491067 54.0404409,99.410848 55.3761574,99.410848 C56.7118738,99.410848 57.7913015,100.491067 57.7913015,101.827762 C57.7913015,103.161439 56.7118738,104.241658 55.3761574,104.241658 L55.3761574,104.241658 Z M102.056884,44.2895286 L90.1681031,65.2361128 L61.632617,65.2361128 L73.5274281,44.2895286 L67.9312888,44.2895286 L53.5851516,69.6414733 L69.4991727,69.6414733 L57.4294822,96.6529717 L52.43336,91.1010104 L52.7107548,97.6456865 L44.6663046,98.0892399 L51.1458861,102.654521 L46.5296742,109.534125 L53.9771225,107.099107 L57.0435415,114.482612 L59.3863218,106.438303 L67.6930911,108.577619 L62.3291192,102.370888 L68.9323223,96.9154829 L58.7440925,97.365071 L77.507441,69.6414733 L93.4546288,69.6414733 L107.559553,44.2895286 L102.056884,44.2895286 Z" id="Fill-9" fill="#C4CDD3"></path>
                <rect id="Rectangle" x="0" y="0" width="150" height="150"></rect>
            </g>
        </g>
    </g>
</svg>