<svg width="150px" height="150px" viewBox="0 0 150 150" version="1.1" xmlns="http://www.w3.org/2000/svg" xmlns:xlink="http://www.w3.org/1999/xlink">
    <defs>
        <polygon id="path-1" points="2.63877371e-19 0.00806235429 2.63877371e-19 99.4866128 99.9714042 99.4866128 99.9714042 0.00806235429 0 0.00806235429"></polygon>
    </defs>
    <g id="Page-1" stroke="none" stroke-width="1" fill="none" fill-rule="evenodd">
        <g id="TOR">
            <g id="Page-1">
                <g id="Group-3" transform="translate(25.000000, 25.087464)">
                    <mask id="mask-2" fill="white">
                        <use xlink:href="#path-1"></use>
                    </mask>
                    <g id="Clip-2"></g>
                    <path d="M99.6209313,43.8775456 C99.6176862,43.8645809 99.6176862,43.8516161 99.6144411,43.8418926 C99.5982155,43.7187274 99.2088012,40.8826877 98.9005149,39.3463644 C98.7966711,38.8504626 98.5824933,38.3966963 98.2514912,37.978583 C98.3196387,37.8327295 98.3455996,37.6674289 98.3131484,37.4988871 L98.0697645,36.1343468 C97.9821463,35.70651 97.6965758,34.8605599 97.6706149,34.7860125 L97.0021204,32.7375815 L92.7704854,23.6817015 L88.7270672,18.0841694 L87.6626682,16.7844529 C87.5101476,16.5964639 87.2764991,16.4862635 87.0363603,16.4862635 L87.0331151,16.4862635 L86.6891325,16.4895047 C86.6047595,16.2885511 86.4749547,16.029256 86.264022,15.7116195 L84.9172976,13.9419307 L80.9744782,10.6294363 C80.942027,10.6035068 80.9095758,10.5808185 80.8771246,10.5613714 C80.7473199,10.4479298 80.5980444,10.3344882 80.4357884,10.2080819 L79.030652,9.02828932 L73.5009694,5.72227728 L69.1525101,3.67708748 C68.2795731,3.33028033 67.6013432,3.06774408 67.0626535,2.89596111 C66.9977511,2.84734328 66.9231134,2.80520783 66.8419854,2.77927833 C66.3714432,2.61073654 66.1020983,2.51998327 65.9171265,2.45840069 C65.7613608,2.40978286 64.9176299,2.11807592 64.2037037,1.87174561 C63.6487884,1.68375669 63.1685108,1.51845609 63.0581768,1.48604421 L59.1023768,0.565546737 L58.4501079,0.50396416 L57.5155137,0.59795862 C57.3143163,0.61740575 57.1293446,0.71140021 56.9930496,0.86049487 L56.3115746,1.61245055 L55.2179695,1.2105432 L51.4146902,0.422934453 L51.1713063,0.442381583 L49.6753065,0.179845333 L46.5632374,0.00806235429 L42.1466306,0.267357416 L38.0772515,1.05496617 L37.7689652,1.04848379 C37.681347,1.05496617 37.5547874,1.06468973 37.4541887,1.10358399 L28.7962115,4.46793742 L22.4909455,7.96193838 L17.4675015,11.7411639 C16.5978096,12.483396 16.1370027,12.9112329 15.9455407,13.7344947 L15.3192328,16.4538517 C15.2543304,16.735835 15.3419486,17.0307832 15.5528813,17.2284956 C15.763814,17.4229669 16.062365,17.4942731 16.3414452,17.4100022 L19.6579567,16.4117162 L20.0700868,16.2626215 L20.1544599,16.2658627 C20.2583037,16.2788275 20.3783731,16.252898 20.4822169,16.2140037 L23.6299822,15.0277288 C23.6299822,15.0277288 24.061583,14.8786342 24.1589366,14.8494635 C24.470468,14.7781573 24.8079604,14.6485098 25.1843942,14.5026563 L30.7952047,12.4898784 C31.6519161,12.5125667 32.2198119,12.5320138 32.5994909,12.5093255 L32.5962457,12.5255315 L37.2043146,12.8853034 C37.2627267,12.8950269 37.324384,12.8885446 37.3827961,12.878821 L39.2876809,12.9760566 L42.2959061,15.5398366 C42.53929,15.7440314 42.8832726,15.7894081 43.1720882,15.650037 L43.6621012,15.4166714 L44.940678,15.4490833 L45.3138667,15.4134302 L48.6238879,15.6046603 L50.373007,16.6126699 L50.9506382,16.8849297 C51.0058052,16.9108592 51.0739527,16.9303063 51.1485904,16.9400299 L52.2129894,17.45862 L48.189042,17.6692973 C48.0657275,17.6141971 47.9391679,17.5947499 47.7931375,17.6077147 L43.9087302,17.9772101 L43.7237584,17.8183919 C43.4609038,17.5947499 43.0877151,17.5590969 42.7859191,17.7276386 L37.6164447,20.728979 L36.2048179,20.6025726 L32.4761763,20.6706376 L31.5642979,20.6187786 L30.8049401,20.177977 C30.5193696,20.0094352 30.1591614,20.0353647 29.8930617,20.2395596 L24.6489496,24.362351 L23.6170018,23.9345142 C23.5034226,23.8891376 23.3476569,23.8858964 23.1918912,23.9085847 L22.9744682,23.8437609 C22.831683,23.7983843 22.6824075,23.7951431 22.5428674,23.8340374 L21.9425204,23.9863732 C20.9235531,24.2456683 20.1869111,24.430416 19.6417311,24.5892342 L18.0613582,24.3299392 L17.2111371,23.6622544 C16.8833801,23.4029593 16.4193281,23.4353712 16.1272674,23.7335605 L15.2575755,24.6605404 L14.0503913,25.4222196 L2.79956407,33.7553147 C2.61783741,33.8882034 2.50101313,34.0859159 2.4782973,34.3095578 L2.43286563,34.8378715 L1.67675293,37.0418796 L0.167772647,46.8691624 L-0.000973535668,53.7080697 L0.294332284,55.6138884 C0.394930969,56.6251391 0.849247614,57.2117942 1.17051438,57.484054 L1.57939936,57.8892025 C1.73191995,58.0382972 1.93636244,58.1258093 2.14729517,58.1258093 L3.50699999,58.1290505 C3.71793271,58.035056 3.94184592,58.0415384 4.09436651,57.8827202 L11.9767603,49.737614 L13.6674672,49.0569645 L16.0818357,48.9337993 C16.3025038,48.9208346 16.5069463,48.8235989 16.6529766,48.6582983 L17.9412888,47.1835577 L21.4005856,46.8010975 L22.2702774,47.1284575 C22.6110149,47.2548638 22.9842036,47.1446634 23.1983814,46.8594388 L23.8538954,46.0037651 L26.4013138,44.2049056 L29.1012527,44.2405587 L32.2425278,44.5419892 C32.3204106,44.5484716 32.4015386,44.5452304 32.4794215,44.5290245 L34.6439158,44.0979464 C34.8029266,44.0655346 34.9489569,43.9845048 35.0657812,43.8678221 L37.434718,41.4531368 C37.4704143,41.4272073 37.5028655,41.4012778 37.5320716,41.3721071 L39.5602709,39.4436001 L41.338596,39.2167169 L42.565251,39.7904072 L43.6491207,40.1404556 C43.9217107,40.2279676 44.2170165,40.1696262 44.4344395,39.9783961 L44.6875587,39.7547541 L45.9953416,39.5213886 L47.8547948,40.957235 C48.1955322,41.2165301 48.6758098,41.1711534 48.9613803,40.853517 L49.308608,40.4613332 L51.4503865,40.4029918 L51.9858311,40.2668619 L53.429909,40.3349268 L53.6830283,40.4289213 C53.864755,40.4969863 54.0659523,40.4937451 54.2509241,40.4224389 L55.8897091,39.7968896 C55.9903078,39.7936484 56.0909065,39.7742013 56.185015,39.7320658 L62.0294741,37.255798 L64.0025064,38.150366 L63.775348,38.2411192 C63.5968665,38.2605664 63.4313654,38.3351137 63.3015607,38.4550377 L61.9288754,39.7320658 L58.9790623,40.1210084 C58.8362771,40.1404556 58.7032272,40.1955558 58.5896481,40.2830678 L55.7956007,42.4352169 C55.6722862,42.4416992 55.5522168,42.4805935 55.4451279,42.5421761 L53.8225684,43.4950854 L53.1800349,43.5696327 C53.021024,43.5890799 52.8717486,43.6539036 52.7484341,43.7576217 L52.6153842,43.8710633 L49.3150983,43.6474213 C49.0652241,43.6312153 48.81535,43.7316922 48.6498489,43.9229223 L41.828609,51.6952917 L38.9177373,52.2236054 L37.8014164,52.2592585 C37.4996204,52.2689821 37.2302755,52.4407651 37.0972256,52.7097837 L36.9349697,53.0339025 L33.53084,54.9202741 L31.8076818,54.7193204 C31.6843673,54.6998733 31.5578077,54.7160792 31.4474736,54.7582147 L31.1002459,54.8781386 L28.6956128,54.7322852 C28.4619643,54.7031145 28.2153352,54.8100737 28.0498342,54.988339 L25.9372618,57.276618 L25.862624,57.2960651 L24.9799517,57.2571708 C24.8761079,57.2733768 24.7398129,57.276618 24.6294789,57.3219946 L24.113505,57.5391542 L21.9327851,57.380336 C21.6666853,57.3511653 21.4103209,57.4710893 21.2448199,57.6752841 C21.0793188,57.879479 21.0209066,58.1517388 21.0890541,58.4045515 L21.2902515,59.1273365 L15.5269204,63.4802523 L14.7837881,64.2646199 C14.6085517,64.4526088 14.533914,64.7119039 14.5793456,64.9647165 L14.6247773,65.2272528 L12.8172461,69.6060981 L9.80902087,69.878358 C9.64027469,69.8945639 9.48126387,69.9626289 9.35470423,70.0728293 L7.22915136,71.9008594 C7.11232708,72.0013363 7.02470887,72.134225 6.98252232,72.2800785 L6.48601913,73.9395669 C6.41462651,74.1761736 6.45681306,74.4322275 6.59959829,74.6364223 L10.3606911,80.036242 L11.6717191,81.7086952 L13.2910334,83.462178 C13.5344174,83.9029796 13.9011158,84.2562691 14.3554324,84.4799111 C14.507953,84.5576996 14.6572285,84.6127999 14.8097491,84.6516941 C14.8681612,84.6711412 14.9298185,84.6776236 14.9914757,84.6808648 L16.036404,85.0244308 C16.0721003,85.0341543 16.1077966,85.0438779 16.1402478,85.0503603 C16.1759441,85.063325 16.2116404,85.0762898 16.2505819,85.0892545 C16.3479354,85.4393029 16.6692022,85.682392 17.0326555,85.682392 L18.0581131,85.682392 L19.8331931,86.3598003 L21.4103209,87.2608507 C21.6569499,87.4002218 21.9555009,87.403463 22.205375,87.267333 L23.4255397,86.5964071 C23.5456091,86.5834423 23.6624334,86.5413069 23.7695223,86.4732419 L23.7987284,86.4537948 L26.9464937,87.2478859 C27.1379558,87.2997449 27.335908,87.2738154 27.5143896,87.1863033 L30.2759857,85.7763864 L36.4352214,85.167043 C36.6883407,85.1411135 36.9122539,85.0017424 37.0453037,84.787824 L39.6965659,80.5191791 L40.5922187,79.6991584 L41.4943617,78.8596907 L43.412227,76.9311836 C43.7821706,76.6880945 44.1131727,76.334805 44.7070294,75.6995321 L45.9661356,75.3754133 C46.1900488,75.3332778 46.388001,75.2003891 46.5080704,75.0059178 C46.6281398,74.8146877 46.6638361,74.578081 46.6021789,74.3609213 L46.1381269,72.7046741 L46.2874023,72.1601545 L47.8969813,71.5670171 C48.2052676,71.4535755 48.4129552,71.1651097 48.4259357,70.8377497 L48.4486515,70.2381299 L50.4736057,66.9742533 L50.671558,66.8640529 C50.7883822,66.8510881 50.9019614,66.8121939 51.0058052,66.7506113 L57.3629931,63.6487941 L58.5831578,63.2987458 C58.8427673,63.2241984 59.0504549,63.0232448 59.1315829,62.7671909 L59.6053703,61.3021738 L61.2993223,60.9877785 C61.4129015,60.9650902 61.5199904,60.9229548 61.6140989,60.8548898 L62.6882332,60.1094165 L63.1587755,60.1321048 L64.0609185,60.7576542 C64.1907233,60.8484074 64.3399987,60.8970253 64.4860291,60.9035076 L63.1814913,61.7591813 C62.9932744,61.7624225 62.8115477,61.8272463 62.6687625,61.9471703 L61.0526933,63.2922634 C60.9196434,63.4024638 60.825535,63.5515585 60.7833484,63.7168591 L60.3387671,65.489789 L60.0726674,65.7458429 C59.9655785,65.8463197 59.8909407,65.9759673 59.8519993,66.1185796 L57.960095,73.1033403 L57.3110712,73.4144944 L56.1363382,73.4144944 C55.7663946,73.4144944 55.4451279,73.6608247 55.3510194,74.0173554 L53.8452842,79.6926761 L53.7252148,80.2987783 C53.7089892,80.3765668 53.7187246,80.4964907 53.7381953,80.6099323 L53.6181259,81.4267118 L53.3065945,81.9712314 C53.2546726,82.0587435 53.2319568,82.1689439 53.2254665,82.2856267 L50.4606252,86.4375888 L48.6920354,89.0661925 C48.2474542,89.315764 47.643862,89.6787771 46.7287385,90.2330203 L45.40473,91.2928889 C45.076973,91.5554251 45.0023353,92.0189151 45.2327387,92.3689634 L45.2749252,92.4337872 L42.0817283,94.3201587 C41.9713942,94.3882237 41.8772858,94.478977 41.8091383,94.5859362 L41.0627609,95.7722111 C40.981633,95.9018586 40.9394464,96.0477121 40.9394464,96.2032891 L40.9394464,96.6700202 C40.9394464,98.886993 43.0747346,99.1203586 44.1553592,99.2338002 L49.8992197,99.4866128 L54.5527202,99.0198817 L56.8178131,98.611492 L60.2641294,97.6261708 L62.4837907,96.7413264 L63.3826887,96.2421834 C63.4670618,96.1968067 63.8629663,95.9861295 64.3497341,95.7073873 L64.6450399,96.1287418 C64.8040507,96.355625 65.0636602,96.4917549 65.3362502,96.4755489 L66.2383933,96.4463782 C66.5921112,96.4366547 67.2995472,96.3264543 67.4618031,96.2810776 L69.8274948,95.3703037 C71.907616,94.3817413 72.8324749,93.9376985 73.2835464,93.7075741 C73.3581841,93.6816446 73.4295768,93.6492328 73.4977243,93.6038561 L81.9739748,87.9188119 L86.702113,83.3714247 L88.3733493,81.4396765 L92.3875613,75.9491036 L96.7619816,67.2076188 L98.6798469,60.6280066 C98.8583284,60.0283868 98.8518382,59.5097967 98.7479943,59.0625127 C98.984888,58.9393475 99.1536342,58.7027408 99.1795952,58.4272398 L99.9649139,50.5900465 L99.9714042,47.6697359 L99.6209313,43.8775456 Z" id="Fill-1" fill="#FEFEFE" mask="url(#mask-2)"></path>
                </g>
                <path d="M90.9904662,118.901673 C91.0651039,118.992427 91.1137807,119.109109 91.1657026,119.102627 C91.4123317,119.096145 91.9023446,119.015115 91.9023446,119.015115 L92.3923576,118.804438 L93.7780233,118.263159 C93.7780233,118.263159 97.2405652,116.616636 97.2503005,116.606912 C97.2665261,116.593947 97.8571378,116.282793 97.8571378,116.282793 L98.1751594,116.143422 L98.5483481,115.887368 L99.1616756,115.51139 L99.8918273,115.112724 L100.832912,114.50014 L102.468452,113.346277 L103.263506,112.717486 L104.412278,111.887742 L105.457206,111.113098 L105.953709,110.750085 L106.641675,110.10833 L107.362091,109.395268 L108.517353,108.157134 L109.864078,106.8639 L111.421735,105.074764 L112.271956,103.937107 L112.573752,103.525476 L113.488875,102.397543 L115.270446,99.837004 L115.776684,98.9975362 L116.970888,96.6379511 L117.655608,95.3544406 L118.807625,93.0110615 L119.433933,91.5881798 L120.112163,89.4068601 C120.112163,89.4068601 120.913708,86.5222025 121.345308,85.01505 C121.39723,84.843267 121.413456,84.68769 121.306367,84.5353541 C121.059738,84.188547 120.878011,83.7445042 120.644363,83.3555616 C120.524293,83.1546079 120.352302,82.9471719 120.238723,82.7818713 C120.125144,82.6133295 119.823348,82.2276281 119.703278,82.0914982 C119.576719,81.9424035 119.424198,81.8159972 119.271677,81.6993144 C118.898489,81.3525073 118.570732,81.0057001 118.2592,80.7788169 C118.10668,80.694546 117.97363,80.590828 117.837335,80.4838688 C116.870289,79.7351543 115.883773,79.1387757 114.773943,78.6590798 C114.313136,78.4613673 113.829613,78.2895843 113.349335,78.1210425 C113.015088,78.007601 112.473153,77.8779534 112.119435,77.819612 C111.914993,77.7807178 111.752737,77.7807178 111.593726,77.8779534 C111.441205,77.9849126 111.43796,78.2182782 111.411999,78.4484026 C111.347097,79.0447812 111.324381,79.7059836 111.275704,80.3120858 C111.217292,80.9376352 111.175106,81.5567021 111.126429,82.1854926 C111.077752,82.7494594 111.048546,83.3166673 110.980399,83.8773929 C110.89278,84.619625 110.785691,85.358616 110.646151,86.0976069 C110.386542,87.4751119 110.091236,88.8461345 109.80242,90.213916 C109.721292,90.593135 109.669371,90.9820776 109.520095,91.3386083 C109.270221,91.918781 109.088494,92.5184009 108.97167,93.1342266 C108.718551,94.4404255 108.241518,95.6688359 107.796937,96.9004874 C107.433484,97.9052558 107.073275,98.9294713 106.502135,99.8434863 C106.459948,99.9050689 106.437232,99.9828574 106.414516,100.041199 C106.141926,100.676472 105.888807,101.318227 105.599991,101.943776 C105.418265,102.352166 105.152165,102.724903 104.983419,103.133292 C104.762751,103.648641 104.47069,104.121855 104.175384,104.585345 C103.691862,105.330818 103.188868,106.056844 102.770248,106.831488 C102.481432,107.38249 102.15043,107.891357 101.790222,108.3905 C101.692868,108.520147 101.614985,108.649795 101.524122,108.779442 C101.238552,109.204038 100.975697,109.638357 100.65443,110.033782 C100.050838,110.798703 99.4245302,111.560382 98.7852418,112.302614 C98.3925824,112.769345 97.9512462,113.197182 97.5293808,113.644466 C97.1432116,114.046373 96.7667778,114.451522 96.3806087,114.853429 C96.2994807,114.944183 96.1956369,115.009006 96.1047736,115.090036 C95.8776153,115.278025 95.6277411,115.462773 95.4200535,115.67345 C94.9203052,116.172593 94.4075764,116.649048 93.8202099,117.041231 C93.5703357,117.209773 93.3172165,117.375074 93.086813,117.569545 C92.4669953,118.1011 91.7692947,118.499766 90.9904662,118.901673" id="Fill-4" fill="#221F20"></path>
                <path d="M121.91937,81.9099916 C121.945331,81.9099916 121.955066,81.8678562 121.955066,81.812756 C121.971292,81.6960732 121.994008,81.4821548 121.994008,81.4821548 L122.328255,78.4775733 L122.529452,75.6642218 L122.542433,72.860594 L122.535942,72.4327571 L122.20494,69.2596338 C122.20494,69.2596338 121.815526,66.4073881 121.52022,64.9358886 C121.413131,64.4205397 121.091865,64.1547623 120.666754,63.9473262 C120.523969,63.8792613 120.371448,63.8047139 120.215682,63.7593373 C119.910641,63.6621017 119.563414,63.5065246 119.251882,63.4319773 C118.534711,63.2472296 117.856481,63.013864 117.129574,62.89394 C116.279353,62.7480866 115.403171,62.6573333 114.543215,62.5763036 C113.832534,62.514721 113.121853,62.4887915 112.404681,62.4758267 C111.836785,62.4693444 111.496048,62.4596208 110.924907,62.4596208 C110.619866,62.4596208 110.298599,62.4725856 110.155814,62.6573333 C110.022764,62.8485634 110.120118,63.1824058 110.172039,63.5259717 C110.275883,64.2163448 110.395953,64.563152 110.509532,65.2502839 C110.85676,67.2857501 111.220213,69.314734 111.291605,71.3890945 C111.330547,72.3160743 111.385714,73.2430542 111.4279,74.1732752 C111.434391,74.4358115 111.434391,74.6075945 111.437636,74.8733719 C111.440881,75.0354313 111.479822,75.2104555 111.55446,75.3271383 C111.635588,75.4535446 111.765393,75.4729917 111.914668,75.5216095 C112.096395,75.5767097 112.265141,75.5929157 112.440378,75.6318099 C112.618859,75.6804278 112.949861,75.7452515 113.17702,75.8197989 C114.00128,76.0855763 114.877462,76.3772833 115.682251,76.7014021 C116.246902,76.9315264 116.775856,77.2556453 117.321036,77.5473522 C117.385939,77.5765229 117.447596,77.6186584 117.502763,77.664035 C117.82403,77.8974006 118.145297,78.1372485 118.460073,78.370614 C119.20645,78.921616 119.978789,79.4531709 120.553175,80.2051266 C120.660264,80.3509801 120.793314,80.4838688 120.929609,80.6037928 C121.150277,80.8047464 121.52671,81.5145667 121.802546,81.8386855 C121.851222,81.8937857 121.896654,81.9099916 121.91937,81.9099916" id="Fill-6" fill="#221F20"></path>
                <path d="M100.691749,48.1160662 C100.97732,48.0998603 101.233684,48.0933779 101.451107,48.0674484 C101.616608,48.0512425 101.765883,48.0447601 101.837276,47.8729771 C101.908669,47.7044353 101.782109,47.52617 101.739923,47.4483814 C101.678265,47.3090103 101.13633,46.3463774 101.13633,46.3463774 L100.607376,45.5231156 L98.3747342,42.3078568 L97.9106822,41.760096 L97.4823265,41.1766821 L96.7456846,40.3696262 L94.9413985,38.3892602 L94.1625699,37.627581 L91.3620323,35.0411127 L89.0709784,33.2714239 L88.2402279,32.8306223 L85.540289,31.1938222 L83.6581201,30.1728479 L83.2946668,30.0205121 L81.7564804,29.4630277 L79.4784069,28.607354 L79.3031705,28.5652186 L78.5665285,28.3869532 L78.3718214,28.3513001 L77.732533,28.1859995 L76.3760733,27.9396692 L75.7270495,27.9202221 L74.5231104,27.6933389 L73.0725422,27.5961033 L72.5663037,27.5410031 L71.6544253,27.5247971 L70.1421999,27.5636914 L68.6364647,27.7354744 L67.4779573,27.7614039 L66.4524997,27.8748455 L65.3978361,28.0855227 L64.5995368,28.331853 L63.3047344,28.5814245 L63.0126737,28.5749421 L61.8054894,29.0092614 L61.0883182,29.2037326 L60.6502271,29.4695101 L59.5923184,29.7579758 L59.0860798,30.052924 L58.4500365,30.2992543 L56.8826441,30.9507331 L54.8933862,31.7253771 L54.2378722,32.0397724 L52.8457162,32.7917281 L51.6320417,33.582578 L50.4994952,34.1724743 L50.0906102,34.4058398 L48.85422,35.0605599 L48.6497775,35.1902074 L47.244641,36.2986938 L46.0763982,37.0798202 L45.8492399,37.2353972 L44.5252313,38.2758186 L44.0481989,38.677726 C44.0481989,38.677726 43.3375178,39.2870694 43.3180471,39.3680991 L43.8177954,39.2190044 C43.8177954,39.2190044 44.7296738,38.8819208 44.7426543,38.8916444 C44.7588799,38.8981268 44.9178907,38.9078503 44.9178907,38.9078503 L46.2256736,38.3730543 L46.4171357,38.3730543 L47.8514782,37.8123287 C47.8514782,37.8123287 48.6011007,37.559516 48.6011007,37.5789631 C48.6011007,37.5984103 49.3637036,37.300221 49.3637036,37.300221 L50.4281026,36.9210019 L53.004727,35.9356807 L53.2416207,35.9227159 L54.5623841,35.4624672 L55.6073124,35.0346304 L55.7565878,35.1415896 C55.7565878,35.1415896 57.7555811,35.1902074 57.7847871,35.1902074 L59.0666091,35.2906842 L59.1087957,35.3101314 L61.7081359,35.5208086 L61.737342,35.4981203 L65.3296886,35.682868 L65.3491593,35.7736213 L66.624491,36.8626605 L66.7218446,36.8594193 L68.0198921,38.1170004 L68.1367164,38.058659 L69.9247769,38.1072768 L70.0123951,38.0456943 L74.5068848,38.3082305 L74.5328457,38.4087073 L76.531839,39.5658116 L76.6194572,39.5528468 L80.1501465,41.2706766 L80.1761075,41.4586655 L82.181591,40.6807803 L85.1184236,41.6693427 L85.6149268,42.4763986 L86.6955514,42.550946 L87.7307443,43.7210149 L87.8345881,43.7274973 L88.6718288,44.6771655 L88.6848092,44.738748 L88.8016335,44.738748 L91.1186484,45.2638205 L91.9721147,46.5829842 L94.1171383,47.3576282 C94.1171383,47.3576282 96.4179276,47.9475244 97.5894155,48.0933779 C98.6375889,48.2295078 99.8772243,48.1711664 100.691749,48.1160662" id="Fill-8" fill="#221F20"></path>
                <path d="M120.682655,61.6976174 C120.614508,61.3572927 120.371124,60.6701608 120.371124,60.6701608 L120.238074,60.3006653 L120.118004,59.8436578 L119.741571,58.712483 L119.387853,57.7271618 L118.287757,55.2800647 L117.784764,54.0711014 L117.158456,52.6806317 L116.405588,51.4489801 L116.230352,51.0924494 L115.727358,50.087681 L115.263306,49.329243 L115.065354,49.0634656 L111.855932,44.7235145 C111.855932,44.7235145 111.547645,44.3572602 111.388635,44.1757536 C111.317242,44.078518 111.291281,44.0039707 111.190682,44.0039707 C111.180947,44.0039707 111.174457,44.0136942 111.164721,44.0136942 C111.164721,44.0136942 110.178205,45.6213236 109.766075,46.0815723 C109.35719,46.5320975 108.529685,47.2937768 108.529685,47.2937768 C108.529685,47.2937768 107.835229,47.8609847 107.71516,47.951738 C107.595091,48.0392501 107.066136,48.3925396 107.066136,48.3925396 L106.332739,48.8106529 C106.332739,48.8106529 105.781069,49.0667067 105.690206,49.1023598 C105.602588,49.1380129 105.495499,49.1769071 105.433841,49.2482133 C105.381919,49.3195194 105.365694,49.3778608 105.38841,49.4977848 C105.40788,49.5950204 105.433841,49.6922561 105.479273,49.7797682 C105.774579,50.3988351 106.047169,51.034108 106.368436,51.6337279 C106.864939,52.5347782 107.166735,53.4974111 107.572375,54.4341145 C107.70867,54.7420274 107.84172,55.0564227 107.948809,55.3708179 C108.218153,56.2005621 108.477763,57.0367887 108.743863,57.8600505 C108.854197,58.2263048 108.974266,58.5958003 109.0846,58.9685369 C109.191689,59.3347912 109.276062,59.7042867 109.379906,60.0802645 C109.441563,60.3330772 109.607064,60.4400364 109.853693,60.4367952 C110.093832,60.4367952 110.337216,60.4270716 110.5806,60.4173481 C111.437311,60.3881774 112.294023,60.3654891 113.160469,60.3492831 C113.407098,60.3428007 115.120521,60.501619 115.120521,60.501619 C115.120521,60.501619 115.737094,60.5664427 116.035645,60.6150606 C116.684669,60.7349845 117.336937,60.880838 117.989206,61.0169679 C118.534386,61.1304095 119.099037,61.3183984 119.605276,61.551764 C119.85515,61.6652056 120.124495,61.7332705 120.397085,61.8143002 C120.481458,61.8369885 120.614508,61.8596769 120.637223,61.8467121 C120.659939,61.8369885 120.689145,61.7429941 120.682655,61.6976174" id="Fill-10" fill="#221F20"></path>
                <path d="M109.452921,42.5502977 C109.42696,42.4303738 109.199802,42.0835666 109.199802,42.0835666 L109.034301,41.7918597 L108.570249,41.2570636 L108.255472,40.8065384 L107.671351,40.2296069 C107.671351,40.2296069 107.541546,40.1194065 107.483134,40.0643063 C106.457676,39.2345621 104.410006,37.5815561 104.403516,37.5750737 C104.403516,37.5718325 103.838865,37.1310309 103.838865,37.1310309 L102.777712,36.2008099 L97.4589617,33.0082394 L93.263023,31.0246322 C93.263023,31.0246322 91.0368714,30.1527526 91.0368714,30.1592349 C91.0368714,30.1592349 90.2255917,29.8740104 90.2158563,29.8740104 C90.2028759,29.8804928 87.476976,28.9340658 87.476976,28.9340658 L85.5428851,28.4446464 L83.6639613,28.042739 L83.3719006,28.0135683 L83.2063995,28.1788689 L83.2777921,28.2598986 C83.2777921,28.2598986 83.4692541,28.3571343 83.5601175,28.3895462 C84.1377486,28.6229117 84.7283603,28.8335889 85.3124817,29.0669545 C85.6921606,29.2192904 86.0523688,29.4234852 86.4450282,29.5369268 C86.714373,29.6179565 86.9642472,29.711951 87.204386,29.8545633 C88.1000388,30.3699122 88.9827111,30.8852611 89.8686286,31.4103336 C90.397583,31.7279701 90.8875959,32.0974655 91.3419126,32.5253024 C91.6891403,32.8396977 92.0461034,33.1411282 92.4614786,33.3744937 C92.6496955,33.4684882 92.8022161,33.6402712 92.9677171,33.7764011 C93.0553354,33.8541896 93.1494438,33.9319781 93.2435523,34.0097666 C93.7595262,34.4408447 94.3306671,34.8070989 94.791474,35.3062419 C95.284732,35.8377968 95.8039511,36.3466634 96.3296603,36.8458064 C96.8196733,37.3319846 97.3194216,37.8019569 97.7380419,38.3497177 C98.0852696,38.8002429 98.4454778,39.2442857 98.8478726,39.6494342 C99.6169658,40.4111135 100.207577,41.315405 100.908523,42.1289432 C100.996141,42.2261789 101.048063,42.3590676 101.119456,42.469268 C101.573772,43.1823294 101.979412,43.9245615 102.521347,44.5760404 C102.904271,45.0298067 103.251499,45.515985 103.501373,46.0572634 C103.657139,46.3846234 103.884297,46.6795716 104.085494,46.9745197 C104.202319,47.1495439 104.400271,47.2305736 104.510605,47.2273324 C104.611204,47.2176088 104.809156,47.1300967 104.809156,47.1300967 L105.18559,46.9777609 C105.18559,46.9777609 105.678848,46.7606013 105.854084,46.6828128 C106.013095,46.6017831 106.350587,46.4202765 106.467412,46.3100761 C106.587481,46.2031169 107.083984,45.8563098 107.3728,45.6002559 C107.648635,45.3409608 108.219776,44.6765172 108.219776,44.6765172 L108.631906,44.1255152 L109.336097,42.9457227 C109.336097,42.9457227 109.478882,42.6799452 109.452921,42.5502977" id="Fill-12" fill="#221F20"></path>
                <path d="M107.235207,60.2387586 C106.949636,59.3539142 106.728968,58.5176876 106.410947,57.645808 C106.148092,56.9295054 105.953385,56.1969968 105.615893,55.5098649 C105.421185,55.098234 105.310851,54.6477088 105.155086,54.2166308 C105.073958,53.99623 104.966869,53.7952763 104.892231,53.5781167 C104.502817,52.4631479 103.973862,51.5620976 103.438418,50.5151938 C103.415702,50.4536112 103.386496,50.4114758 103.334574,50.3142401 C103.282652,50.2170045 103.240466,50.1262512 103.110661,50.054945 C102.977611,49.9803977 102.864032,50.0290155 102.627138,50.0581862 C102.172821,50.1132864 101.59519,50.1683866 101.361542,50.1683866 C101.150609,50.1683866 100.251711,50.2396928 99.5377849,50.2980342 L99.3722838,50.2494163 L98.9244574,50.2494163 L98.505837,50.2494163 L96.211538,49.951227 C95.3742973,49.8280619 93.4466967,49.348366 93.4466967,49.348366 L92.0415602,48.8621878 L90.3086667,48.2722915 L90.178862,48.3435976 L87.4691877,48.1329204 L87.3848146,48.1815382 L85.866099,47.024434 L85.6876174,47.0147104 L84.7432878,46.1622779 L84.7043464,45.9840126 L83.6496828,45.8251943 L83.5523292,45.870571 L82.6858824,45.5723817 L82.5885289,45.4816284 L80.599271,45.6274819 L78.8014751,44.8982145 L72.5611115,45.2255745 L72.4605128,45.1607508 L71.2825347,45.251504 L71.1592201,45.3422573 L68.0860926,45.5723817 L68.0017195,45.4978343 L63.620809,48.02272 L63.5688871,48.2107089 L63.3709348,48.3922155 L63.267091,48.3176681 L61.0669004,48.1134733 L60.946831,48.1653323 L57.0526883,48.1880206 L56.9748055,48.1491263 L55.8584846,48.1134733 L55.5209922,47.9157608 L51.4386326,51.0661958 L51.4256522,51.1472255 L49.9913096,52.2784002 L48.3947111,51.516721 L48.2973575,51.5620976 L47.709991,51.3870734 C47.709991,51.3870734 44.7634231,52.1325467 44.7926291,52.155235 C44.8250803,52.171441 42.0472586,51.7144334 42.0472586,51.7144334 L41.8525514,51.5620976 L41.3300873,52.0936525 L40.2332371,52.618725 L40.2072762,52.7127194 L38.0103307,54.391655 L34.8950165,56.6313161 L31.3902881,59.2339902 L29.8099152,60.3846121 L29.7287872,61.0587792 L29.066783,62.5918613 L28.7812125,63.9175073 L28.3366312,66.5914876 L28.0770217,67.7485918 L27.9829133,69.1358204 L27.5999893,72.020478 L27.4344882,78.3472775 L27.6064795,78.7264965 L27.7168135,80.4637734 C27.7168135,80.4637734 27.7460196,80.7652039 27.8141671,80.7781687 C27.8239025,80.7878923 27.8239025,80.7781687 27.8239025,80.7878923 L35.5862268,72.7659513 L38.1336452,71.7384946 L40.2721785,71.6282942 L41.566981,70.1470712 L41.6902955,69.8715701 L41.8493063,69.9461175 L45.3442994,69.5539337 L45.4903297,69.4437333 L46.7981126,69.4437333 L46.9928198,69.5150394 L47.4146852,68.9640374 L48.9788325,67.9981633 L50.6533139,66.8507827 L55.3619814,66.9156064 L55.3911874,67.0128421 L57.2376601,67.1878663 L58.6752478,66.8994005 L61.3135294,64.2092142 L61.3686964,64.2124554 L63.4617981,62.2223658 L66.6095635,61.8172173 L66.732878,61.7329464 L66.8724181,61.8690763 L68.507958,62.6404791 L68.6247823,62.5367611 L70.0721053,62.3584957 L70.146743,62.2807072 L71.5064479,62.0505828 L71.6265173,61.9760355 L73.1062915,63.2368578 L73.1906646,63.1396221 L76.2183605,63.0845219 L76.4812151,62.896533 L78.9182994,63.0132158 L79.0513493,63.0618336 L79.4277831,62.9678391 L79.4926855,62.8608799 L80.462976,62.4233195 L80.5765552,62.4330431 L81.6993663,61.9306589 L81.7934748,61.8269409 L82.9909236,61.3731745 L83.0785418,61.2370446 L86.4047887,59.9664988 L86.4275045,59.917881 L87.0148711,59.7331332 L87.1446758,59.6034857 L87.3101769,59.7882334 L88.2739772,60.2582057 L88.5725281,60.2646881 L89.6466625,60.8675491 L89.7245453,60.7670723 L90.0555475,60.6114953 L90.0879986,60.6212188 L90.6299335,60.3716473 L90.6526493,60.3359942 L91.4314779,60.1544877 L93.4174906,60.6698366 L93.836111,60.572601 L94.1995643,60.8156901 L95.6598678,61.0360909 L97.0909652,61.5838517 C97.0909652,61.5838517 97.9119803,61.5287515 97.9217156,61.5287515 C97.9346961,61.5287515 98.1910605,61.7037757 98.1910605,61.7037757 L98.3987481,61.5838517 C98.3987481,61.5838517 101.212266,61.2305622 102.620648,61.1138794 C103.535771,61.0458145 104.44765,60.9485788 105.366018,60.8578256 C105.878747,60.8059665 106.397966,60.7605899 106.917185,60.7022485 C107.196265,60.6698366 107.339051,60.5563951 107.235207,60.2387586" id="Fill-14" fill="#221F20"></path>
                <path d="M109.290016,74.6383857 C109.290016,74.4439144 109.25432,74.3239905 109.241339,74.1295192 C109.212133,73.5882407 109.186172,73.0469623 109.156966,72.5056839 C109.147231,72.3241773 109.124515,72.1426708 109.111535,71.9611642 C109.069348,71.2869971 109.049877,70.6160711 108.98822,69.9386627 C108.897357,69.0797479 108.777287,68.2402801 108.647483,67.3910888 C108.550129,66.7363687 108.420324,66.0751663 108.306745,65.4301699 C108.17694,64.7462791 108.069851,64.1207298 107.920576,63.4368391 C107.774546,62.746466 107.62527,62.6492303 106.911344,62.7399836 C106.856177,62.746466 106.79452,62.7561895 106.736108,62.7659131 C106.473253,62.8210133 106.106555,62.8599076 105.8437,62.8923194 C104.461279,63.0705848 103.163232,63.1418909 101.784056,63.3071915 L97.8250111,64.6879377 L92.1071116,64.5323607 L91.4840488,64.331407 L91.4808037,64.4318839 L89.796587,65.673259 L89.5596933,65.6959473 L88.2291945,66.93084 L88.1545568,67.1091054 L84.7277113,67.5628717 L81.6026618,69.9710746 L81.2781499,69.9613511 L79.6134039,70.9369487 L78.9546447,71.0147373 L78.3023758,71.5689804 L78.1336297,71.4328505 L74.9436778,71.2156909 L74.3920076,71.8347579 L74.4049881,71.9417171 L71.646637,74.9430574 L71.6174309,75.1148404 L71.510342,75.1407699 L67.9958782,79.1371551 L67.0320779,79.153361 L66.9541951,79.2505967 L64.0725295,79.7529808 L63.8486163,79.7400161 C63.8486163,79.7400161 63.786959,79.8729048 63.7772237,79.8826284 C63.757753,79.8891107 59.0263696,82.5144732 59.0263696,82.5144732 L56.8943265,82.2649017 L56.4400099,82.42372 L54.314457,82.2940724 L52.21162,84.5693866 L50.9525138,84.8221993 L50.2385877,84.7897874 L49.4922103,85.1041827 L49.047629,85.0555649 L49.07359,85.1495593 L46.4515339,87.1720608 L46.2049049,87.2206786 L42.11281,90.4002843 L42.1452612,90.585032 L39.6205587,96.7011543 L39.7211573,96.9604494 L35.5479344,97.3396684 L34.1784943,98.5194609 L34.0454444,98.9602625 L35.9081426,101.537007 L37.2808279,103.634056 L38.4620512,105.147691 L40.3896518,107.235016 C40.3896518,107.235016 40.3993872,107.38087 40.4415737,107.393834 C40.47727,107.41004 40.6979381,107.423005 40.7044284,107.429488 C40.7141637,107.439211 41.8596907,107.81843 41.869426,107.824912 C41.8726712,107.834636 43.287543,108.268955 43.287543,108.268955 C43.287543,108.268955 43.3037686,108.340261 43.3199942,108.340261 C43.3297295,108.340261 43.4627794,108.320814 43.4627794,108.320814 L45.8187357,109.231588 L45.9972173,109.225106 L46.127022,109.377442 L46.3379548,109.377442 C46.3541804,109.383924 46.8961152,109.750178 46.8961152,109.750178 L47.8826314,109.205659 L47.9313081,109.212141 L48.3726443,108.930158 L51.9487653,109.831208 L54.5773116,108.489356 L60.3990549,107.915666 L62.7842173,104.074858 C63.1671413,103.69888 63.8453712,103.005266 63.8453712,103.005266 L63.9362345,103.002024 C63.9362345,103.002024 64.7572496,102.243586 64.7734752,102.22738 C64.7832105,102.211174 64.7734752,102.126903 64.7734752,102.126903 L66.2759652,100.755881 L66.9769109,100.029855 C66.9769109,100.029855 67.1326766,99.9358602 67.1521473,99.932619 C67.1748632,99.932619 67.9569368,99.0963925 67.9569368,99.0963925 L68.6092057,98.4254665 L68.7779519,98.3962958 L68.6124508,97.7999171 L69.2906807,95.3366141 L70.5952185,94.9476715 L70.6438953,94.8990536 L71.0300644,94.8115416 L71.0397998,94.5943819 L72.792164,91.7583422 L72.9511748,91.6837949 L73.6715912,90.2868427 L74.8625498,89.6126756 L75.0183155,89.4182043 L75.2552092,89.4538573 C75.2552092,89.4538573 75.9496647,89.0422264 75.9691354,89.05195 L76.0502633,89.05195 L77.3385755,88.484742 L77.4456645,88.3324062 L81.7227312,86.3682461 L81.9790956,86.3455578 L82.0310175,86.1121922 L82.1965185,85.9857859 L82.6378547,84.4948393 L83.9878241,83.9146666 L85.5552166,83.7201953 L86.9733335,82.734874 L89.004778,82.8223861 L89.2027302,82.9909279 L89.306574,82.8612804 L92.1363177,81.597217 L92.1200921,81.2342039 L92.8015671,79.9377286 L94.1904779,79.5682331 L94.2586254,79.4774798 L96.1635102,79.0788137 L96.893662,78.2134164 L96.9877704,78.1939693 C96.9877704,78.1939693 97.4291066,77.7661324 97.438842,77.7564089 C97.4550676,77.7564089 98.74987,77.9346742 98.74987,77.9346742 L98.8180175,77.983292 L99.5319436,78.0837689 L99.9732798,78.1388691 C99.9732798,78.1388691 101.897635,77.2345775 102.70567,76.9234235 C103.046407,76.7970171 103.37741,76.709505 103.692186,76.5993046 C104.136767,76.4372452 104.581349,76.2849094 105.029175,76.1325735 C105.259578,76.0612674 105.470511,76.0061672 105.694424,75.9348611 L106.593322,75.7695604 L107.635006,75.5977775 L108.271049,75.5588832 C108.271049,75.5588832 108.579335,75.519989 108.696159,75.503783 C108.809739,75.4778535 108.98822,75.4778535 109.124515,75.3611707 C109.26081,75.2347644 109.257565,75.108358 109.273791,74.9949165 C109.283526,74.8749925 109.290016,74.8134099 109.290016,74.6383857" id="Fill-16" fill="#221F20"></path>
                <path d="M109.242637,78.3793652 C109.249128,78.2302706 109.275089,77.9806991 109.148529,77.8445692 C109.031705,77.7181628 108.869449,77.6922333 108.76885,77.6922333 C108.665006,77.6922333 108.174993,77.7570571 108.174993,77.7570571 L107.344243,77.8867046 C107.250134,77.8996694 107.159271,77.9093929 107.068408,77.9385636 C106.571905,78.0552464 106.075401,78.1589644 105.585388,78.2950944 C105.043454,78.4506714 104.485293,78.5965249 103.972564,78.823408 C103.424139,79.0664972 102.810812,79.2609685 102.265632,79.5170223 C102.070925,79.6110168 100.230942,80.5088259 99.3937016,80.923698 L98.3195672,82.0645963 L98.2806258,82.3141678 L98.1378406,82.249344 L97.4693461,82.2882383 L97.4304046,82.3465797 L95.2529299,83.0661235 L95.2724006,83.3092126 L95.0452423,83.5296134 L95.0419971,83.6689845 L94.0197847,85.4646028 L93.8769995,85.4710852 L93.8575287,85.6590741 C93.8575287,85.6590741 93.646596,85.9961577 93.4161926,86.3786179 L88.814614,89.3345816 L88.7172604,89.324858 L88.0163147,89.9082719 L87.5295469,91.8465025 L87.0849656,92.2743394 L85.2871698,98.9058106 L85.5273086,99.6577663 L82.8663111,100.931553 L82.4379554,100.931553 L81.9252266,103.245762 L81.8440986,103.317068 L81.1885846,105.420599 L81.2242809,105.530799 L80.954936,107.336141 L80.8543373,107.462548 L80.9484458,107.631089 L78.388047,111.679334 L78.1998301,111.737675 L77.5735221,112.719755 L77.5540514,112.914226 C77.5540514,112.914226 75.3765767,115.990114 75.3765767,115.983632 C75.3700864,115.967426 73.0692971,117.344931 73.0692971,117.344931 L73.1958568,117.536161 C73.1958568,117.56209 73.0725422,118.466382 73.0725422,118.466382 L73.2769847,118.809948 L72.9492277,118.910425 L71.2812366,119.895746 L71.1060002,119.856852 L68.6591805,121.302422 L68.370365,121.759429 C68.370365,121.795082 69.327675,121.8988 69.327675,121.8988 L70.9080479,122.028448 L71.9919177,122.080307 L73.2445335,122.099754 L73.8254098,122.125683 L74.7729845,122.148372 L75.714069,122.125683 L79.1311792,121.714052 L81.1658688,121.357522 L82.7040551,120.939408 L84.3688011,120.45323 L86.494354,119.613762 L86.6468746,119.52625 L87.2439764,119.182684 C87.2439764,119.182684 88.9573992,118.281634 89.7362278,117.69822 C91.053746,116.696693 92.390735,115.711372 93.5979192,114.567232 C94.0100493,114.175049 94.4156892,113.779624 94.8245742,113.380957 C95.2107433,112.995256 95.5936674,112.609555 95.9830816,112.223853 C96.0447389,112.155788 96.1356022,112.090964 96.1648083,112.009935 C96.294613,111.69554 96.5412421,111.481621 96.7748906,111.251497 C96.9306563,111.082955 97.0994025,110.920896 97.2259622,110.726424 C97.4855717,110.314793 97.8749859,110.016604 98.2124783,109.676279 C98.4850683,109.407261 98.7381876,109.102589 98.9588556,108.791435 C99.3612504,108.217744 99.7376842,107.627848 100.120608,107.041193 C100.636582,106.263308 101.197988,105.511352 101.632834,104.691332 C102.103376,103.819452 102.564183,102.94109 103.060686,102.082175 C103.479306,101.349667 103.907662,100.610676 104.232174,99.8360316 C104.770864,98.5525211 105.319289,97.2754929 105.815792,95.9822588 C106.341501,94.6015126 106.760121,93.1883545 107.136555,91.7622316 C107.422126,90.6991219 107.581137,89.6068414 107.973796,88.5729024 C108.025718,88.4367725 108.048434,88.290919 108.067904,88.1547891 C108.220425,87.2829094 108.3697,86.4175122 108.499505,85.5456325 C108.632555,84.7223707 108.749379,83.8958677 108.866204,83.0726059 C108.944086,82.5118803 109.04144,81.9511547 109.086872,81.3839468 C109.151774,80.6060616 109.190716,79.8184528 109.223167,79.0340853 C109.223167,78.9498144 109.232902,78.7747902 109.232902,78.7747902 C109.232902,78.7747902 109.236147,78.5284599 109.242637,78.3793652" id="Fill-18" fill="#221F20"></path>
                <rect id="Rectangle" x="0" y="0" width="150" height="150"></rect>
            </g>
        </g>
    </g>
</svg>