<svg width="150px" height="150px" viewBox="0 0 150 150" version="1.1" xmlns="http://www.w3.org/2000/svg" xmlns:xlink="http://www.w3.org/1999/xlink">
    <defs>
        <polygon id="path-1" points="120.345528 80.0516248 120.345528 0.0859930996 0.000298224534 0.0859930996 0.000298224534 80.0516248 120.345528 80.0516248"></polygon>
    </defs>
    <g id="Page-1" stroke="none" stroke-width="1" fill="none" fill-rule="evenodd">
        <g id="UTA">
            <g id="Page-1">
                <g id="Group-3" transform="translate(15.000000, 34.195417)">
                    <mask id="mask-2" fill="white">
                        <use xlink:href="#path-1"></use>
                    </mask>
                    <g id="Clip-2"></g>
                    <path d="M43.6037073,43.6474118 L62.6065746,0.0847985397 L120.345827,0.0847985397 L109.88411,24.0775342 L61.1154519,24.0775342 C58.9980577,28.9214746 48.5124831,52.9739382 47.2987093,55.7632356 L47.2987093,56.8831355 C47.2987093,66.9771666 38.7784343,80.0516248 23.6435393,80.0516248 C10.6081449,80.0516248 0.000298224534,69.423028 0.000298224534,56.3724611 C0.000298224534,43.312935 10.6081449,32.6962839 23.6435393,32.6962839 C31.8745364,32.6962839 39.5836406,37.1400467 43.6037073,43.6474118" id="Fill-1" fill="#FEFEFE" mask="url(#mask-2)"></path>
                </g>
                <path d="M16.4153736,91.622973 C16.6897402,97.4942349 19.2306132,102.753285 23.1641948,106.584836 C27.3512673,102.8817 30.0919508,97.5718813 30.3842108,91.622973 L16.4153736,91.622973 Z" id="Fill-4" fill="#0B223E"></path>
                <path d="M32.3459318,91.622973 C32.0536717,98.0735964 29.1340536,103.846307 24.6398098,107.892879 C28.2214865,110.807605 32.7336237,112.641254 37.6752042,112.856275 L37.6752042,91.622973 L32.3459318,91.622973 Z" id="Fill-6" fill="#F9A11A"></path>
                <path d="M16.4067251,89.6716594 L30.3904735,89.6716594 C30.1399649,83.6540639 27.3962992,78.2755579 23.1644931,74.5515174 C19.1951245,78.4159187 16.6453048,83.7436559 16.4067251,89.6716594" id="Fill-8" fill="#0B223E"></path>
                <path d="M24.6401081,73.243773 C29.1761032,77.3202086 32.0987036,83.1526474 32.34623,89.671958 L37.6755024,89.671958 L37.6755024,68.2714174 C32.7339219,68.4864382 28.2277492,70.3200876 24.6401081,73.243773" id="Fill-10" fill="#F9A11A"></path>
                <path d="M60.8827392,91.622973 L46.9168843,91.622973 C47.2091443,97.5718813 49.9468455,102.8817 54.133918,106.584836 C58.0734641,102.753285 60.6083726,97.4942349 60.8827392,91.622973" id="Fill-12" fill="#0B223E"></path>
                <path d="M44.9593384,91.622973 L39.6270838,91.622973 L39.6270838,112.856275 C44.565682,112.641254 49.074837,110.807605 52.6654604,107.892879 C48.1712167,103.846307 45.2486162,98.0735964 44.9593384,91.622973" id="Fill-14" fill="#2B5134"></path>
                <path d="M52.6654604,73.243773 C49.074837,70.3200876 44.565682,68.4864382 39.6270838,68.2714174 L39.6270838,89.671958 L44.9533739,89.671958 C45.2009003,83.1526474 48.1324475,77.3202086 52.6654604,73.243773" id="Fill-16" fill="#2B5134"></path>
                <path d="M78.5271937,35.6891988 L58.7549071,81.037679 C57.6007782,78.6007768 56.0380816,76.405773 54.1354091,74.5542052 C49.9065852,78.2782457 47.1599373,83.6567516 46.9124109,89.6743471 L60.8901948,89.6743471 L75.1870789,56.8657594 L116.956407,56.8657594 L126.186456,35.6891988 L78.5271937,35.6891988 Z" id="Fill-18" fill="#0B223E"></path>
                <polygon id="Fill-20" fill="#2B5134" points="123.964087 56.863669 133.197119 35.6871083 129.260555 35.6871083 120.030506 56.863669"></polygon>
                <rect id="Rectangle" x="0" y="0" width="150" height="150"></rect>
            </g>
        </g>
    </g>
</svg>